<svg viewBox="0 0 958 224" fill="none" xmlns="http://www.w3.org/2000/svg">
<mask id="mask0" mask-type="alpha" maskUnits="userSpaceOnUse" x="0" y="0" width="958" height="224">
<rect width="958" height="224" fill="white"/>
</mask>
<g mask="url(#mask0)">
<g opacity="0.47">
<path d="M944.062 152.522V158.071C944.062 160.393 939.405 162.265 933.674 162.265C927.93 162.265 923.272 160.395 923.272 158.071V152.522C923.272 154.832 927.93 156.716 933.674 156.716C939.407 156.716 944.062 154.832 944.062 152.522Z" stroke="#D6DBE7" stroke-width="1.4" stroke-miterlimit="10" stroke-linecap="round" stroke-linejoin="round"/>
<path d="M944.062 158.087V163.637C944.062 165.958 939.405 167.831 933.674 167.831C927.93 167.831 923.272 165.961 923.272 163.637V158.087C923.272 160.398 927.93 162.281 933.674 162.281C939.407 162.281 944.062 160.398 944.062 158.087Z" stroke="#D6DBE7" stroke-width="1.4" stroke-miterlimit="10" stroke-linecap="round" stroke-linejoin="round"/>
<path d="M944.062 163.654V169.204C944.062 171.525 939.405 173.398 933.674 173.398C927.93 173.398 923.272 171.528 923.272 169.204V163.654C923.272 165.965 927.93 167.848 933.674 167.848C939.407 167.848 944.062 165.965 944.062 163.654Z" stroke="#D6DBE7" stroke-width="1.4" stroke-miterlimit="10" stroke-linecap="round" stroke-linejoin="round"/>
<path d="M944.061 152.527C944.061 154.837 939.413 156.714 933.682 156.714C927.94 156.714 923.278 154.839 923.278 152.527C923.278 150.216 927.94 148.339 933.682 148.339C939.413 148.339 944.061 150.216 944.061 152.527Z" stroke="#D6DBE7" stroke-width="1.4" stroke-miterlimit="10" stroke-linecap="round" stroke-linejoin="round"/>
</g>
<line y1="-0.75" x2="116" y2="-0.75" transform="matrix(0.975816 0.218594 -0.234688 0.972071 809 136)" stroke="#D6DBE7" stroke-width="1.5" stroke-dasharray="3 3"/>
<line y1="-0.75" x2="52" y2="-0.75" transform="matrix(0.910256 -0.414046 0.440189 0.897905 811 133)" stroke="#D6DBE7" stroke-width="1.5"/>
<path d="M810.6 118.935V124.055C810.6 126.198 806.303 127.925 801.016 127.925C795.715 127.925 791.418 126.2 791.418 124.055V118.935C791.418 121.067 795.715 122.805 801.016 122.805C806.305 122.805 810.6 121.067 810.6 118.935Z" stroke="#D6DBE7" stroke-width="1.4" stroke-miterlimit="10" stroke-linecap="round" stroke-linejoin="round"/>
<path d="M810.6 124.07V129.19C810.6 131.332 806.303 133.06 801.016 133.06C795.715 133.06 791.418 131.334 791.418 129.19V124.07C791.418 126.202 795.715 127.94 801.016 127.94C806.305 127.94 810.6 126.202 810.6 124.07Z" stroke="#D6DBE7" stroke-width="1.4" stroke-miterlimit="10" stroke-linecap="round" stroke-linejoin="round"/>
<path d="M810.6 129.207V134.327C810.6 136.469 806.303 138.197 801.016 138.197C795.715 138.197 791.418 136.471 791.418 134.327V129.207C791.418 131.339 795.715 133.076 801.016 133.076C806.305 133.076 810.6 131.339 810.6 129.207Z" stroke="#D6DBE7" stroke-width="1.4" stroke-miterlimit="10" stroke-linecap="round" stroke-linejoin="round"/>
<path d="M810.598 118.939C810.598 121.071 806.309 122.803 801.022 122.803C795.723 122.803 791.422 121.073 791.422 118.939C791.422 116.808 795.723 115.076 801.022 115.076C806.309 115.076 810.598 116.808 810.598 118.939Z" stroke="#D6DBE7" stroke-width="1.4" stroke-miterlimit="10" stroke-linecap="round" stroke-linejoin="round"/>
<g opacity="0.47">
<path d="M872.463 96.7341V100.599C872.463 102.216 869.219 103.52 865.229 103.52C861.228 103.52 857.984 102.217 857.984 100.599V96.7341C857.984 98.3432 861.228 99.6549 865.229 99.6549C869.221 99.6549 872.463 98.3432 872.463 96.7341Z" stroke="#D6DBE7" stroke-width="1.4" stroke-miterlimit="10" stroke-linecap="round" stroke-linejoin="round"/>
<path d="M872.463 100.61V104.474C872.463 106.091 869.219 107.395 865.229 107.395C861.228 107.395 857.984 106.093 857.984 104.474V100.61C857.984 102.219 861.228 103.531 865.229 103.531C869.221 103.531 872.463 102.219 872.463 100.61Z" stroke="#D6DBE7" stroke-width="1.4" stroke-miterlimit="10" stroke-linecap="round" stroke-linejoin="round"/>
<path d="M872.463 104.487V108.351C872.463 109.968 869.219 111.272 865.229 111.272C861.228 111.272 857.984 109.97 857.984 108.351V104.487C857.984 106.096 861.228 107.408 865.229 107.408C869.221 107.408 872.463 106.096 872.463 104.487Z" stroke="#D6DBE7" stroke-width="1.4" stroke-miterlimit="10" stroke-linecap="round" stroke-linejoin="round"/>
<path d="M872.46 96.7374C872.46 98.3464 869.224 99.6534 865.233 99.6534C861.234 99.6534 857.987 98.348 857.987 96.7374C857.987 95.1283 861.234 93.8213 865.233 93.8213C869.224 93.8213 872.46 95.1283 872.46 96.7374Z" stroke="#D6DBE7" stroke-width="1.4" stroke-miterlimit="10" stroke-linecap="round" stroke-linejoin="round"/>
</g>
<path d="M478.963 307.105C520.033 307.105 553.327 275.035 553.327 235.474C553.327 195.914 520.033 163.844 478.963 163.844C437.894 163.844 404.6 195.914 404.6 235.474C404.6 275.035 437.894 307.105 478.963 307.105Z" stroke="#D6DBE7" stroke-miterlimit="10"/>
<path d="M478.963 282.936C506.176 282.936 528.236 261.687 528.236 235.474C528.236 209.261 506.176 188.012 478.963 188.012C451.75 188.012 429.689 209.261 429.689 235.474C429.689 261.687 451.75 282.936 478.963 282.936Z" stroke="#D6DBE7" stroke-miterlimit="10"/>
<path d="M546.979 211.161C548.899 211.161 550.455 209.662 550.455 207.812C550.455 205.963 548.899 204.464 546.979 204.464C545.059 204.464 543.502 205.963 543.502 207.812C543.502 209.662 545.059 211.161 546.979 211.161Z" fill="#D6DBE7"/>
<path d="M598.443 103.62C662.051 103.62 713.616 53.9507 713.616 -7.31959C713.616 -68.5899 662.051 -118.259 598.443 -118.259C534.835 -118.259 483.271 -68.5899 483.271 -7.31959C483.271 53.9507 534.835 103.62 598.443 103.62Z" stroke="#D6DBE7" stroke-miterlimit="10"/>
<path d="M675.858 76.2492C675.858 77.805 674.544 79.0978 672.882 79.0978C671.221 79.0978 669.906 77.805 669.906 76.2492C669.906 74.6935 671.221 73.4006 672.882 73.4006C674.544 73.4006 675.858 74.6935 675.858 76.2492Z" fill="#D6DBE7" stroke="#D6DBE7"/>
<path d="M518.366 156.783C518.366 157.535 517.728 158.176 516.901 158.176C516.074 158.176 515.436 157.535 515.436 156.783C515.436 156.032 516.074 155.391 516.901 155.391C517.728 155.391 518.366 156.032 518.366 156.783Z" fill="#D6DBE7" stroke="#D6DBE7"/>
<path d="M543.229 156.783C543.229 157.535 542.591 158.176 541.764 158.176C540.937 158.176 540.299 157.535 540.299 156.783C540.299 156.031 540.937 155.39 541.764 155.39C542.591 155.39 543.229 156.031 543.229 156.783Z" fill="#D6DBE7" stroke="#D6DBE7"/>
<path d="M530.835 156.783C530.835 157.535 530.197 158.176 529.37 158.176C528.543 158.176 527.905 157.535 527.905 156.783C527.905 156.031 528.543 155.39 529.37 155.39C530.197 155.39 530.835 156.031 530.835 156.783Z" fill="#D6DBE7" stroke="#D6DBE7"/>
<path d="M518.366 147.975C518.366 148.727 517.728 149.368 516.901 149.368C516.074 149.368 515.436 148.727 515.436 147.975C515.436 147.223 516.074 146.582 516.901 146.582C517.728 146.582 518.366 147.223 518.366 147.975Z" fill="#D6DBE7" stroke="#D6DBE7"/>
<path d="M543.229 147.975C543.229 148.726 542.591 149.367 541.764 149.367C540.937 149.367 540.299 148.726 540.299 147.975C540.299 147.223 540.937 146.582 541.764 146.582C542.591 146.582 543.229 147.223 543.229 147.975Z" fill="#D6DBE7" stroke="#D6DBE7"/>
<path d="M530.835 147.975C530.835 148.726 530.197 149.367 529.37 149.367C528.543 149.367 527.905 148.726 527.905 147.975C527.905 147.223 528.543 146.582 529.37 146.582C530.197 146.582 530.835 147.223 530.835 147.975Z" fill="#D6DBE7" stroke="#D6DBE7"/>
<path d="M543.229 139.094C543.229 139.846 542.591 140.487 541.764 140.487C540.937 140.487 540.299 139.846 540.299 139.094C540.299 138.342 540.937 137.701 541.764 137.701C542.591 137.701 543.229 138.342 543.229 139.094Z" fill="#D6DBE7" stroke="#D6DBE7"/>
<path d="M530.835 139.094C530.835 139.846 530.197 140.487 529.37 140.487C528.543 140.487 527.905 139.846 527.905 139.094C527.905 138.342 528.543 137.701 529.37 137.701C530.197 137.701 530.835 138.342 530.835 139.094Z" fill="#D6DBE7" stroke="#D6DBE7"/>
<path d="M518.366 139.094C518.366 139.846 517.728 140.487 516.901 140.487C516.074 140.487 515.436 139.846 515.436 139.094C515.436 138.342 516.074 137.701 516.901 137.701C517.728 137.701 518.366 138.342 518.366 139.094Z" fill="#D6DBE7" stroke="#D6DBE7"/>
<path d="M518.366 130.286C518.366 131.038 517.728 131.679 516.901 131.679C516.074 131.679 515.436 131.038 515.436 130.286C515.436 129.534 516.074 128.893 516.901 128.893C517.728 128.893 518.366 129.534 518.366 130.286Z" fill="#D6DBE7" stroke="#D6DBE7"/>
<path d="M543.229 130.286C543.229 131.037 542.591 131.678 541.764 131.678C540.937 131.678 540.299 131.037 540.299 130.286C540.299 129.534 540.937 128.893 541.764 128.893C542.591 128.893 543.229 129.534 543.229 130.286Z" fill="#D6DBE7" stroke="#D6DBE7"/>
<path d="M530.835 130.286C530.835 131.037 530.197 131.678 529.37 131.678C528.543 131.678 527.905 131.037 527.905 130.286C527.905 129.534 528.543 128.893 529.37 128.893C530.197 128.893 530.835 129.534 530.835 130.286Z" fill="#D6DBE7" stroke="#D6DBE7"/>
<path d="M530.835 121.477C530.835 122.229 530.197 122.87 529.37 122.87C528.543 122.87 527.905 122.229 527.905 121.477C527.905 120.726 528.543 120.085 529.37 120.085C530.197 120.085 530.835 120.726 530.835 121.477Z" fill="#D6DBE7" stroke="#D6DBE7"/>
<path d="M555.699 121.477C555.699 122.229 555.061 122.87 554.234 122.87C553.407 122.87 552.769 122.229 552.769 121.477C552.769 120.726 553.407 120.085 554.234 120.085C555.061 120.085 555.699 120.726 555.699 121.477Z" fill="#D6DBE7" stroke="#D6DBE7"/>
<path d="M543.23 121.477C543.23 122.229 542.592 122.87 541.765 122.87C540.938 122.87 540.3 122.229 540.3 121.477C540.3 120.726 540.938 120.085 541.765 120.085C542.592 120.085 543.23 120.726 543.23 121.477Z" fill="#D6DBE7" stroke="#D6DBE7"/>
<path d="M530.835 110.121C530.835 110.873 530.197 111.514 529.37 111.514C528.543 111.514 527.905 110.873 527.905 110.121C527.905 109.37 528.543 108.729 529.37 108.729C530.197 108.729 530.835 109.37 530.835 110.121Z" fill="#D6DBE7" stroke="#D6DBE7"/>
<path d="M555.699 110.121C555.699 110.873 555.061 111.514 554.234 111.514C553.407 111.514 552.769 110.873 552.769 110.121C552.769 109.37 553.407 108.729 554.234 108.729C555.061 108.729 555.699 109.37 555.699 110.121Z" fill="#D6DBE7" stroke="#D6DBE7"/>
<path d="M543.23 110.121C543.23 110.873 542.592 111.514 541.765 111.514C540.938 111.514 540.3 110.873 540.3 110.121C540.3 109.37 540.938 108.729 541.765 108.729C542.592 108.729 543.23 109.37 543.23 110.121Z" fill="#D6DBE7" stroke="#D6DBE7"/>
<path d="M530.835 98.8382C530.835 99.5899 530.197 100.231 529.37 100.231C528.543 100.231 527.905 99.5899 527.905 98.8382C527.905 98.0866 528.543 97.4456 529.37 97.4456C530.197 97.4456 530.835 98.0866 530.835 98.8382Z" fill="#D6DBE7" stroke="#D6DBE7"/>
<path d="M555.699 98.838C555.699 99.5896 555.061 100.231 554.234 100.231C553.407 100.231 552.769 99.5896 552.769 98.838C552.769 98.0863 553.407 97.4453 554.234 97.4453C555.061 97.4453 555.699 98.0863 555.699 98.838Z" fill="#D6DBE7" stroke="#D6DBE7"/>
<path d="M543.23 98.838C543.23 99.5896 542.592 100.231 541.765 100.231C540.938 100.231 540.3 99.5896 540.3 98.838C540.3 98.0863 540.938 97.4453 541.765 97.4453C542.592 97.4453 543.23 98.0863 543.23 98.838Z" fill="#D6DBE7" stroke="#D6DBE7"/>
<path d="M530.835 87.482C530.835 88.2337 530.197 88.8747 529.37 88.8747C528.543 88.8747 527.905 88.2337 527.905 87.482C527.905 86.7304 528.543 86.0894 529.37 86.0894C530.197 86.0894 530.835 86.7304 530.835 87.482Z" fill="#D6DBE7" stroke="#D6DBE7"/>
<path d="M555.699 87.482C555.699 88.2337 555.061 88.8747 554.234 88.8747C553.407 88.8747 552.769 88.2337 552.769 87.482C552.769 86.7304 553.407 86.0894 554.234 86.0894C555.061 86.0894 555.699 86.7304 555.699 87.482Z" fill="#D6DBE7" stroke="#D6DBE7"/>
<path d="M543.23 87.482C543.23 88.2337 542.592 88.8747 541.765 88.8747C540.938 88.8747 540.3 88.2337 540.3 87.482C540.3 86.7304 540.938 86.0894 541.765 86.0894C542.592 86.0894 543.23 86.7304 543.23 87.482Z" fill="#D6DBE7" stroke="#D6DBE7"/>
<path d="M530.835 76.1263C530.835 76.878 530.197 77.519 529.37 77.519C528.543 77.519 527.905 76.878 527.905 76.1263C527.905 75.3746 528.543 74.7336 529.37 74.7336C530.197 74.7336 530.835 75.3746 530.835 76.1263Z" fill="#D6DBE7" stroke="#D6DBE7"/>
<path d="M555.699 76.1261C555.699 76.8777 555.061 77.5187 554.234 77.5187C553.407 77.5187 552.769 76.8777 552.769 76.1261C552.769 75.3744 553.407 74.7334 554.234 74.7334C555.061 74.7334 555.699 75.3744 555.699 76.1261Z" fill="#D6DBE7" stroke="#D6DBE7"/>
<path d="M543.23 76.1261C543.23 76.8777 542.592 77.5187 541.765 77.5187C540.938 77.5187 540.3 76.8777 540.3 76.1261C540.3 75.3744 540.938 74.7334 541.765 74.7334C542.592 74.7334 543.23 75.3744 543.23 76.1261Z" fill="#D6DBE7" stroke="#D6DBE7"/>
<path d="M530.835 64.7701C530.835 65.5218 530.197 66.1628 529.37 66.1628C528.543 66.1628 527.905 65.5218 527.905 64.7701C527.905 64.0184 528.543 63.3774 529.37 63.3774C530.197 63.3774 530.835 64.0184 530.835 64.7701Z" fill="#D6DBE7" stroke="#D6DBE7"/>
<path d="M555.699 64.7701C555.699 65.5218 555.061 66.1628 554.234 66.1628C553.407 66.1628 552.769 65.5218 552.769 64.7701C552.769 64.0184 553.407 63.3774 554.234 63.3774C555.061 63.3774 555.699 64.0184 555.699 64.7701Z" fill="#D6DBE7" stroke="#D6DBE7"/>
<path d="M543.23 64.7701C543.23 65.5218 542.592 66.1628 541.765 66.1628C540.938 66.1628 540.3 65.5218 540.3 64.7701C540.3 64.0184 540.938 63.3774 541.765 63.3774C542.592 63.3774 543.23 64.0184 543.23 64.7701Z" fill="#D6DBE7" stroke="#D6DBE7"/>
<path d="M831.14 225.872C831.14 226.624 830.502 227.265 829.675 227.265C828.848 227.265 828.21 226.624 828.21 225.872C828.21 225.121 828.848 224.48 829.675 224.48C830.502 224.48 831.14 225.121 831.14 225.872Z" fill="#D6DBE7" stroke="#D6DBE7"/>
<path d="M856.003 225.872C856.003 226.624 855.365 227.265 854.539 227.265C853.712 227.265 853.074 226.624 853.074 225.872C853.074 225.121 853.712 224.48 854.539 224.48C855.365 224.48 856.003 225.121 856.003 225.872Z" fill="#D6DBE7" stroke="#D6DBE7"/>
<path d="M843.61 225.872C843.61 226.624 842.972 227.265 842.145 227.265C841.318 227.265 840.68 226.624 840.68 225.872C840.68 225.121 841.318 224.48 842.145 224.48C842.972 224.48 843.61 225.121 843.61 225.872Z" fill="#D6DBE7" stroke="#D6DBE7"/>
<path d="M856.003 214.516C856.003 215.268 855.365 215.909 854.539 215.909C853.712 215.909 853.074 215.268 853.074 214.516C853.074 213.765 853.712 213.124 854.539 213.124C855.365 213.124 856.003 213.765 856.003 214.516Z" fill="#D6DBE7" stroke="#D6DBE7"/>
<path d="M843.61 214.516C843.61 215.268 842.972 215.909 842.145 215.909C841.318 215.909 840.68 215.268 840.68 214.516C840.68 213.765 841.318 213.124 842.145 213.124C842.972 213.124 843.61 213.765 843.61 214.516Z" fill="#D6DBE7" stroke="#D6DBE7"/>
<path d="M831.14 214.516C831.14 215.268 830.502 215.909 829.675 215.909C828.848 215.909 828.21 215.268 828.21 214.516C828.21 213.765 828.848 213.124 829.675 213.124C830.502 213.124 831.14 213.765 831.14 214.516Z" fill="#D6DBE7" stroke="#D6DBE7"/>
<path d="M831.14 203.16C831.14 203.912 830.502 204.553 829.675 204.553C828.848 204.553 828.21 203.912 828.21 203.16C828.21 202.408 828.848 201.767 829.675 201.767C830.502 201.767 831.14 202.408 831.14 203.16Z" fill="#D6DBE7" stroke="#D6DBE7"/>
<path d="M856.003 203.16C856.003 203.912 855.365 204.553 854.539 204.553C853.712 204.553 853.074 203.912 853.074 203.16C853.074 202.408 853.712 201.767 854.539 201.767C855.365 201.767 856.003 202.408 856.003 203.16Z" fill="#D6DBE7" stroke="#D6DBE7"/>
<path d="M843.61 203.16C843.61 203.912 842.972 204.553 842.145 204.553C841.318 204.553 840.68 203.912 840.68 203.16C840.68 202.408 841.318 201.767 842.145 201.767C842.972 201.767 843.61 202.408 843.61 203.16Z" fill="#D6DBE7" stroke="#D6DBE7"/>
<path d="M831.14 191.877C831.14 192.629 830.502 193.27 829.675 193.27C828.848 193.27 828.21 192.629 828.21 191.877C828.21 191.125 828.848 190.484 829.675 190.484C830.502 190.484 831.14 191.125 831.14 191.877Z" fill="#D6DBE7" stroke="#D6DBE7"/>
<path d="M856.003 191.877C856.003 192.629 855.365 193.27 854.539 193.27C853.712 193.27 853.074 192.629 853.074 191.877C853.074 191.125 853.712 190.484 854.539 190.484C855.365 190.484 856.003 191.125 856.003 191.877Z" fill="#D6DBE7" stroke="#D6DBE7"/>
<path d="M843.61 191.877C843.61 192.629 842.972 193.27 842.145 193.27C841.318 193.27 840.68 192.629 840.68 191.877C840.68 191.125 841.318 190.484 842.145 190.484C842.972 190.484 843.61 191.125 843.61 191.877Z" fill="#D6DBE7" stroke="#D6DBE7"/>
<path d="M843.609 182.996C843.609 183.748 842.971 184.389 842.145 184.389C841.318 184.389 840.68 183.748 840.68 182.996C840.68 182.244 841.318 181.604 842.145 181.604C842.971 181.604 843.609 182.244 843.609 182.996Z" fill="#D6DBE7" stroke="#D6DBE7"/>
<path d="M868.472 182.996C868.472 183.748 867.834 184.389 867.007 184.389C866.181 184.389 865.542 183.748 865.542 182.996C865.542 182.244 866.181 181.603 867.007 181.603C867.834 181.603 868.472 182.244 868.472 182.996Z" fill="#D6DBE7" stroke="#D6DBE7"/>
<path d="M856.002 182.996C856.002 183.748 855.364 184.389 854.538 184.389C853.711 184.389 853.073 183.748 853.073 182.996C853.073 182.244 853.711 181.603 854.538 181.603C855.364 181.603 856.002 182.244 856.002 182.996Z" fill="#D6DBE7" stroke="#D6DBE7"/>
<path d="M868.472 174.188C868.472 174.939 867.834 175.58 867.007 175.58C866.181 175.58 865.542 174.939 865.542 174.188C865.542 173.436 866.181 172.795 867.007 172.795C867.834 172.795 868.472 173.436 868.472 174.188Z" fill="#D6DBE7" stroke="#D6DBE7"/>
<path d="M856.002 174.188C856.002 174.939 855.364 175.58 854.538 175.58C853.711 175.58 853.073 174.939 853.073 174.188C853.073 173.436 853.711 172.795 854.538 172.795C855.364 172.795 856.002 173.436 856.002 174.188Z" fill="#D6DBE7" stroke="#D6DBE7"/>
<path d="M843.609 174.188C843.609 174.939 842.971 175.58 842.145 175.58C841.318 175.58 840.68 174.939 840.68 174.188C840.68 173.436 841.318 172.795 842.145 172.795C842.971 172.795 843.609 173.436 843.609 174.188Z" fill="#D6DBE7" stroke="#D6DBE7"/>
<path d="M843.609 165.38C843.609 166.131 842.971 166.772 842.145 166.772C841.318 166.772 840.68 166.131 840.68 165.38C840.68 164.628 841.318 163.987 842.145 163.987C842.971 163.987 843.609 164.628 843.609 165.38Z" fill="#D6DBE7" stroke="#D6DBE7"/>
<path d="M856.002 165.379C856.002 166.131 855.364 166.772 854.538 166.772C853.711 166.772 853.073 166.131 853.073 165.379C853.073 164.628 853.711 163.987 854.538 163.987C855.364 163.987 856.002 164.628 856.002 165.379Z" fill="#D6DBE7" stroke="#D6DBE7"/>
<path d="M843.609 156.571C843.609 157.323 842.971 157.964 842.145 157.964C841.318 157.964 840.68 157.323 840.68 156.571C840.68 155.82 841.318 155.179 842.145 155.179C842.971 155.179 843.609 155.82 843.609 156.571Z" fill="#D6DBE7" stroke="#D6DBE7"/>
<path d="M856.002 156.571C856.002 157.323 855.364 157.964 854.538 157.964C853.711 157.964 853.073 157.323 853.073 156.571C853.073 155.82 853.711 155.179 854.538 155.179C855.364 155.179 856.002 155.82 856.002 156.571Z" fill="#D6DBE7" stroke="#D6DBE7"/>
<path d="M775.721 101.433C839.329 101.433 890.894 51.7637 890.894 -9.5066C890.894 -70.7769 839.329 -120.446 775.721 -120.446C712.113 -120.446 660.549 -70.7769 660.549 -9.5066C660.549 51.7637 712.113 101.433 775.721 101.433Z" stroke="#D6DBE7" stroke-width="2" stroke-miterlimit="10"/>
<path d="M736.371 169.024C736.371 169.776 735.733 170.417 734.906 170.417C734.079 170.417 733.441 169.776 733.441 169.024C733.441 168.273 734.079 167.632 734.906 167.632C735.733 167.632 736.371 168.273 736.371 169.024Z" fill="#D6DBE7" stroke="#D6DBE7"/>
<path d="M761.235 169.024C761.235 169.775 760.597 170.416 759.77 170.416C758.943 170.416 758.305 169.775 758.305 169.024C758.305 168.272 758.943 167.631 759.77 167.631C760.597 167.631 761.235 168.272 761.235 169.024Z" fill="#D6DBE7" stroke="#D6DBE7"/>
<path d="M748.841 169.024C748.841 169.775 748.203 170.416 747.376 170.416C746.55 170.416 745.912 169.775 745.912 169.024C745.912 168.272 746.55 167.631 747.376 167.631C748.203 167.631 748.841 168.272 748.841 169.024Z" fill="#D6DBE7" stroke="#D6DBE7"/>
<path d="M736.371 157.741C736.371 158.493 735.733 159.134 734.906 159.134C734.079 159.134 733.441 158.493 733.441 157.741C733.441 156.989 734.079 156.348 734.906 156.348C735.733 156.348 736.371 156.989 736.371 157.741Z" fill="#D6DBE7" stroke="#D6DBE7"/>
<path d="M761.235 157.741C761.235 158.492 760.597 159.133 759.77 159.133C758.943 159.133 758.305 158.492 758.305 157.741C758.305 156.989 758.943 156.348 759.77 156.348C760.597 156.348 761.235 156.989 761.235 157.741Z" fill="#D6DBE7" stroke="#D6DBE7"/>
<path d="M748.841 157.741C748.841 158.492 748.203 159.133 747.376 159.133C746.55 159.133 745.912 158.492 745.912 157.741C745.912 156.989 746.55 156.348 747.376 156.348C748.203 156.348 748.841 156.989 748.841 157.741Z" fill="#D6DBE7" stroke="#D6DBE7"/>
<path d="M736.371 146.385C736.371 147.137 735.733 147.778 734.906 147.778C734.079 147.778 733.441 147.137 733.441 146.385C733.441 145.634 734.079 144.993 734.906 144.993C735.733 144.993 736.371 145.634 736.371 146.385Z" fill="#D6DBE7" stroke="#D6DBE7"/>
<path d="M761.235 146.385C761.235 147.137 760.597 147.778 759.77 147.778C758.943 147.778 758.305 147.137 758.305 146.385C758.305 145.633 758.943 144.992 759.77 144.992C760.597 144.992 761.235 145.633 761.235 146.385Z" fill="#D6DBE7" stroke="#D6DBE7"/>
<path d="M748.841 146.385C748.841 147.137 748.203 147.778 747.376 147.778C746.55 147.778 745.912 147.137 745.912 146.385C745.912 145.633 746.55 144.992 747.376 144.992C748.203 144.992 748.841 145.633 748.841 146.385Z" fill="#D6DBE7" stroke="#D6DBE7"/>
<path d="M736.371 135.029C736.371 135.781 735.733 136.422 734.906 136.422C734.079 136.422 733.441 135.781 733.441 135.029C733.441 134.277 734.079 133.636 734.906 133.636C735.733 133.636 736.371 134.277 736.371 135.029Z" fill="#D6DBE7" stroke="#D6DBE7"/>
<path d="M761.235 135.029C761.235 135.78 760.597 136.421 759.77 136.421C758.943 136.421 758.305 135.78 758.305 135.029C758.305 134.277 758.943 133.636 759.77 133.636C760.597 133.636 761.235 134.277 761.235 135.029Z" fill="#D6DBE7" stroke="#D6DBE7"/>
<path d="M748.841 135.029C748.841 135.78 748.203 136.421 747.376 136.421C746.55 136.421 745.912 135.78 745.912 135.029C745.912 134.277 746.55 133.636 747.376 133.636C748.203 133.636 748.841 134.277 748.841 135.029Z" fill="#D6DBE7" stroke="#D6DBE7"/>
<path d="M761.235 123.672C761.235 124.424 760.597 125.065 759.77 125.065C758.943 125.065 758.305 124.424 758.305 123.672C758.305 122.921 758.943 122.28 759.77 122.28C760.597 122.28 761.235 122.921 761.235 123.672Z" fill="#D6DBE7" stroke="#D6DBE7"/>
<path d="M748.841 123.672C748.841 124.424 748.203 125.065 747.376 125.065C746.55 125.065 745.912 124.424 745.912 123.672C745.912 122.921 746.55 122.28 747.376 122.28C748.203 122.28 748.841 122.921 748.841 123.672Z" fill="#D6DBE7" stroke="#D6DBE7"/>
<path d="M736.371 123.672C736.371 124.424 735.733 125.065 734.906 125.065C734.079 125.065 733.441 124.424 733.441 123.672C733.441 122.921 734.079 122.28 734.906 122.28C735.733 122.28 736.371 122.921 736.371 123.672Z" fill="#D6DBE7" stroke="#D6DBE7"/>
<path d="M736.371 112.39C736.371 113.142 735.733 113.783 734.906 113.783C734.079 113.783 733.441 113.142 733.441 112.39C733.441 111.638 734.079 110.997 734.906 110.997C735.733 110.997 736.371 111.638 736.371 112.39Z" fill="#D6DBE7" stroke="#D6DBE7"/>
<path d="M761.235 112.39C761.235 113.141 760.597 113.782 759.77 113.782C758.943 113.782 758.305 113.141 758.305 112.39C758.305 111.638 758.943 110.997 759.77 110.997C760.597 110.997 761.235 111.638 761.235 112.39Z" fill="#D6DBE7" stroke="#D6DBE7"/>
<path d="M748.841 112.39C748.841 113.141 748.203 113.782 747.376 113.782C746.55 113.782 745.912 113.141 745.912 112.39C745.912 111.638 746.55 110.997 747.376 110.997C748.203 110.997 748.841 111.638 748.841 112.39Z" fill="#D6DBE7" stroke="#D6DBE7"/>
<path d="M748.841 103.508C748.841 104.26 748.203 104.901 747.376 104.901C746.549 104.901 745.911 104.26 745.911 103.508C745.911 102.757 746.549 102.116 747.376 102.116C748.203 102.116 748.841 102.757 748.841 103.508Z" fill="#D6DBE7" stroke="#D6DBE7"/>
<path d="M773.703 103.508C773.703 104.26 773.065 104.901 772.238 104.901C771.411 104.901 770.773 104.26 770.773 103.508C770.773 102.757 771.411 102.116 772.238 102.116C773.065 102.116 773.703 102.757 773.703 103.508Z" fill="#D6DBE7" stroke="#D6DBE7"/>
<path d="M761.234 103.508C761.234 104.26 760.596 104.901 759.769 104.901C758.942 104.901 758.304 104.26 758.304 103.508C758.304 102.757 758.942 102.116 759.769 102.116C760.596 102.116 761.234 102.757 761.234 103.508Z" fill="#D6DBE7" stroke="#D6DBE7"/>
<path d="M748.841 94.7003C748.841 95.452 748.203 96.0929 747.376 96.0929C746.549 96.0929 745.911 95.452 745.911 94.7003C745.911 93.9486 746.549 93.3076 747.376 93.3076C748.203 93.3076 748.841 93.9486 748.841 94.7003Z" fill="#D6DBE7" stroke="#D6DBE7"/>
<path d="M773.703 94.7003C773.703 95.452 773.065 96.0929 772.238 96.0929C771.411 96.0929 770.773 95.452 770.773 94.7003C770.773 93.9486 771.411 93.3076 772.238 93.3076C773.065 93.3076 773.703 93.9486 773.703 94.7003Z" fill="#D6DBE7" stroke="#D6DBE7"/>
<path d="M761.234 94.7003C761.234 95.452 760.596 96.0929 759.769 96.0929C758.942 96.0929 758.304 95.452 758.304 94.7003C758.304 93.9486 758.942 93.3076 759.769 93.3076C760.596 93.3076 761.234 93.9486 761.234 94.7003Z" fill="#D6DBE7" stroke="#D6DBE7"/>
<path d="M748.841 85.8917C748.841 86.6434 748.203 87.2844 747.376 87.2844C746.549 87.2844 745.911 86.6434 745.911 85.8917C745.911 85.14 746.549 84.499 747.376 84.499C748.203 84.499 748.841 85.14 748.841 85.8917Z" fill="#D6DBE7" stroke="#D6DBE7"/>
<path d="M773.703 85.8917C773.703 86.6434 773.065 87.2844 772.238 87.2844C771.411 87.2844 770.773 86.6434 770.773 85.8917C770.773 85.14 771.411 84.499 772.238 84.499C773.065 84.499 773.703 85.14 773.703 85.8917Z" fill="#D6DBE7" stroke="#D6DBE7"/>
<path d="M761.234 85.8917C761.234 86.6434 760.596 87.2844 759.769 87.2844C758.942 87.2844 758.304 86.6434 758.304 85.8917C758.304 85.14 758.942 84.499 759.769 84.499C760.596 84.499 761.234 85.14 761.234 85.8917Z" fill="#D6DBE7" stroke="#D6DBE7"/>
<path d="M748.841 77.0838C748.841 77.8355 748.203 78.4765 747.376 78.4765C746.549 78.4765 745.911 77.8355 745.911 77.0838C745.911 76.3322 746.549 75.6912 747.376 75.6912C748.203 75.6912 748.841 76.3322 748.841 77.0838Z" fill="#D6DBE7" stroke="#D6DBE7"/>
<path d="M773.703 77.0838C773.703 77.8355 773.065 78.4765 772.238 78.4765C771.411 78.4765 770.773 77.8355 770.773 77.0838C770.773 76.3322 771.411 75.6912 772.238 75.6912C773.065 75.6912 773.703 76.3322 773.703 77.0838Z" fill="#D6DBE7" stroke="#D6DBE7"/>
<path d="M761.234 77.0838C761.234 77.8355 760.596 78.4765 759.769 78.4765C758.942 78.4765 758.304 77.8355 758.304 77.0838C758.304 76.3322 758.942 75.6912 759.769 75.6912C760.596 75.6912 761.234 76.3322 761.234 77.0838Z" fill="#D6DBE7" stroke="#D6DBE7"/>
</g>
</svg>
