<svg width="16" height="16" viewBox="0 0 16 16" fill="none" xmlns="http://www.w3.org/2000/svg">
<path d="M12.9454 16H0.750399C0.335999 16 0 15.664 0 15.2496V3.05382C0 2.6394 0.335999 2.30339 0.750399 2.30339H6.84799C7.26239 2.30339 7.59839 2.6394 7.59839 3.05382C7.59839 3.46824 7.26239 3.80425 6.84799 3.80425H1.5008V14.4988H12.1948V9.15169C12.1948 8.73727 12.5308 8.40126 12.9452 8.40126C13.3596 8.40126 13.6956 8.73727 13.6956 9.15169V15.2496C13.6958 15.6638 13.3598 16 12.9454 16Z" fill="#475872"/>
<path d="M16 0.750434V4.63239C16 5.04521 15.6622 5.38282 15.2496 5.38282C14.835 5.38282 14.4992 5.04503 14.4992 4.63239V2.561L9.25708 7.80497C9.11077 7.95129 8.91752 8.02454 8.72606 8.02454C8.53281 8.02454 8.34152 7.95129 8.19503 7.80497C7.90241 7.51038 7.90241 7.0357 8.19503 6.74306L13.437 1.50087H11.3677C10.9531 1.50087 10.6173 1.16503 10.6173 0.750434C10.6173 0.335837 10.9531 0 11.3677 0H15.2475C15.3262 0 15.4032 0.0112005 15.4782 0.0357349C15.4988 0.0432019 15.5195 0.0506689 15.5401 0.0600916C15.5589 0.0675586 15.5776 0.0750256 15.5964 0.0864039C15.619 0.0976044 15.6396 0.108983 15.6603 0.123917C15.6809 0.137073 15.7015 0.152007 15.7221 0.168896C15.741 0.18383 15.7596 0.20072 15.7785 0.219565C15.7954 0.236455 15.8123 0.2553 15.8292 0.273968C15.8798 0.337793 15.9211 0.407129 15.9492 0.482155C15.9566 0.501 15.9641 0.519668 15.968 0.536557C15.9886 0.60785 16 0.679142 16 0.750434Z" fill="#475872"/>
</svg>