<svg width="17" height="17" viewBox="0 0 17 17" fill="none" xmlns="http://www.w3.org/2000/svg">
<path fill-rule="evenodd" clip-rule="evenodd" d="M7.85486 2.46066C8.04444 2.44163 8.2679 2.41919 8.49987 2.41919C10.7948 2.41919 12.8151 3.67099 14.2265 4.97091C14.9392 5.62726 15.5194 6.31628 15.9261 6.90979C16.129 7.20604 16.2948 7.4873 16.4125 7.73623C16.5187 7.9608 16.6249 8.23794 16.6249 8.49873C16.6249 8.67858 16.5753 8.85483 16.5233 8.99739C16.4677 9.15008 16.3907 9.31365 16.2994 9.48156C16.1164 9.818 15.8571 10.2061 15.5378 10.6117C15.3243 10.8829 14.9313 10.9297 14.6601 10.7162C14.3889 10.5027 14.3421 10.1097 14.5556 9.8385C14.8417 9.47504 15.059 9.14583 15.2013 8.88432C15.2726 8.75325 15.3203 8.64768 15.3488 8.56948C15.3613 8.53526 15.368 8.51184 15.3716 8.49796C15.3648 8.47381 15.3444 8.40159 15.2825 8.2706C15.2004 8.09698 15.0714 7.874 14.8949 7.61628C14.5424 7.10186 14.0243 6.48404 13.3797 5.89037C12.0767 4.69023 10.347 3.66919 8.49987 3.66919C8.33581 3.66919 8.16971 3.68534 7.96772 3.70561C7.62427 3.74008 7.31791 3.48959 7.28344 3.14614C7.24898 2.80268 7.49946 2.49632 7.84292 2.46186C7.84688 2.46146 7.85086 2.46106 7.85486 2.46066Z" fill="#0788FF"/>
<path fill-rule="evenodd" clip-rule="evenodd" d="M2.33885 6.28233C2.61009 6.49581 2.65692 6.88876 2.44344 7.16001C2.15779 7.52294 1.94085 7.85206 1.79885 8.11354C1.72768 8.2446 1.67996 8.35021 1.6515 8.42843C1.63905 8.46264 1.63234 8.48606 1.6288 8.49995C1.63553 8.52413 1.65596 8.59634 1.71788 8.72728C1.79998 8.9009 1.92892 9.12388 2.10549 9.3816C2.45792 9.89602 2.97603 10.5138 3.62063 11.1075C4.9237 12.3077 6.65338 13.3287 8.50049 13.3287C8.66308 13.3287 8.82913 13.3126 9.03037 13.2923C9.37381 13.2577 9.68026 13.5081 9.71484 13.8515C9.74943 14.195 9.49905 14.5014 9.15561 14.536L9.14518 14.5371C8.95587 14.5561 8.73182 14.5787 8.50049 14.5787C6.20555 14.5787 4.18523 13.3269 2.77381 12.027C2.06117 11.3706 1.48091 10.6816 1.07429 10.0881C0.871324 9.79184 0.705568 9.51058 0.587854 9.26165C0.481661 9.03708 0.375488 8.75994 0.375488 8.49915C0.375488 8.31955 0.425023 8.14344 0.476829 8.00105C0.532339 7.84848 0.609177 7.68494 0.700367 7.51702C0.883084 7.18055 1.14205 6.79239 1.46118 6.38692C1.67466 6.11568 2.0676 6.06885 2.33885 6.28233Z" fill="#0788FF"/>
<path fill-rule="evenodd" clip-rule="evenodd" d="M0.558058 0.558058C0.802136 0.313981 1.19786 0.313981 1.44194 0.558058L16.4419 15.5581C16.686 15.8021 16.686 16.1979 16.4419 16.4419C16.1979 16.686 15.8021 16.686 15.5581 16.4419L0.558058 1.44194C0.313981 1.19786 0.313981 0.802136 0.558058 0.558058Z" fill="#0788FF"/>
</svg>
