<svg width="20" height="15" viewBox="0 0 20 15" fill="none" xmlns="http://www.w3.org/2000/svg">
<path fill-rule="evenodd" clip-rule="evenodd" d="M3.12831 3.31205C4.82208 1.75218 7.24647 0.25 10 0.25C12.7535 0.25 15.1779 1.75218 16.8717 3.31205C17.7269 4.09966 18.4233 4.92647 18.9113 5.63868C19.1549 5.99418 19.3538 6.33169 19.4951 6.63041C19.6226 6.89988 19.75 7.23247 19.75 7.54545C19.75 7.85844 19.6226 8.19103 19.4951 8.4605C19.3538 8.75922 19.1549 9.09673 18.9113 9.45222C18.4233 10.1644 17.7269 10.9912 16.8717 11.7789C15.1779 13.3387 12.7535 14.8409 10 14.8409C7.24647 14.8409 4.82208 13.3387 3.12831 11.7789C2.27309 10.9912 1.57671 10.1644 1.0887 9.45222C0.845114 9.09673 0.646176 8.75922 0.504894 8.4605C0.377444 8.19103 0.25 7.85844 0.25 7.54545C0.25 7.23247 0.377444 6.89988 0.504894 6.63041C0.646176 6.33169 0.845114 5.99418 1.0887 5.63868C1.57671 4.92647 2.27309 4.09966 3.12831 3.31205ZM1.75371 7.54545C1.76152 7.5735 1.78575 7.66032 1.86088 7.81917C1.95942 8.02752 2.11418 8.2951 2.32609 8.60436C2.74907 9.22167 3.37088 9.96306 4.14446 10.6755C5.70828 12.1157 7.78389 13.3409 10 13.3409C12.2161 13.3409 14.2917 12.1157 15.8555 10.6755C16.6291 9.96306 17.2509 9.22167 17.6739 8.60436C17.8858 8.2951 18.0406 8.02752 18.1391 7.81917C18.2143 7.66032 18.2385 7.5735 18.2463 7.54545C18.2385 7.5174 18.2143 7.43058 18.1391 7.27174C18.0406 7.06339 17.8858 6.79581 17.6739 6.48655C17.2509 5.86923 16.6291 5.12785 15.8555 4.41543C14.2917 2.97523 12.2161 1.75 10 1.75C7.78389 1.75 5.70828 2.97523 4.14446 4.41543C3.37088 5.12785 2.74907 5.86923 2.32609 6.48655C2.11418 6.79581 1.95942 7.06339 1.86088 7.27174C1.78575 7.43058 1.76152 7.5174 1.75371 7.54545Z" fill="#7E89A9"/>
<path fill-rule="evenodd" clip-rule="evenodd" d="M9.99996 5.84094C9.05844 5.84094 8.29541 6.60397 8.29541 7.54549C8.29541 8.487 9.05844 9.25003 9.99996 9.25003C10.9415 9.25003 11.7045 8.487 11.7045 7.54549C11.7045 6.60397 10.9415 5.84094 9.99996 5.84094ZM6.79541 7.54549C6.79541 5.77555 8.23001 4.34094 9.99996 4.34094C11.7699 4.34094 13.2045 5.77555 13.2045 7.54549C13.2045 9.31543 11.7699 10.75 9.99996 10.75C8.23001 10.75 6.79541 9.31543 6.79541 7.54549Z" fill="#7E89A9"/>
</svg>
