<svg width="26" height="28" viewBox="0 0 26 28" version="1.1" xmlns="http://www.w3.org/2000/svg"
     xmlns:xlink="http://www.w3.org/1999/xlink">
  <title>ic-multi-node</title>
  <desc>Created using Figma</desc>
  <g id="Canvas" transform="translate(1765 225)">
    <g id="ic-multi-node">
      <g id="Group 2">
        <g id="Combined Shape">
          <use xlink:href="#path0_fill" transform="matrix(-1 0 0 1 -1743.8 -224)"
               fill="#3A7DE1"/>
          <mask id="mask0_outline_out">
            <rect id="mask0_outline_inv" fill="white" x="-1" y="-1" width="17"
                  height="19" transform="matrix(-1 0 0 1 -1743.8 -224)"/>
            <use xlink:href="#path0_fill" fill="black"
                 transform="matrix(-1 0 0 1 -1743.8 -224)"/>
          </mask>
          <g mask="url(#mask0_outline_out)">
            <use xlink:href="#path1_stroke_2x" transform="matrix(-1 0 0 1 -1743.8 -224)"
                 fill="#FFFFFF"/>
          </g>
        </g>
        <g id="Oval 4 (Stroke).1">
          <use xlink:href="#path2_fill" transform="matrix(-1 0 0 1 -1742.77 -219.867)"
               fill="#FFFFFF"/>
        </g>
        <g id="Oval 4 Copy (Stroke).1">
          <use xlink:href="#path2_fill" transform="matrix(-1 0 0 1 -1742.77 -214.867)"
               fill="#FFFFFF"/>
        </g>
      </g>
      <g id="Group 2">
        <g id="Combined Shape">
          <use xlink:href="#path3_fill" transform="matrix(-1 0 0 1 -1749.8 -219)"
               fill="#3A7DE1"/>
          <mask id="mask1_outline_out">
            <rect id="mask1_outline_inv" fill="white" x="-1" y="-1" width="17"
                  height="19" transform="matrix(-1 0 0 1 -1749.8 -219)"/>
            <use xlink:href="#path3_fill" fill="black"
                 transform="matrix(-1 0 0 1 -1749.8 -219)"/>
          </mask>
          <g mask="url(#mask1_outline_out)">
            <use xlink:href="#path4_stroke_2x" transform="matrix(-1 0 0 1 -1749.8 -219)"
                 fill="#FFFFFF"/>
          </g>
        </g>
        <g id="Oval 4 (Stroke).1">
          <use xlink:href="#path2_fill" transform="matrix(-1 0 0 1 -1748.77 -214.867)"
               fill="#FFFFFF"/>
        </g>
        <g id="Oval 4 Copy (Stroke).1">
          <use xlink:href="#path2_fill" transform="matrix(-1 0 0 1 -1748.77 -209.867)"
               fill="#FFFFFF"/>
        </g>
      </g>
      <g id="Group 2">
        <g id="Combined Shape">
          <use xlink:href="#path0_fill" transform="matrix(-1 0 0 1 -1740.8 -215)"
               fill="#3A7DE1"/>
          <mask id="mask2_outline_out">
            <rect id="mask2_outline_inv" fill="white" x="-1" y="-1" width="17"
                  height="19" transform="matrix(-1 0 0 1 -1740.8 -215)"/>
            <use xlink:href="#path0_fill" fill="black"
                 transform="matrix(-1 0 0 1 -1740.8 -215)"/>
          </mask>
          <g mask="url(#mask2_outline_out)">
            <use xlink:href="#path1_stroke_2x" transform="matrix(-1 0 0 1 -1740.8 -215)"
                 fill="#FFFFFF"/>
          </g>
        </g>
        <g id="Oval 4 (Stroke).1">
          <use xlink:href="#path2_fill" transform="matrix(-1 0 0 1 -1739.77 -210.867)"
               fill="#FFFFFF"/>
        </g>
        <g id="Oval 4 Copy (Stroke).1">
          <use xlink:href="#path2_fill" transform="matrix(-1 0 0 1 -1739.77 -205.867)"
               fill="#FFFFFF"/>
        </g>
      </g>
    </g>
  </g>
  <defs>
    <path id="path0_fill" fill-rule="evenodd"
          d="M 14.1666 2.5C 14.1666 2.52705 14.1654 2.55402 14.163 2.58086C 14.1654 2.60915 14.1666 2.63776 14.1666 2.66667L 14.1666 14C 14.1666 14.0289 14.1654 14.0576 14.163 14.0858C 14.1654 14.1127 14.1666 14.1396 14.1666 14.1667C 14.1666 15.5474 10.9954 16.6667 7.08337 16.6667C 3.17126 16.6667 0 15.5474 0 14.1667C 0 14.1396 0.0012207 14.1127 0.00366211 14.0858C 0.0012207 14.0576 0 14.0289 0 14L 0 2.66667C 0 2.63776 0.0012207 2.60915 0.00366211 2.58086C 0.0012207 2.554 0 2.52705 0 2.5C 0 1.11929 3.17126 0 7.08337 0C 10.9954 0 14.1666 1.11929 14.1666 2.5Z"/>
    <path id="path1_stroke_2x"
          d="M 14.163 2.58086L 13.1671 2.49027C 13.1617 2.549 13.1616 2.60808 13.1667 2.66684L 14.163 2.58086ZM 14.163 14.0858L 13.1667 13.9999C 13.1616 14.0586 13.1617 14.1177 13.1671 14.1764L 14.163 14.0858ZM 0.00366211 14.0858L 0.999555 14.1764C 1.00489 14.1177 1.00503 14.0586 0.999959 13.9999L 0.00366211 14.0858ZM 0.00366211 2.58086L 0.999959 2.66684C 1.00503 2.6081 1.00489 2.54903 0.999555 2.49032L 0.00366211 2.58086ZM 15.1589 2.67144C 15.164 2.61435 15.1666 2.55716 15.1666 2.5L 13.1666 2.5C 13.1666 2.49694 13.1668 2.49368 13.1671 2.49027L 15.1589 2.67144ZM 15.1666 2.66667C 15.1666 2.60959 15.1642 2.55228 15.1593 2.49488L 13.1667 2.66684L 13.1666 2.66667L 15.1666 2.66667ZM 15.1666 14L 15.1666 2.66667L 13.1666 2.66667L 13.1666 14L 15.1666 14ZM 15.1593 14.1718C 15.1642 14.1144 15.1666 14.0571 15.1666 14L 13.1666 14L 13.1667 13.9999L 15.1593 14.1718ZM 15.1666 14.1667C 15.1666 14.1095 15.164 14.0523 15.1589 13.9953L 13.1671 14.1764C 13.1668 14.1731 13.1666 14.1698 13.1666 14.1667L 15.1666 14.1667ZM 7.08337 17.6667C 9.12189 17.6667 11.0104 17.3766 12.4248 16.8774C 13.1275 16.6294 13.7672 16.311 14.2507 15.9076C 14.7285 15.5089 15.1666 14.9253 15.1666 14.1667L 13.1666 14.1667C 13.1666 14.0984 13.2083 14.1725 12.9693 14.372C 12.7359 14.5668 12.3383 14.787 11.7592 14.9914C 10.6099 15.3971 8.95684 15.6667 7.08337 15.6667L 7.08337 17.6667ZM -1 14.1667C -1 14.9253 -0.561871 15.5089 -0.0840552 15.9076C 0.399385 16.311 1.03914 16.6294 1.74183 16.8774C 3.15622 17.3766 5.0448 17.6667 7.08337 17.6667L 7.08337 15.6667C 5.20984 15.6667 3.55673 15.3971 2.40747 14.9914C 1.82833 14.787 1.43075 14.5668 1.19733 14.372C 0.958279 14.1725 1 14.0984 1 14.1667L -1 14.1667ZM -0.992231 13.9953C -0.997414 14.0523 -1 14.1094 -1 14.1667L 1 14.1667C 1 14.1698 0.999855 14.1731 0.999555 14.1764L -0.992231 13.9953ZM -1 14C -1 14.0571 -0.997592 14.1144 -0.992635 14.1718L 0.999959 13.9999L 1 14L -1 14ZM -1 2.66667L -1 14L 1 14L 1 2.66667L -1 2.66667ZM -0.992635 2.49488C -0.997589 2.55228 -1 2.60959 -1 2.66667L 1 2.66667L 0.999959 2.66684L -0.992635 2.49488ZM -1 2.5C -1 2.55719 -0.997417 2.61435 -0.992231 2.67139L 0.999555 2.49032C 0.999858 2.49366 1 2.49692 1 2.5L -1 2.5ZM 7.08337 -1C 5.0448 -1 3.15622 -0.709955 1.74183 -0.210755C 1.03914 0.0372531 0.399385 0.355683 -0.0840552 0.759091C -0.561871 1.15781 -1 1.7414 -1 2.5L 1 2.5C 1 2.56824 0.958279 2.49416 1.19733 2.29469C 1.43075 2.0999 1.82833 1.87963 2.40747 1.67523C 3.55673 1.2696 5.20984 1 7.08337 1L 7.08337 -1ZM 15.1666 2.5C 15.1666 1.7414 14.7285 1.15781 14.2507 0.759093C 13.7672 0.355685 13.1275 0.0372546 12.4248 -0.210754C 11.0104 -0.709954 9.12189 -1 7.08337 -1L 7.08337 1C 8.95684 1 10.6099 1.2696 11.7592 1.67522C 12.3383 1.87963 12.7359 2.0999 12.9693 2.29469C 13.2083 2.49416 13.1666 2.56824 13.1666 2.5L 15.1666 2.5Z"/>
    <path id="path2_fill" fill-rule="evenodd"
          d="M 0.926734 1.79747C 0.557417 1.4893 0.209324 1.06957 0.0672556 0.542694C -0.00679401 0.268076 0.230573 0.0335255 0.515 0.0335255L 0.515 0.0335255C 0.799427 0.0335255 1.0267 0.276506 1.16641 0.524254C 1.81252 1.66999 4.6772 2.53353 8.11333 2.53353C 11.5495 2.53353 14.4141 1.66999 15.0603 0.524254C 15.2 0.276505 15.4272 0.0335255 15.7117 0.0335255L 15.7117 0.0335255C 15.9961 0.0335255 16.2335 0.268076 16.1594 0.542695C 16.0173 1.06957 15.6692 1.4893 15.2999 1.79747C 14.8127 2.20401 14.1694 2.52391 13.4648 2.77257C 12.0464 3.27317 10.1543 3.56353 8.11333 3.56353C 6.07232 3.56353 4.18023 3.27317 2.76186 2.77257C 2.05731 2.52391 1.41393 2.20401 0.926734 1.79747ZM 14.1622 0.0335255C 14.1647 0.0335255 14.1667 0.0315224 14.1667 0.0290559C 14.167 0.0178729 14.1682 0.00995063 14.1692 0.00523269C 14.1706 0.00175966 14.171 7.74435e-06 14.1709 2.92726e-08C 14.1707 -7.68953e-06 14.17 0.00172883 14.1692 0.00523269C 14.1675 0.00962312 14.1642 0.016764 14.1583 0.0266087C 14.1565 0.0296367 14.1587 0.0335255 14.1622 0.0335255L 14.1622 0.0335255ZM 2.06447 0.0335255C 2.06799 0.0335255 2.07013 0.0296367 2.06834 0.0266087C 2.06251 0.0167635 2.05918 0.00962241 2.05743 0.00523204C 2.05666 0.00172863 2.05597 -7.68208e-06 2.05581 2.55473e-08C 2.05566 7.73317e-06 2.05605 0.00175944 2.05743 0.00523204C 2.05848 0.00994992 2.05969 0.0178724 2.05995 0.0290559C 2.06001 0.0315224 2.062 0.0335255 2.06447 0.0335255L 2.06447 0.0335255Z"/>
    <path id="path3_fill" fill-rule="evenodd"
          d="M 14.1666 2.5C 14.1666 2.52705 14.1654 2.55402 14.163 2.58086C 14.1646 2.59914 14.1655 2.61754 14.1661 2.63608L 14.1666 2.66667L 14.1666 14C 14.1666 14.0289 14.1654 14.0576 14.163 14.0858C 14.1654 14.1127 14.1666 14.1396 14.1666 14.1667C 14.1666 15.5474 10.9954 16.6667 7.08337 16.6667C 3.17126 16.6667 0 15.5474 0 14.1667C 0 14.1396 0.0012207 14.1127 0.00366211 14.0858C 0.0012207 14.0576 0 14.0289 0 14L 0 2.66667C 0 2.63776 0.0012207 2.60915 0.00366211 2.58086C 0.00219727 2.56458 0.0012207 2.54826 0.000610352 2.53192L 0 2.5C 0 1.11929 3.17126 0 7.08337 0C 10.9954 0 14.1666 1.11929 14.1666 2.5Z"/>
    <path id="path4_stroke_2x"
          d="M 14.163 2.58086L 13.1671 2.49027C 13.1617 2.54917 13.1616 2.60842 13.1667 2.66734L 14.163 2.58086ZM 14.1661 2.63608L 15.166 2.62012C 15.1659 2.61447 15.1658 2.60882 15.1656 2.60317L 14.1661 2.63608ZM 14.1666 2.66667L 15.1666 2.66667C 15.1666 2.66135 15.1666 2.65603 15.1665 2.65071L 14.1666 2.66667ZM 14.163 14.0858L 13.1667 13.9999C 13.1616 14.0586 13.1617 14.1177 13.1671 14.1764L 14.163 14.0858ZM 0.00366211 14.0858L 0.999555 14.1764C 1.00489 14.1177 1.00503 14.0586 0.999959 13.9999L 0.00366211 14.0858ZM 0.00366211 2.58086L 0.999959 2.66684C 1.005 2.60841 1.00489 2.54965 0.999639 2.49125L 0.00366211 2.58086ZM 0.000610352 2.53192L -0.999207 2.55104C -0.999091 2.55711 -0.99892 2.56318 -0.998693 2.56924L 0.000610352 2.53192ZM 0 2.5L -1 2.5C -1 2.50637 -0.999939 2.51275 -0.999817 2.51912L 0 2.5ZM 15.1589 2.67144C 15.164 2.61435 15.1666 2.55716 15.1666 2.5L 13.1666 2.5C 13.1666 2.49694 13.1668 2.49368 13.1671 2.49027L 15.1589 2.67144ZM 15.1656 2.60317C 15.1646 2.57163 15.1627 2.53476 15.1592 2.49437L 13.1667 2.66734C 13.1664 2.66352 13.1665 2.66345 13.1667 2.66898L 15.1656 2.60317ZM 15.1665 2.65071L 15.166 2.62012L 13.1663 2.65204L 13.1668 2.68263L 15.1665 2.65071ZM 15.1666 14L 15.1666 2.66667L 13.1666 2.66667L 13.1666 14L 15.1666 14ZM 15.1593 14.1718C 15.1642 14.1144 15.1666 14.0571 15.1666 14L 13.1666 14L 13.1667 13.9999L 15.1593 14.1718ZM 15.1666 14.1667C 15.1666 14.1095 15.164 14.0523 15.1589 13.9953L 13.1671 14.1764C 13.1668 14.1731 13.1666 14.1698 13.1666 14.1667L 15.1666 14.1667ZM 7.08337 17.6667C 9.12189 17.6667 11.0104 17.3766 12.4248 16.8774C 13.1275 16.6294 13.7672 16.311 14.2507 15.9076C 14.7285 15.5089 15.1666 14.9253 15.1666 14.1667L 13.1666 14.1667C 13.1666 14.0984 13.2083 14.1725 12.9693 14.372C 12.7359 14.5668 12.3383 14.787 11.7592 14.9914C 10.6099 15.3971 8.95684 15.6667 7.08337 15.6667L 7.08337 17.6667ZM -1 14.1667C -1 14.9253 -0.561871 15.5089 -0.0840552 15.9076C 0.399385 16.311 1.03914 16.6294 1.74183 16.8774C 3.15622 17.3766 5.0448 17.6667 7.08337 17.6667L 7.08337 15.6667C 5.20984 15.6667 3.55673 15.3971 2.40747 14.9914C 1.82833 14.787 1.43075 14.5668 1.19733 14.372C 0.958279 14.1725 1 14.0984 1 14.1667L -1 14.1667ZM -0.992231 13.9953C -0.997414 14.0523 -1 14.1094 -1 14.1667L 1 14.1667C 1 14.1698 0.999855 14.1731 0.999555 14.1764L -0.992231 13.9953ZM -1 14C -1 14.0571 -0.997592 14.1144 -0.992635 14.1718L 0.999959 13.9999L 1 14L -1 14ZM -1 2.66667L -1 14L 1 14L 1 2.66667L -1 2.66667ZM -0.992635 2.49488C -0.997589 2.55228 -1 2.60959 -1 2.66667L 1 2.66667L 0.999959 2.66684L -0.992635 2.49488ZM -0.998693 2.56924C -0.997527 2.60046 -0.99556 2.63439 -0.992315 2.67047L 0.999639 2.49125C 0.999955 2.49476 0.999968 2.49607 0.999914 2.4946L -0.998693 2.56924ZM -0.999817 2.51912L -0.999207 2.55104L 1.00043 2.5128L 0.999817 2.48088L -0.999817 2.51912ZM 7.08337 -1C 5.0448 -1 3.15622 -0.709955 1.74183 -0.210755C 1.03914 0.0372531 0.399385 0.355683 -0.0840552 0.759091C -0.561871 1.15781 -1 1.7414 -1 2.5L 1 2.5C 1 2.56824 0.958279 2.49416 1.19733 2.29469C 1.43075 2.0999 1.82833 1.87963 2.40747 1.67523C 3.55673 1.2696 5.20984 1 7.08337 1L 7.08337 -1ZM 15.1666 2.5C 15.1666 1.7414 14.7285 1.15781 14.2507 0.759093C 13.7672 0.355685 13.1275 0.0372546 12.4248 -0.210754C 11.0104 -0.709954 9.12189 -1 7.08337 -1L 7.08337 1C 8.95684 1 10.6099 1.2696 11.7592 1.67522C 12.3383 1.87963 12.7359 2.0999 12.9693 2.29469C 13.2083 2.49416 13.1666 2.56824 13.1666 2.5L 15.1666 2.5Z"/>
  </defs>
</svg>
