<svg xmlns="http://www.w3.org/2000/svg" width="460" height="293" fill="none" viewBox="0 0 460 293">
    <path fill="url(#a)" d="M99.548 124.305a11.592 11.592 0 0 0-5.931 1.626 17.815 17.815 0 0 0-8.595-7.039 17.714 17.714 0 0 0-11.074-.56 27.224 27.224 0 0 0-9.431-15.244 26.993 26.993 0 0 0-16.829-6.023 26.99 26.99 0 0 0-16.898 5.821 27.223 27.223 0 0 0-9.612 15.13 17.854 17.854 0 0 0-15.415 4.388A18.023 18.023 0 0 0 0 134.089h111.074a11.78 11.78 0 0 0-3.985-7.007 11.673 11.673 0 0 0-7.54-2.777z"/>
    <path fill="#C0C6D9" d="M364.249 282.528c-2.075.001-4.112.56-5.898 1.616a17.78 17.78 0 0 0-19.608-7.544 26.985 26.985 0 0 0-43.019-15.318 26.983 26.983 0 0 0-9.577 15.012 18.014 18.014 0 0 0-3.309-.315 17.835 17.835 0 0 0-17.769 16.261h110.669a11.66 11.66 0 0 0-11.489-9.712z"/>
    <path fill="url(#b)" d="M141.163 37.83a7.428 7.428 0 0 1 3.753 1.026 11.282 11.282 0 0 1 12.47-4.795 17.16 17.16 0 0 1 16.648-13.419 17.166 17.166 0 0 1 16.808 13.22 11.878 11.878 0 0 1 2.098-.2 11.36 11.36 0 0 1 11.328 10.34h-70.412a7.416 7.416 0 0 1 7.307-6.173z"/>
    <path fill="url(#c)" d="M386.254 184.413a7.372 7.372 0 0 1 3.761 1.026 11.279 11.279 0 0 1 12.469-4.795 17.16 17.16 0 0 1 16.648-13.418 17.167 17.167 0 0 1 16.808 13.219 11.354 11.354 0 0 1 13.426 10.141h-70.419a7.422 7.422 0 0 1 7.307-6.173z"/>
    <path fill="#fff" d="M208.282 95.672l2.29 4.182 4.182 2.29-4.182 2.29-2.29 4.182-2.29-4.182-4.182-2.29 4.182-2.29 2.29-4.182z" opacity=".5" style="mix-blend-mode:hard-light"/>
    <path fill="#C0C6D9" d="M437.31 225.666c6.256 0 11.328-5.072 11.328-11.328 0-6.257-5.072-11.329-11.328-11.329-6.256 0-11.328 5.072-11.328 11.329 0 6.256 5.072 11.328 11.328 11.328z"/>
    <path stroke="#D6DBE7" stroke-miterlimit="10" stroke-width=".5" d="M426.158 216.283c-7.253 2.627-12.078 4.994-11.795 5.936.283.942 5.768.207 13.457-1.685a206.993 206.993 0 0 0 9.958-2.765 198.031 198.031 0 0 0 10.83-3.592c6.893-2.543 11.412-4.772 11.129-5.691-.284-.919-5.094-.299-12.056 1.34"/>
    <path fill="#C0C6D9" d="M135.902 229.702a8.54 8.54 0 0 0 8.54-8.54 8.54 8.54 0 0 0-8.54-8.54 8.54 8.54 0 0 0-8.54 8.54 8.54 8.54 0 0 0 8.54 8.54z"/>
    <path stroke="#D6DBE7" stroke-miterlimit="10" d="M133.98 229.48c-.299 5.806-.069 9.85.666 9.957.735.107 1.838-3.945 2.773-9.835a159.51 159.51 0 0 0 1.685-16.306c.26-5.538 0-9.329-.69-9.406-.689-.076-1.7 3.455-2.604 8.77"/>
    <path stroke="#D6DBE7" stroke-miterlimit="10" d="M137.939 229.396c2.351 5.315 4.381 8.823 5.07 8.555.689-.268-.138-4.343-1.961-10.026-.766-2.252-1.608-4.749-2.596-7.353a147.317 147.317 0 0 0-3.263-7.958c-2.298-5.055-4.182-8.333-4.856-8.073-.674.261.046 3.83 1.631 8.992"/>
    <path fill="#D6DBE7" d="M157.163 212.484a2.91 2.91 0 1 0 0-5.821 2.91 2.91 0 0 0 0 5.821zM112.579 249.907a2.911 2.911 0 1 0 0-5.822 2.911 2.911 0 0 0 0 5.822z" opacity=".73"/>
    <path fill="#7E89A9" d="M414.148 196.736a2.91 2.91 0 1 0 .001-5.82 2.91 2.91 0 0 0-.001 5.82z"/>
    <path fill="#016540" d="M402.99 117.233a.597.597 0 1 0 0-1.193.597.597 0 0 0 0 1.193z"/>
    <g opacity=".2" style="mix-blend-mode:overlay">
        <path fill="#fff" d="M405.386 104.496a2.398 2.398 0 1 0-.001-4.795 2.398 2.398 0 0 0 .001 4.795zM386.299 97.273a2.46 2.46 0 0 1-2.451 2.45 2.396 2.396 0 0 1-1.807-.819 15.88 15.88 0 0 1 2.351-3.99 2.46 2.46 0 0 1 1.907 2.359zM399.297 117.057a1.195 1.195 0 1 0 0-2.39 1.195 1.195 0 0 0 0 2.39zM400.499 94.071a1.195 1.195 0 1 0 0-2.39 1.195 1.195 0 0 0 0 2.39z" opacity=".2" style="mix-blend-mode:overlay"/>
    </g>
    <path fill="#C0C6D9" d="M152.861 30.361a8.426 8.426 0 1 1-15.02-5.246 8.425 8.425 0 0 1 15.012 5.246h.008z"/>
    <path fill="#7E89A9" d="M148.784 30.116a1.248 1.248 0 1 0 0-2.496 1.248 1.248 0 0 0 0 2.496zM147.537 36.757a.314.314 0 1 0 0-.629.314.314 0 0 0 0 .629zM140.675 33.808a.314.314 0 1 0 0-.628.314.314 0 0 0 0 .628zM140.053 25.314a.314.314 0 1 0 0-.627.314.314 0 0 0 0 .627zM150.523 27.083a.314.314 0 1 0 0-.627.314.314 0 0 0 0 .627zM150.347 33.502a.629.629 0 1 0-.001-1.257.629.629 0 0 0 .001 1.257zM138.843 26.348a1.278 1.278 0 0 1-1.279 1.28 1.225 1.225 0 0 1-.934-.43 8.273 8.273 0 0 1 1.218-2.083 1.276 1.276 0 0 1 .995 1.233zM145.613 36.665a.628.628 0 1 0 0-1.256.628.628 0 0 0 0 1.256zM146.242 24.694a.628.628 0 1 0 0-1.256.628.628 0 0 0 0 1.256z"/>
    <path stroke="#542ABD" stroke-miterlimit="10" stroke-width=".1" d="M126.91 104.971l2.076-1.586c4.688-3.53 9.306-6.993 13.825-10.325"/>
    <path stroke="#D6DBE7" stroke-miterlimit="10" stroke-width=".5" d="M91.217 133.272c-28.607 23.743-46.959 41.98-44.546 45.189 2.543 3.332 26.991-10.792 59.696-33.7a1102.724 1102.724 0 0 0 34.743-25.376c14.353-10.853 27.65-21.446 39.2-31.05 27.788-23.231 45.504-40.847 43.16-44.018-2.573-3.363-27.88 11.29-61.473 34.949"/>
    <path fill="#D6DBE7" d="M199.658 74.448a2.85 2.85 0 1 0 0-5.699 2.85 2.85 0 0 0 0 5.7z"/>
    <path fill="#7E89A9" d="M69.005 159.459a7.637 7.637 0 1 0 0-15.273 7.637 7.637 0 0 0 0 15.273zM43.959 69.7a.958.958 0 1 0 0-1.916.958.958 0 0 0 0 1.915z"/>
    <path fill="#401E94" d="M384.607 224.249a.486.486 0 0 0 .421-.479.479.479 0 0 0-.421-.479.486.486 0 0 0-.422.479.486.486 0 0 0 .422.479z"/>
    <path fill="#7E89A9" d="M43.96 3.83c2.466 0 2.466-3.83 0-3.83-2.467 0-2.467 3.83 0 3.83zM120.699 12.691a.958.958 0 1 0 0-1.915.958.958 0 0 0 0 1.915z"/>
    <path fill="#8C6BE1" d="M68.18 74.923a.483.483 0 0 0 0-.957.483.483 0 0 0 0 .957zM77.454 207.145a.478.478 0 0 0 .421-.478.481.481 0 0 0-.421-.479.485.485 0 0 0-.302.798.479.479 0 0 0 .302.159zM431.337 179.181a.482.482 0 0 0 0-.957.481.481 0 0 0-.422.479.482.482 0 0 0 .422.478z"/>
    <path fill="url(#d)" d="M451.062 118.954c0-.253.038-.506.038-.766a8.578 8.578 0 0 0-1.603-5.007 8.586 8.586 0 0 0-13.8-.225 12.976 12.976 0 0 0-15.272.322 8.596 8.596 0 0 0-7.051-3.686 8.592 8.592 0 0 0-7.05 3.686 5.603 5.603 0 0 0-5.713-.191 5.594 5.594 0 0 0-2.819 5.867h53.27z"/>
    <path fill="#C0C6D9" d="M427.6 108.935a16.174 16.174 0 0 1-12.202 15.644 16.157 16.157 0 0 1-13.529-2.637 16.168 16.168 0 0 1-5.435-19.081 15.887 15.887 0 0 1 2.352-3.99 16.17 16.17 0 0 1 28.814 10.064z"/>
    <path fill="#7E89A9" d="M404.215 115.583a.597.597 0 1 0 0-1.193.597.597 0 0 0 0 1.193zM403.013 99.277a.597.597 0 1 0 0-1.195.597.597 0 0 0 0 1.195zM423.118 102.662a.598.598 0 1 0 0-1.196.598.598 0 0 0 0 1.196zM422.781 114.978a1.195 1.195 0 1 0 0-2.39 1.195 1.195 0 0 0 0 2.39z"/>
    <path fill="url(#e)" d="M162.144 230.79v-.552a6.128 6.128 0 0 0-11.052-3.753 9.29 9.29 0 0 0-10.961.23 6.128 6.128 0 0 0-10.118 0 3.976 3.976 0 0 0-3.696-.328 4.024 4.024 0 0 0-2.18 2.185 4.026 4.026 0 0 0-.305 1.544c.001.226.022.451.061.674h38.251z"/>
    <path fill="url(#f)" d="M135.067 65.61L58.275 93.06l6.212-52.466 25.926-8.203c-.06-.674 44.654 33.218 44.654 33.218z"/>
    <path fill="#D6DBE7" d="M85.466 28.087a55.148 55.148 0 0 0-9.957 2.22 55.792 55.792 0 0 0-9.421 3.907 10.171 10.171 0 0 1 19.378-6.127z" style="mix-blend-mode:multiply"/>
    <path fill="#C0C6D9" d="M94.985 28.117c.314.996-1.455 2.55-4.55 4.236A73.378 73.378 0 0 1 77.79 37.53a73.645 73.645 0 0 1-13.304 3.063c-3.516.406-5.86.153-6.181-.842-.406-1.287 2.68-3.531 7.66-5.79a75.347 75.347 0 0 1 8.172-3.172c.436-.16.88-.298 1.325-.444.444-.145.88-.276 1.332-.398a74.912 74.912 0 0 1 8.51-2.107c5.46-1.034 9.275-1.034 9.681.276z"/>
    <path fill="#7E89A9" d="M61.317 39.208a.728.728 0 1 0 0-1.455.728.728 0 0 0 0 1.455zM67.452 36.167a.728.728 0 1 0 0-1.455.728.728 0 0 0 0 1.455zM75.2 32.82a.728.728 0 1 0 .001-1.455.728.728 0 0 0 0 1.455zM84.447 30.361a.728.728 0 1 0 0-1.455.728.728 0 0 0 0 1.455zM91.823 29.557a.728.728 0 1 0 0-1.455.728.728 0 0 0 0 1.455zM90.413 32.36a73.385 73.385 0 0 1-12.623 5.17 73.655 73.655 0 0 1-13.304 3.064 43.038 43.038 0 0 1 25.927-8.203v-.03zM332.571 244.967a2.91 2.91 0 1 0 0-5.82 2.91 2.91 0 0 0 0 5.82z"/>
    <path fill="#C0C6D9" d="M378.265 183.746v-4.051l.099-26.103-37.699-.138-.076 20.979v9.191l-16.736-.061.046-12.508.176-48.905-37.691-.138-.161 38.389-.191 54.059 54.427.199-.115 32.545 37.691.137.123-32.544 12.132.046.099-31.02-12.124-.077zM182.349 141.36l.459 32.544-13.258.184-24.433.345-.46-32.545-54.419.766-1.302-92.478 9.75-.138 27.941-.39.605 43.03.261 18.374 9.26-.13 7.468-.1-.422-30.154 37.692-.537.421 30.155 12.132-.168.445 31.073-12.14.169z"/>
    <path fill="#fff" d="M392.26 182.909l-.121 32.883-12.805-.089-.105 34.463-39.755-.146.121-34.431-57.408-.267.21-57.217c13.004 4.541 29.268 8.299 42.718 11.255l-.049 13.233 14.65.065v-9.724c2.467.454 4.977.897 7.53 1.329a432.356 432.356 0 0 0 32.21 4.238v4.286l12.804.122zM169.551 174.088l-24.433.345-.46-32.545-54.38.766-1.303-92.478 9.75-.138a281.875 281.875 0 0 1 28.508 42.64l.261 18.382 9.26-.131c11.152 22.465 20.174 43.858 32.797 63.159z" opacity=".5" style="mix-blend-mode:overlay"/>
    <path fill="#D6DBE7" d="M239.056 207.919c34.996 0 63.365-28.37 63.365-63.365 0-34.996-28.369-63.365-63.365-63.365s-63.365 28.369-63.365 63.365c0 34.995 28.369 63.365 63.365 63.365z" opacity=".73"/>
    <path fill="#7E89A9" d="M300.921 146.829a67.084 67.084 0 0 0-61.359-4.167 67.023 67.023 0 0 0-55.093-27.305h-1.938l.215 12.254 1.93-.038a54.91 54.91 0 0 1 44.056 21.017c-20.833 13.595-27.627 29.167-29.825 37.316-7.047 26.042 6.127 47.488 10.355 53.393a6.131 6.131 0 0 0 7.905 2.076c6.625-3.064 28.799-15.15 35.746-40.87 2.205-8.142 4.174-25.008-6.97-47.258a54.85 54.85 0 0 1 48.644 4.029l1.654 1.011 6.334-10.463-1.654-.995zm-57.774 50.229c-3.332 12.339-12.906 23.376-20.918 29.825 1.532-6.74 5.691-23.82 11.306-34.75a28.425 28.425 0 0 1 10.439-11.489c1.325 3.784.628 11.03-.827 16.414zm-25.789-22.802a28.726 28.726 0 0 1 3.232 15.189c-.658 12.316-5.66 29.105-7.743 35.707-3.677-9.612-6.388-23.965-3.064-36.305 1.463-5.392 4.519-12.002 7.575-14.591z"/>
    <path fill="#fff" d="M254.82 90.747a58.702 58.702 0 0 0-36.765 1.93 59.142 59.142 0 0 1 24.854 1.28c30.768 8.317 49.204 39.146 41.177 68.849-4.711 17.425-17.502 30.537-33.456 36.764 21.323-3.423 39.552-18.42 45.389-40.012 8.027-29.672-10.409-60.5-41.199-68.81z" opacity=".32" style="mix-blend-mode:hard-light"/>
    <path fill="#C0C6D9" d="M250.906 207.942c-1.325-1.999-12.73-5.668-26.447-9.375-13.718-3.707-25.414-6.281-27.574-5.216l-3.546 13.105c-.467 1.723 11.451 5.63 26.371 9.658 14.92 4.029 27.175 6.664 27.642 4.933l3.546-13.113.008.008z"/>
    <path fill="#fff" d="M233.159 211.802a1.991 1.991 0 1 0 0-3.982 1.991 1.991 0 0 0 0 3.982zM243.093 214.483a1.991 1.991 0 1 0 0-3.982 1.991 1.991 0 0 0 0 3.982zM211.599 205.407s-2.811-.544-6.265-1.478c-3.454-.935-6.128-1.877-6.128-1.877l.766-2.803s2.842.704 6.227 1.623c3.386.92 6.197 1.739 6.197 1.739l-.797 2.796z"/>
    <defs>
        <linearGradient id="a" x1=".036" x2="123.22" y1="115.576" y2="115.911" gradientUnits="userSpaceOnUse">
            <stop offset=".005" stop-color="#7E89A9" stop-opacity=".48"/>
            <stop offset=".454" stop-color="#E1E5ED"/>
            <stop offset=".708" stop-color="#fff"/>
        </linearGradient>
        <linearGradient id="b" x1="221431" x2="214960" y1="1006.69" y2="1006.69" gradientUnits="userSpaceOnUse">
            <stop stop-color="#01A56A" stop-opacity=".7"/>
            <stop offset=".21" stop-color="#01A56A" stop-opacity=".47"/>
            <stop offset=".43" stop-color="#01A56A" stop-opacity=".27"/>
            <stop offset=".64" stop-color="#01A56A" stop-opacity=".12"/>
            <stop offset=".84" stop-color="#01A56A" stop-opacity=".03"/>
            <stop offset="1" stop-color="#01A56A" stop-opacity="0"/>
        </linearGradient>
        <linearGradient id="c" x1="449.343" x2="371.246" y1="178.906" y2="179.119" gradientUnits="userSpaceOnUse">
            <stop offset=".005" stop-color="#7E89A9" stop-opacity=".57"/>
            <stop offset=".454" stop-color="#E1E5ED"/>
            <stop offset=".708" stop-color="#fff"/>
        </linearGradient>
        <linearGradient id="d" x1="397.707" x2="451.1" y1="114.266" y2="114.266" gradientUnits="userSpaceOnUse">
            <stop stop-color="#fff"/>
            <stop offset=".537" stop-color="#DADDE6"/>
            <stop offset="1" stop-color="#7E89A9" stop-opacity=".68"/>
        </linearGradient>
        <linearGradient id="e" x1="6370.72" x2="8287.13" y1="2239.45" y2="2239.45" gradientUnits="userSpaceOnUse">
            <stop stop-color="#01A56A" stop-opacity="0"/>
            <stop offset=".67" stop-color="#01A56A" stop-opacity=".49"/>
            <stop offset="1" stop-color="#01A56A" stop-opacity=".7"/>
        </linearGradient>
        <linearGradient id="f" x1="97.064" x2="73.549" y1="81.054" y2="22.015" gradientUnits="userSpaceOnUse">
            <stop stop-color="#C0C6D9" stop-opacity="0"/>
            <stop offset=".516" stop-color="#C0C6D9" stop-opacity=".13"/>
            <stop offset=".922" stop-color="#C0C6D9"/>
        </linearGradient>
    </defs>
</svg>
