<svg width="24" height="24" viewBox="0 0 24 24" fill="none" xmlns="http://www.w3.org/2000/svg">
<path fill-rule="evenodd" clip-rule="evenodd" d="M23.4186 16.5005L15.7798 3.18656C14.1077 0.271163 9.89189 0.271131 8.21987 3.18656L0.582041 16.5005C-1.08272 19.4009 1.02395 22.9972 4.36191 22.9972H19.6387C22.9761 22.9972 25.0821 19.4005 23.4186 16.5005ZM11 8C11 7.44772 11.4477 7 12 7C12.5523 7 13 7.44772 13 8V14C13 14.5523 12.5523 15 12 15C11.4477 15 11 14.5523 11 14V8ZM13 18C13 18.5523 12.5523 19 12 19C11.4477 19 11 18.5523 11 18C11 17.4477 11.4477 17 12 17C12.5523 17 13 17.4477 13 18Z" fill="#ffa53b"/>
</svg>
