<svg width="17" height="17" viewBox="0 0 17 17" fill="none" xmlns="http://www.w3.org/2000/svg">
<path fill-rule="evenodd" clip-rule="evenodd" d="M2.80623 0.619541C2.2024 0.0157051 1.22338 0.0157051 0.619549 0.619541C0.0157128 1.22338 0.0157128 2.20239 0.619549 2.80622L5.97999 8.16666L0.619549 13.5271C0.0157127 14.1309 0.0157127 15.11 0.619549 15.7138C1.22338 16.3176 2.2024 16.3176 2.80623 15.7138L8.16667 10.3533L13.5271 15.7138C14.1309 16.3176 15.11 16.3176 15.7138 15.7138C16.3176 15.11 16.3176 14.1309 15.7138 13.5271L10.3534 8.16666L15.7138 2.80622C16.3176 2.20239 16.3176 1.22338 15.7138 0.619541C15.11 0.0157051 14.1309 0.0157051 13.5271 0.619541L8.16667 5.97998L2.80623 0.619541Z" fill="#242A35"/>
</svg>
