<svg
  width="1em"
  height="1em"
  viewBox="0 0 12 16"
  fill="currentColor"
  xmlns="http://www.w3.org/2000/svg">
<path
  fill-rule="evenodd"
  clip-rule="evenodd"
  d="M5.99922 0C6.55154 0 6.99929 0.447744 6.99929 1.00006V8.58633L10.2936 5.29206C10.6841 4.90151 11.3173 4.90151 11.7079 5.29206C12.0984 5.68261 12.0984 6.31581 11.7079 6.70636L6.70755 11.7067L6.70683 11.7074C6.52582 11.8886 6.27562 12.0008 5.99922 12.0008C5.7023 12.0008 5.4356 11.8714 5.25244 11.6659L0.292927 6.70636C-0.097622 6.31581 -0.097622 5.68261 0.292927 5.29206C0.683476 4.90151 1.31668 4.90151 1.70723 5.29206L4.99916 8.58399V1.00006C4.99916 0.447744 5.4469 0 5.99922 0ZM1.00006 14C0.447744 14 -2.41425e-08 14.4477 0 15.0001C2.41425e-08 15.5524 0.447744 16.0001 1.00006 16.0001H11.0007C11.553 16.0001 12.0008 15.5524 12.0008 15.0001C12.0008 14.4477 11.553 14 11.0007 14H1.00006Z"
/>
</svg>
