<svg width="24" height="6" viewBox="0 0 24 6" fill="none" xmlns="http://www.w3.org/2000/svg">
<path fill-rule="evenodd" clip-rule="evenodd" d="M0 3C0 1.34372 1.34372 0 3 0C4.65628 0 6 1.34372 6 3C6 4.65628 4.65628 6 3 6C1.34372 6 0 4.65628 0 3Z" fill="#242A35"/>
<path fill-rule="evenodd" clip-rule="evenodd" d="M9 3C9 1.34372 10.3437 0 12 0C13.6563 0 15 1.34372 15 3C15 4.65628 13.6563 6 12 6C10.3437 6 9 4.65628 9 3Z" fill="#242A35"/>
<path fill-rule="evenodd" clip-rule="evenodd" d="M18 3C18 1.34372 19.3437 0 21 0C22.6563 0 24 1.34372 24 3C24 4.65628 22.6563 6 21 6C19.3437 6 18 4.65628 18 3Z" fill="#242A35"/>
</svg>
