<svg width="35" height="34" viewBox="0 0 35 34" version="1.1" xmlns="http://www.w3.org/2000/svg" xmlns:xlink="http://www.w3.org/1999/xlink">
  <title>ic-node-single</title>
  <desc>Created using Figma</desc>
  <g id="Canvas" transform="translate(1849 228)">
    <g id="ic-node-single">
      <g id="ic-node-single">
        <g id="Group Copy 2">
          <g id="Combined Shape">
            <use xlink:href="#path0_fill" transform="matrix(-1 0 0 1 -1823 -222)" fill="#3A7DE1"/>
            <mask id="mask0_outline_out">
              <rect id="mask0_outline_inv" fill="white" x="-1" y="-1" width="21" height="24" transform="matrix(-1 0 0 1 -1823 -222)"/>
              <use xlink:href="#path0_fill" fill="black" transform="matrix(-1 0 0 1 -1823 -222)"/>
            </mask>
            <g mask="url(#mask0_outline_out)">
              <use xlink:href="#path1_stroke_2x" transform="matrix(-1 0 0 1 -1823 -222)" fill="#FFFFFF"/>
            </g>
          </g>
          <g id="Oval 4 (Stroke)">
            <use xlink:href="#path2_fill" transform="matrix(-1 0 0 1 -1821.97 -216.608)" fill="#FFFFFF"/>
          </g>
          <g id="Oval 4 Copy (Stroke)">
            <use xlink:href="#path2_fill" transform="matrix(-1 0 0 1 -1821.97 -210.137)" fill="#FFFFFF"/>
          </g>
        </g>
      </g>
    </g>
  </g>
  <defs>
    <path id="path0_fill" fill-rule="evenodd" d="M 0 3.23529L 0 18.3333L 0 18.4118C 0 18.6426 0.0782471 18.8551 0.209595 19.0244C 1.10645 20.4792 4.776 21.5686 9.16663 21.5686C 13.5573 21.5686 17.2269 20.4792 18.1238 19.0244C 18.2551 18.8552 18.3334 18.6426 18.3334 18.4118L 18.3334 18.3333L 18.3334 3.23529L 18.3334 3.15686C 18.3334 2.92601 18.2551 2.71346 18.1238 2.5442C 17.2269 1.08945 13.5573 0 9.16663 0C 4.776 0 1.10645 1.08948 0.209595 2.54427C 0.0782471 2.7135 0 2.92606 0 3.15686L 0 3.23529Z"/>
    <path id="path1_stroke_2x" d="M 0.209595 19.0244L 1.06083 18.4996C 1.04201 18.4691 1.02157 18.4396 0.999579 18.4113L 0.209595 19.0244ZM 18.1238 19.0244L 17.3338 18.4113C 17.3118 18.4397 17.2914 18.4691 17.2725 18.4996L 18.1238 19.0244ZM 18.1238 2.5442L 17.2725 3.06899C 17.2914 3.0995 17.3118 3.12898 17.3338 3.1573L 18.1238 2.5442ZM 0.209595 2.54427L 0.999579 3.15739C 1.02157 3.12906 1.04202 3.09957 1.06084 3.06904L 0.209595 2.54427ZM -1 3.23529L -1 18.3333L 1 18.3333L 1 3.23529L -1 3.23529ZM -1 18.3333L -1 18.4118L 1 18.4118L 1 18.3333L -1 18.3333ZM -1 18.4118C -1 18.8725 -0.84297 19.2992 -0.58039 19.6375L 0.999579 18.4113L 1 18.4118L -1 18.4118ZM -0.641644 19.5492C -0.294981 20.1115 0.260891 20.5549 0.875305 20.9047C 1.50146 21.2612 2.25983 21.5609 3.10139 21.803C 4.78542 22.2877 6.89576 22.5686 9.16663 22.5686L 9.16663 20.5686C 7.04687 20.5686 5.12712 20.3048 3.6545 19.881C 2.91773 19.669 2.31615 19.4236 1.86481 19.1666C 1.40174 18.903 1.1626 18.6647 1.06083 18.4996L -0.641644 19.5492ZM 9.16663 22.5686C 11.4375 22.5686 13.5479 22.2877 15.2319 21.8031C 16.0735 21.5609 16.8319 21.2612 17.458 20.9047C 18.0725 20.5549 18.6283 20.1115 18.975 19.5492L 17.2725 18.4996C 17.1708 18.6647 16.9316 18.903 16.4686 19.1666C 16.0172 19.4236 15.4156 19.669 14.6788 19.8811C 13.2062 20.3048 11.2864 20.5686 9.16663 20.5686L 9.16663 22.5686ZM 18.9138 19.6375C 19.1764 19.2992 19.3334 18.8725 19.3334 18.4118L 17.3334 18.4118L 17.3338 18.4113L 18.9138 19.6375ZM 19.3334 18.4118L 19.3334 18.3333L 17.3334 18.3333L 17.3334 18.4118L 19.3334 18.4118ZM 19.3334 18.3333L 19.3334 3.23529L 17.3334 3.23529L 17.3334 18.3333L 19.3334 18.3333ZM 19.3334 3.23529L 19.3334 3.15686L 17.3334 3.15686L 17.3334 3.23529L 19.3334 3.23529ZM 19.3334 3.15686C 19.3334 2.69613 19.1763 2.26943 18.9138 1.93111L 17.3338 3.1573L 17.3334 3.15686L 19.3334 3.15686ZM 18.975 2.01942C 18.6283 1.4571 18.0725 1.01369 17.458 0.663906C 16.8319 0.307434 16.0735 0.00774809 15.2319 -0.234432C 13.5479 -0.719056 11.4375 -1 9.16663 -1L 9.16663 1C 11.2864 1 13.2062 1.26378 14.6788 1.68757C 15.4156 1.89959 16.0172 2.14504 16.4686 2.40199C 16.9316 2.66562 17.1708 2.90393 17.2725 3.06899L 18.975 2.01942ZM 9.16663 -1C 6.89576 -1 4.78541 -0.719048 3.10138 -0.234409C 2.25983 0.00777758 1.50145 0.307473 0.875301 0.663954C 0.260886 1.01375 -0.294985 1.45717 -0.641646 2.01949L 1.06084 3.06904C 1.1626 2.90397 1.40174 2.66565 1.86482 2.40202C 2.31615 2.14506 2.91774 1.89961 3.65451 1.68758C 5.12712 1.26379 7.04687 1 9.16663 1L 9.16663 -1ZM -0.58039 1.93114C -0.84296 2.26945 -1 2.69616 -1 3.15686L 1 3.15686L 0.999579 3.15739L -0.58039 1.93114ZM -1 3.15686L -1 3.23529L 1 3.23529L 1 3.15686L -1 3.15686Z"/>
    <path id="path2_fill" fill-rule="evenodd" d="M 1.09045 2.05016C 0.623265 1.66031 0.208805 1.14479 0.059233 0.51051C -0.00604818 0.233676 0.230573 0 0.515 0L 0.515 0C 0.799427 0 1.02431 0.239435 1.13873 0.499832C 1.81957 2.0493 5.6157 3.23529 10.1967 3.23529C 14.7776 3.23529 18.5738 2.0493 19.2546 0.499831C 19.369 0.239434 19.5939 0 19.8783 0L 19.8783 0C 20.1628 0 20.3994 0.233676 20.3341 0.51051C 20.1845 1.14479 19.7701 1.66031 19.3029 2.05016C 18.7103 2.54466 17.9143 2.94379 17.0213 3.25898C 15.2259 3.89264 12.813 4.26529 10.1967 4.26529C 7.58036 4.26529 5.16743 3.89264 3.37205 3.25898C 2.479 2.94379 1.68307 2.54466 1.09045 2.05016Z"/>
  </defs>
</svg>
