<svg width="20" height="19" viewBox="0 0 20 19" version="1.1" xmlns="http://www.w3.org/2000/svg" xmlns:xlink="http://www.w3.org/1999/xlink">
  <title>ic-geomap-gray</title>
  <desc>Created using Figma</desc>
  <g id="Canvas" transform="translate(-7411 -1850)">
    <g id="ic-geomap-gray">
      <g id="ic-world-pin">
        <g id="ic-geomap-gray">
          <use xlink:href="#path0_fill" transform="translate(7412 1853.32)" fill="#5F6C87"/>
          <use xlink:href="#path1_stroke" transform="translate(7412 1853.32)" fill="#5F6C87"/>
        </g>
      </g>
      <g id="?">
        <use xlink:href="#path2_fill" transform="translate(7423 1851)" fill="#5F6C87"/>
        <mask id="mask0_outline_out">
          <rect id="mask0_outline_inv" fill="white" x="-2" y="-1" width="11" height="14" transform="translate(7423 1851)"/>
          <use xlink:href="#path2_fill" fill="black" transform="translate(7423 1851)"/>
        </mask>
        <g mask="url(#mask0_outline_out)">
          <use xlink:href="#path3_stroke_2x" transform="translate(7423 1851)" fill="#FFFFFF"/>
        </g>
      </g>
    </g>
  </g>
  <defs>
    <path id="path0_fill" fill-rule="evenodd" d="M 7.06036 0C 3.16115 0 0 3.28654 0 7.34043C 0 11.3943 3.16115 14.6809 7.06036 14.6809C 10.9596 14.6809 14.1207 11.3943 14.1207 7.34043C 14.1207 3.28654 10.9596 0 7.06036 0L 7.06036 0ZM 4.89453 7.34043C 4.89453 6.67086 4.94554 6.00359 5.03558 5.34277C 5.70267 5.43915 6.37553 5.50509 7.06036 5.50509C 7.7452 5.50509 8.4185 5.43915 9.08559 5.34277C 9.17563 6.00359 9.2262 6.6704 9.2262 7.34043C 9.2262 8.01001 9.17563 8.67728 9.08559 9.33763C 8.4185 9.24125 7.7452 9.17531 7.06036 9.17531C 6.37553 9.17531 5.70223 9.24125 5.03558 9.33763C 4.94554 8.67728 4.89453 8.01001 4.89453 7.34043L 4.89453 7.34043ZM 9.95605 5.19622C 10.8374 5.01131 11.6965 4.73093 12.5353 4.37585C 12.9815 5.26401 13.2378 6.27114 13.2378 7.34052C 13.2378 8.40991 12.9815 9.41704 12.5353 10.3052C 11.6965 9.94965 10.8374 9.66928 9.95605 9.48482C 10.0536 8.77559 10.1086 8.05944 10.1086 7.34052C 10.1086 6.62161 10.0536 5.90546 9.95605 5.19622L 9.95605 5.19622ZM 12.0623 3.58546C 11.3264 3.88704 10.5759 4.13052 9.8055 4.2933C 9.5957 3.22807 9.27768 2.18866 8.85498 1.19629C 10.1603 1.60901 11.2794 2.46212 12.0623 3.58546L 12.0623 3.58546ZM 7.77155 0.963839C 8.30203 2.06366 8.69235 3.23357 8.93364 4.44037C 8.31623 4.52799 7.69349 4.58794 7.0601 4.58794C 6.42672 4.58794 5.80398 4.52799 5.18701 4.44037C 5.42786 3.23403 5.81862 2.06366 6.3491 0.963839C 6.58285 0.935709 6.81926 0.917725 7.0601 0.917725C 7.30095 0.917725 7.5378 0.935709 7.77155 0.963839L 7.77155 0.963839ZM 5.26587 1.19629C 4.84317 2.18866 4.52515 3.22807 4.31535 4.2933C 3.54492 4.13006 2.79399 3.88704 2.05859 3.58546C 2.84145 2.46166 3.96052 1.60901 5.26587 1.19629L 5.26587 1.19629ZM 1.58588 4.37585C 2.42462 4.73093 3.28333 5.01131 4.1651 5.19622C 4.06752 5.90546 4.01252 6.62161 4.01252 7.34052C 4.01252 8.05944 4.06752 8.77559 4.16465 9.48436C 3.28333 9.66928 2.42462 9.94965 1.58588 10.3052C 1.13923 9.41704 0.883301 8.40991 0.883301 7.34052C 0.883301 6.27068 1.13923 5.26355 1.58588 4.37585L 1.58588 4.37585ZM 2.05859 11.0955C 2.79399 10.7944 3.54492 10.5509 4.31491 10.3877C 4.52471 11.4534 4.84362 12.4928 5.2672 13.4852C 3.9614 13.0725 2.8419 12.2193 2.05859 11.0955L 2.05859 11.0955ZM 6.35088 13.7176C 5.81951 12.6178 5.4283 11.4474 5.18701 10.2406C 5.80398 10.153 6.42672 10.093 7.0601 10.093C 7.69349 10.093 8.31623 10.153 8.9332 10.2406C 8.69235 11.4474 8.30115 12.6173 7.77067 13.7171C 7.53692 13.7452 7.30051 13.7632 7.0601 13.7632C 6.82015 13.7632 6.58374 13.7452 6.35088 13.7176L 6.35088 13.7176ZM 8.85352 13.4852C 9.27666 12.4928 9.59512 11.4534 9.80536 10.3877C 10.5754 10.5509 11.3263 10.7944 12.0617 11.0955C 11.2788 12.2193 10.1593 13.0725 8.85352 13.4852L 8.85352 13.4852Z"/>
    <path id="path1_stroke" d="M 5.03558 5.34277L 5.07133 5.09534L 4.82189 5.05931L 4.78787 5.30902L 5.03558 5.34277ZM 9.08559 5.34277L 9.33331 5.30902L 9.29928 5.05931L 9.04985 5.09534L 9.08559 5.34277ZM 9.08559 9.33763L 9.04985 9.58506L 9.29926 9.62109L 9.3333 9.3714L 9.08559 9.33763ZM 5.03558 9.33763L 4.78787 9.3714L 4.82192 9.62112L 5.07135 9.58506L 5.03558 9.33763ZM 12.5353 4.37585L 12.7587 4.26362L 12.6535 4.05432L 12.4378 4.14563L 12.5353 4.37585ZM 12.5353 10.3052L 12.4377 10.5354L 12.6535 10.6268L 12.7587 10.4174L 12.5353 10.3052ZM 9.95605 9.48482L 9.70839 9.45075L 9.6766 9.68175L 9.90484 9.72952L 9.95605 9.48482ZM 9.8055 4.2933L 9.56021 4.34161L 9.60919 4.5903L 9.85718 4.5379L 9.8055 4.2933ZM 8.85498 1.19629L 8.93035 0.95792L 8.41189 0.793997L 8.62498 1.29426L 8.85498 1.19629ZM 8.93364 4.44037L 8.96877 4.68789L 9.23065 4.65073L 9.17879 4.39136L 8.93364 4.44037ZM 5.18701 4.44037L 4.94185 4.39143L 4.89008 4.65071L 5.15186 4.68789L 5.18701 4.44037ZM 6.3491 0.963839L 6.31923 0.715629L 6.18337 0.731979L 6.12393 0.855229L 6.3491 0.963839ZM 4.31535 4.2933L 4.26353 4.53788L 4.51164 4.59044L 4.56064 4.34161L 4.31535 4.2933ZM 2.05859 3.58546L 1.85346 3.44256L 1.67521 3.69844L 1.96374 3.81676L 2.05859 3.58546ZM 4.1651 5.19622L 4.41276 5.2303L 4.44453 4.99939L 4.21641 4.95154L 4.1651 5.19622ZM 4.16465 9.48436L 4.21599 9.72904L 4.44396 9.6812L 4.41234 9.45042L 4.16465 9.48436ZM 1.58588 10.3052L 1.36253 10.4175L 1.46777 10.6268L 1.68345 10.5354L 1.58588 10.3052ZM 4.31491 10.3877L 4.5602 10.3394L 4.51121 10.0905L 4.26306 10.1431L 4.31491 10.3877ZM 5.2672 13.4852L 5.19186 13.7235L 5.71078 13.8876L 5.49713 13.387L 5.2672 13.4852ZM 5.18701 10.2406L 5.15186 9.99307L 4.89001 10.0303L 4.94186 10.2896L 5.18701 10.2406ZM 8.9332 10.2406L 9.17836 10.2895L 9.23011 10.0302L 8.96835 9.99307L 8.9332 10.2406ZM 7.77067 13.7171L 7.80053 13.9653L 7.93639 13.949L 7.99584 13.8257L 7.77067 13.7171ZM 9.80536 10.3877L 9.85721 10.1431L 9.60917 10.0905L 9.56009 10.3393L 9.80536 10.3877ZM 12.0617 11.0955L 12.2668 11.2384L 12.4452 10.9824L 12.1564 10.8642L 12.0617 11.0955ZM 7.06036 -0.25C 3.014 -0.25 -0.25 3.15773 -0.25 7.34043L 0.25 7.34043C 0.25 3.41536 3.3083 0.25 7.06036 0.25L 7.06036 -0.25ZM -0.25 7.34043C -0.25 11.5231 3.014 14.9309 7.06036 14.9309L 7.06036 14.4309C 3.3083 14.4309 0.25 11.2655 0.25 7.34043L -0.25 7.34043ZM 7.06036 14.9309C 11.1067 14.9309 14.3707 11.5231 14.3707 7.34043L 13.8707 7.34043C 13.8707 11.2655 10.8124 14.4309 7.06036 14.4309L 7.06036 14.9309ZM 14.3707 7.34043C 14.3707 3.15773 11.1067 -0.25 7.06036 -0.25L 7.06036 0.25C 10.8124 0.25 13.8707 3.41536 13.8707 7.34043L 14.3707 7.34043ZM 5.14453 7.34043C 5.14453 6.68352 5.19458 6.0276 5.28329 5.37653L 4.78787 5.30902C 4.6965 5.97958 4.64453 6.6582 4.64453 7.34043L 5.14453 7.34043ZM 4.99983 5.5902C 5.6742 5.68763 6.35971 5.75509 7.06036 5.75509L 7.06036 5.25509C 6.39135 5.25509 5.73114 5.19067 5.07133 5.09534L 4.99983 5.5902ZM 7.06036 5.75509C 7.76102 5.75509 8.44696 5.68764 9.12134 5.5902L 9.04985 5.09534C 8.39004 5.19067 7.72938 5.25509 7.06036 5.25509L 7.06036 5.75509ZM 8.83788 5.37653C 8.92658 6.02749 8.9762 6.68295 8.9762 7.34043L 9.4762 7.34043C 9.4762 6.65784 9.42469 5.97969 9.33331 5.30902L 8.83788 5.37653ZM 8.9762 7.34043C 8.9762 7.99745 8.92658 8.65338 8.83789 9.30385L 9.3333 9.3714C 9.42469 8.70117 9.4762 8.02256 9.4762 7.34043L 8.9762 7.34043ZM 9.12134 9.0902C 8.44696 8.99277 7.76102 8.92531 7.06036 8.92531L 7.06036 9.42531C 7.72938 9.42531 8.39004 9.48973 9.04985 9.58506L 9.12134 9.0902ZM 7.06036 8.92531C 6.35971 8.92531 5.67377 8.99277 4.99981 9.0902L 5.07135 9.58506C 5.73069 9.48973 6.39135 9.42531 7.06036 9.42531L 7.06036 8.92531ZM 5.28329 9.30385C 5.19458 8.65326 5.14453 7.99735 5.14453 7.34043L 4.64453 7.34043C 4.64453 8.02266 4.6965 8.70129 4.78787 9.3714L 5.28329 9.30385ZM 10.0074 5.44089C 10.9065 5.25225 11.7811 4.96662 12.6327 4.60607L 12.4378 4.14563C 11.612 4.49525 10.7683 4.77036 9.90472 4.95155L 10.0074 5.44089ZM 12.3119 4.48809C 12.7412 5.34269 12.9878 6.31151 12.9878 7.34052L 13.4878 7.34052C 13.4878 6.23077 13.2217 5.18533 12.7587 4.26362L 12.3119 4.48809ZM 12.9878 7.34052C 12.9878 8.36953 12.7412 9.33836 12.3119 10.193L 12.7587 10.4174C 13.2217 9.49572 13.4878 8.45028 13.4878 7.34052L 12.9878 7.34052ZM 12.6328 10.075C 11.7811 9.71398 10.9064 9.42832 10.0073 9.24013L 9.90484 9.72952C 10.7683 9.91024 11.6119 10.1853 12.4377 10.5354L 12.6328 10.075ZM 10.2037 9.5189C 10.3027 8.79976 10.3586 8.07216 10.3586 7.34052L 9.85863 7.34052C 9.85863 8.04672 9.80461 8.75142 9.70839 9.45075L 10.2037 9.5189ZM 10.3586 7.34052C 10.3586 6.60889 10.3027 5.88128 10.2037 5.16215L 9.70839 5.2303C 9.80461 5.92963 9.85863 6.63433 9.85863 7.34052L 10.3586 7.34052ZM 11.9675 3.35413C 11.243 3.65103 10.5071 3.88955 9.75382 4.0487L 9.85718 4.5379C 10.6448 4.37149 11.4098 4.12305 12.1571 3.81678L 11.9675 3.35413ZM 10.0508 4.245C 9.8377 3.16305 9.51462 2.10698 9.08498 1.09832L 8.62498 1.29426C 9.04074 2.27035 9.3537 3.29309 9.56021 4.34161L 10.0508 4.245ZM 8.77961 1.43466C 10.0294 1.82981 11.104 2.64769 11.8572 3.72839L 12.2674 3.44252C 11.4548 2.27655 10.2913 1.3882 8.93035 0.95792L 8.77961 1.43466ZM 7.54638 1.07245C 8.06758 2.15304 8.45127 3.3029 8.68849 4.48939L 9.17879 4.39136C 8.93344 3.16424 8.53648 1.97427 7.99673 0.855229L 7.54638 1.07245ZM 8.89852 4.19285C 8.28825 4.27945 7.67794 4.33794 7.0601 4.33794L 7.0601 4.83794C 7.70903 4.83794 8.3442 4.77652 8.96877 4.68789L 8.89852 4.19285ZM 7.0601 4.33794C 6.44227 4.33794 5.83196 4.27945 5.22216 4.19286L 5.15186 4.68789C 5.77601 4.77652 6.41118 4.83794 7.0601 4.83794L 7.0601 4.33794ZM 5.43217 4.48932C 5.66894 3.30338 6.05305 2.15308 6.57428 1.07245L 6.12393 0.855229C 5.58419 1.97424 5.18677 3.16468 4.94185 4.39143L 5.43217 4.48932ZM 6.37897 1.21205C 6.60551 1.18479 6.83164 1.16772 7.0601 1.16772L 7.0601 0.667725C 6.80688 0.667725 6.56019 0.686633 6.31923 0.715629L 6.37897 1.21205ZM 7.0601 1.16772C 7.28859 1.16772 7.51516 1.18479 7.74168 1.21205L 7.80142 0.715629C 7.56044 0.68663 7.31331 0.667725 7.0601 0.667725L 7.0601 1.16772ZM 5.03587 1.09832C 4.60623 2.10698 4.28315 3.16305 4.07007 4.245L 4.56064 4.34161C 4.76715 3.29309 5.08011 2.27035 5.49588 1.29426L 5.03587 1.09832ZM 4.36717 4.04873C 3.61372 3.88909 2.87726 3.65098 2.15345 3.35415L 1.96374 3.81676C 2.71073 4.1231 3.47611 4.37103 4.26353 4.53788L 4.36717 4.04873ZM 2.26373 3.72835C 3.01684 2.64726 4.0914 1.82983 5.34124 1.43466L 5.19051 0.95792C 3.82964 1.38819 2.66607 2.27606 1.85346 3.44256L 2.26373 3.72835ZM 1.48841 4.60607C 2.34004 4.96661 3.21421 5.25225 4.11378 5.4409L 4.21641 4.95154C 3.35244 4.77036 2.5092 4.49526 1.68334 4.14563L 1.48841 4.60607ZM 3.91743 5.16215C 3.81849 5.88128 3.76252 6.60889 3.76252 7.34052L 4.26252 7.34052C 4.26252 6.63433 4.31654 5.92963 4.41276 5.2303L 3.91743 5.16215ZM 3.76252 7.34052C 3.76252 8.07215 3.81848 8.79972 3.91697 9.51831L 4.41234 9.45042C 4.31655 8.75146 4.26252 8.04673 4.26252 7.34052L 3.76252 7.34052ZM 4.11332 9.23969C 3.21419 9.42834 2.34 9.71399 1.48831 10.075L 1.68345 10.5354C 2.50924 10.1853 3.35246 9.91022 4.21599 9.72904L 4.11332 9.23969ZM 1.80922 10.1929C 1.37951 9.33839 1.1333 8.3696 1.1333 7.34052L 0.633301 7.34052C 0.633301 8.45021 0.898947 9.49569 1.36253 10.4175L 1.80922 10.1929ZM 1.1333 7.34052C 1.1333 6.31097 1.37951 5.3422 1.8092 4.48822L 1.36255 4.26349C 0.898939 5.1849 0.633301 6.23039 0.633301 7.34052L 1.1333 7.34052ZM 2.15333 11.3269C 2.87731 11.0305 3.61381 10.7919 4.36676 10.6323L 4.26306 10.1431C 3.47602 10.31 2.71067 10.5584 1.96386 10.8642L 2.15333 11.3269ZM 4.06962 10.436C 4.28273 11.5185 4.60674 12.5747 5.03727 13.5833L 5.49713 13.387C 5.08049 12.4109 4.76668 11.3882 4.5602 10.3394L 4.06962 10.436ZM 5.34255 13.2468C 4.09229 12.8516 3.01727 12.0337 2.26369 10.9526L 1.8535 11.2385C 2.66652 12.4049 3.83052 13.2933 5.19186 13.7235L 5.34255 13.2468ZM 6.57598 13.6088C 6.0539 12.5282 5.66937 11.378 5.43216 10.1916L 4.94186 10.2896C 5.18723 11.5168 5.58511 12.7073 6.12577 13.8263L 6.57598 13.6088ZM 5.22216 10.4881C 5.83196 10.4015 6.44227 10.343 7.0601 10.343L 7.0601 9.84302C 6.41118 9.84302 5.77601 9.90443 5.15186 9.99307L 5.22216 10.4881ZM 7.0601 10.343C 7.67794 10.343 8.28825 10.4015 8.89805 10.4881L 8.96835 9.99307C 8.3442 9.90443 7.70903 9.84302 7.0601 9.84302L 7.0601 10.343ZM 8.68803 10.1917C 8.45128 11.378 8.06675 12.5278 7.54549 13.6085L 7.99584 13.8257C 8.53554 12.7068 8.93343 11.5168 9.17836 10.2895L 8.68803 10.1917ZM 7.7408 13.4689C 7.51424 13.4962 7.28812 13.5132 7.0601 13.5132L 7.0601 14.0132C 7.3129 14.0132 7.55959 13.9943 7.80053 13.9653L 7.7408 13.4689ZM 7.0601 13.5132C 6.83251 13.5132 6.6063 13.4962 6.38037 13.4693L 6.32138 13.9658C 6.56117 13.9943 6.80778 14.0132 7.0601 14.0132L 7.0601 13.5132ZM 9.08348 13.5832C 9.51357 12.5746 9.8371 11.5185 10.0506 10.4361L 9.56009 10.3393C 9.35315 11.3883 9.03975 12.411 8.62355 13.3871L 9.08348 13.5832ZM 9.75352 10.6323C 10.5065 10.7919 11.243 11.0305 11.9669 11.3269L 12.1564 10.8642C 11.4096 10.5584 10.6443 10.31 9.85721 10.1431L 9.75352 10.6323ZM 11.8565 10.9526C 11.1034 12.0337 10.0284 12.8516 8.77817 13.2468L 8.92886 13.7235C 10.2902 13.2933 11.4542 12.4049 12.2668 11.2384L 11.8565 10.9526Z"/>
    <path id="path2_fill" d="M 0 1.20242C 0.212121 1.03564 0.441442 0.879624 0.687961 0.734365C 0.940213 0.589106 1.20966 0.462677 1.49631 0.355078C 1.78296 0.242098 2.08968 0.156019 2.41646 0.0968399C 2.74898 0.03228 3.10729 0 3.4914 0C 4.0303 0 4.51474 0.0672498 4.94472 0.201749C 5.38043 0.336248 5.7502 0.529926 6.05405 0.782784C 6.3579 1.03026 6.59009 1.33154 6.75061 1.68662C 6.91687 2.03631 7 2.42636 7 2.85676C 7 3.27102 6.9398 3.62609 6.81941 3.92199C 6.69902 4.21789 6.54423 4.47613 6.35504 4.69671C 6.17158 4.91728 5.96806 5.10827 5.74447 5.26967C 5.52662 5.42569 5.31736 5.57364 5.11671 5.71352C 4.92179 5.8534 4.7498 5.99059 4.60074 6.12508C 4.45741 6.25958 4.36855 6.41022 4.33415 6.577L 4.09337 7.70679L 2.27027 7.70679L 2.08108 6.40753C 2.07535 6.37525 2.06962 6.34297 2.06388 6.31069C 2.06388 6.27841 2.06388 6.24613 2.06388 6.21385C 2.06388 5.97714 2.12408 5.77001 2.24447 5.59247C 2.36486 5.41493 2.51679 5.25353 2.70025 5.10827C 2.8837 4.95763 3.08149 4.81506 3.29361 4.68057C 3.50573 4.54069 3.70352 4.39274 3.88698 4.23672C 4.07043 4.07532 4.22236 3.89778 4.34275 3.7041C 4.46315 3.50504 4.52334 3.27102 4.52334 3.00202C 4.52334 2.67922 4.40868 2.42367 4.17936 2.23537C 3.95577 2.0417 3.64619 1.94486 3.25061 1.94486C 2.94677 1.94486 2.69165 1.97445 2.48526 2.03363C 2.2846 2.0928 2.10975 2.16005 1.96069 2.23537C 1.81736 2.30531 1.69124 2.36987 1.58231 2.42905C 1.47338 2.48823 1.36446 2.51782 1.25553 2.51782C 1.00901 2.51782 0.825553 2.41829 0.70516 2.21923L 0 1.20242ZM 1.58231 10.62C 1.58231 10.4264 1.61957 10.2461 1.6941 10.0794C 1.77437 9.91258 1.88043 9.76732 2.01229 9.64358C 2.14988 9.51984 2.3104 9.423 2.49386 9.35306C 2.67731 9.27774 2.87797 9.24008 3.09582 9.24008C 3.30794 9.24008 3.50573 9.27774 3.68919 9.35306C 3.87265 9.423 4.03317 9.51984 4.17076 9.64358C 4.30835 9.76732 4.41441 9.91258 4.48894 10.0794C 4.56921 10.2461 4.60934 10.4264 4.60934 10.62C 4.60934 10.8137 4.56921 10.9966 4.48894 11.1688C 4.41441 11.3356 4.30835 11.4808 4.17076 11.6046C 4.03317 11.7283 3.87265 11.8252 3.68919 11.8951C 3.50573 11.965 3.30794 12 3.09582 12C 2.87797 12 2.67731 11.965 2.49386 11.8951C 2.3104 11.8252 2.14988 11.7283 2.01229 11.6046C 1.88043 11.4808 1.77437 11.3356 1.6941 11.1688C 1.61957 10.9966 1.58231 10.8137 1.58231 10.62Z"/>
    <path id="path3_stroke_2x" d="M 0 1.20242L -0.618079 0.416305L -1.35843 0.9984L -0.821733 1.77229L 0 1.20242ZM 0.687961 0.734365L 0.188912 -0.132266L 0.180299 -0.127191L 0.687961 0.734365ZM 1.49631 0.355078L 1.84774 1.29129L 1.85539 1.28842L 1.863 1.28542L 1.49631 0.355078ZM 2.41646 0.0968399L 2.59467 1.08091L 2.60706 1.07851L 2.41646 0.0968399ZM 4.94472 0.201749L 4.64617 1.15615L 4.64976 1.15726L 4.94472 0.201749ZM 6.05405 0.782784L 5.41436 1.55148L 5.42254 1.55815L 6.05405 0.782784ZM 6.75061 1.68662L 5.8394 2.09856L 5.84336 2.10731L 5.84749 2.11599L 6.75061 1.68662ZM 6.81941 3.92199L 5.89315 3.54512L 5.89315 3.54512L 6.81941 3.92199ZM 6.35504 4.69671L 5.59599 4.04567L 5.59105 4.05143L 5.5862 4.05726L 6.35504 4.69671ZM 5.74447 5.26967L 6.32672 6.08269L 6.32977 6.08049L 5.74447 5.26967ZM 5.11671 5.71352L 4.54478 4.8931L 4.53368 4.90106L 5.11671 5.71352ZM 4.60074 6.12508L 3.93082 5.38265L 3.92357 5.3892L 3.91644 5.39588L 4.60074 6.12508ZM 4.33415 6.577L 5.31221 6.78545L 5.31354 6.779L 4.33415 6.577ZM 4.09337 7.70679L 4.09337 8.70679L 4.9027 8.70679L 5.0714 7.91524L 4.09337 7.70679ZM 2.27027 7.70679L 1.28071 7.85089L 1.40534 8.70679L 2.27027 8.70679L 2.27027 7.70679ZM 2.08108 6.40753L 3.07065 6.26344L 3.0684 6.24801L 3.06567 6.23267L 2.08108 6.40753ZM 2.06388 6.31069L 1.06388 6.31069L 1.06388 6.39881L 1.07929 6.48556L 2.06388 6.31069ZM 2.24447 5.59247L 3.07212 6.15372L 3.07212 6.15372L 2.24447 5.59247ZM 2.70025 5.10827L 3.32101 5.89227L 3.32797 5.88676L 3.33484 5.88112L 2.70025 5.10827ZM 3.29361 4.68057L 3.82911 5.5251L 3.83666 5.52032L 3.84412 5.51539L 3.29361 4.68057ZM 3.88698 4.23672L 4.53482 4.99849L 4.54121 4.99306L 4.54751 4.98752L 3.88698 4.23672ZM 4.34275 3.7041L 5.1921 4.23207L 5.19842 4.22162L 4.34275 3.7041ZM 4.17936 2.23537L 3.52462 2.99123L 3.53458 2.99985L 3.54477 3.00822L 4.17936 2.23537ZM 2.48526 2.03363L 2.20962 1.07233L 2.20238 1.07447L 2.48526 2.03363ZM 1.96069 2.23537L 2.39928 3.13417L 2.41169 3.1279L 1.96069 2.23537ZM 1.58231 2.42905L 1.10492 1.55036L 1.10492 1.55036L 1.58231 2.42905ZM 0.70516 2.21923L 1.56083 1.70171L 1.54468 1.67501L 1.52689 1.64936L 0.70516 2.21923ZM 1.6941 10.0794L 0.79302 9.64571L 0.786887 9.65845L 0.781117 9.67137L 1.6941 10.0794ZM 2.01229 9.64358L 1.3436 8.90003L 1.33572 8.90712L 1.32799 8.91437L 2.01229 9.64358ZM 2.49386 9.35306L 2.85008 10.2875L 2.86193 10.2829L 2.87365 10.2781L 2.49386 9.35306ZM 3.68919 9.35306L 3.30939 10.2781L 3.32112 10.2829L 3.33297 10.2875L 3.68919 9.35306ZM 4.48894 10.0794L 3.57596 10.4873L 3.58173 10.5003L 3.58786 10.513L 4.48894 10.0794ZM 4.48894 11.1688L 3.5826 10.7463L 3.57922 10.7535L 3.57596 10.7608L 4.48894 11.1688ZM 4.17076 11.6046L 3.50208 10.861L 3.50208 10.861L 4.17076 11.6046ZM 2.01229 11.6046L 1.32799 12.3338L 1.33572 12.341L 1.3436 12.3481L 2.01229 11.6046ZM 1.6941 11.1688L 0.776406 11.5661L 0.784349 11.5844L 0.79302 11.6024L 1.6941 11.1688ZM 0.618079 1.98854C 0.793085 1.85094 0.985256 1.71988 1.19562 1.59592L 0.180299 -0.127191C -0.102373 0.0393697 -0.368842 0.220344 -0.618079 0.416305L 0.618079 1.98854ZM 1.18698 1.60095C 1.38965 1.48425 1.60948 1.38073 1.84774 1.29129L 1.14489 -0.581139C 0.809849 -0.455375 0.490778 -0.306038 0.188937 -0.132223L 1.18698 1.60095ZM 1.863 1.28542C 2.08422 1.19823 2.32736 1.12924 2.59466 1.08083L 2.23826 -0.887155C 1.852 -0.817204 1.48171 -0.714037 1.12963 -0.575268L 1.863 1.28542ZM 2.60706 1.07851C 2.86908 1.02763 3.16292 1 3.4914 1L 3.4914 -1C 3.05166 -1 2.62887 -0.963075 2.22586 -0.884828L 2.60706 1.07851ZM 3.4914 1C 3.94828 1 4.32961 1.05712 4.64618 1.15615L 5.24326 -0.752647C 4.69987 -0.922622 4.11233 -1 3.4914 -1L 3.4914 1ZM 4.64976 1.15726C 4.97854 1.25875 5.22635 1.39496 5.41439 1.55144L 6.69372 0.0141277C 6.27406 -0.335106 5.78231 -0.586255 5.23967 -0.753761L 4.64976 1.15726ZM 5.42254 1.55815C 5.60697 1.70836 5.74308 1.88548 5.8394 2.09856L 7.66182 1.27467C 7.4371 0.777598 7.10884 0.352162 6.68557 0.00742057L 5.42254 1.55815ZM 5.84749 2.11599C 5.94315 2.31721 6 2.55819 6 2.85676L 8 2.85676C 8 2.29454 7.89059 1.75542 7.65374 1.25724L 5.84749 2.11599ZM 6 2.85676C 6 3.17836 5.95274 3.39865 5.89315 3.54512L 7.74568 4.29886C 7.92687 3.85354 8 3.36367 8 2.85676L 6 2.85676ZM 5.89315 3.54512C 5.80935 3.75107 5.70843 3.91458 5.59599 4.04567L 7.11409 5.34774C 7.38003 5.03768 7.58869 4.6847 7.74568 4.29886L 5.89315 3.54512ZM 5.5862 4.05726C 5.45431 4.21584 5.31192 4.34859 5.15917 4.45885L 6.32977 6.08049C 6.6242 5.86795 6.88886 5.61872 7.12387 5.33615L 5.5862 4.05726ZM 5.16222 4.45666C 4.94749 4.61044 4.74171 4.75593 4.54484 4.89317L 5.68858 6.53386C 5.89302 6.39134 6.10574 6.24094 6.32672 6.08268L 5.16222 4.45666ZM 4.53368 4.90106C 4.31414 5.05861 4.11222 5.21897 3.93082 5.38265L 5.27066 6.86752C 5.38737 6.7622 5.52943 6.64818 5.69973 6.52597L 4.53368 4.90106ZM 3.91644 5.39588C 3.64671 5.649 3.437 5.97631 3.35477 6.375L 5.31354 6.779C 5.30789 6.80636 5.29788 6.83011 5.2879 6.84702C 5.27858 6.86283 5.27414 6.86451 5.28503 6.85429L 3.91644 5.39588ZM 3.35612 6.36856L 3.11533 7.49835L 5.0714 7.91524L 5.31219 6.78544L 3.35612 6.36856ZM 4.09337 6.70679L 2.27027 6.70679L 2.27027 8.70679L 4.09337 8.70679L 4.09337 6.70679ZM 3.25983 7.5627L 3.07065 6.26344L 1.09152 6.55162L 1.28071 7.85089L 3.25983 7.5627ZM 3.06567 6.23267C 3.05994 6.20038 3.05421 6.1681 3.04847 6.13582L 1.07929 6.48556C 1.08502 6.51785 1.09076 6.55012 1.09649 6.5824L 3.06567 6.23267ZM 3.06388 6.31069C 3.06388 6.31063 3.06388 6.31057 3.06388 6.3105C 3.06388 6.31044 3.06388 6.31038 3.06388 6.31031C 3.06388 6.31025 3.06388 6.31019 3.06388 6.31013C 3.06388 6.31006 3.06388 6.31 3.06388 6.30994C 3.06388 6.30987 3.06388 6.30981 3.06388 6.30975C 3.06388 6.30968 3.06388 6.30962 3.06388 6.30956C 3.06388 6.3095 3.06388 6.30943 3.06388 6.30937C 3.06388 6.30931 3.06388 6.30924 3.06388 6.30918C 3.06388 6.30912 3.06388 6.30905 3.06388 6.30899C 3.06388 6.30893 3.06388 6.30886 3.06388 6.3088C 3.06388 6.30874 3.06388 6.30868 3.06388 6.30861C 3.06388 6.30855 3.06388 6.30849 3.06388 6.30842C 3.06388 6.30836 3.06388 6.3083 3.06388 6.30823C 3.06388 6.30817 3.06388 6.30811 3.06388 6.30805C 3.06388 6.30798 3.06388 6.30792 3.06388 6.30786C 3.06388 6.30779 3.06388 6.30773 3.06388 6.30767C 3.06388 6.3076 3.06388 6.30754 3.06388 6.30748C 3.06388 6.30741 3.06388 6.30735 3.06388 6.30729C 3.06388 6.30723 3.06388 6.30716 3.06388 6.3071C 3.06388 6.30704 3.06388 6.30697 3.06388 6.30691C 3.06388 6.30685 3.06388 6.30678 3.06388 6.30672C 3.06388 6.30666 3.06388 6.3066 3.06388 6.30653C 3.06388 6.30647 3.06388 6.30641 3.06388 6.30634C 3.06388 6.30628 3.06388 6.30622 3.06388 6.30615C 3.06388 6.30609 3.06388 6.30603 3.06388 6.30596C 3.06388 6.3059 3.06388 6.30584 3.06388 6.30578C 3.06388 6.30571 3.06388 6.30565 3.06388 6.30559C 3.06388 6.30552 3.06388 6.30546 3.06388 6.3054C 3.06388 6.30533 3.06388 6.30527 3.06388 6.30521C 3.06388 6.30514 3.06388 6.30508 3.06388 6.30502C 3.06388 6.30496 3.06388 6.30489 3.06388 6.30483C 3.06388 6.30477 3.06388 6.3047 3.06388 6.30464C 3.06388 6.30458 3.06388 6.30451 3.06388 6.30445C 3.06388 6.30439 3.06388 6.30433 3.06388 6.30426C 3.06388 6.3042 3.06388 6.30414 3.06388 6.30407C 3.06388 6.30401 3.06388 6.30395 3.06388 6.30388C 3.06388 6.30382 3.06388 6.30376 3.06388 6.30369C 3.06388 6.30363 3.06388 6.30357 3.06388 6.30351C 3.06388 6.30344 3.06388 6.30338 3.06388 6.30332C 3.06388 6.30325 3.06388 6.30319 3.06388 6.30313C 3.06388 6.30306 3.06388 6.303 3.06388 6.30294C 3.06388 6.30288 3.06388 6.30281 3.06388 6.30275C 3.06388 6.30269 3.06388 6.30262 3.06388 6.30256C 3.06388 6.3025 3.06388 6.30243 3.06388 6.30237C 3.06388 6.30231 3.06388 6.30224 3.06388 6.30218C 3.06388 6.30212 3.06388 6.30206 3.06388 6.30199C 3.06388 6.30193 3.06388 6.30187 3.06388 6.3018C 3.06388 6.30174 3.06388 6.30168 3.06388 6.30161C 3.06388 6.30155 3.06388 6.30149 3.06388 6.30143C 3.06388 6.30136 3.06388 6.3013 3.06388 6.30124C 3.06388 6.30117 3.06388 6.30111 3.06388 6.30105C 3.06388 6.30098 3.06388 6.30092 3.06388 6.30086C 3.06388 6.30079 3.06388 6.30073 3.06388 6.30067C 3.06388 6.30061 3.06388 6.30054 3.06388 6.30048C 3.06388 6.30042 3.06388 6.30035 3.06388 6.30029C 3.06388 6.30023 3.06388 6.30016 3.06388 6.3001C 3.06388 6.30004 3.06388 6.29998 3.06388 6.29991C 3.06388 6.29985 3.06388 6.29979 3.06388 6.29972C 3.06388 6.29966 3.06388 6.2996 3.06388 6.29953C 3.06388 6.29947 3.06388 6.29941 3.06388 6.29934C 3.06388 6.29928 3.06388 6.29922 3.06388 6.29916C 3.06388 6.29909 3.06388 6.29903 3.06388 6.29897C 3.06388 6.2989 3.06388 6.29884 3.06388 6.29878C 3.06388 6.29871 3.06388 6.29865 3.06388 6.29859C 3.06388 6.29853 3.06388 6.29846 3.06388 6.2984C 3.06388 6.29834 3.06388 6.29827 3.06388 6.29821C 3.06388 6.29815 3.06388 6.29808 3.06388 6.29802C 3.06388 6.29796 3.06388 6.29789 3.06388 6.29783C 3.06388 6.29777 3.06388 6.29771 3.06388 6.29764C 3.06388 6.29758 3.06388 6.29752 3.06388 6.29745C 3.06388 6.29739 3.06388 6.29733 3.06388 6.29726C 3.06388 6.2972 3.06388 6.29714 3.06388 6.29708C 3.06388 6.29701 3.06388 6.29695 3.06388 6.29689C 3.06388 6.29682 3.06388 6.29676 3.06388 6.2967C 3.06388 6.29663 3.06388 6.29657 3.06388 6.29651C 3.06388 6.29644 3.06388 6.29638 3.06388 6.29632C 3.06388 6.29626 3.06388 6.29619 3.06388 6.29613C 3.06388 6.29607 3.06388 6.296 3.06388 6.29594C 3.06388 6.29588 3.06388 6.29581 3.06388 6.29575C 3.06388 6.29569 3.06388 6.29562 3.06388 6.29556C 3.06388 6.2955 3.06388 6.29544 3.06388 6.29537C 3.06388 6.29531 3.06388 6.29525 3.06388 6.29518C 3.06388 6.29512 3.06388 6.29506 3.06388 6.29499C 3.06388 6.29493 3.06388 6.29487 3.06388 6.29481C 3.06388 6.29474 3.06388 6.29468 3.06388 6.29462C 3.06388 6.29455 3.06388 6.29449 3.06388 6.29443C 3.06388 6.29436 3.06388 6.2943 3.06388 6.29424C 3.06388 6.29417 3.06388 6.29411 3.06388 6.29405C 3.06388 6.29399 3.06388 6.29392 3.06388 6.29386C 3.06388 6.2938 3.06388 6.29373 3.06388 6.29367C 3.06388 6.29361 3.06388 6.29354 3.06388 6.29348C 3.06388 6.29342 3.06388 6.29336 3.06388 6.29329C 3.06388 6.29323 3.06388 6.29317 3.06388 6.2931C 3.06388 6.29304 3.06388 6.29298 3.06388 6.29291C 3.06388 6.29285 3.06388 6.29279 3.06388 6.29272C 3.06388 6.29266 3.06388 6.2926 3.06388 6.29254C 3.06388 6.29247 3.06388 6.29241 3.06388 6.29235C 3.06388 6.29228 3.06388 6.29222 3.06388 6.29216C 3.06388 6.29209 3.06388 6.29203 3.06388 6.29197C 3.06388 6.29191 3.06388 6.29184 3.06388 6.29178C 3.06388 6.29172 3.06388 6.29165 3.06388 6.29159C 3.06388 6.29153 3.06388 6.29146 3.06388 6.2914C 3.06388 6.29134 3.06388 6.29127 3.06388 6.29121C 3.06388 6.29115 3.06388 6.29109 3.06388 6.29102C 3.06388 6.29096 3.06388 6.2909 3.06388 6.29083C 3.06388 6.29077 3.06388 6.29071 3.06388 6.29064C 3.06388 6.29058 3.06388 6.29052 3.06388 6.29046C 3.06388 6.29039 3.06388 6.29033 3.06388 6.29027C 3.06388 6.2902 3.06388 6.29014 3.06388 6.29008C 3.06388 6.29001 3.06388 6.28995 3.06388 6.28989C 3.06388 6.28982 3.06388 6.28976 3.06388 6.2897C 3.06388 6.28964 3.06388 6.28957 3.06388 6.28951C 3.06388 6.28945 3.06388 6.28938 3.06388 6.28932C 3.06388 6.28926 3.06388 6.28919 3.06388 6.28913C 3.06388 6.28907 3.06388 6.28901 3.06388 6.28894C 3.06388 6.28888 3.06388 6.28882 3.06388 6.28875C 3.06388 6.28869 3.06388 6.28863 3.06388 6.28856C 3.06388 6.2885 3.06388 6.28844 3.06388 6.28837C 3.06388 6.28831 3.06388 6.28825 3.06388 6.28819C 3.06388 6.28812 3.06388 6.28806 3.06388 6.288C 3.06388 6.28793 3.06388 6.28787 3.06388 6.28781C 3.06388 6.28774 3.06388 6.28768 3.06388 6.28762C 3.06388 6.28755 3.06388 6.28749 3.06388 6.28743C 3.06388 6.28737 3.06388 6.2873 3.06388 6.28724C 3.06388 6.28718 3.06388 6.28711 3.06388 6.28705C 3.06388 6.28699 3.06388 6.28692 3.06388 6.28686C 3.06388 6.2868 3.06388 6.28674 3.06388 6.28667C 3.06388 6.28661 3.06388 6.28655 3.06388 6.28648C 3.06388 6.28642 3.06388 6.28636 3.06388 6.28629C 3.06388 6.28623 3.06388 6.28617 3.06388 6.2861C 3.06388 6.28604 3.06388 6.28598 3.06388 6.28592C 3.06388 6.28585 3.06388 6.28579 3.06388 6.28573C 3.06388 6.28566 3.06388 6.2856 3.06388 6.28554C 3.06388 6.28547 3.06388 6.28541 3.06388 6.28535C 3.06388 6.28529 3.06388 6.28522 3.06388 6.28516C 3.06388 6.2851 3.06388 6.28503 3.06388 6.28497C 3.06388 6.28491 3.06388 6.28484 3.06388 6.28478C 3.06388 6.28472 3.06388 6.28465 3.06388 6.28459C 3.06388 6.28453 3.06388 6.28447 3.06388 6.2844C 3.06388 6.28434 3.06388 6.28428 3.06388 6.28421C 3.06388 6.28415 3.06388 6.28409 3.06388 6.28402C 3.06388 6.28396 3.06388 6.2839 3.06388 6.28384C 3.06388 6.28377 3.06388 6.28371 3.06388 6.28365C 3.06388 6.28358 3.06388 6.28352 3.06388 6.28346C 3.06388 6.28339 3.06388 6.28333 3.06388 6.28327C 3.06388 6.2832 3.06388 6.28314 3.06388 6.28308C 3.06388 6.28302 3.06388 6.28295 3.06388 6.28289C 3.06388 6.28283 3.06388 6.28276 3.06388 6.2827C 3.06388 6.28264 3.06388 6.28257 3.06388 6.28251C 3.06388 6.28245 3.06388 6.28239 3.06388 6.28232C 3.06388 6.28226 3.06388 6.2822 3.06388 6.28213C 3.06388 6.28207 3.06388 6.28201 3.06388 6.28194C 3.06388 6.28188 3.06388 6.28182 3.06388 6.28175C 3.06388 6.28169 3.06388 6.28163 3.06388 6.28157C 3.06388 6.2815 3.06388 6.28144 3.06388 6.28138C 3.06388 6.28131 3.06388 6.28125 3.06388 6.28119C 3.06388 6.28112 3.06388 6.28106 3.06388 6.281C 3.06388 6.28094 3.06388 6.28087 3.06388 6.28081C 3.06388 6.28075 3.06388 6.28068 3.06388 6.28062C 3.06388 6.28056 3.06388 6.28049 3.06388 6.28043C 3.06388 6.28037 3.06388 6.2803 3.06388 6.28024C 3.06388 6.28018 3.06388 6.28012 3.06388 6.28005C 3.06388 6.27999 3.06388 6.27993 3.06388 6.27986C 3.06388 6.2798 3.06388 6.27974 3.06388 6.27967C 3.06388 6.27961 3.06388 6.27955 3.06388 6.27949C 3.06388 6.27942 3.06388 6.27936 3.06388 6.2793C 3.06388 6.27923 3.06388 6.27917 3.06388 6.27911C 3.06388 6.27904 3.06388 6.27898 3.06388 6.27892C 3.06388 6.27885 3.06388 6.27879 3.06388 6.27873C 3.06388 6.27867 3.06388 6.2786 3.06388 6.27854C 3.06388 6.27848 3.06388 6.27841 3.06388 6.27835C 3.06388 6.27829 3.06388 6.27822 3.06388 6.27816C 3.06388 6.2781 3.06388 6.27803 3.06388 6.27797C 3.06388 6.27791 3.06388 6.27785 3.06388 6.27778C 3.06388 6.27772 3.06388 6.27766 3.06388 6.27759C 3.06388 6.27753 3.06388 6.27747 3.06388 6.2774C 3.06388 6.27734 3.06388 6.27728 3.06388 6.27722C 3.06388 6.27715 3.06388 6.27709 3.06388 6.27703C 3.06388 6.27696 3.06388 6.2769 3.06388 6.27684C 3.06388 6.27677 3.06388 6.27671 3.06388 6.27665C 3.06388 6.27658 3.06388 6.27652 3.06388 6.27646C 3.06388 6.2764 3.06388 6.27633 3.06388 6.27627C 3.06388 6.27621 3.06388 6.27614 3.06388 6.27608C 3.06388 6.27602 3.06388 6.27595 3.06388 6.27589C 3.06388 6.27583 3.06388 6.27577 3.06388 6.2757C 3.06388 6.27564 3.06388 6.27558 3.06388 6.27551C 3.06388 6.27545 3.06388 6.27539 3.06388 6.27532C 3.06388 6.27526 3.06388 6.2752 3.06388 6.27513C 3.06388 6.27507 3.06388 6.27501 3.06388 6.27495C 3.06388 6.27488 3.06388 6.27482 3.06388 6.27476C 3.06388 6.27469 3.06388 6.27463 3.06388 6.27457C 3.06388 6.2745 3.06388 6.27444 3.06388 6.27438C 3.06388 6.27432 3.06388 6.27425 3.06388 6.27419C 3.06388 6.27413 3.06388 6.27406 3.06388 6.274C 3.06388 6.27394 3.06388 6.27387 3.06388 6.27381C 3.06388 6.27375 3.06388 6.27368 3.06388 6.27362C 3.06388 6.27356 3.06388 6.2735 3.06388 6.27343C 3.06388 6.27337 3.06388 6.27331 3.06388 6.27324C 3.06388 6.27318 3.06388 6.27312 3.06388 6.27305C 3.06388 6.27299 3.06388 6.27293 3.06388 6.27287C 3.06388 6.2728 3.06388 6.27274 3.06388 6.27268C 3.06388 6.27261 3.06388 6.27255 3.06388 6.27249C 3.06388 6.27242 3.06388 6.27236 3.06388 6.2723C 3.06388 6.27223 3.06388 6.27217 3.06388 6.27211C 3.06388 6.27205 3.06388 6.27198 3.06388 6.27192C 3.06388 6.27186 3.06388 6.27179 3.06388 6.27173C 3.06388 6.27167 3.06388 6.2716 3.06388 6.27154C 3.06388 6.27148 3.06388 6.27142 3.06388 6.27135C 3.06388 6.27129 3.06388 6.27123 3.06388 6.27116C 3.06388 6.2711 3.06388 6.27104 3.06388 6.27097C 3.06388 6.27091 3.06388 6.27085 3.06388 6.27078C 3.06388 6.27072 3.06388 6.27066 3.06388 6.2706C 3.06388 6.27053 3.06388 6.27047 3.06388 6.27041C 3.06388 6.27034 3.06388 6.27028 3.06388 6.27022C 3.06388 6.27015 3.06388 6.27009 3.06388 6.27003C 3.06388 6.26997 3.06388 6.2699 3.06388 6.26984C 3.06388 6.26978 3.06388 6.26971 3.06388 6.26965C 3.06388 6.26959 3.06388 6.26952 3.06388 6.26946C 3.06388 6.2694 3.06388 6.26933 3.06388 6.26927C 3.06388 6.26921 3.06388 6.26915 3.06388 6.26908C 3.06388 6.26902 3.06388 6.26896 3.06388 6.26889C 3.06388 6.26883 3.06388 6.26877 3.06388 6.2687C 3.06388 6.26864 3.06388 6.26858 3.06388 6.26851C 3.06388 6.26845 3.06388 6.26839 3.06388 6.26833C 3.06388 6.26826 3.06388 6.2682 3.06388 6.26814C 3.06388 6.26807 3.06388 6.26801 3.06388 6.26795C 3.06388 6.26788 3.06388 6.26782 3.06388 6.26776C 3.06388 6.2677 3.06388 6.26763 3.06388 6.26757C 3.06388 6.26751 3.06388 6.26744 3.06388 6.26738C 3.06388 6.26732 3.06388 6.26725 3.06388 6.26719C 3.06388 6.26713 3.06388 6.26706 3.06388 6.267C 3.06388 6.26694 3.06388 6.26688 3.06388 6.26681C 3.06388 6.26675 3.06388 6.26669 3.06388 6.26662C 3.06388 6.26656 3.06388 6.2665 3.06388 6.26643C 3.06388 6.26637 3.06388 6.26631 3.06388 6.26625C 3.06388 6.26618 3.06388 6.26612 3.06388 6.26606C 3.06388 6.26599 3.06388 6.26593 3.06388 6.26587C 3.06388 6.2658 3.06388 6.26574 3.06388 6.26568C 3.06388 6.26561 3.06388 6.26555 3.06388 6.26549C 3.06388 6.26543 3.06388 6.26536 3.06388 6.2653C 3.06388 6.26524 3.06388 6.26517 3.06388 6.26511C 3.06388 6.26505 3.06388 6.26498 3.06388 6.26492C 3.06388 6.26486 3.06388 6.2648 3.06388 6.26473C 3.06388 6.26467 3.06388 6.26461 3.06388 6.26454C 3.06388 6.26448 3.06388 6.26442 3.06388 6.26435C 3.06388 6.26429 3.06388 6.26423 3.06388 6.26416C 3.06388 6.2641 3.06388 6.26404 3.06388 6.26398C 3.06388 6.26391 3.06388 6.26385 3.06388 6.26379C 3.06388 6.26372 3.06388 6.26366 3.06388 6.2636C 3.06388 6.26353 3.06388 6.26347 3.06388 6.26341C 3.06388 6.26335 3.06388 6.26328 3.06388 6.26322C 3.06388 6.26316 3.06388 6.26309 3.06388 6.26303C 3.06388 6.26297 3.06388 6.2629 3.06388 6.26284C 3.06388 6.26278 3.06388 6.26271 3.06388 6.26265C 3.06388 6.26259 3.06388 6.26253 3.06388 6.26246C 3.06388 6.2624 3.06388 6.26234 3.06388 6.26227C 3.06388 6.26221 3.06388 6.26215 3.06388 6.26208C 3.06388 6.26202 3.06388 6.26196 3.06388 6.2619C 3.06388 6.26183 3.06388 6.26177 3.06388 6.26171C 3.06388 6.26164 3.06388 6.26158 3.06388 6.26152C 3.06388 6.26145 3.06388 6.26139 3.06388 6.26133C 3.06388 6.26126 3.06388 6.2612 3.06388 6.26114C 3.06388 6.26108 3.06388 6.26101 3.06388 6.26095C 3.06388 6.26089 3.06388 6.26082 3.06388 6.26076C 3.06388 6.2607 3.06388 6.26063 3.06388 6.26057C 3.06388 6.26051 3.06388 6.26044 3.06388 6.26038C 3.06388 6.26032 3.06388 6.26026 3.06388 6.26019C 3.06388 6.26013 3.06388 6.26007 3.06388 6.26C 3.06388 6.25994 3.06388 6.25988 3.06388 6.25981C 3.06388 6.25975 3.06388 6.25969 3.06388 6.25963C 3.06388 6.25956 3.06388 6.2595 3.06388 6.25944C 3.06388 6.25937 3.06388 6.25931 3.06388 6.25925C 3.06388 6.25918 3.06388 6.25912 3.06388 6.25906C 3.06388 6.25899 3.06388 6.25893 3.06388 6.25887C 3.06388 6.25881 3.06388 6.25874 3.06388 6.25868C 3.06388 6.25862 3.06388 6.25855 3.06388 6.25849C 3.06388 6.25843 3.06388 6.25836 3.06388 6.2583C 3.06388 6.25824 3.06388 6.25818 3.06388 6.25811C 3.06388 6.25805 3.06388 6.25799 3.06388 6.25792C 3.06388 6.25786 3.06388 6.2578 3.06388 6.25773C 3.06388 6.25767 3.06388 6.25761 3.06388 6.25754C 3.06388 6.25748 3.06388 6.25742 3.06388 6.25736C 3.06388 6.25729 3.06388 6.25723 3.06388 6.25717C 3.06388 6.2571 3.06388 6.25704 3.06388 6.25698C 3.06388 6.25691 3.06388 6.25685 3.06388 6.25679C 3.06388 6.25673 3.06388 6.25666 3.06388 6.2566C 3.06388 6.25654 3.06388 6.25647 3.06388 6.25641C 3.06388 6.25635 3.06388 6.25628 3.06388 6.25622C 3.06388 6.25616 3.06388 6.25609 3.06388 6.25603C 3.06388 6.25597 3.06388 6.25591 3.06388 6.25584C 3.06388 6.25578 3.06388 6.25572 3.06388 6.25565C 3.06388 6.25559 3.06388 6.25553 3.06388 6.25546C 3.06388 6.2554 3.06388 6.25534 3.06388 6.25528C 3.06388 6.25521 3.06388 6.25515 3.06388 6.25509C 3.06388 6.25502 3.06388 6.25496 3.06388 6.2549C 3.06388 6.25483 3.06388 6.25477 3.06388 6.25471C 3.06388 6.25464 3.06388 6.25458 3.06388 6.25452C 3.06388 6.25446 3.06388 6.25439 3.06388 6.25433C 3.06388 6.25427 3.06388 6.2542 3.06388 6.25414C 3.06388 6.25408 3.06388 6.25401 3.06388 6.25395C 3.06388 6.25389 3.06388 6.25383 3.06388 6.25376C 3.06388 6.2537 3.06388 6.25364 3.06388 6.25357C 3.06388 6.25351 3.06388 6.25345 3.06388 6.25338C 3.06388 6.25332 3.06388 6.25326 3.06388 6.25319C 3.06388 6.25313 3.06388 6.25307 3.06388 6.25301C 3.06388 6.25294 3.06388 6.25288 3.06388 6.25282C 3.06388 6.25275 3.06388 6.25269 3.06388 6.25263C 3.06388 6.25256 3.06388 6.2525 3.06388 6.25244C 3.06388 6.25238 3.06388 6.25231 3.06388 6.25225C 3.06388 6.25219 3.06388 6.25212 3.06388 6.25206C 3.06388 6.252 3.06388 6.25193 3.06388 6.25187C 3.06388 6.25181 3.06388 6.25174 3.06388 6.25168C 3.06388 6.25162 3.06388 6.25156 3.06388 6.25149C 3.06388 6.25143 3.06388 6.25137 3.06388 6.2513C 3.06388 6.25124 3.06388 6.25118 3.06388 6.25111C 3.06388 6.25105 3.06388 6.25099 3.06388 6.25092C 3.06388 6.25086 3.06388 6.2508 3.06388 6.25074C 3.06388 6.25067 3.06388 6.25061 3.06388 6.25055C 3.06388 6.25048 3.06388 6.25042 3.06388 6.25036C 3.06388 6.25029 3.06388 6.25023 3.06388 6.25017C 3.06388 6.25011 3.06388 6.25004 3.06388 6.24998C 3.06388 6.24992 3.06388 6.24985 3.06388 6.24979C 3.06388 6.24973 3.06388 6.24966 3.06388 6.2496C 3.06388 6.24954 3.06388 6.24947 3.06388 6.24941C 3.06388 6.24935 3.06388 6.24929 3.06388 6.24922C 3.06388 6.24916 3.06388 6.2491 3.06388 6.24903C 3.06388 6.24897 3.06388 6.24891 3.06388 6.24884C 3.06388 6.24878 3.06388 6.24872 3.06388 6.24866C 3.06388 6.24859 3.06388 6.24853 3.06388 6.24847C 3.06388 6.2484 3.06388 6.24834 3.06388 6.24828C 3.06388 6.24821 3.06388 6.24815 3.06388 6.24809C 3.06388 6.24802 3.06388 6.24796 3.06388 6.2479C 3.06388 6.24784 3.06388 6.24777 3.06388 6.24771C 3.06388 6.24765 3.06388 6.24758 3.06388 6.24752C 3.06388 6.24746 3.06388 6.24739 3.06388 6.24733C 3.06388 6.24727 3.06388 6.24721 3.06388 6.24714C 3.06388 6.24708 3.06388 6.24702 3.06388 6.24695C 3.06388 6.24689 3.06388 6.24683 3.06388 6.24676C 3.06388 6.2467 3.06388 6.24664 3.06388 6.24657C 3.06388 6.24651 3.06388 6.24645 3.06388 6.24639C 3.06388 6.24632 3.06388 6.24626 3.06388 6.2462C 3.06388 6.24613 3.06388 6.24607 3.06388 6.24601C 3.06388 6.24594 3.06388 6.24588 3.06388 6.24582C 3.06388 6.24576 3.06388 6.24569 3.06388 6.24563C 3.06388 6.24557 3.06388 6.2455 3.06388 6.24544C 3.06388 6.24538 3.06388 6.24531 3.06388 6.24525C 3.06388 6.24519 3.06388 6.24512 3.06388 6.24506C 3.06388 6.245 3.06388 6.24494 3.06388 6.24487C 3.06388 6.24481 3.06388 6.24475 3.06388 6.24468C 3.06388 6.24462 3.06388 6.24456 3.06388 6.24449C 3.06388 6.24443 3.06388 6.24437 3.06388 6.24431C 3.06388 6.24424 3.06388 6.24418 3.06388 6.24412C 3.06388 6.24405 3.06388 6.24399 3.06388 6.24393C 3.06388 6.24386 3.06388 6.2438 3.06388 6.24374C 3.06388 6.24367 3.06388 6.24361 3.06388 6.24355C 3.06388 6.24349 3.06388 6.24342 3.06388 6.24336C 3.06388 6.2433 3.06388 6.24323 3.06388 6.24317C 3.06388 6.24311 3.06388 6.24304 3.06388 6.24298C 3.06388 6.24292 3.06388 6.24286 3.06388 6.24279C 3.06388 6.24273 3.06388 6.24267 3.06388 6.2426C 3.06388 6.24254 3.06388 6.24248 3.06388 6.24241C 3.06388 6.24235 3.06388 6.24229 3.06388 6.24222C 3.06388 6.24216 3.06388 6.2421 3.06388 6.24204C 3.06388 6.24197 3.06388 6.24191 3.06388 6.24185C 3.06388 6.24178 3.06388 6.24172 3.06388 6.24166C 3.06388 6.24159 3.06388 6.24153 3.06388 6.24147C 3.06388 6.24141 3.06388 6.24134 3.06388 6.24128C 3.06388 6.24122 3.06388 6.24115 3.06388 6.24109C 3.06388 6.24103 3.06388 6.24096 3.06388 6.2409C 3.06388 6.24084 3.06388 6.24077 3.06388 6.24071C 3.06388 6.24065 3.06388 6.24059 3.06388 6.24052C 3.06388 6.24046 3.06388 6.2404 3.06388 6.24033C 3.06388 6.24027 3.06388 6.24021 3.06388 6.24014C 3.06388 6.24008 3.06388 6.24002 3.06388 6.23995C 3.06388 6.23989 3.06388 6.23983 3.06388 6.23977C 3.06388 6.2397 3.06388 6.23964 3.06388 6.23958C 3.06388 6.23951 3.06388 6.23945 3.06388 6.23939C 3.06388 6.23932 3.06388 6.23926 3.06388 6.2392C 3.06388 6.23914 3.06388 6.23907 3.06388 6.23901C 3.06388 6.23895 3.06388 6.23888 3.06388 6.23882C 3.06388 6.23876 3.06388 6.23869 3.06388 6.23863C 3.06388 6.23857 3.06388 6.2385 3.06388 6.23844C 3.06388 6.23838 3.06388 6.23832 3.06388 6.23825C 3.06388 6.23819 3.06388 6.23813 3.06388 6.23806C 3.06388 6.238 3.06388 6.23794 3.06388 6.23787C 3.06388 6.23781 3.06388 6.23775 3.06388 6.23769C 3.06388 6.23762 3.06388 6.23756 3.06388 6.2375C 3.06388 6.23743 3.06388 6.23737 3.06388 6.23731C 3.06388 6.23724 3.06388 6.23718 3.06388 6.23712C 3.06388 6.23705 3.06388 6.23699 3.06388 6.23693C 3.06388 6.23687 3.06388 6.2368 3.06388 6.23674C 3.06388 6.23668 3.06388 6.23661 3.06388 6.23655C 3.06388 6.23649 3.06388 6.23642 3.06388 6.23636C 3.06388 6.2363 3.06388 6.23624 3.06388 6.23617C 3.06388 6.23611 3.06388 6.23605 3.06388 6.23598C 3.06388 6.23592 3.06388 6.23586 3.06388 6.23579C 3.06388 6.23573 3.06388 6.23567 3.06388 6.2356C 3.06388 6.23554 3.06388 6.23548 3.06388 6.23542C 3.06388 6.23535 3.06388 6.23529 3.06388 6.23523C 3.06388 6.23516 3.06388 6.2351 3.06388 6.23504C 3.06388 6.23497 3.06388 6.23491 3.06388 6.23485C 3.06388 6.23479 3.06388 6.23472 3.06388 6.23466C 3.06388 6.2346 3.06388 6.23453 3.06388 6.23447C 3.06388 6.23441 3.06388 6.23434 3.06388 6.23428C 3.06388 6.23422 3.06388 6.23415 3.06388 6.23409C 3.06388 6.23403 3.06388 6.23397 3.06388 6.2339C 3.06388 6.23384 3.06388 6.23378 3.06388 6.23371C 3.06388 6.23365 3.06388 6.23359 3.06388 6.23352C 3.06388 6.23346 3.06388 6.2334 3.06388 6.23334C 3.06388 6.23327 3.06388 6.23321 3.06388 6.23315C 3.06388 6.23308 3.06388 6.23302 3.06388 6.23296C 3.06388 6.23289 3.06388 6.23283 3.06388 6.23277C 3.06388 6.2327 3.06388 6.23264 3.06388 6.23258C 3.06388 6.23252 3.06388 6.23245 3.06388 6.23239C 3.06388 6.23233 3.06388 6.23226 3.06388 6.2322C 3.06388 6.23214 3.06388 6.23207 3.06388 6.23201C 3.06388 6.23195 3.06388 6.23189 3.06388 6.23182C 3.06388 6.23176 3.06388 6.2317 3.06388 6.23163C 3.06388 6.23157 3.06388 6.23151 3.06388 6.23144C 3.06388 6.23138 3.06388 6.23132 3.06388 6.23125C 3.06388 6.23119 3.06388 6.23113 3.06388 6.23107C 3.06388 6.231 3.06388 6.23094 3.06388 6.23088C 3.06388 6.23081 3.06388 6.23075 3.06388 6.23069C 3.06388 6.23062 3.06388 6.23056 3.06388 6.2305C 3.06388 6.23043 3.06388 6.23037 3.06388 6.23031C 3.06388 6.23025 3.06388 6.23018 3.06388 6.23012C 3.06388 6.23006 3.06388 6.22999 3.06388 6.22993C 3.06388 6.22987 3.06388 6.2298 3.06388 6.22974C 3.06388 6.22968 3.06388 6.22962 3.06388 6.22955C 3.06388 6.22949 3.06388 6.22943 3.06388 6.22936C 3.06388 6.2293 3.06388 6.22924 3.06388 6.22917C 3.06388 6.22911 3.06388 6.22905 3.06388 6.22898C 3.06388 6.22892 3.06388 6.22886 3.06388 6.2288C 3.06388 6.22873 3.06388 6.22867 3.06388 6.22861C 3.06388 6.22854 3.06388 6.22848 3.06388 6.22842C 3.06388 6.22835 3.06388 6.22829 3.06388 6.22823C 3.06388 6.22817 3.06388 6.2281 3.06388 6.22804C 3.06388 6.22798 3.06388 6.22791 3.06388 6.22785C 3.06388 6.22779 3.06388 6.22772 3.06388 6.22766C 3.06388 6.2276 3.06388 6.22753 3.06388 6.22747C 3.06388 6.22741 3.06388 6.22735 3.06388 6.22728C 3.06388 6.22722 3.06388 6.22716 3.06388 6.22709C 3.06388 6.22703 3.06388 6.22697 3.06388 6.2269C 3.06388 6.22684 3.06388 6.22678 3.06388 6.22672C 3.06388 6.22665 3.06388 6.22659 3.06388 6.22653C 3.06388 6.22646 3.06388 6.2264 3.06388 6.22634C 3.06388 6.22627 3.06388 6.22621 3.06388 6.22615C 3.06388 6.22608 3.06388 6.22602 3.06388 6.22596C 3.06388 6.2259 3.06388 6.22583 3.06388 6.22577C 3.06388 6.22571 3.06388 6.22564 3.06388 6.22558C 3.06388 6.22552 3.06388 6.22545 3.06388 6.22539C 3.06388 6.22533 3.06388 6.22527 3.06388 6.2252C 3.06388 6.22514 3.06388 6.22508 3.06388 6.22501C 3.06388 6.22495 3.06388 6.22489 3.06388 6.22482C 3.06388 6.22476 3.06388 6.2247 3.06388 6.22463C 3.06388 6.22457 3.06388 6.22451 3.06388 6.22445C 3.06388 6.22438 3.06388 6.22432 3.06388 6.22426C 3.06388 6.22419 3.06388 6.22413 3.06388 6.22407C 3.06388 6.224 3.06388 6.22394 3.06388 6.22388C 3.06388 6.22382 3.06388 6.22375 3.06388 6.22369C 3.06388 6.22363 3.06388 6.22356 3.06388 6.2235C 3.06388 6.22344 3.06388 6.22337 3.06388 6.22331C 3.06388 6.22325 3.06388 6.22318 3.06388 6.22312C 3.06388 6.22306 3.06388 6.223 3.06388 6.22293C 3.06388 6.22287 3.06388 6.22281 3.06388 6.22274C 3.06388 6.22268 3.06388 6.22262 3.06388 6.22255C 3.06388 6.22249 3.06388 6.22243 3.06388 6.22237C 3.06388 6.2223 3.06388 6.22224 3.06388 6.22218C 3.06388 6.22211 3.06388 6.22205 3.06388 6.22199C 3.06388 6.22192 3.06388 6.22186 3.06388 6.2218C 3.06388 6.22173 3.06388 6.22167 3.06388 6.22161C 3.06388 6.22155 3.06388 6.22148 3.06388 6.22142C 3.06388 6.22136 3.06388 6.22129 3.06388 6.22123C 3.06388 6.22117 3.06388 6.2211 3.06388 6.22104C 3.06388 6.22098 3.06388 6.22091 3.06388 6.22085C 3.06388 6.22079 3.06388 6.22073 3.06388 6.22066C 3.06388 6.2206 3.06388 6.22054 3.06388 6.22047C 3.06388 6.22041 3.06388 6.22035 3.06388 6.22028C 3.06388 6.22022 3.06388 6.22016 3.06388 6.2201C 3.06388 6.22003 3.06388 6.21997 3.06388 6.21991C 3.06388 6.21984 3.06388 6.21978 3.06388 6.21972C 3.06388 6.21965 3.06388 6.21959 3.06388 6.21953C 3.06388 6.21946 3.06388 6.2194 3.06388 6.21934C 3.06388 6.21928 3.06388 6.21921 3.06388 6.21915C 3.06388 6.21909 3.06388 6.21902 3.06388 6.21896C 3.06388 6.2189 3.06388 6.21883 3.06388 6.21877C 3.06388 6.21871 3.06388 6.21865 3.06388 6.21858C 3.06388 6.21852 3.06388 6.21846 3.06388 6.21839C 3.06388 6.21833 3.06388 6.21827 3.06388 6.2182C 3.06388 6.21814 3.06388 6.21808 3.06388 6.21801C 3.06388 6.21795 3.06388 6.21789 3.06388 6.21783C 3.06388 6.21776 3.06388 6.2177 3.06388 6.21764C 3.06388 6.21757 3.06388 6.21751 3.06388 6.21745C 3.06388 6.21738 3.06388 6.21732 3.06388 6.21726C 3.06388 6.2172 3.06388 6.21713 3.06388 6.21707C 3.06388 6.21701 3.06388 6.21694 3.06388 6.21688C 3.06388 6.21682 3.06388 6.21675 3.06388 6.21669C 3.06388 6.21663 3.06388 6.21656 3.06388 6.2165C 3.06388 6.21644 3.06388 6.21638 3.06388 6.21631C 3.06388 6.21625 3.06388 6.21619 3.06388 6.21612C 3.06388 6.21606 3.06388 6.216 3.06388 6.21593C 3.06388 6.21587 3.06388 6.21581 3.06388 6.21575C 3.06388 6.21568 3.06388 6.21562 3.06388 6.21556C 3.06388 6.21549 3.06388 6.21543 3.06388 6.21537C 3.06388 6.2153 3.06388 6.21524 3.06388 6.21518C 3.06388 6.21511 3.06388 6.21505 3.06388 6.21499C 3.06388 6.21493 3.06388 6.21486 3.06388 6.2148C 3.06388 6.21474 3.06388 6.21467 3.06388 6.21461C 3.06388 6.21455 3.06388 6.21448 3.06388 6.21442C 3.06388 6.21436 3.06388 6.2143 3.06388 6.21423C 3.06388 6.21417 3.06388 6.21411 3.06388 6.21404C 3.06388 6.21398 3.06388 6.21392 3.06388 6.21385L 1.06388 6.21385C 1.06388 6.21392 1.06388 6.21398 1.06388 6.21404C 1.06388 6.21411 1.06388 6.21417 1.06388 6.21423C 1.06388 6.2143 1.06388 6.21436 1.06388 6.21442C 1.06388 6.21448 1.06388 6.21455 1.06388 6.21461C 1.06388 6.21467 1.06388 6.21474 1.06388 6.2148C 1.06388 6.21486 1.06388 6.21493 1.06388 6.21499C 1.06388 6.21505 1.06388 6.21511 1.06388 6.21518C 1.06388 6.21524 1.06388 6.2153 1.06388 6.21537C 1.06388 6.21543 1.06388 6.21549 1.06388 6.21556C 1.06388 6.21562 1.06388 6.21568 1.06388 6.21575C 1.06388 6.21581 1.06388 6.21587 1.06388 6.21593C 1.06388 6.216 1.06388 6.21606 1.06388 6.21612C 1.06388 6.21619 1.06388 6.21625 1.06388 6.21631C 1.06388 6.21638 1.06388 6.21644 1.06388 6.2165C 1.06388 6.21656 1.06388 6.21663 1.06388 6.21669C 1.06388 6.21675 1.06388 6.21682 1.06388 6.21688C 1.06388 6.21694 1.06388 6.21701 1.06388 6.21707C 1.06388 6.21713 1.06388 6.2172 1.06388 6.21726C 1.06388 6.21732 1.06388 6.21738 1.06388 6.21745C 1.06388 6.21751 1.06388 6.21757 1.06388 6.21764C 1.06388 6.2177 1.06388 6.21776 1.06388 6.21783C 1.06388 6.21789 1.06388 6.21795 1.06388 6.21801C 1.06388 6.21808 1.06388 6.21814 1.06388 6.2182C 1.06388 6.21827 1.06388 6.21833 1.06388 6.21839C 1.06388 6.21846 1.06388 6.21852 1.06388 6.21858C 1.06388 6.21865 1.06388 6.21871 1.06388 6.21877C 1.06388 6.21883 1.06388 6.2189 1.06388 6.21896C 1.06388 6.21902 1.06388 6.21909 1.06388 6.21915C 1.06388 6.21921 1.06388 6.21928 1.06388 6.21934C 1.06388 6.2194 1.06388 6.21946 1.06388 6.21953C 1.06388 6.21959 1.06388 6.21965 1.06388 6.21972C 1.06388 6.21978 1.06388 6.21984 1.06388 6.21991C 1.06388 6.21997 1.06388 6.22003 1.06388 6.2201C 1.06388 6.22016 1.06388 6.22022 1.06388 6.22028C 1.06388 6.22035 1.06388 6.22041 1.06388 6.22047C 1.06388 6.22054 1.06388 6.2206 1.06388 6.22066C 1.06388 6.22073 1.06388 6.22079 1.06388 6.22085C 1.06388 6.22091 1.06388 6.22098 1.06388 6.22104C 1.06388 6.2211 1.06388 6.22117 1.06388 6.22123C 1.06388 6.22129 1.06388 6.22136 1.06388 6.22142C 1.06388 6.22148 1.06388 6.22155 1.06388 6.22161C 1.06388 6.22167 1.06388 6.22173 1.06388 6.2218C 1.06388 6.22186 1.06388 6.22192 1.06388 6.22199C 1.06388 6.22205 1.06388 6.22211 1.06388 6.22218C 1.06388 6.22224 1.06388 6.2223 1.06388 6.22237C 1.06388 6.22243 1.06388 6.22249 1.06388 6.22255C 1.06388 6.22262 1.06388 6.22268 1.06388 6.22274C 1.06388 6.22281 1.06388 6.22287 1.06388 6.22293C 1.06388 6.223 1.06388 6.22306 1.06388 6.22312C 1.06388 6.22318 1.06388 6.22325 1.06388 6.22331C 1.06388 6.22337 1.06388 6.22344 1.06388 6.2235C 1.06388 6.22356 1.06388 6.22363 1.06388 6.22369C 1.06388 6.22375 1.06388 6.22382 1.06388 6.22388C 1.06388 6.22394 1.06388 6.224 1.06388 6.22407C 1.06388 6.22413 1.06388 6.22419 1.06388 6.22426C 1.06388 6.22432 1.06388 6.22438 1.06388 6.22445C 1.06388 6.22451 1.06388 6.22457 1.06388 6.22463C 1.06388 6.2247 1.06388 6.22476 1.06388 6.22482C 1.06388 6.22489 1.06388 6.22495 1.06388 6.22501C 1.06388 6.22508 1.06388 6.22514 1.06388 6.2252C 1.06388 6.22527 1.06388 6.22533 1.06388 6.22539C 1.06388 6.22545 1.06388 6.22552 1.06388 6.22558C 1.06388 6.22564 1.06388 6.22571 1.06388 6.22577C 1.06388 6.22583 1.06388 6.2259 1.06388 6.22596C 1.06388 6.22602 1.06388 6.22608 1.06388 6.22615C 1.06388 6.22621 1.06388 6.22627 1.06388 6.22634C 1.06388 6.2264 1.06388 6.22646 1.06388 6.22653C 1.06388 6.22659 1.06388 6.22665 1.06388 6.22672C 1.06388 6.22678 1.06388 6.22684 1.06388 6.2269C 1.06388 6.22697 1.06388 6.22703 1.06388 6.22709C 1.06388 6.22716 1.06388 6.22722 1.06388 6.22728C 1.06388 6.22735 1.06388 6.22741 1.06388 6.22747C 1.06388 6.22753 1.06388 6.2276 1.06388 6.22766C 1.06388 6.22772 1.06388 6.22779 1.06388 6.22785C 1.06388 6.22791 1.06388 6.22798 1.06388 6.22804C 1.06388 6.2281 1.06388 6.22817 1.06388 6.22823C 1.06388 6.22829 1.06388 6.22835 1.06388 6.22842C 1.06388 6.22848 1.06388 6.22854 1.06388 6.22861C 1.06388 6.22867 1.06388 6.22873 1.06388 6.2288C 1.06388 6.22886 1.06388 6.22892 1.06388 6.22898C 1.06388 6.22905 1.06388 6.22911 1.06388 6.22917C 1.06388 6.22924 1.06388 6.2293 1.06388 6.22936C 1.06388 6.22943 1.06388 6.22949 1.06388 6.22955C 1.06388 6.22962 1.06388 6.22968 1.06388 6.22974C 1.06388 6.2298 1.06388 6.22987 1.06388 6.22993C 1.06388 6.22999 1.06388 6.23006 1.06388 6.23012C 1.06388 6.23018 1.06388 6.23025 1.06388 6.23031C 1.06388 6.23037 1.06388 6.23043 1.06388 6.2305C 1.06388 6.23056 1.06388 6.23062 1.06388 6.23069C 1.06388 6.23075 1.06388 6.23081 1.06388 6.23088C 1.06388 6.23094 1.06388 6.231 1.06388 6.23107C 1.06388 6.23113 1.06388 6.23119 1.06388 6.23125C 1.06388 6.23132 1.06388 6.23138 1.06388 6.23144C 1.06388 6.23151 1.06388 6.23157 1.06388 6.23163C 1.06388 6.2317 1.06388 6.23176 1.06388 6.23182C 1.06388 6.23189 1.06388 6.23195 1.06388 6.23201C 1.06388 6.23207 1.06388 6.23214 1.06388 6.2322C 1.06388 6.23226 1.06388 6.23233 1.06388 6.23239C 1.06388 6.23245 1.06388 6.23252 1.06388 6.23258C 1.06388 6.23264 1.06388 6.2327 1.06388 6.23277C 1.06388 6.23283 1.06388 6.23289 1.06388 6.23296C 1.06388 6.23302 1.06388 6.23308 1.06388 6.23315C 1.06388 6.23321 1.06388 6.23327 1.06388 6.23334C 1.06388 6.2334 1.06388 6.23346 1.06388 6.23352C 1.06388 6.23359 1.06388 6.23365 1.06388 6.23371C 1.06388 6.23378 1.06388 6.23384 1.06388 6.2339C 1.06388 6.23397 1.06388 6.23403 1.06388 6.23409C 1.06388 6.23415 1.06388 6.23422 1.06388 6.23428C 1.06388 6.23434 1.06388 6.23441 1.06388 6.23447C 1.06388 6.23453 1.06388 6.2346 1.06388 6.23466C 1.06388 6.23472 1.06388 6.23479 1.06388 6.23485C 1.06388 6.23491 1.06388 6.23497 1.06388 6.23504C 1.06388 6.2351 1.06388 6.23516 1.06388 6.23523C 1.06388 6.23529 1.06388 6.23535 1.06388 6.23542C 1.06388 6.23548 1.06388 6.23554 1.06388 6.2356C 1.06388 6.23567 1.06388 6.23573 1.06388 6.23579C 1.06388 6.23586 1.06388 6.23592 1.06388 6.23598C 1.06388 6.23605 1.06388 6.23611 1.06388 6.23617C 1.06388 6.23624 1.06388 6.2363 1.06388 6.23636C 1.06388 6.23642 1.06388 6.23649 1.06388 6.23655C 1.06388 6.23661 1.06388 6.23668 1.06388 6.23674C 1.06388 6.2368 1.06388 6.23687 1.06388 6.23693C 1.06388 6.23699 1.06388 6.23705 1.06388 6.23712C 1.06388 6.23718 1.06388 6.23724 1.06388 6.23731C 1.06388 6.23737 1.06388 6.23743 1.06388 6.2375C 1.06388 6.23756 1.06388 6.23762 1.06388 6.23769C 1.06388 6.23775 1.06388 6.23781 1.06388 6.23787C 1.06388 6.23794 1.06388 6.238 1.06388 6.23806C 1.06388 6.23813 1.06388 6.23819 1.06388 6.23825C 1.06388 6.23832 1.06388 6.23838 1.06388 6.23844C 1.06388 6.2385 1.06388 6.23857 1.06388 6.23863C 1.06388 6.23869 1.06388 6.23876 1.06388 6.23882C 1.06388 6.23888 1.06388 6.23895 1.06388 6.23901C 1.06388 6.23907 1.06388 6.23914 1.06388 6.2392C 1.06388 6.23926 1.06388 6.23932 1.06388 6.23939C 1.06388 6.23945 1.06388 6.23951 1.06388 6.23958C 1.06388 6.23964 1.06388 6.2397 1.06388 6.23977C 1.06388 6.23983 1.06388 6.23989 1.06388 6.23995C 1.06388 6.24002 1.06388 6.24008 1.06388 6.24014C 1.06388 6.24021 1.06388 6.24027 1.06388 6.24033C 1.06388 6.2404 1.06388 6.24046 1.06388 6.24052C 1.06388 6.24059 1.06388 6.24065 1.06388 6.24071C 1.06388 6.24077 1.06388 6.24084 1.06388 6.2409C 1.06388 6.24096 1.06388 6.24103 1.06388 6.24109C 1.06388 6.24115 1.06388 6.24122 1.06388 6.24128C 1.06388 6.24134 1.06388 6.24141 1.06388 6.24147C 1.06388 6.24153 1.06388 6.24159 1.06388 6.24166C 1.06388 6.24172 1.06388 6.24178 1.06388 6.24185C 1.06388 6.24191 1.06388 6.24197 1.06388 6.24204C 1.06388 6.2421 1.06388 6.24216 1.06388 6.24222C 1.06388 6.24229 1.06388 6.24235 1.06388 6.24241C 1.06388 6.24248 1.06388 6.24254 1.06388 6.2426C 1.06388 6.24267 1.06388 6.24273 1.06388 6.24279C 1.06388 6.24286 1.06388 6.24292 1.06388 6.24298C 1.06388 6.24304 1.06388 6.24311 1.06388 6.24317C 1.06388 6.24323 1.06388 6.2433 1.06388 6.24336C 1.06388 6.24342 1.06388 6.24349 1.06388 6.24355C 1.06388 6.24361 1.06388 6.24367 1.06388 6.24374C 1.06388 6.2438 1.06388 6.24386 1.06388 6.24393C 1.06388 6.24399 1.06388 6.24405 1.06388 6.24412C 1.06388 6.24418 1.06388 6.24424 1.06388 6.24431C 1.06388 6.24437 1.06388 6.24443 1.06388 6.24449C 1.06388 6.24456 1.06388 6.24462 1.06388 6.24468C 1.06388 6.24475 1.06388 6.24481 1.06388 6.24487C 1.06388 6.24494 1.06388 6.245 1.06388 6.24506C 1.06388 6.24512 1.06388 6.24519 1.06388 6.24525C 1.06388 6.24531 1.06388 6.24538 1.06388 6.24544C 1.06388 6.2455 1.06388 6.24557 1.06388 6.24563C 1.06388 6.24569 1.06388 6.24576 1.06388 6.24582C 1.06388 6.24588 1.06388 6.24594 1.06388 6.24601C 1.06388 6.24607 1.06388 6.24613 1.06388 6.2462C 1.06388 6.24626 1.06388 6.24632 1.06388 6.24639C 1.06388 6.24645 1.06388 6.24651 1.06388 6.24657C 1.06388 6.24664 1.06388 6.2467 1.06388 6.24676C 1.06388 6.24683 1.06388 6.24689 1.06388 6.24695C 1.06388 6.24702 1.06388 6.24708 1.06388 6.24714C 1.06388 6.24721 1.06388 6.24727 1.06388 6.24733C 1.06388 6.24739 1.06388 6.24746 1.06388 6.24752C 1.06388 6.24758 1.06388 6.24765 1.06388 6.24771C 1.06388 6.24777 1.06388 6.24784 1.06388 6.2479C 1.06388 6.24796 1.06388 6.24802 1.06388 6.24809C 1.06388 6.24815 1.06388 6.24821 1.06388 6.24828C 1.06388 6.24834 1.06388 6.2484 1.06388 6.24847C 1.06388 6.24853 1.06388 6.24859 1.06388 6.24866C 1.06388 6.24872 1.06388 6.24878 1.06388 6.24884C 1.06388 6.24891 1.06388 6.24897 1.06388 6.24903C 1.06388 6.2491 1.06388 6.24916 1.06388 6.24922C 1.06388 6.24929 1.06388 6.24935 1.06388 6.24941C 1.06388 6.24947 1.06388 6.24954 1.06388 6.2496C 1.06388 6.24966 1.06388 6.24973 1.06388 6.24979C 1.06388 6.24985 1.06388 6.24992 1.06388 6.24998C 1.06388 6.25004 1.06388 6.25011 1.06388 6.25017C 1.06388 6.25023 1.06388 6.25029 1.06388 6.25036C 1.06388 6.25042 1.06388 6.25048 1.06388 6.25055C 1.06388 6.25061 1.06388 6.25067 1.06388 6.25074C 1.06388 6.2508 1.06388 6.25086 1.06388 6.25092C 1.06388 6.25099 1.06388 6.25105 1.06388 6.25111C 1.06388 6.25118 1.06388 6.25124 1.06388 6.2513C 1.06388 6.25137 1.06388 6.25143 1.06388 6.25149C 1.06388 6.25156 1.06388 6.25162 1.06388 6.25168C 1.06388 6.25174 1.06388 6.25181 1.06388 6.25187C 1.06388 6.25193 1.06388 6.252 1.06388 6.25206C 1.06388 6.25212 1.06388 6.25219 1.06388 6.25225C 1.06388 6.25231 1.06388 6.25238 1.06388 6.25244C 1.06388 6.2525 1.06388 6.25256 1.06388 6.25263C 1.06388 6.25269 1.06388 6.25275 1.06388 6.25282C 1.06388 6.25288 1.06388 6.25294 1.06388 6.25301C 1.06388 6.25307 1.06388 6.25313 1.06388 6.25319C 1.06388 6.25326 1.06388 6.25332 1.06388 6.25338C 1.06388 6.25345 1.06388 6.25351 1.06388 6.25357C 1.06388 6.25364 1.06388 6.2537 1.06388 6.25376C 1.06388 6.25383 1.06388 6.25389 1.06388 6.25395C 1.06388 6.25401 1.06388 6.25408 1.06388 6.25414C 1.06388 6.2542 1.06388 6.25427 1.06388 6.25433C 1.06388 6.25439 1.06388 6.25446 1.06388 6.25452C 1.06388 6.25458 1.06388 6.25464 1.06388 6.25471C 1.06388 6.25477 1.06388 6.25483 1.06388 6.2549C 1.06388 6.25496 1.06388 6.25502 1.06388 6.25509C 1.06388 6.25515 1.06388 6.25521 1.06388 6.25528C 1.06388 6.25534 1.06388 6.2554 1.06388 6.25546C 1.06388 6.25553 1.06388 6.25559 1.06388 6.25565C 1.06388 6.25572 1.06388 6.25578 1.06388 6.25584C 1.06388 6.25591 1.06388 6.25597 1.06388 6.25603C 1.06388 6.25609 1.06388 6.25616 1.06388 6.25622C 1.06388 6.25628 1.06388 6.25635 1.06388 6.25641C 1.06388 6.25647 1.06388 6.25654 1.06388 6.2566C 1.06388 6.25666 1.06388 6.25673 1.06388 6.25679C 1.06388 6.25685 1.06388 6.25691 1.06388 6.25698C 1.06388 6.25704 1.06388 6.2571 1.06388 6.25717C 1.06388 6.25723 1.06388 6.25729 1.06388 6.25736C 1.06388 6.25742 1.06388 6.25748 1.06388 6.25754C 1.06388 6.25761 1.06388 6.25767 1.06388 6.25773C 1.06388 6.2578 1.06388 6.25786 1.06388 6.25792C 1.06388 6.25799 1.06388 6.25805 1.06388 6.25811C 1.06388 6.25818 1.06388 6.25824 1.06388 6.2583C 1.06388 6.25836 1.06388 6.25843 1.06388 6.25849C 1.06388 6.25855 1.06388 6.25862 1.06388 6.25868C 1.06388 6.25874 1.06388 6.25881 1.06388 6.25887C 1.06388 6.25893 1.06388 6.25899 1.06388 6.25906C 1.06388 6.25912 1.06388 6.25918 1.06388 6.25925C 1.06388 6.25931 1.06388 6.25937 1.06388 6.25944C 1.06388 6.2595 1.06388 6.25956 1.06388 6.25963C 1.06388 6.25969 1.06388 6.25975 1.06388 6.25981C 1.06388 6.25988 1.06388 6.25994 1.06388 6.26C 1.06388 6.26007 1.06388 6.26013 1.06388 6.26019C 1.06388 6.26026 1.06388 6.26032 1.06388 6.26038C 1.06388 6.26044 1.06388 6.26051 1.06388 6.26057C 1.06388 6.26063 1.06388 6.2607 1.06388 6.26076C 1.06388 6.26082 1.06388 6.26089 1.06388 6.26095C 1.06388 6.26101 1.06388 6.26108 1.06388 6.26114C 1.06388 6.2612 1.06388 6.26126 1.06388 6.26133C 1.06388 6.26139 1.06388 6.26145 1.06388 6.26152C 1.06388 6.26158 1.06388 6.26164 1.06388 6.26171C 1.06388 6.26177 1.06388 6.26183 1.06388 6.2619C 1.06388 6.26196 1.06388 6.26202 1.06388 6.26208C 1.06388 6.26215 1.06388 6.26221 1.06388 6.26227C 1.06388 6.26234 1.06388 6.2624 1.06388 6.26246C 1.06388 6.26253 1.06388 6.26259 1.06388 6.26265C 1.06388 6.26271 1.06388 6.26278 1.06388 6.26284C 1.06388 6.2629 1.06388 6.26297 1.06388 6.26303C 1.06388 6.26309 1.06388 6.26316 1.06388 6.26322C 1.06388 6.26328 1.06388 6.26335 1.06388 6.26341C 1.06388 6.26347 1.06388 6.26353 1.06388 6.2636C 1.06388 6.26366 1.06388 6.26372 1.06388 6.26379C 1.06388 6.26385 1.06388 6.26391 1.06388 6.26398C 1.06388 6.26404 1.06388 6.2641 1.06388 6.26416C 1.06388 6.26423 1.06388 6.26429 1.06388 6.26435C 1.06388 6.26442 1.06388 6.26448 1.06388 6.26454C 1.06388 6.26461 1.06388 6.26467 1.06388 6.26473C 1.06388 6.2648 1.06388 6.26486 1.06388 6.26492C 1.06388 6.26498 1.06388 6.26505 1.06388 6.26511C 1.06388 6.26517 1.06388 6.26524 1.06388 6.2653C 1.06388 6.26536 1.06388 6.26543 1.06388 6.26549C 1.06388 6.26555 1.06388 6.26561 1.06388 6.26568C 1.06388 6.26574 1.06388 6.2658 1.06388 6.26587C 1.06388 6.26593 1.06388 6.26599 1.06388 6.26606C 1.06388 6.26612 1.06388 6.26618 1.06388 6.26625C 1.06388 6.26631 1.06388 6.26637 1.06388 6.26643C 1.06388 6.2665 1.06388 6.26656 1.06388 6.26662C 1.06388 6.26669 1.06388 6.26675 1.06388 6.26681C 1.06388 6.26688 1.06388 6.26694 1.06388 6.267C 1.06388 6.26706 1.06388 6.26713 1.06388 6.26719C 1.06388 6.26725 1.06388 6.26732 1.06388 6.26738C 1.06388 6.26744 1.06388 6.26751 1.06388 6.26757C 1.06388 6.26763 1.06388 6.2677 1.06388 6.26776C 1.06388 6.26782 1.06388 6.26788 1.06388 6.26795C 1.06388 6.26801 1.06388 6.26807 1.06388 6.26814C 1.06388 6.2682 1.06388 6.26826 1.06388 6.26833C 1.06388 6.26839 1.06388 6.26845 1.06388 6.26851C 1.06388 6.26858 1.06388 6.26864 1.06388 6.2687C 1.06388 6.26877 1.06388 6.26883 1.06388 6.26889C 1.06388 6.26896 1.06388 6.26902 1.06388 6.26908C 1.06388 6.26915 1.06388 6.26921 1.06388 6.26927C 1.06388 6.26933 1.06388 6.2694 1.06388 6.26946C 1.06388 6.26952 1.06388 6.26959 1.06388 6.26965C 1.06388 6.26971 1.06388 6.26978 1.06388 6.26984C 1.06388 6.2699 1.06388 6.26997 1.06388 6.27003C 1.06388 6.27009 1.06388 6.27015 1.06388 6.27022C 1.06388 6.27028 1.06388 6.27034 1.06388 6.27041C 1.06388 6.27047 1.06388 6.27053 1.06388 6.2706C 1.06388 6.27066 1.06388 6.27072 1.06388 6.27078C 1.06388 6.27085 1.06388 6.27091 1.06388 6.27097C 1.06388 6.27104 1.06388 6.2711 1.06388 6.27116C 1.06388 6.27123 1.06388 6.27129 1.06388 6.27135C 1.06388 6.27142 1.06388 6.27148 1.06388 6.27154C 1.06388 6.2716 1.06388 6.27167 1.06388 6.27173C 1.06388 6.27179 1.06388 6.27186 1.06388 6.27192C 1.06388 6.27198 1.06388 6.27205 1.06388 6.27211C 1.06388 6.27217 1.06388 6.27223 1.06388 6.2723C 1.06388 6.27236 1.06388 6.27242 1.06388 6.27249C 1.06388 6.27255 1.06388 6.27261 1.06388 6.27268C 1.06388 6.27274 1.06388 6.2728 1.06388 6.27287C 1.06388 6.27293 1.06388 6.27299 1.06388 6.27305C 1.06388 6.27312 1.06388 6.27318 1.06388 6.27324C 1.06388 6.27331 1.06388 6.27337 1.06388 6.27343C 1.06388 6.2735 1.06388 6.27356 1.06388 6.27362C 1.06388 6.27368 1.06388 6.27375 1.06388 6.27381C 1.06388 6.27387 1.06388 6.27394 1.06388 6.274C 1.06388 6.27406 1.06388 6.27413 1.06388 6.27419C 1.06388 6.27425 1.06388 6.27432 1.06388 6.27438C 1.06388 6.27444 1.06388 6.2745 1.06388 6.27457C 1.06388 6.27463 1.06388 6.27469 1.06388 6.27476C 1.06388 6.27482 1.06388 6.27488 1.06388 6.27495C 1.06388 6.27501 1.06388 6.27507 1.06388 6.27513C 1.06388 6.2752 1.06388 6.27526 1.06388 6.27532C 1.06388 6.27539 1.06388 6.27545 1.06388 6.27551C 1.06388 6.27558 1.06388 6.27564 1.06388 6.2757C 1.06388 6.27577 1.06388 6.27583 1.06388 6.27589C 1.06388 6.27595 1.06388 6.27602 1.06388 6.27608C 1.06388 6.27614 1.06388 6.27621 1.06388 6.27627C 1.06388 6.27633 1.06388 6.2764 1.06388 6.27646C 1.06388 6.27652 1.06388 6.27658 1.06388 6.27665C 1.06388 6.27671 1.06388 6.27677 1.06388 6.27684C 1.06388 6.2769 1.06388 6.27696 1.06388 6.27703C 1.06388 6.27709 1.06388 6.27715 1.06388 6.27722C 1.06388 6.27728 1.06388 6.27734 1.06388 6.2774C 1.06388 6.27747 1.06388 6.27753 1.06388 6.27759C 1.06388 6.27766 1.06388 6.27772 1.06388 6.27778C 1.06388 6.27785 1.06388 6.27791 1.06388 6.27797C 1.06388 6.27803 1.06388 6.2781 1.06388 6.27816C 1.06388 6.27822 1.06388 6.27829 1.06388 6.27835C 1.06388 6.27841 1.06388 6.27848 1.06388 6.27854C 1.06388 6.2786 1.06388 6.27867 1.06388 6.27873C 1.06388 6.27879 1.06388 6.27885 1.06388 6.27892C 1.06388 6.27898 1.06388 6.27904 1.06388 6.27911C 1.06388 6.27917 1.06388 6.27923 1.06388 6.2793C 1.06388 6.27936 1.06388 6.27942 1.06388 6.27949C 1.06388 6.27955 1.06388 6.27961 1.06388 6.27967C 1.06388 6.27974 1.06388 6.2798 1.06388 6.27986C 1.06388 6.27993 1.06388 6.27999 1.06388 6.28005C 1.06388 6.28012 1.06388 6.28018 1.06388 6.28024C 1.06388 6.2803 1.06388 6.28037 1.06388 6.28043C 1.06388 6.28049 1.06388 6.28056 1.06388 6.28062C 1.06388 6.28068 1.06388 6.28075 1.06388 6.28081C 1.06388 6.28087 1.06388 6.28094 1.06388 6.281C 1.06388 6.28106 1.06388 6.28112 1.06388 6.28119C 1.06388 6.28125 1.06388 6.28131 1.06388 6.28138C 1.06388 6.28144 1.06388 6.2815 1.06388 6.28157C 1.06388 6.28163 1.06388 6.28169 1.06388 6.28175C 1.06388 6.28182 1.06388 6.28188 1.06388 6.28194C 1.06388 6.28201 1.06388 6.28207 1.06388 6.28213C 1.06388 6.2822 1.06388 6.28226 1.06388 6.28232C 1.06388 6.28239 1.06388 6.28245 1.06388 6.28251C 1.06388 6.28257 1.06388 6.28264 1.06388 6.2827C 1.06388 6.28276 1.06388 6.28283 1.06388 6.28289C 1.06388 6.28295 1.06388 6.28302 1.06388 6.28308C 1.06388 6.28314 1.06388 6.2832 1.06388 6.28327C 1.06388 6.28333 1.06388 6.28339 1.06388 6.28346C 1.06388 6.28352 1.06388 6.28358 1.06388 6.28365C 1.06388 6.28371 1.06388 6.28377 1.06388 6.28384C 1.06388 6.2839 1.06388 6.28396 1.06388 6.28402C 1.06388 6.28409 1.06388 6.28415 1.06388 6.28421C 1.06388 6.28428 1.06388 6.28434 1.06388 6.2844C 1.06388 6.28447 1.06388 6.28453 1.06388 6.28459C 1.06388 6.28465 1.06388 6.28472 1.06388 6.28478C 1.06388 6.28484 1.06388 6.28491 1.06388 6.28497C 1.06388 6.28503 1.06388 6.2851 1.06388 6.28516C 1.06388 6.28522 1.06388 6.28529 1.06388 6.28535C 1.06388 6.28541 1.06388 6.28547 1.06388 6.28554C 1.06388 6.2856 1.06388 6.28566 1.06388 6.28573C 1.06388 6.28579 1.06388 6.28585 1.06388 6.28592C 1.06388 6.28598 1.06388 6.28604 1.06388 6.2861C 1.06388 6.28617 1.06388 6.28623 1.06388 6.28629C 1.06388 6.28636 1.06388 6.28642 1.06388 6.28648C 1.06388 6.28655 1.06388 6.28661 1.06388 6.28667C 1.06388 6.28674 1.06388 6.2868 1.06388 6.28686C 1.06388 6.28692 1.06388 6.28699 1.06388 6.28705C 1.06388 6.28711 1.06388 6.28718 1.06388 6.28724C 1.06388 6.2873 1.06388 6.28737 1.06388 6.28743C 1.06388 6.28749 1.06388 6.28755 1.06388 6.28762C 1.06388 6.28768 1.06388 6.28774 1.06388 6.28781C 1.06388 6.28787 1.06388 6.28793 1.06388 6.288C 1.06388 6.28806 1.06388 6.28812 1.06388 6.28819C 1.06388 6.28825 1.06388 6.28831 1.06388 6.28837C 1.06388 6.28844 1.06388 6.2885 1.06388 6.28856C 1.06388 6.28863 1.06388 6.28869 1.06388 6.28875C 1.06388 6.28882 1.06388 6.28888 1.06388 6.28894C 1.06388 6.28901 1.06388 6.28907 1.06388 6.28913C 1.06388 6.28919 1.06388 6.28926 1.06388 6.28932C 1.06388 6.28938 1.06388 6.28945 1.06388 6.28951C 1.06388 6.28957 1.06388 6.28964 1.06388 6.2897C 1.06388 6.28976 1.06388 6.28982 1.06388 6.28989C 1.06388 6.28995 1.06388 6.29001 1.06388 6.29008C 1.06388 6.29014 1.06388 6.2902 1.06388 6.29027C 1.06388 6.29033 1.06388 6.29039 1.06388 6.29046C 1.06388 6.29052 1.06388 6.29058 1.06388 6.29064C 1.06388 6.29071 1.06388 6.29077 1.06388 6.29083C 1.06388 6.2909 1.06388 6.29096 1.06388 6.29102C 1.06388 6.29109 1.06388 6.29115 1.06388 6.29121C 1.06388 6.29127 1.06388 6.29134 1.06388 6.2914C 1.06388 6.29146 1.06388 6.29153 1.06388 6.29159C 1.06388 6.29165 1.06388 6.29172 1.06388 6.29178C 1.06388 6.29184 1.06388 6.29191 1.06388 6.29197C 1.06388 6.29203 1.06388 6.29209 1.06388 6.29216C 1.06388 6.29222 1.06388 6.29228 1.06388 6.29235C 1.06388 6.29241 1.06388 6.29247 1.06388 6.29254C 1.06388 6.2926 1.06388 6.29266 1.06388 6.29272C 1.06388 6.29279 1.06388 6.29285 1.06388 6.29291C 1.06388 6.29298 1.06388 6.29304 1.06388 6.2931C 1.06388 6.29317 1.06388 6.29323 1.06388 6.29329C 1.06388 6.29336 1.06388 6.29342 1.06388 6.29348C 1.06388 6.29354 1.06388 6.29361 1.06388 6.29367C 1.06388 6.29373 1.06388 6.2938 1.06388 6.29386C 1.06388 6.29392 1.06388 6.29399 1.06388 6.29405C 1.06388 6.29411 1.06388 6.29417 1.06388 6.29424C 1.06388 6.2943 1.06388 6.29436 1.06388 6.29443C 1.06388 6.29449 1.06388 6.29455 1.06388 6.29462C 1.06388 6.29468 1.06388 6.29474 1.06388 6.29481C 1.06388 6.29487 1.06388 6.29493 1.06388 6.29499C 1.06388 6.29506 1.06388 6.29512 1.06388 6.29518C 1.06388 6.29525 1.06388 6.29531 1.06388 6.29537C 1.06388 6.29544 1.06388 6.2955 1.06388 6.29556C 1.06388 6.29562 1.06388 6.29569 1.06388 6.29575C 1.06388 6.29581 1.06388 6.29588 1.06388 6.29594C 1.06388 6.296 1.06388 6.29607 1.06388 6.29613C 1.06388 6.29619 1.06388 6.29626 1.06388 6.29632C 1.06388 6.29638 1.06388 6.29644 1.06388 6.29651C 1.06388 6.29657 1.06388 6.29663 1.06388 6.2967C 1.06388 6.29676 1.06388 6.29682 1.06388 6.29689C 1.06388 6.29695 1.06388 6.29701 1.06388 6.29708C 1.06388 6.29714 1.06388 6.2972 1.06388 6.29726C 1.06388 6.29733 1.06388 6.29739 1.06388 6.29745C 1.06388 6.29752 1.06388 6.29758 1.06388 6.29764C 1.06388 6.29771 1.06388 6.29777 1.06388 6.29783C 1.06388 6.29789 1.06388 6.29796 1.06388 6.29802C 1.06388 6.29808 1.06388 6.29815 1.06388 6.29821C 1.06388 6.29827 1.06388 6.29834 1.06388 6.2984C 1.06388 6.29846 1.06388 6.29853 1.06388 6.29859C 1.06388 6.29865 1.06388 6.29871 1.06388 6.29878C 1.06388 6.29884 1.06388 6.2989 1.06388 6.29897C 1.06388 6.29903 1.06388 6.29909 1.06388 6.29916C 1.06388 6.29922 1.06388 6.29928 1.06388 6.29934C 1.06388 6.29941 1.06388 6.29947 1.06388 6.29953C 1.06388 6.2996 1.06388 6.29966 1.06388 6.29972C 1.06388 6.29979 1.06388 6.29985 1.06388 6.29991C 1.06388 6.29998 1.06388 6.30004 1.06388 6.3001C 1.06388 6.30016 1.06388 6.30023 1.06388 6.30029C 1.06388 6.30035 1.06388 6.30042 1.06388 6.30048C 1.06388 6.30054 1.06388 6.30061 1.06388 6.30067C 1.06388 6.30073 1.06388 6.30079 1.06388 6.30086C 1.06388 6.30092 1.06388 6.30098 1.06388 6.30105C 1.06388 6.30111 1.06388 6.30117 1.06388 6.30124C 1.06388 6.3013 1.06388 6.30136 1.06388 6.30143C 1.06388 6.30149 1.06388 6.30155 1.06388 6.30161C 1.06388 6.30168 1.06388 6.30174 1.06388 6.3018C 1.06388 6.30187 1.06388 6.30193 1.06388 6.30199C 1.06388 6.30206 1.06388 6.30212 1.06388 6.30218C 1.06388 6.30224 1.06388 6.30231 1.06388 6.30237C 1.06388 6.30243 1.06388 6.3025 1.06388 6.30256C 1.06388 6.30262 1.06388 6.30269 1.06388 6.30275C 1.06388 6.30281 1.06388 6.30288 1.06388 6.30294C 1.06388 6.303 1.06388 6.30306 1.06388 6.30313C 1.06388 6.30319 1.06388 6.30325 1.06388 6.30332C 1.06388 6.30338 1.06388 6.30344 1.06388 6.30351C 1.06388 6.30357 1.06388 6.30363 1.06388 6.30369C 1.06388 6.30376 1.06388 6.30382 1.06388 6.30388C 1.06388 6.30395 1.06388 6.30401 1.06388 6.30407C 1.06388 6.30414 1.06388 6.3042 1.06388 6.30426C 1.06388 6.30433 1.06388 6.30439 1.06388 6.30445C 1.06388 6.30451 1.06388 6.30458 1.06388 6.30464C 1.06388 6.3047 1.06388 6.30477 1.06388 6.30483C 1.06388 6.30489 1.06388 6.30496 1.06388 6.30502C 1.06388 6.30508 1.06388 6.30514 1.06388 6.30521C 1.06388 6.30527 1.06388 6.30533 1.06388 6.3054C 1.06388 6.30546 1.06388 6.30552 1.06388 6.30559C 1.06388 6.30565 1.06388 6.30571 1.06388 6.30578C 1.06388 6.30584 1.06388 6.3059 1.06388 6.30596C 1.06388 6.30603 1.06388 6.30609 1.06388 6.30615C 1.06388 6.30622 1.06388 6.30628 1.06388 6.30634C 1.06388 6.30641 1.06388 6.30647 1.06388 6.30653C 1.06388 6.3066 1.06388 6.30666 1.06388 6.30672C 1.06388 6.30678 1.06388 6.30685 1.06388 6.30691C 1.06388 6.30697 1.06388 6.30704 1.06388 6.3071C 1.06388 6.30716 1.06388 6.30723 1.06388 6.30729C 1.06388 6.30735 1.06388 6.30741 1.06388 6.30748C 1.06388 6.30754 1.06388 6.3076 1.06388 6.30767C 1.06388 6.30773 1.06388 6.30779 1.06388 6.30786C 1.06388 6.30792 1.06388 6.30798 1.06388 6.30805C 1.06388 6.30811 1.06388 6.30817 1.06388 6.30823C 1.06388 6.3083 1.06388 6.30836 1.06388 6.30842C 1.06388 6.30849 1.06388 6.30855 1.06388 6.30861C 1.06388 6.30868 1.06388 6.30874 1.06388 6.3088C 1.06388 6.30886 1.06388 6.30893 1.06388 6.30899C 1.06388 6.30905 1.06388 6.30912 1.06388 6.30918C 1.06388 6.30924 1.06388 6.30931 1.06388 6.30937C 1.06388 6.30943 1.06388 6.3095 1.06388 6.30956C 1.06388 6.30962 1.06388 6.30968 1.06388 6.30975C 1.06388 6.30981 1.06388 6.30987 1.06388 6.30994C 1.06388 6.31 1.06388 6.31006 1.06388 6.31013C 1.06388 6.31019 1.06388 6.31025 1.06388 6.31031C 1.06388 6.31038 1.06388 6.31044 1.06388 6.3105C 1.06388 6.31057 1.06388 6.31063 1.06388 6.31069L 3.06388 6.31069ZM 3.06388 6.21385C 3.06388 6.18081 3.06798 6.16457 3.0693 6.16005C 3.07038 6.15633 3.07094 6.15545 3.07212 6.15372L 1.41682 5.03122C 1.17258 5.3914 1.06388 5.79862 1.06388 6.21385L 3.06388 6.21385ZM 3.07212 6.15372C 3.13036 6.06784 3.21024 5.97997 3.32101 5.89227L 2.07948 4.32427C 1.82334 4.52709 1.59937 4.76202 1.41682 5.03122L 3.07212 6.15372ZM 3.33484 5.88112C 3.485 5.75782 3.64947 5.63901 3.82911 5.5251L 2.75812 3.83603C 2.51351 3.99112 2.28241 4.15744 2.06565 4.33543L 3.33484 5.88112ZM 3.84412 5.51539C 4.0883 5.35438 4.3188 5.18221 4.53482 4.99849L 3.23913 3.47494C 3.08825 3.60326 2.92317 3.72699 2.7431 3.84574L 3.84412 5.51539ZM 4.54751 4.98752C 4.79921 4.76608 5.01641 4.51457 5.19204 4.23203L 3.49346 3.17617C 3.4283 3.281 3.34166 3.38456 3.22645 3.48592L 4.54751 4.98752ZM 5.19842 4.22162C 5.42719 3.84338 5.52334 3.42447 5.52334 3.00202L 3.52334 3.00202C 3.52334 3.11756 3.4991 3.16671 3.48708 3.18658L 5.19842 4.22162ZM 5.52334 3.00202C 5.52334 2.40986 5.2968 1.859 4.81396 1.46253L 3.54477 3.00822C 3.5476 3.01054 3.54475 3.00863 3.53944 3.00178C 3.53399 2.99475 3.52884 2.98624 3.52498 2.97762C 3.52119 2.96918 3.5205 2.96482 3.52093 2.967C 3.52144 2.96953 3.52334 2.98051 3.52334 3.00202L 5.52334 3.00202ZM 4.83411 1.47952C 4.37511 1.08192 3.80473 0.944856 3.25061 0.944856L 3.25061 2.94486C 3.36854 2.94486 3.44127 2.95947 3.48094 2.97188C 3.50024 2.97792 3.51153 2.98335 3.51708 2.98638C 3.52241 2.98928 3.52434 2.99098 3.52462 2.99123L 4.83411 1.47952ZM 3.25061 0.944856C 2.88885 0.944856 2.53421 0.979291 2.20963 1.07236L 2.76089 2.99489C 2.84908 2.9696 3.00469 2.94486 3.25061 2.94486L 3.25061 0.944856ZM 2.20238 1.07447C 1.95759 1.14666 1.72414 1.23448 1.50969 1.34285L 2.41169 3.1279C 2.49535 3.08562 2.61161 3.03894 2.76814 2.99278L 2.20238 1.07447ZM 1.52214 1.33667C 1.36921 1.41129 1.22966 1.48259 1.10492 1.55036L 2.0597 3.30774C 2.15282 3.25715 2.26551 3.19934 2.39924 3.13408L 1.52214 1.33667ZM 1.10492 1.55036C 1.12205 1.54106 1.17586 1.51782 1.25553 1.51782L 1.25553 3.51782C 1.55305 3.51782 1.82472 3.43541 2.0597 3.30774L 1.10492 1.55036ZM 1.25553 1.51782C 1.26863 1.51782 1.33082 1.52129 1.40991 1.5642C 1.49168 1.60856 1.53989 1.6671 1.56083 1.70171L -0.150511 2.73676C 0.163772 3.25639 0.684375 3.51782 1.25553 3.51782L 1.25553 1.51782ZM 1.52689 1.64936L 0.821733 0.632549L -0.821733 1.77229L -0.116574 2.78911L 1.52689 1.64936ZM 2.58231 10.62C 2.58231 10.5583 2.59334 10.5181 2.60709 10.4873L 0.781117 9.67137C 0.645806 9.97416 0.58231 10.2944 0.58231 10.62L 2.58231 10.62ZM 2.59519 10.513C 2.6233 10.4546 2.65671 10.4102 2.69658 10.3728L 1.32799 8.91437C 1.10414 9.12444 0.925432 9.37057 0.79302 9.64571L 2.59519 10.513ZM 2.68097 10.3871C 2.72156 10.3506 2.77455 10.3163 2.85008 10.2875L 2.13763 8.41866C 1.84625 8.52974 1.57819 8.68906 1.3436 8.90003L 2.68097 10.3871ZM 2.87365 10.2781C 2.92523 10.257 2.99536 10.2401 3.09582 10.2401L 3.09582 8.24008C 2.76058 8.24008 2.4294 8.29853 2.11406 8.42799L 2.87365 10.2781ZM 3.09582 10.2401C 3.18684 10.2401 3.25465 10.2557 3.30939 10.2781L 4.06898 8.42799C 3.75682 8.29983 3.42905 8.24008 3.09582 8.24008L 3.09582 10.2401ZM 3.33297 10.2875C 3.4085 10.3163 3.46148 10.3506 3.50208 10.3871L 4.83945 8.90003C 4.60486 8.68906 4.33679 8.52974 4.04541 8.41866L 3.33297 10.2875ZM 3.50208 10.3871C 3.53706 10.4186 3.55926 10.45 3.57596 10.4873L 5.40193 9.67136C 5.26957 9.37518 5.07965 9.11605 4.83945 8.90003L 3.50208 10.3871ZM 3.58786 10.513C 3.59998 10.5382 3.60934 10.5693 3.60934 10.62L 5.60934 10.62C 5.60934 10.2834 5.53843 9.95408 5.39003 9.64571L 3.58786 10.513ZM 3.60934 10.62C 3.60934 10.6707 3.59994 10.7091 3.5826 10.7463L 5.39529 11.5913C 5.53848 11.2842 5.60934 10.9568 5.60934 10.62L 3.60934 10.62ZM 3.57596 10.7608C 3.55926 10.7982 3.53706 10.8296 3.50208 10.861L 4.83945 12.3481C 5.07965 12.1321 5.26957 11.873 5.40193 11.5768L 3.57596 10.7608ZM 3.50208 10.861C 3.46148 10.8975 3.4085 10.9319 3.33297 10.9607L 4.04541 12.8295C 4.33679 12.7184 4.60486 12.5591 4.83945 12.3481L 3.50208 10.861ZM 3.33297 10.9607C 3.27211 10.9839 3.19603 11 3.09582 11L 3.09582 13C 3.41985 13 3.73936 12.9462 4.04541 12.8295L 3.33297 10.9607ZM 3.09582 11C 2.98641 11 2.90798 10.9828 2.85008 10.9607L 2.13763 12.8295C 2.44665 12.9473 2.76953 13 3.09582 13L 3.09582 11ZM 2.85008 10.9607C 2.77455 10.9319 2.72157 10.8975 2.68097 10.861L 1.3436 12.3481C 1.57819 12.5591 1.84625 12.7184 2.13763 12.8295L 2.85008 10.9607ZM 2.69658 10.8754C 2.65671 10.838 2.6233 10.7936 2.59519 10.7352L 0.79302 11.6024C 0.925432 11.8776 1.10414 12.1237 1.32799 12.3338L 2.69658 10.8754ZM 2.6118 10.7715C 2.59334 10.7289 2.58231 10.6816 2.58231 10.62L 0.58231 10.62C 0.58231 10.9458 0.645812 11.2644 0.776406 11.5661L 2.6118 10.7715Z"/>
  </defs>
</svg>
