<svg width="12" height="16" viewBox="0 0 12 16" fill="none" xmlns="http://www.w3.org/2000/svg">
<path fill-rule="evenodd" clip-rule="evenodd" d="M4.20117 3.65203C4.20117 2.5048 5.13058 1.57538 6.27781 1.57538C7.42504 1.57538 8.35445 2.5048 8.35445 3.65203V6.40452H1.93343C0.865951 6.40452 0 7.27047 0 8.33795V14.0666C0 15.1341 0.865951 16 1.93343 16H9.95357C11.021 16 11.887 15.1341 11.887 14.0666V8.33795C11.887 7.27047 11.021 6.40452 9.95357 6.40452H9.92984V3.65203C9.92984 1.63474 8.2951 0 6.27781 0C4.26052 0 2.62578 1.63474 2.62578 3.65203L2.62578 4.05781C2.62578 4.49284 2.97844 4.8455 3.41347 4.8455C3.8485 4.8455 4.20117 4.49284 4.20117 4.05781V3.65203ZM1.57538 8.33795C1.57538 8.14054 1.73601 7.97991 1.93343 7.97991H9.95357C10.151 7.97991 10.3116 8.14054 10.3116 8.33795V14.0666C10.3116 14.264 10.151 14.4247 9.95357 14.4247H1.93343C1.73601 14.4247 1.57538 14.264 1.57538 14.0666V8.33795Z" fill="#B26000"/>
</svg>
