<svg width="18" height="18" viewBox="0 0 18 18" xmlns="http://www.w3.org/2000/svg">
    <g fill="none" fill-rule="evenodd">
        <circle cx="9" cy="9" r="8" fill="#FFAD26" stroke="white" stroke-width="1px" />
        <g transform="translate(1 1)">
          <path fill="#FFF" d="M6.772 9.743V9.14c0-.549.137-.905.48-1.234 1.015-.974 1.755-1.427 1.755-2.058 0-.603-.425-.96-.987-.96-.85 0-1.303.549-1.358 1.221L4.55 5.972c.192-1.934 1.522-2.976 3.429-2.976 1.673 0 3.085.932 3.085 2.702 0 1.042-.397 1.673-1.7 2.701-.425.33-.535.645-.535.947v.397H6.772zm-.233 2.03c0-.7.562-1.262 1.261-1.262.7 0 1.262.563 1.262 1.262 0 .7-.562 1.262-1.262 1.262-.699 0-1.261-.563-1.261-1.262z"/>
        </g>
    </g>
</svg>
