<?xml version="1.0" encoding="UTF-8" standalone="no"?>
<!DOCTYPE svg PUBLIC "-//W3C//DTD SVG 1.1//EN"
 "http://www.w3.org/Graphics/SVG/1.1/DTD/svg11.dtd">
<!-- Generated by graphviz version 2.49.0 (20210828.1703)
 -->
<!-- Title: mygraph Pages: 1 -->
<svg width="432pt" height="496pt"
 viewBox="0.00 0.00 432.00 496.00" xmlns="http://www.w3.org/2000/svg" xmlns:xlink="http://www.w3.org/1999/xlink">
<g id="graph0" class="graph" transform="scale(1 1) rotate(0) translate(4 492)">
<title>mygraph</title>
<polygon fill="white" stroke="transparent" points="-4,4 -4,-492 428,-492 428,4 -4,4"/>
<!-- //pkg/cmd/cockroach:cockroach -->
<g id="node1" class="node">
<title>//pkg/cmd/cockroach:cockroach</title>
<polygon fill="none" stroke="black" points="310,-488 114,-488 114,-452 310,-452 310,-488"/>
<text text-anchor="middle" x="212" y="-466.3" font-family="Times,serif" font-size="14.00">//pkg/cmd/cockroach:cockroach</text>
</g>
<!-- //pkg/cmd/cockroach:cockroach_lib -->
<g id="node2" class="node">
<title>//pkg/cmd/cockroach:cockroach_lib</title>
<polygon fill="none" stroke="black" points="321,-415 103,-415 103,-379 321,-379 321,-415"/>
<text text-anchor="middle" x="212" y="-393.3" font-family="Times,serif" font-size="14.00">//pkg/cmd/cockroach:cockroach_lib</text>
</g>
<!-- //pkg/cmd/cockroach:cockroach&#45;&gt;//pkg/cmd/cockroach:cockroach_lib -->
<g id="edge1" class="edge">
<title>//pkg/cmd/cockroach:cockroach&#45;&gt;//pkg/cmd/cockroach:cockroach_lib</title>
<path fill="none" stroke="black" d="M212,-451.81C212,-443.79 212,-434.05 212,-425.07"/>
<polygon fill="black" stroke="black" points="215.5,-425.03 212,-415.03 208.5,-425.03 215.5,-425.03"/>
</g>
<!-- //pkg/ui/distccl:distccl -->
<g id="node3" class="node">
<title>//pkg/ui/distccl:distccl</title>
<polygon fill="none" stroke="black" points="282.5,-342 141.5,-342 141.5,-306 282.5,-306 282.5,-342"/>
<text text-anchor="middle" x="212" y="-320.3" font-family="Times,serif" font-size="14.00">//pkg/ui/distccl:distccl</text>
</g>
<!-- //pkg/cmd/cockroach:cockroach_lib&#45;&gt;//pkg/ui/distccl:distccl -->
<g id="edge2" class="edge">
<title>//pkg/cmd/cockroach:cockroach_lib&#45;&gt;//pkg/ui/distccl:distccl</title>
<path fill="none" stroke="black" d="M212,-378.81C212,-370.79 212,-361.05 212,-352.07"/>
<polygon fill="black" stroke="black" points="215.5,-352.03 212,-342.03 208.5,-352.03 215.5,-352.03"/>
</g>
<!-- //pkg/ui/distccl:genassets -->
<g id="node4" class="node">
<title>//pkg/ui/distccl:genassets</title>
<polygon fill="none" stroke="black" points="290.5,-269 133.5,-269 133.5,-233 290.5,-233 290.5,-269"/>
<text text-anchor="middle" x="212" y="-247.3" font-family="Times,serif" font-size="14.00">//pkg/ui/distccl:genassets</text>
</g>
<!-- //pkg/ui/distccl:distccl&#45;&gt;//pkg/ui/distccl:genassets -->
<g id="edge3" class="edge">
<title>//pkg/ui/distccl:distccl&#45;&gt;//pkg/ui/distccl:genassets</title>
<path fill="none" stroke="black" d="M212,-305.81C212,-297.79 212,-288.05 212,-279.07"/>
<polygon fill="black" stroke="black" points="215.5,-279.03 212,-269.03 208.5,-279.03 215.5,-279.03"/>
</g>
<!-- //pkg/ui/workspaces/db&#45;console:db&#45;console&#45;ccl -->
<g id="node5" class="node">
<title>//pkg/ui/workspaces/db&#45;console:db&#45;console&#45;ccl</title>
<polygon fill="none" stroke="black" points="352.5,-182 71.5,-182 71.5,-146 352.5,-146 352.5,-182"/>
<text text-anchor="middle" x="212" y="-160.3" font-family="Times,serif" font-size="14.00">//pkg/ui/workspaces/db&#45;console:db&#45;console&#45;ccl</text>
</g>
<!-- //pkg/ui/distccl:genassets&#45;&gt;//pkg/ui/workspaces/db&#45;console:db&#45;console&#45;ccl -->
<g id="edge4" class="edge">
<title>//pkg/ui/distccl:genassets&#45;&gt;//pkg/ui/workspaces/db&#45;console:db&#45;console&#45;ccl</title>
<path fill="none" stroke="black" d="M212,-232.8C212,-221.16 212,-205.55 212,-192.24"/>
<polygon fill="black" stroke="black" points="215.5,-192.18 212,-182.18 208.5,-192.18 215.5,-192.18"/>
<text text-anchor="middle" x="289.5" y="-203.8" font-family="Times,serif" font-size="14.00">//pkg/ui:cockroach_with_ui</text>
</g>
<!-- //pkg/ui/workspaces/db&#45;console/ccl/src/js:crdb&#45;protobuf&#45;client&#45;ccl -->
<g id="node6" class="node">
<title>//pkg/ui/workspaces/db&#45;console/ccl/src/js:crdb&#45;protobuf&#45;client&#45;ccl</title>
<polygon fill="none" stroke="black" points="405.5,-109 18.5,-109 18.5,-73 405.5,-73 405.5,-109"/>
<text text-anchor="middle" x="212" y="-87.3" font-family="Times,serif" font-size="14.00">//pkg/ui/workspaces/db&#45;console/ccl/src/js:crdb&#45;protobuf&#45;client&#45;ccl</text>
</g>
<!-- //pkg/ui/workspaces/db&#45;console:db&#45;console&#45;ccl&#45;&gt;//pkg/ui/workspaces/db&#45;console/ccl/src/js:crdb&#45;protobuf&#45;client&#45;ccl -->
<g id="edge5" class="edge">
<title>//pkg/ui/workspaces/db&#45;console:db&#45;console&#45;ccl&#45;&gt;//pkg/ui/workspaces/db&#45;console/ccl/src/js:crdb&#45;protobuf&#45;client&#45;ccl</title>
<path fill="none" stroke="black" d="M212,-145.81C212,-137.79 212,-128.05 212,-119.07"/>
<polygon fill="black" stroke="black" points="215.5,-119.03 212,-109.03 208.5,-119.03 215.5,-119.03"/>
</g>
<!-- //pkg/ui/workspaces/db&#45;console/ccl/src/js:_crdb&#45;protobuf&#45;client&#45;ccl_pbts -->
<g id="node7" class="node">
<title>//pkg/ui/workspaces/db&#45;console/ccl/src/js:_crdb&#45;protobuf&#45;client&#45;ccl_pbts</title>
<polygon fill="none" stroke="black" points="424,-36 0,-36 0,0 424,0 424,-36"/>
<text text-anchor="middle" x="212" y="-14.3" font-family="Times,serif" font-size="14.00">//pkg/ui/workspaces/db&#45;console/ccl/src/js:_crdb&#45;protobuf&#45;client&#45;ccl_pbts</text>
</g>
<!-- //pkg/ui/workspaces/db&#45;console/ccl/src/js:crdb&#45;protobuf&#45;client&#45;ccl&#45;&gt;//pkg/ui/workspaces/db&#45;console/ccl/src/js:_crdb&#45;protobuf&#45;client&#45;ccl_pbts -->
<g id="edge6" class="edge">
<title>//pkg/ui/workspaces/db&#45;console/ccl/src/js:crdb&#45;protobuf&#45;client&#45;ccl&#45;&gt;//pkg/ui/workspaces/db&#45;console/ccl/src/js:_crdb&#45;protobuf&#45;client&#45;ccl_pbts</title>
<path fill="none" stroke="black" d="M212,-72.81C212,-64.79 212,-55.05 212,-46.07"/>
<polygon fill="black" stroke="black" points="215.5,-46.03 212,-36.03 208.5,-46.03 215.5,-46.03"/>
</g>
</g>
</svg>
