<svg width="241" height="153" viewBox="0 0 241 153" fill="none" xmlns="http://www.w3.org/2000/svg">
<path d="M51.9666 64.8902C50.8773 64.8891 49.8077 65.1824 48.87 65.7394C47.8022 64.0657 46.2304 62.7783 44.3836 62.0647C42.5368 61.3512 40.5116 61.2488 38.6029 61.7724C37.905 58.6364 36.1693 55.831 33.6793 53.8144C31.1894 51.7979 28.0924 50.6895 24.8945 50.6704C21.6965 50.6513 18.5867 51.7225 16.073 53.7091C13.5593 55.6957 11.7905 58.4802 11.0555 61.6076C10.486 61.498 9.90738 61.4428 9.32749 61.4429C6.98964 61.4383 4.73498 62.3142 3.00828 63.8979C1.28158 65.4816 0.208234 67.6581 9.31907e-06 69.9979L57.9831 69.9979C57.7407 68.5703 57.0039 67.2748 55.903 66.3402C54.8021 65.4055 53.4078 64.892 51.9666 64.8902Z" fill="url(#paint0_linear)"/>
<path d="M190.147 147.486C189.063 147.487 188 147.778 187.068 148.33C186.002 146.671 184.435 145.395 182.594 144.687C180.754 143.979 178.735 143.875 176.832 144.391C176.137 141.281 174.406 138.498 171.924 136.497C169.442 134.497 166.355 133.398 163.168 133.379C159.98 133.361 156.88 134.424 154.375 136.395C151.87 138.366 150.108 141.129 149.376 144.231C148.806 144.124 148.228 144.069 147.648 144.068C145.321 144.067 143.078 144.939 141.361 146.51C139.645 148.081 138.578 150.238 138.372 152.556H196.144C195.904 151.139 195.17 149.852 194.073 148.924C192.975 147.996 191.584 147.487 190.147 147.486Z" fill="#C0C6D9"/>
<path d="M73.6909 19.7475C74.38 19.7488 75.0562 19.9338 75.6501 20.2832C76.3271 19.2272 77.3236 18.4149 78.4945 17.9647C79.6653 17.5145 80.9493 17.4499 82.1594 17.7803C82.6018 15.8017 83.7023 14.0316 85.2809 12.7593C86.8594 11.4869 88.8229 10.7876 90.8503 10.7755C92.8778 10.7635 94.8494 11.4394 96.4431 12.6928C98.0367 13.9462 99.1581 15.7031 99.6241 17.6763C99.9855 17.6093 100.352 17.5745 100.72 17.5724C102.202 17.5704 103.63 18.1234 104.725 19.1224C105.819 20.1215 106.5 21.4942 106.633 22.9701H69.8765C70.0295 22.0691 70.4964 21.2512 71.1945 20.6614C71.8926 20.0715 72.777 19.7478 73.6909 19.7475Z" fill="url(#paint1_linear)"/>
<path d="M201.633 96.268C202.324 96.2673 203.002 96.4523 203.597 96.8037C204.274 95.7477 205.27 94.9355 206.441 94.4852C207.612 94.035 208.896 93.9704 210.106 94.3008C210.548 92.3222 211.649 90.5521 213.227 89.2798C214.806 88.0075 216.769 87.3081 218.797 87.2961C220.824 87.284 222.796 87.9599 224.39 89.2133C225.983 90.4668 227.105 92.2236 227.571 94.1968C227.932 94.1276 228.299 94.0928 228.666 94.0929C230.148 94.09 231.578 94.6427 232.673 95.6419C233.767 96.6411 234.448 98.0143 234.58 99.4906H197.819C197.973 98.5899 198.44 97.7725 199.138 97.1828C199.836 96.5931 200.72 96.2691 201.633 96.268Z" fill="url(#paint2_linear)"/>
<g style="mix-blend-mode:hard-light" opacity="0.5">
<path d="M108.728 49.9431L109.924 52.1262L112.107 53.3217L109.924 54.5172L108.728 56.7003L107.533 54.5172L105.349 53.3217L107.533 52.1262L108.728 49.9431Z" fill="white"/>
</g>
<path d="M228.287 117.803C231.553 117.803 234.2 115.155 234.2 111.889C234.2 108.623 231.553 105.976 228.287 105.976C225.021 105.976 222.373 108.623 222.373 111.889C222.373 115.155 225.021 117.803 228.287 117.803Z" fill="#C0C6D9"/>
<path d="M222.465 112.905C218.679 114.276 216.16 115.511 216.308 116.003C216.456 116.495 219.319 116.111 223.333 115.124C224.932 114.724 226.692 114.24 228.531 113.68C230.598 113.056 232.529 112.413 234.184 111.805C237.783 110.478 240.142 109.314 239.994 108.834C239.846 108.354 237.335 108.678 233.701 109.534" stroke="#D6DBE7" stroke-width="0.5" stroke-miterlimit="10"/>
<path d="M70.9442 119.91C73.4064 119.91 75.4023 117.914 75.4023 115.452C75.4023 112.99 73.4064 110.994 70.9442 110.994C68.482 110.994 66.4861 112.99 66.4861 115.452C66.4861 117.914 68.482 119.91 70.9442 119.91Z" fill="#C0C6D9"/>
<path d="M69.94 119.794C69.784 122.825 69.904 124.936 70.2878 124.992C70.6717 125.048 71.2474 122.933 71.7352 119.858C71.9271 118.639 72.1071 117.267 72.263 115.82C72.4309 114.2 72.5509 112.677 72.6149 111.346C72.7508 108.455 72.6149 106.476 72.255 106.436C71.8952 106.396 71.3674 108.239 70.8956 111.014" stroke="#D6DBE7" stroke-miterlimit="10"/>
<path d="M72.0074 119.75C73.2349 122.525 74.2945 124.356 74.6543 124.216C75.0142 124.076 74.5824 121.949 73.6308 118.982C73.2309 117.807 72.7911 116.503 72.2753 115.144C71.6996 113.621 71.1158 112.205 70.572 110.99C69.3725 108.351 68.3889 106.639 68.0371 106.775C67.6852 106.911 68.0611 108.775 68.8887 111.469" stroke="#D6DBE7" stroke-miterlimit="10"/>
<path opacity="0.73" d="M82.0423 110.922C82.8815 110.922 83.5617 110.242 83.5617 109.402C83.5617 108.563 82.8815 107.883 82.0423 107.883C81.2032 107.883 80.523 108.563 80.523 109.402C80.523 110.242 81.2032 110.922 82.0423 110.922Z" fill="#D6DBE7"/>
<path opacity="0.73" d="M58.7695 130.458C59.6086 130.458 60.2888 129.777 60.2888 128.938C60.2888 128.099 59.6086 127.419 58.7695 127.419C57.9303 127.419 57.2501 128.099 57.2501 128.938C57.2501 129.777 57.9303 130.458 58.7695 130.458Z" fill="#D6DBE7"/>
<path d="M216.196 102.701C217.036 102.701 217.716 102.021 217.716 101.182C217.716 100.343 217.036 99.6624 216.196 99.6624C215.357 99.6624 214.677 100.343 214.677 101.182C214.677 102.021 215.357 102.701 216.196 102.701Z" fill="#7E89A9"/>
<path d="M210.37 61.1982C210.542 61.1982 210.682 61.0586 210.682 60.8863C210.682 60.7141 210.542 60.5745 210.37 60.5745C210.198 60.5745 210.058 60.7141 210.058 60.8863C210.058 61.0586 210.198 61.1982 210.37 61.1982Z" fill="#016540"/>
<g style="mix-blend-mode:overlay" opacity="0.2">
<g style="mix-blend-mode:overlay" opacity="0.2">
<path d="M211.62 54.5491C212.311 54.5491 212.872 53.9888 212.872 53.2976C212.872 52.6064 212.311 52.0461 211.62 52.0461C210.929 52.0461 210.369 52.6064 210.369 53.2976C210.369 53.9888 210.929 54.5491 211.62 54.5491Z" fill="white"/>
</g>
<g style="mix-blend-mode:overlay" opacity="0.2">
<path d="M201.657 50.7788C201.656 51.1179 201.521 51.4427 201.281 51.6824C201.042 51.9221 200.717 52.0573 200.378 52.0583C200.199 52.0585 200.022 52.0204 199.86 51.9466C199.697 51.8728 199.552 51.765 199.434 51.6305C199.739 50.8799 200.153 50.178 200.662 49.5474C200.941 49.6117 201.191 49.768 201.372 49.9913C201.552 50.2145 201.653 50.4918 201.657 50.7788Z" fill="white"/>
</g>
<g style="mix-blend-mode:overlay" opacity="0.2">
<path d="M208.442 61.1064C208.787 61.1064 209.066 60.8271 209.066 60.4826C209.066 60.1381 208.787 59.8589 208.442 59.8589C208.098 59.8589 207.818 60.1381 207.818 60.4826C207.818 60.8271 208.098 61.1064 208.442 61.1064Z" fill="white"/>
</g>
<g style="mix-blend-mode:overlay" opacity="0.2">
<path d="M209.07 49.1073C209.414 49.1073 209.694 48.8281 209.694 48.4836C209.694 48.1391 209.414 47.8599 209.07 47.8599C208.725 47.8599 208.446 48.1391 208.446 48.4836C208.446 48.8281 208.725 49.1073 209.07 49.1073Z" fill="white"/>
</g>
</g>
<path d="M79.7962 15.8496C79.7962 17.016 79.3328 18.1347 78.508 18.9595C77.6832 19.7844 76.5645 20.2477 75.398 20.2477C74.2316 20.2477 73.1129 19.7844 72.2881 18.9595C71.4633 18.1347 70.9999 17.016 70.9999 15.8496C70.9995 14.8548 71.3364 13.8893 71.9555 13.1107C72.5239 12.398 73.2997 11.8795 74.1757 11.6269C75.0517 11.3744 75.9845 11.4003 76.8451 11.7011C77.7057 12.0019 78.4516 12.5626 78.9795 13.3058C79.5075 14.049 79.7915 14.9379 79.7922 15.8496H79.7962Z" fill="#C0C6D9"/>
<path d="M77.6684 15.7214C78.0283 15.7214 78.3201 15.4296 78.3201 15.0697C78.3201 14.7098 78.0283 14.418 77.6684 14.418C77.3085 14.418 77.0167 14.7098 77.0167 15.0697C77.0167 15.4296 77.3085 15.7214 77.6684 15.7214Z" fill="#7E89A9"/>
<path d="M77.0181 19.1882C77.1086 19.1882 77.182 19.1148 77.182 19.0243C77.182 18.9337 77.1086 18.8604 77.0181 18.8604C76.9275 18.8604 76.8541 18.9337 76.8541 19.0243C76.8541 19.1148 76.9275 19.1882 77.0181 19.1882Z" fill="#7E89A9"/>
<path d="M73.4358 17.6487C73.5263 17.6487 73.5997 17.5753 73.5997 17.4847C73.5997 17.3942 73.5263 17.3208 73.4358 17.3208C73.3452 17.3208 73.2719 17.3942 73.2719 17.4847C73.2719 17.5753 73.3452 17.6487 73.4358 17.6487Z" fill="#7E89A9"/>
<path d="M73.1116 13.2141C73.2022 13.2141 73.2756 13.1407 73.2756 13.0502C73.2756 12.9596 73.2022 12.8862 73.1116 12.8862C73.0211 12.8862 72.9477 12.9596 72.9477 13.0502C72.9477 13.1407 73.0211 13.2141 73.1116 13.2141Z" fill="#7E89A9"/>
<path d="M78.5765 14.1379C78.667 14.1379 78.7404 14.0645 78.7404 13.974C78.7404 13.8835 78.667 13.8101 78.5765 13.8101C78.486 13.8101 78.4126 13.8835 78.4126 13.974C78.4126 14.0645 78.486 14.1379 78.5765 14.1379Z" fill="#7E89A9"/>
<path d="M78.4844 17.4885C78.6655 17.4885 78.8123 17.3417 78.8123 17.1606C78.8123 16.9796 78.6655 16.8328 78.4844 16.8328C78.3033 16.8328 78.1566 16.9796 78.1566 17.1606C78.1566 17.3417 78.3033 17.4885 78.4844 17.4885Z" fill="#7E89A9"/>
<path d="M72.4796 13.7546C72.4796 13.9317 72.4092 14.1015 72.284 14.2267C72.1588 14.3519 71.9889 14.4223 71.8118 14.4223C71.7192 14.4225 71.6275 14.4026 71.5433 14.364C71.4591 14.3253 71.3843 14.2688 71.324 14.1984C71.4819 13.8069 71.6961 13.4405 71.9598 13.1108C72.1062 13.1441 72.2371 13.2257 72.3314 13.3425C72.4257 13.4593 72.4779 13.6045 72.4796 13.7546Z" fill="#7E89A9"/>
<path d="M76.0129 19.1399C76.1939 19.1399 76.3407 18.9931 76.3407 18.812C76.3407 18.6309 76.1939 18.4841 76.0129 18.4841C75.8318 18.4841 75.685 18.6309 75.685 18.812C75.685 18.9931 75.8318 19.1399 76.0129 19.1399Z" fill="#7E89A9"/>
<path d="M76.3419 12.8908C76.523 12.8908 76.6698 12.744 76.6698 12.563C76.6698 12.3819 76.523 12.2351 76.3419 12.2351C76.1608 12.2351 76.014 12.3819 76.014 12.563C76.014 12.744 76.1608 12.8908 76.3419 12.8908Z" fill="#7E89A9"/>
<path d="M66.2505 54.7972L67.334 53.9696C69.781 52.1263 72.192 50.3191 74.551 48.5798" stroke="#542ABD" stroke-width="0.1" stroke-miterlimit="10"/>
<path d="M47.6187 69.5708C32.6849 81.9656 23.1049 91.4856 24.3644 93.1609C25.6918 94.9002 38.4545 87.5273 55.5274 75.5683C61.177 71.6059 67.3264 67.1478 73.6638 62.3218C81.1566 56.6562 88.0977 51.1265 94.1272 46.1126C108.633 33.9857 117.881 24.7895 116.658 23.1342C115.314 21.3789 102.104 29.0277 84.5672 41.3786" stroke="#D6DBE7" stroke-width="0.5" stroke-miterlimit="10"/>
<path d="M104.226 38.8639C105.048 38.8639 105.713 38.198 105.713 37.3765C105.713 36.5551 105.048 35.8892 104.226 35.8892C103.405 35.8892 102.739 36.5551 102.739 37.3765C102.739 38.198 103.405 38.8639 104.226 38.8639Z" fill="#D6DBE7"/>
<path d="M36.0225 83.2412C38.2241 83.2412 40.0088 81.4565 40.0088 79.2549C40.0088 77.0533 38.2241 75.2686 36.0225 75.2686C33.8209 75.2686 32.0361 77.0533 32.0361 79.2549C32.0361 81.4565 33.8209 83.2412 36.0225 83.2412Z" fill="#7E89A9"/>
<path d="M22.9476 36.3848C23.0802 36.3848 23.2073 36.3322 23.301 36.2384C23.3947 36.1447 23.4474 36.0176 23.4474 35.885C23.4474 35.7525 23.3947 35.6254 23.301 35.5316C23.2073 35.4379 23.0802 35.3853 22.9476 35.3853C22.8151 35.3853 22.6879 35.4379 22.5942 35.5316C22.5005 35.6254 22.4478 35.7525 22.4478 35.885C22.4478 36.0176 22.5005 36.1447 22.5942 36.2384C22.6879 36.3322 22.8151 36.3848 22.9476 36.3848Z" fill="#7E89A9"/>
<path d="M200.774 117.063C200.835 117.056 200.89 117.026 200.931 116.98C200.972 116.934 200.994 116.875 200.994 116.813C200.994 116.752 200.972 116.693 200.931 116.647C200.89 116.601 200.835 116.571 200.774 116.563C200.713 116.571 200.657 116.601 200.616 116.647C200.576 116.693 200.553 116.752 200.553 116.813C200.553 116.875 200.576 116.934 200.616 116.98C200.657 117.026 200.713 117.056 200.774 117.063Z" fill="#401E94"/>
<path d="M22.9481 1.99916C24.2356 1.99916 24.2356 0 22.9481 0C21.6606 0 21.6606 1.99916 22.9481 1.99916Z" fill="#7E89A9"/>
<path d="M63.0084 6.62507C63.1409 6.62507 63.268 6.57241 63.3618 6.47869C63.4555 6.38496 63.5082 6.25783 63.5082 6.12528C63.5082 5.99273 63.4555 5.8656 63.3618 5.77187C63.268 5.67814 63.1409 5.62549 63.0084 5.62549C62.8758 5.62549 62.7487 5.67814 62.655 5.77187C62.5612 5.8656 62.5086 5.99273 62.5086 6.12528C62.5086 6.25783 62.5612 6.38496 62.655 6.47869C62.7487 6.57241 62.8758 6.62507 63.0084 6.62507Z" fill="#7E89A9"/>
<path d="M35.5914 39.1116C35.6522 39.1039 35.7081 39.0743 35.7487 39.0283C35.7892 38.9822 35.8116 38.923 35.8116 38.8617C35.8116 38.8004 35.7892 38.7412 35.7487 38.6952C35.7081 38.6492 35.6522 38.6195 35.5914 38.6118C35.5305 38.6195 35.4746 38.6492 35.4341 38.6952C35.3935 38.7412 35.3712 38.8004 35.3712 38.8617C35.3712 38.923 35.3935 38.9822 35.4341 39.0283C35.4746 39.0743 35.5305 39.1039 35.5914 39.1116Z" fill="#8C6BE1"/>
<path d="M40.4323 108.135C40.4931 108.127 40.549 108.098 40.5896 108.052C40.6301 108.006 40.6525 107.946 40.6525 107.885C40.6525 107.824 40.6301 107.765 40.5896 107.719C40.549 107.673 40.4931 107.643 40.4323 107.635C40.3714 107.643 40.3155 107.673 40.2749 107.719C40.2344 107.765 40.212 107.824 40.212 107.885C40.212 107.946 40.2344 108.006 40.2749 108.052C40.3155 108.098 40.3714 108.127 40.4323 108.135Z" fill="#8C6BE1"/>
<path d="M225.168 93.5369C225.229 93.5292 225.285 93.4996 225.325 93.4535C225.366 93.4075 225.388 93.3483 225.388 93.287C225.388 93.2257 225.366 93.1665 225.325 93.1205C225.285 93.0745 225.229 93.0448 225.168 93.0371C225.107 93.0448 225.051 93.0745 225.011 93.1205C224.97 93.1665 224.948 93.2257 224.948 93.287C224.948 93.3483 224.97 93.4075 225.011 93.4535C225.051 93.4996 225.107 93.5292 225.168 93.5369Z" fill="#8C6BE1"/>
<path d="M235.465 62.0964C235.465 61.9645 235.485 61.8325 235.485 61.6966C235.486 60.7592 235.194 59.8451 234.648 59.0827C234.103 58.3204 233.332 57.7483 232.444 57.4468C231.557 57.1454 230.597 57.1298 229.7 57.4023C228.803 57.6747 228.014 58.2215 227.445 58.9657C226.269 58.1468 224.863 57.7218 223.431 57.752C221.998 57.7822 220.612 58.2659 219.472 59.1336C219.059 58.5398 218.509 58.0547 217.868 57.7196C217.227 57.3846 216.515 57.2096 215.791 57.2096C215.068 57.2096 214.356 57.3846 213.715 57.7196C213.074 58.0547 212.524 58.5398 212.111 59.1336C211.669 58.8506 211.158 58.692 210.633 58.6744C210.108 58.6568 209.589 58.781 209.128 59.0338C208.668 59.2867 208.284 59.6588 208.018 60.1112C207.751 60.5636 207.611 61.0795 207.613 61.6046C207.613 61.7695 207.628 61.9341 207.657 62.0964H235.465Z" fill="url(#paint3_linear)"/>
<path d="M223.217 56.8669C223.214 58.1108 222.937 59.3389 222.405 60.4631C221.872 61.5874 221.098 62.5801 220.137 63.3702C219.176 64.1603 218.053 64.7283 216.847 65.0334C215.641 65.3386 214.383 65.3735 213.162 65.1355C211.941 64.8976 210.787 64.3927 209.784 63.657C208.781 62.9213 207.953 61.973 207.359 60.8799C206.766 59.7869 206.421 58.5761 206.35 57.3342C206.278 56.0923 206.482 54.85 206.947 53.6962C207.253 52.9456 207.666 52.2437 208.175 51.6131C209.265 50.2445 210.754 49.2487 212.436 48.7634C214.117 48.2781 215.907 48.3274 217.559 48.9045C219.211 49.4815 220.643 50.5577 221.657 51.9842C222.67 53.4107 223.215 55.117 223.217 56.8669Z" fill="#C0C6D9"/>
<path d="M211.01 60.3371C211.182 60.3371 211.321 60.1975 211.321 60.0252C211.321 59.853 211.182 59.7134 211.01 59.7134C210.837 59.7134 210.698 59.853 210.698 60.0252C210.698 60.1975 210.837 60.3371 211.01 60.3371Z" fill="#7E89A9"/>
<path d="M210.382 51.8244C210.554 51.8244 210.694 51.6848 210.694 51.5126C210.694 51.3403 210.554 51.2007 210.382 51.2007C210.209 51.2007 210.07 51.3403 210.07 51.5126C210.07 51.6848 210.209 51.8244 210.382 51.8244Z" fill="#7E89A9"/>
<path d="M220.877 53.5922C221.049 53.5922 221.189 53.4526 221.189 53.2804C221.189 53.1081 221.049 52.9685 220.877 52.9685C220.705 52.9685 220.565 53.1081 220.565 53.2804C220.565 53.4526 220.705 53.5922 220.877 53.5922Z" fill="#7E89A9"/>
<path d="M220.701 60.0216C221.046 60.0216 221.325 59.7424 221.325 59.3979C221.325 59.0534 221.046 58.7742 220.701 58.7742C220.357 58.7742 220.078 59.0534 220.078 59.3979C220.078 59.7424 220.357 60.0216 220.701 60.0216Z" fill="#7E89A9"/>
<path d="M84.6429 120.478C84.6429 120.382 84.6429 120.286 84.6429 120.19C84.655 119.512 84.4513 118.848 84.0613 118.293C83.6714 117.739 83.1153 117.322 82.4733 117.104C81.8313 116.886 81.1367 116.878 80.4896 117.081C79.8426 117.283 79.2766 117.686 78.8734 118.231C78.0304 117.641 77.0216 117.334 75.993 117.356C74.9643 117.378 73.9692 117.726 73.1518 118.351C72.8581 117.921 72.4642 117.57 72.004 117.327C71.5438 117.084 71.0312 116.957 70.5109 116.957C69.9905 116.957 69.478 117.084 69.0178 117.327C68.5576 117.57 68.1636 117.921 67.87 118.351C67.535 118.135 67.145 118.02 66.7464 118.019C66.4699 118.019 66.1961 118.073 65.9407 118.179C65.6853 118.285 65.4532 118.441 65.2579 118.636C65.0625 118.832 64.9077 119.064 64.8023 119.32C64.6968 119.576 64.6428 119.849 64.6433 120.126C64.6439 120.244 64.6546 120.362 64.6753 120.478H84.6429Z" fill="url(#paint4_linear)"/>
<path d="M70.5094 34.2497L30.4222 48.5797L33.6648 21.1912L47.1992 16.909C47.1672 16.5571 70.5094 34.2497 70.5094 34.2497Z" fill="url(#paint5_linear)"/>
<g style="mix-blend-mode:multiply">
<path d="M44.6147 14.6621C42.85 14.8872 41.1099 15.2753 39.4169 15.8216C37.7187 16.3498 36.0726 17.0323 34.4989 17.8608C34.1438 16.5396 34.3123 15.1322 34.9694 13.9322C35.6265 12.7322 36.7214 11.8322 38.0258 11.4197C39.3303 11.0072 40.7436 11.1142 41.9712 11.7182C43.1987 12.3223 44.1457 13.3769 44.6147 14.6621Z" fill="#D6DBE7"/>
</g>
<path d="M49.5849 14.6779C49.7489 15.1977 48.8252 16.0093 47.2099 16.889C45.0984 17.9933 42.8884 18.8981 40.6087 19.5918C38.3482 20.3388 36.0231 20.8742 33.6636 21.1912C31.8284 21.4031 30.6049 21.2711 30.4369 20.7513C30.225 20.0796 31.8364 18.9081 34.4353 17.7286C35.824 17.0945 37.2485 16.5418 38.7015 16.0733C38.9294 15.9893 39.1613 15.9174 39.3932 15.8414C39.6251 15.7654 39.853 15.6975 40.0889 15.6335C41.5469 15.1806 43.0301 14.8134 44.531 14.5339C47.3819 13.9942 49.373 13.9942 49.5849 14.6779Z" fill="#C0C6D9"/>
<path d="M32.0081 20.4674C32.2179 20.4674 32.3879 20.2974 32.3879 20.0876C32.3879 19.8778 32.2179 19.7078 32.0081 19.7078C31.7983 19.7078 31.6283 19.8778 31.6283 20.0876C31.6283 20.2974 31.7983 20.4674 32.0081 20.4674Z" fill="#7E89A9"/>
<path d="M35.2107 18.8803C35.4205 18.8803 35.5906 18.7102 35.5906 18.5004C35.5906 18.2907 35.4205 18.1206 35.2107 18.1206C35.0009 18.1206 34.8309 18.2907 34.8309 18.5004C34.8309 18.7102 35.0009 18.8803 35.2107 18.8803Z" fill="#7E89A9"/>
<path d="M39.2573 17.133C39.4671 17.133 39.6371 16.9629 39.6371 16.7531C39.6371 16.5434 39.4671 16.3733 39.2573 16.3733C39.0475 16.3733 38.8774 16.5434 38.8774 16.7531C38.8774 16.9629 39.0475 17.133 39.2573 17.133Z" fill="#7E89A9"/>
<path d="M44.0826 15.8493C44.2924 15.8493 44.4625 15.6792 44.4625 15.4694C44.4625 15.2597 44.2924 15.0896 44.0826 15.0896C43.8728 15.0896 43.7028 15.2597 43.7028 15.4694C43.7028 15.6792 43.8728 15.8493 44.0826 15.8493Z" fill="#7E89A9"/>
<path d="M47.9335 15.4298C48.1433 15.4298 48.3134 15.2598 48.3134 15.05C48.3134 14.8402 48.1433 14.6702 47.9335 14.6702C47.7237 14.6702 47.5537 14.8402 47.5537 15.05C47.5537 15.2598 47.7237 15.4298 47.9335 15.4298Z" fill="#7E89A9"/>
<path d="M47.1981 16.8931C45.0902 17.9953 42.8843 18.8988 40.6088 19.5919C38.3483 20.3389 36.0233 20.8743 33.6637 21.1913C37.5938 18.3386 42.3424 16.8362 47.1981 16.9091V16.8931Z" fill="#7E89A9"/>
<path d="M173.61 127.879C174.449 127.879 175.129 127.198 175.129 126.359C175.129 125.52 174.449 124.84 173.61 124.84C172.77 124.84 172.09 125.52 172.09 126.359C172.09 127.198 172.77 127.879 173.61 127.879Z" fill="#7E89A9"/>
<path d="M197.463 95.9199V93.8048L197.515 80.1785L177.835 80.1065L177.795 91.0579V95.8559L169.058 95.8239L169.082 89.2946L169.174 63.7653L149.499 63.6934L149.415 83.733L149.315 111.953L177.727 112.057L177.667 129.046L197.343 129.118L197.407 112.129L203.74 112.153L203.792 95.9599L197.463 95.9199Z" fill="#C0C6D9"/>
<path d="M95.191 73.7932L95.4309 90.7821L88.5098 90.8781L75.7552 91.058L75.5153 74.0691L47.1071 74.4689L46.4274 26.1931L51.5173 26.1212L66.1032 25.9172L66.4191 48.3798L66.555 57.9718L71.389 57.9039L75.2874 57.8519L75.0674 42.1105L94.7432 41.8306L94.9631 57.572L101.296 57.484L101.528 73.7052L95.191 73.7932Z" fill="#C0C6D9"/>
<g style="mix-blend-mode:overlay" opacity="0.5">
<path d="M204.769 95.4825L204.706 112.648L198.021 112.602L197.967 130.592L177.213 130.516L177.277 112.542L147.308 112.403L147.418 82.5342C154.206 84.9046 162.696 86.8666 169.717 88.4098L169.692 95.3175L177.34 95.3514V90.2752C178.628 90.5121 179.938 90.7434 181.27 90.969C187.132 91.9631 192.729 92.6822 198.085 93.1813V95.419L204.769 95.4825Z" fill="white"/>
</g>
<g style="mix-blend-mode:overlay" opacity="0.5">
<path d="M88.5093 90.878L75.7546 91.0579L75.5147 74.069L47.1266 74.4689L46.4469 26.1931L51.5368 26.1211C57.1635 33.073 62.1447 40.5234 66.4185 48.3798L66.5545 57.9758L71.3885 57.9078C77.21 69.6349 81.9201 80.8022 88.5093 90.878Z" fill="white"/>
</g>
<path opacity="0.73" d="M124.794 108.539C143.062 108.539 157.872 93.729 157.872 75.4605C157.872 57.1919 143.062 42.3823 124.794 42.3823C106.525 42.3823 91.7155 57.1919 91.7155 75.4605C91.7155 93.729 106.525 108.539 124.794 108.539Z" fill="#D6DBE7"/>
<path d="M157.088 76.6477C152.31 73.7574 146.909 72.052 141.337 71.6736C135.765 71.2953 130.183 72.2549 125.058 74.4726C121.749 69.9743 117.412 66.3332 112.408 63.8535C107.405 61.3737 101.881 60.1274 96.2977 60.2185H95.2861L95.3981 66.6159L96.4057 66.5959C100.826 66.5275 105.201 67.4822 109.191 69.3855C113.181 71.2888 116.676 74.089 119.404 77.5673C108.529 84.6643 104.982 92.7929 103.835 97.0471C100.156 110.641 107.033 121.837 109.24 124.919C109.674 125.576 110.335 126.05 111.096 126.25C111.858 126.45 112.666 126.362 113.367 126.003C116.825 124.404 128.4 118.094 132.027 104.668C133.178 100.418 134.206 91.6134 128.388 79.9983C132.496 78.3647 136.926 77.7045 141.332 78.0694C145.737 78.4343 149.999 79.8143 153.782 82.1014L154.645 82.6292L157.952 77.1674L157.088 76.6477ZM126.929 102.869C125.19 109.31 120.192 115.072 116.009 118.438C116.809 114.92 118.98 106.003 121.911 100.298C123.136 97.8318 125.023 95.7552 127.361 94.3003C128.052 96.2754 127.689 100.058 126.929 102.869ZM113.467 90.9657C114.746 93.4036 115.33 96.1467 115.154 98.8943C114.81 105.324 112.199 114.088 111.112 117.535C109.192 112.517 107.777 105.024 109.512 98.5825C110.276 95.7677 111.871 92.3171 113.467 90.9657Z" fill="#7E89A9"/>
<g style="mix-blend-mode:hard-light" opacity="0.32">
<path d="M133.022 47.3721C126.682 45.6413 119.954 45.9946 113.83 48.3797C118.153 47.6796 122.576 47.9072 126.805 49.0474C142.866 53.3896 152.49 69.4829 148.3 84.9884C145.841 94.0846 139.163 100.93 130.835 104.18C141.966 102.393 151.482 94.5644 154.529 83.2931C158.719 67.8036 149.095 51.7103 133.022 47.3721Z" fill="white"/>
</g>
<path d="M130.979 108.55C130.287 107.507 124.333 105.592 117.172 103.656C110.011 101.721 103.906 100.378 102.779 100.934L100.927 107.775C100.683 108.674 106.905 110.713 114.694 112.817C122.482 114.92 128.88 116.295 129.123 115.391L130.975 108.546L130.979 108.55Z" fill="#C0C6D9"/>
<path d="M121.714 110.566C122.288 110.566 122.753 110.101 122.753 109.527C122.753 108.952 122.288 108.487 121.714 108.487C121.14 108.487 120.674 108.952 120.674 109.527C120.674 110.101 121.14 110.566 121.714 110.566Z" fill="white"/>
<path d="M126.901 111.965C127.475 111.965 127.941 111.499 127.941 110.925C127.941 110.351 127.475 109.886 126.901 109.886C126.327 109.886 125.862 110.351 125.862 110.925C125.862 111.499 126.327 111.965 126.901 111.965Z" fill="white"/>
<path d="M110.46 107.227C110.46 107.227 108.992 106.943 107.189 106.455C105.386 105.967 103.991 105.476 103.991 105.476L104.39 104.012C104.39 104.012 105.874 104.38 107.641 104.86C109.408 105.34 110.876 105.767 110.876 105.767L110.46 107.227Z" fill="white"/>
<defs>
<linearGradient id="paint0_linear" x1="0.0189341" y1="60.3339" x2="64.3236" y2="60.5086" gradientUnits="userSpaceOnUse">
<stop offset="0.00520833" stop-color="#7E89A9" stop-opacity="0.48"/>
<stop offset="0.453794" stop-color="#E1E5ED"/>
<stop offset="0.708216" stop-color="white"/>
</linearGradient>
<linearGradient id="paint1_linear" x1="115592" y1="525.515" x2="112214" y2="525.515" gradientUnits="userSpaceOnUse">
<stop stop-color="#01A56A" stop-opacity="0.7"/>
<stop offset="0.21" stop-color="#01A56A" stop-opacity="0.47"/>
<stop offset="0.43" stop-color="#01A56A" stop-opacity="0.27"/>
<stop offset="0.64" stop-color="#01A56A" stop-opacity="0.12"/>
<stop offset="0.84" stop-color="#01A56A" stop-opacity="0.03"/>
<stop offset="1" stop-color="#01A56A" stop-opacity="0"/>
</linearGradient>
<linearGradient id="paint2_linear" x1="234.568" y1="93.3932" x2="193.799" y2="93.5045" gradientUnits="userSpaceOnUse">
<stop offset="0.00520833" stop-color="#7E89A9" stop-opacity="0.57"/>
<stop offset="0.453794" stop-color="#E1E5ED"/>
<stop offset="0.708216" stop-color="white"/>
</linearGradient>
<linearGradient id="paint3_linear" x1="207.613" y1="59.6494" x2="235.485" y2="59.6494" gradientUnits="userSpaceOnUse">
<stop stop-color="white"/>
<stop offset="0.537429" stop-color="#DADDE6"/>
<stop offset="1" stop-color="#7E89A9" stop-opacity="0.68"/>
</linearGradient>
<linearGradient id="paint4_linear" x1="3325.67" y1="1169.05" x2="4326.07" y2="1169.05" gradientUnits="userSpaceOnUse">
<stop stop-color="#01A56A" stop-opacity="0"/>
<stop offset="0.67" stop-color="#01A56A" stop-opacity="0.49"/>
<stop offset="1" stop-color="#01A56A" stop-opacity="0.7"/>
</linearGradient>
<linearGradient id="paint5_linear" x1="50.6712" y1="42.312" x2="38.3955" y2="11.4922" gradientUnits="userSpaceOnUse">
<stop stop-color="#C0C6D9" stop-opacity="0"/>
<stop offset="0.515625" stop-color="#C0C6D9" stop-opacity="0.13"/>
<stop offset="0.921875" stop-color="#C0C6D9"/>
</linearGradient>
</defs>
</svg>
