<svg width="48" height="48" viewBox="0 0 48 48" fill="none" xmlns="http://www.w3.org/2000/svg">
<path fill-rule="evenodd" clip-rule="evenodd" d="M44.0005 27.9956C46.2096 27.9956 48.0005 26.2048 48.0005 23.9956C48.0005 21.7865 46.2096 19.9956 44.0005 19.9956L13.666 19.9956L26.8332 6.82843C28.3953 5.26633 28.3953 2.73367 26.8332 1.17157C25.2711 -0.390524 22.7385 -0.390524 21.1764 1.17157L1.3339 21.014C0.515461 21.7464 0.00038147 22.8109 0.00038147 23.9956C0.00038147 25.1006 0.448441 26.101 1.17279 26.8249C1.17397 26.8261 1.17514 26.8272 1.17632 26.8284L21.1764 46.8284C22.7385 48.3905 25.2711 48.3905 26.8332 46.8284C28.3953 45.2663 28.3953 42.7337 26.8332 41.1716L13.6573 27.9956L44.0005 27.9956Z" fill="#394455"/>
</svg>
