<svg width="14" height="14" viewBox="0 0 14 14" fill="none" xmlns="http://www.w3.org/2000/svg">
    <path fill-rule="evenodd" clip-rule="evenodd" d="M12.25 1.16667H1.75C1.42783 1.16667 1.16667 1.42783 1.16667 1.75V12.25C1.16667 12.5722 1.42783 12.8333 1.75 12.8333H12.25C12.5722 12.8333 12.8333 12.5722 12.8333 12.25V1.75C12.8333 1.42783 12.5722 1.16667 12.25 1.16667ZM1.75 0C0.783502 0 0 0.783502 0 1.75V12.25C0 13.2165 0.783502 14 1.75 14H12.25C13.2165 14 14 13.2165 14 12.25V1.75C14 0.783502 13.2165 0 12.25 0H1.75Z" fill="#475872"/>
    <path fill-rule="evenodd" clip-rule="evenodd" d="M3.66205 13.4167V4.99075V3.79168V1H4.9006V4.29168H13V5.49075H4.9006V8.5H13V9.75H4.9006V13.4167H3.66205Z" fill="#475872"/>
</svg>
