<svg width="280" height="178" viewBox="0 0 280 178" fill="none" xmlns="http://www.w3.org/2000/svg">
<path opacity="0.73" d="M147.692 95.6616C147.692 170.986 227.993 176.756 183.409 176.756C138.825 176.756 102.683 140.449 102.683 95.6616C102.683 50.8747 138.825 14.5677 183.409 14.5677C227.993 14.5677 147.692 20.3368 147.692 95.6616Z" fill="#D6DBE7"/>
<g style="mix-blend-mode:hard-light" opacity="0.32">
<path d="M141.044 157.332C158.04 168.986 170.666 172.385 182.816 172.385C162.896 166.072 160.181 162.394 152.699 157.332C124.284 138.075 117.321 94.2111 135.888 57.6093C146.782 36.1375 164.393 22.5018 182.816 18.7218C159.908 17.376 136.1 31.9888 122.602 58.5951C104.046 95.1569 111.909 133.052 141.044 157.332Z" fill="white"/>
</g>
<path d="M193.983 99.1358H200.971V102.78H186.707L194.602 89.8712H188.034V86.2269H201.833L193.983 99.1358Z" fill="#C0C6D9"/>
<path d="M200.978 99.0641H194.025L195.78 96.1879H190.74L186.667 102.794H200.978V99.0641Z" fill="#D6DBE7"/>
<path d="M255.58 68.0827H272.857V77.093H237.592L257.111 45.177H240.872V36.1667H274.99L255.58 68.0827Z" fill="#C0C6D9"/>
<path d="M272.874 67.9051H255.684L260.023 60.794H247.563L237.492 77.1273H272.874V67.9051Z" fill="#D6DBE7"/>
<path d="M219.436 86.9922H231.793V93.4361H206.571L220.531 70.6106H208.918V64.1667H233.318L219.436 86.9922Z" fill="#C0C6D9"/>
<path d="M231.805 86.8652H219.511L222.614 81.7795H213.703L206.5 93.4606H231.805V86.8652Z" fill="#D6DBE7"/>
<path d="M180.282 37.0087C181.139 37.0078 181.981 37.2436 182.719 37.6914C183.56 36.3458 184.797 35.3108 186.251 34.7371C187.705 34.1634 189.299 34.0811 190.802 34.5021C191.351 31.9808 192.718 29.7253 194.678 28.1041C196.638 26.4829 199.076 25.5918 201.594 25.5764C204.111 25.561 206.559 26.4223 208.538 28.0194C210.517 29.6166 211.909 31.8552 212.488 34.3696C212.936 34.2814 213.392 34.2371 213.848 34.2371C215.689 34.2335 217.464 34.9377 218.823 36.211C220.182 37.4842 221.027 39.234 221.191 41.1151H175.545C175.736 39.9674 176.316 38.9259 177.183 38.1744C178.05 37.423 179.147 37.0101 180.282 37.0087V37.0087Z" fill="#C0C6D9"/>
<path d="M6.5371 111.975C7.72064 111.974 8.88272 112.311 9.90157 112.949C11.0618 111.03 12.7696 109.553 14.7762 108.735C16.7827 107.917 18.9832 107.799 21.0571 108.4C21.8154 104.803 23.7013 101.586 26.4066 99.2728C29.112 96.9601 32.4769 95.6889 35.9516 95.667C39.4262 95.645 42.8052 96.8736 45.5363 99.152C48.2675 101.43 50.1893 104.624 50.9879 108.211C51.6067 108.085 52.2354 108.022 52.8655 108.022C55.4056 108.016 57.8553 109.021 59.7314 110.837C61.6075 112.654 62.7738 115.15 63 117.833H0C0.263413 116.196 1.06392 114.71 2.2601 113.638C3.45628 112.566 4.97115 111.978 6.5371 111.975V111.975Z" fill="#C0C6D9"/>
<path d="M80.3452 151.505C86.2453 151.505 91.0283 146.722 91.0283 140.822C91.0283 134.922 86.2453 130.139 80.3452 130.139C74.4452 130.139 69.6622 134.922 69.6622 140.822C69.6622 146.722 74.4452 151.505 80.3452 151.505Z" fill="#C0C6D9"/>
<path d="M70.093 142.437C63.2656 145.086 58.7236 147.472 58.9903 148.422C59.2571 149.372 64.4191 148.63 71.6574 146.723C74.5412 145.951 77.7134 145.016 81.0298 143.935C84.7571 142.73 88.2393 141.487 91.224 140.313C97.7126 137.749 101.966 135.502 101.699 134.575C101.433 133.649 96.9051 134.274 90.3517 135.927" stroke="#D6DBE7" stroke-width="0.5" stroke-miterlimit="10"/>
<path opacity="0.73" d="M102.724 126.01C103.539 126.01 104.199 125.349 104.199 124.534C104.199 123.719 103.539 123.059 102.724 123.059C101.909 123.059 101.248 123.719 101.248 124.534C101.248 125.349 101.909 126.01 102.724 126.01Z" fill="#D6DBE7"/>
<path opacity="0.73" d="M169.835 69.9588C171.176 69.9588 172.263 68.8718 172.263 67.5309C172.263 66.1899 171.176 65.1029 169.835 65.1029C168.495 65.1029 167.408 66.1899 167.408 67.5309C167.408 68.8718 168.495 69.9588 169.835 69.9588Z" fill="#D6DBE7"/>
<path d="M127.435 26.1974C128.233 26.1974 128.88 25.5507 128.88 24.7529C128.88 23.9551 128.233 23.3083 127.435 23.3083C126.638 23.3083 125.991 23.9551 125.991 24.7529C125.991 25.5507 126.638 26.1974 127.435 26.1974Z" fill="#D6DBE7"/>
<path d="M117.343 30.8L63.8404 49.9257L68.1682 13.3713L86.2319 7.65602C86.1893 7.18642 117.343 30.8 117.343 30.8Z" fill="url(#paint0_linear_4355_108924)"/>
<g style="mix-blend-mode:multiply">
<path d="M82.7825 4.6573C80.4272 4.9577 78.1048 5.47577 75.8452 6.20486C73.5787 6.90975 71.3816 7.82075 69.2814 8.92643C68.8074 7.16305 69.0323 5.28476 69.9093 3.68316C70.7862 2.08157 72.2476 0.88028 73.9886 0.329762C75.7296 -0.220755 77.6159 -0.0780148 79.2543 0.728225C80.8926 1.53447 82.1565 2.94198 82.7825 4.6573V4.6573Z" fill="#D6DBE7"/>
</g>
<path d="M89.4161 4.67843C89.6349 5.37216 88.4021 6.45545 86.2462 7.62946C83.428 9.10334 80.4784 10.311 77.4358 11.2369C74.4188 12.2338 71.3157 12.9484 68.1665 13.3714C65.7171 13.6543 64.0841 13.4782 63.86 12.7844C63.5772 11.8879 65.7277 10.3244 69.1964 8.75011C71.0499 7.90379 72.9511 7.16612 74.8904 6.54084C75.1945 6.42877 75.504 6.33272 75.8136 6.23132C76.1231 6.12993 76.4272 6.03921 76.7421 5.95383C78.688 5.34935 80.6676 4.85934 82.6708 4.48632V4.48632C86.4757 3.7659 89.1332 3.7659 89.4161 4.67843Z" fill="#C0C6D9"/>
<path d="M65.957 12.4053C66.237 12.4053 66.464 12.1783 66.464 11.8983C66.464 11.6183 66.237 11.3914 65.957 11.3914C65.6771 11.3914 65.4501 11.6183 65.4501 11.8983C65.4501 12.1783 65.6771 12.4053 65.957 12.4053Z" fill="#7E89A9"/>
<path d="M70.2313 10.2871C70.5113 10.2871 70.7383 10.0601 70.7383 9.78015C70.7383 9.50017 70.5113 9.27319 70.2313 9.27319C69.9513 9.27319 69.7244 9.50017 69.7244 9.78015C69.7244 10.0601 69.9513 10.2871 70.2313 10.2871Z" fill="#7E89A9"/>
<path d="M75.6323 7.9552C75.9123 7.9552 76.1393 7.72823 76.1393 7.44824C76.1393 7.16826 75.9123 6.94128 75.6323 6.94128C75.3523 6.94128 75.1254 7.16826 75.1254 7.44824C75.1254 7.72823 75.3523 7.9552 75.6323 7.9552Z" fill="#7E89A9"/>
<path d="M82.0724 6.242C82.3524 6.242 82.5794 6.01503 82.5794 5.73505C82.5794 5.45506 82.3524 5.22809 82.0724 5.22809C81.7924 5.22809 81.5655 5.45506 81.5655 5.73505C81.5655 6.01503 81.7924 6.242 82.0724 6.242Z" fill="#7E89A9"/>
<path d="M87.2121 5.68201C87.4921 5.68201 87.719 5.45504 87.719 5.17505C87.719 4.89506 87.4921 4.66809 87.2121 4.66809C86.9321 4.66809 86.7051 4.89506 86.7051 5.17505C86.7051 5.45504 86.9321 5.68201 87.2121 5.68201Z" fill="#7E89A9"/>
<path d="M86.2303 7.63495C83.4171 9.10607 80.4729 10.312 77.4359 11.237C74.4189 12.234 71.3158 12.9486 68.1666 13.3716C73.4119 9.56429 79.7497 7.55905 86.2303 7.65629V7.63495Z" fill="#7E89A9"/>
<path d="M228.743 116.819C230.718 116.819 232.319 115.218 232.319 113.243C232.319 111.268 230.718 109.667 228.743 109.667C226.768 109.667 225.167 111.268 225.167 113.243C225.167 115.218 226.768 116.819 228.743 116.819Z" fill="#7E89A9"/>
<path d="M38.4302 36.5959C39.4177 36.5959 40.2183 35.7954 40.2183 34.8079C40.2183 33.8204 39.4177 33.0198 38.4302 33.0198C37.4427 33.0198 36.6422 33.8204 36.6422 34.8079C36.6422 35.7954 37.4427 36.5959 38.4302 36.5959Z" fill="#7E89A9"/>
<path d="M106.243 107.485C108.218 107.485 109.819 105.884 109.819 103.909C109.819 101.934 108.218 100.333 106.243 100.333C104.268 100.333 102.667 101.934 102.667 103.909C102.667 105.884 104.268 107.485 106.243 107.485Z" fill="#7E89A9"/>
<path d="M237.523 168.677C238.511 168.677 239.311 167.877 239.311 166.889C239.311 165.902 238.511 165.101 237.523 165.101C236.536 165.101 235.735 165.902 235.735 166.889C235.735 167.877 236.536 168.677 237.523 168.677Z" fill="#C0C6D9"/>
<path d="M145.338 76.2374C143.367 76.2354 141.433 76.7659 139.736 77.7735C137.805 74.7458 134.961 72.417 131.621 71.1262C128.28 69.8355 124.616 69.6502 121.164 70.5974C119.901 64.9246 116.761 59.8497 112.257 56.202C107.753 52.5542 102.151 50.5492 96.3659 50.5146C90.581 50.48 84.9555 52.4178 80.4084 56.0115C75.8614 59.6051 72.6617 64.6421 71.3321 70.2994C70.3019 70.101 69.2552 70.0012 68.2062 70.0013C63.9772 69.993 59.8986 71.5776 56.7751 74.4424C53.6516 77.3072 51.71 81.2443 51.3333 85.4768L156.221 85.4768C155.783 82.8945 154.45 80.5509 152.459 78.8603C150.467 77.1696 147.945 76.2406 145.338 76.2374V76.2374Z" fill="url(#paint1_linear_4355_108924)"/>
<path d="M245.944 139.091C243.922 139.093 241.938 139.638 240.199 140.672C238.209 137.564 235.285 135.173 231.851 133.846C228.416 132.519 224.65 132.325 221.099 133.292C219.801 127.463 216.573 122.248 211.941 118.5C207.31 114.752 201.549 112.693 195.601 112.658C189.653 112.623 183.869 114.615 179.194 118.309C174.52 122.002 171.231 127.179 169.866 132.993C168.803 132.791 167.724 132.688 166.642 132.685C162.3 132.685 158.115 134.318 154.911 137.262C151.707 140.206 149.717 144.248 149.333 148.591H257.135C256.687 145.936 255.318 143.525 253.27 141.786C251.221 140.047 248.626 139.092 245.944 139.091V139.091Z" fill="url(#paint2_linear_4355_108924)"/>
<defs>
<linearGradient id="paint0_linear_4355_108924" x1="90.8659" y1="41.5605" x2="74.482" y2="0.426451" gradientUnits="userSpaceOnUse">
<stop stop-color="#C0C6D9" stop-opacity="0"/>
<stop offset="0.515625" stop-color="#C0C6D9" stop-opacity="0.13"/>
<stop offset="0.921875" stop-color="#C0C6D9"/>
</linearGradient>
<linearGradient id="paint1_linear_4355_108924" x1="51.3676" y1="67.9953" x2="167.691" y2="68.3113" gradientUnits="userSpaceOnUse">
<stop offset="0.00520833" stop-color="#7E89A9" stop-opacity="0.48"/>
<stop offset="0.333333" stop-color="#E1E5ED"/>
<stop offset="0.473958" stop-color="white" stop-opacity="0.81"/>
<stop offset="0.885417" stop-color="white" stop-opacity="0.12"/>
</linearGradient>
<linearGradient id="paint2_linear_4355_108924" x1="257.1" y1="130.624" x2="137.545" y2="130.949" gradientUnits="userSpaceOnUse">
<stop offset="0.00520833" stop-color="#7E89A9" stop-opacity="0.48"/>
<stop offset="0.385417" stop-color="#E1E5ED"/>
<stop offset="0.588542" stop-color="white" stop-opacity="0.9"/>
<stop offset="0.979167" stop-color="white" stop-opacity="0"/>
</linearGradient>
</defs>
</svg>
