<svg width="24" height="30" xmlns="http://www.w3.org/2000/svg">

 <g>
  <title>background</title>
  <rect fill="none" id="canvas_background" height="32" width="26" y="-1" x="-1"/>
 </g>
 <g class="currentLayer">
  <title>Layer 1</title>
  <g stroke="null" id="svg_8" fill="#5f6c87" class="selected">
   <path stroke="null" fill="#5f6c87" id="svg_1" d="m5.833132,21.239947c-3.087122,0 -5.659733,-2.604859 -5.659733,-5.801727c0,-3.196877 2.515437,-5.860939 5.659733,-5.860939s5.659741,2.604859 5.659741,5.860939c0,3.196868 -2.572611,5.801727 -5.659741,5.801727zm0,-10.182631c-2.343931,0 -4.230508,1.953646 -4.230508,4.380904s1.886578,4.3217 4.230508,4.3217s4.230508,-1.953646 4.230508,-4.3217s-1.886578,-4.380904 -4.230508,-4.380904z"/>
   <path stroke="null" fill="#5f6c87" id="svg_2" d="m5.775966,8.03805c-2.115258,0 -3.773155,-1.776045 -3.773155,-3.907293s1.715071,-3.907284 3.773155,-3.907284s3.773155,1.776036 3.773155,3.907284s-1.657905,3.907293 -3.773155,3.907293zm0,-6.393745c-1.314884,0 -2.343931,1.124823 -2.343931,2.427257s1.086212,2.427249 2.343931,2.427249s2.343931,-1.124823 2.343931,-2.427249s-1.029046,-2.427257 -2.343931,-2.427257z"/>
   <path stroke="null" fill="#5f6c87" id="svg_3" d="m19.725209,9.28128c-2.11525,0 -3.830321,-1.776045 -3.830321,-3.907293s1.715071,-3.907284 3.830321,-3.907284c2.115258,0 3.773155,1.776036 3.773155,3.907284s-1.657897,3.907293 -3.773155,3.907293zm0,-6.393745c-1.314884,0 -2.401097,1.124823 -2.401097,2.427249s1.086212,2.427257 2.401097,2.427257s2.343931,-1.124823 2.343931,-2.427257s-1.029038,-2.427249 -2.343931,-2.427249z"/>
   <path stroke="null" fill="#5f6c87" id="svg_4" d="m20.011056,29.587339c-2.11525,0 -3.830321,-1.776036 -3.830321,-3.966488s1.715071,-3.966488 3.830321,-3.966488c2.115258,0 3.773155,1.776036 3.773155,3.966488s-1.657897,3.966488 -3.773155,3.966488zm0,-6.393745c-1.314884,0 -2.401097,1.124823 -2.401097,2.486461s1.086212,2.486452 2.401097,2.486452s2.343931,-1.124823 2.343931,-2.486452s-1.029046,-2.486461 -2.343931,-2.486461z"/>
   <rect stroke="null" fill="#5f6c87" id="svg_5" height="2.723262" width="1.429226" y="7.62364" x="5.147106"/>
   <rect stroke="null" fill="#5f6c87" id="svg_6" height="2.5" width="15.7" transform="matrix(0.465927675530266,-0.34301259743291646,0.3312374174260566,0.48249096808392616,0.2479239756795296,11.594334972160329) " y="9.773595" x="12.80135"/>
   <rect stroke="null" fill="#5f6c87" id="svg_7" height="16.299999" width="2.5" transform="matrix(0.3235767660737798,-0.4880558945869802,0.47130156528484823,0.3350796170987758,-7.0521622416807475,23.014925787379756) " y="19.897671" x="21.894984"/>
  </g>
 </g>
</svg>