<svg xmlns="http://www.w3.org/2000/svg" width="394" height="90" fill="none" viewBox="0 0 394 90">
    <mask id="a" width="909" height="90" x="-90" y="0" maskUnits="userSpaceOnUse">
        <path fill="#fff" d="M-89.5 0h908v90h-908z"/>
    </mask>
    <g stroke="#D6DBE7" mask="url(#a)">
        <path stroke-width="1.5" d="M223.683 52.239l26.085-12.318"/>
        <path stroke-dasharray="3 3" stroke-width="1.5" d="M223.447 53.636l62.315 14.491"/>
        <path stroke-linecap="round" stroke-linejoin="round" stroke-miterlimit="10" stroke-width="1.4" d="M224.003 44.808v2.926c0 1.224-2.365 2.212-5.276 2.212-2.918 0-5.284-.986-5.284-2.212v-2.926c0 1.218 2.366 2.211 5.284 2.211 2.912 0 5.276-.993 5.276-2.211z"/>
        <path stroke-linecap="round" stroke-linejoin="round" stroke-miterlimit="10" stroke-width="1.4" d="M224.003 47.742v2.926c0 1.225-2.365 2.212-5.276 2.212-2.918 0-5.284-.986-5.284-2.212v-2.926c0 1.219 2.366 2.212 5.284 2.212 2.912 0 5.276-.993 5.276-2.212z"/>
        <path stroke-linecap="round" stroke-linejoin="round" stroke-miterlimit="10" stroke-width="1.4" d="M224.003 50.678v2.926c0 1.224-2.365 2.212-5.276 2.212-2.918 0-5.284-.986-5.284-2.212v-2.926c0 1.218 2.366 2.212 5.284 2.212 2.912 0 5.276-.994 5.276-2.212zM224.002 44.81c0 1.218-2.361 2.208-5.272 2.208-2.916 0-5.284-.989-5.284-2.208 0-1.218 2.368-2.208 5.284-2.208 2.911 0 5.272.99 5.272 2.208z"/>
        <g stroke-linecap="round" stroke-linejoin="round" stroke-miterlimit="10" stroke-width="1.4" opacity=".47">
            <path d="M258.058 32.12v2.209c0 .924-1.785 1.669-3.982 1.669-2.203 0-3.988-.744-3.988-1.67V32.12c0 .92 1.785 1.67 3.988 1.67 2.198 0 3.982-.75 3.982-1.67z"/>
            <path d="M258.058 34.335v2.208c0 .924-1.785 1.67-3.982 1.67-2.203 0-3.988-.745-3.988-1.67v-2.208c0 .92 1.785 1.669 3.988 1.669 2.198 0 3.982-.75 3.982-1.67z"/>
            <path d="M258.058 36.55v2.21c0 .923-1.785 1.668-3.982 1.668-2.203 0-3.988-.744-3.988-1.669V36.55c0 .92 1.785 1.67 3.988 1.67 2.198 0 3.982-.75 3.982-1.67zM258.057 32.122c0 .92-1.782 1.666-3.979 1.666-2.201 0-3.989-.746-3.989-1.666 0-.92 1.788-1.667 3.989-1.667 2.197 0 3.979.747 3.979 1.667z"/>
        </g>
        <g stroke-linecap="round" stroke-linejoin="round" stroke-miterlimit="10" stroke-width="1.4" opacity=".47">
            <path d="M297.474 64.003v3.171c0 1.327-2.564 2.397-5.719 2.397-3.162 0-5.726-1.069-5.726-2.397v-3.171c0 1.32 2.564 2.397 5.726 2.397 3.156 0 5.719-1.077 5.719-2.397z"/>
            <path d="M297.474 67.184v3.171c0 1.327-2.564 2.397-5.719 2.397-3.162 0-5.726-1.069-5.726-2.397v-3.171c0 1.32 2.564 2.397 5.726 2.397 3.156 0 5.719-1.077 5.719-2.397z"/>
            <path d="M297.474 70.365v3.171c0 1.327-2.564 2.397-5.719 2.397-3.162 0-5.726-1.069-5.726-2.397v-3.171c0 1.32 2.564 2.397 5.726 2.397 3.156 0 5.719-1.077 5.719-2.397zM297.473 64.005c0 1.32-2.559 2.393-5.714 2.393-3.161 0-5.727-1.07-5.727-2.393 0-1.32 2.566-2.393 5.727-2.393 3.155 0 5.714 1.073 5.714 2.393z"/>
        </g>
        <path stroke-miterlimit="10" d="M41.437 152.347c22.609 0 40.937-18.328 40.937-40.937 0-22.609-18.328-40.937-40.937-40.937C18.828 70.473.5 88.801.5 111.41c0 22.609 18.328 40.937 40.937 40.937z"/>
        <path stroke-miterlimit="10" d="M41.437 138.535c14.98 0 27.125-12.144 27.125-27.125 0-14.98-12.145-27.125-27.125-27.125S14.312 96.429 14.312 111.41s12.144 27.125 27.125 27.125zM107.211 36.055c35.016 0 63.402-28.387 63.402-63.403S142.227-90.75 107.211-90.75c-35.017 0-63.403 28.386-63.403 63.402 0 35.016 28.386 63.403 63.403 63.403z"/>
        <path fill="#D6DBE7" d="M149.603 20.412a1.414 1.414 0 1 1-2.828 0 1.414 1.414 0 0 1 2.828 0zM62.904 51.295a.582.582 0 1 1-1.164 0 .582.582 0 0 1 1.164 0zM69.768 51.294a.582.582 0 1 1-1.164 0 .582.582 0 0 1 1.164 0zM76.59 51.294a.582.582 0 1 1-1.163 0 .582.582 0 0 1 1.163 0zM62.904 56.328a.582.582 0 1 1-1.164 0 .582.582 0 0 1 1.164 0zM69.768 56.328a.582.582 0 1 1-1.164 0 .582.582 0 0 1 1.164 0zM76.59 56.328a.582.582 0 1 1-1.163 0 .582.582 0 0 1 1.163 0zM62.904 61.404a.582.582 0 1 1-1.164 0 .582.582 0 0 1 1.164 0zM69.768 61.403a.582.582 0 1 1-1.164 0 .582.582 0 0 1 1.164 0zM76.59 61.403a.582.582 0 1 1-1.163 0 .582.582 0 0 1 1.163 0zM62.904 66.438a.582.582 0 1 1-1.164 0 .582.582 0 0 1 1.164 0zM69.768 66.438a.582.582 0 1 1-1.164 0 .582.582 0 0 1 1.164 0zM76.59 66.438a.582.582 0 1 1-1.163 0 .582.582 0 0 1 1.163 0zM69.768 46.26a.582.582 0 1 1-1.164 0 .582.582 0 0 1 1.164 0zM76.59 46.26a.582.582 0 1 1-1.163 0 .582.582 0 0 1 1.164 0zM83.455 46.26a.582.582 0 1 1-1.164 0 .582.582 0 0 1 1.164 0zM69.768 39.77a.582.582 0 1 1-1.164 0 .582.582 0 0 1 1.164 0zM76.59 39.77a.582.582 0 1 1-1.163 0 .582.582 0 0 1 1.164 0zM83.455 39.77a.582.582 0 1 1-1.163 0 .582.582 0 0 1 1.163 0zM69.768 33.322a.582.582 0 1 1-1.164 0 .582.582 0 0 1 1.164 0zM76.59 33.321a.582.582 0 1 1-1.163 0 .582.582 0 0 1 1.164 0zM83.455 33.321a.582.582 0 1 1-1.163 0 .582.582 0 0 1 1.163 0zM69.768 26.832a.582.582 0 1 1-1.164 0 .582.582 0 0 1 1.164 0zM76.59 26.832a.582.582 0 1 1-1.163 0 .582.582 0 0 1 1.164 0zM83.455 26.832a.582.582 0 1 1-1.163 0 .582.582 0 0 1 1.163 0zM69.768 20.342a.582.582 0 1 1-1.164 0 .582.582 0 0 1 1.164 0zM76.59 20.342a.582.582 0 1 1-1.163 0 .582.582 0 0 1 1.164 0zM83.455 20.342a.582.582 0 1 1-1.163 0 .582.582 0 0 1 1.163 0zM69.768 13.852a.582.582 0 1 1-1.164 0 .582.582 0 0 1 1.164 0zM76.59 13.852a.582.582 0 1 1-1.163 0 .582.582 0 0 1 1.164 0zM83.455 13.852a.582.582 0 1 1-1.164 0 .582.582 0 0 1 1.164 0z"/>
        <path stroke-miterlimit="10" stroke-width="2" d="M204.802 34.805c35.016 0 63.403-28.386 63.403-63.403 0-35.016-28.387-63.402-63.403-63.402S141.4-63.614 141.4-28.598c0 35.017 28.386 63.403 63.402 63.403zM351.563 61.778c22.609 0 40.937-18.328 40.937-40.937 0-22.609-18.328-40.937-40.937-40.937-22.609 0-40.937 18.328-40.937 40.937 0 22.61 18.328 40.937 40.937 40.937z"/>
        <path stroke-miterlimit="10" stroke-width="2" d="M351.562 47.966c14.981 0 27.125-12.144 27.125-27.125 0-14.98-12.144-27.125-27.125-27.125-14.98 0-27.124 12.145-27.124 27.125s12.144 27.125 27.124 27.125z"/>
        <path fill="#F1AA35" d="M246.182 89.818a1.414 1.414 0 1 1-2.828 0 1.414 1.414 0 0 1 2.828 0z"/>
        <path fill="#D6DBE7" d="M331.968 3.576a1.414 1.414 0 1 1-2.828 0 1.414 1.414 0 0 1 2.828 0zM331.26 80.915a.581.581 0 1 1-1.162.001.581.581 0 0 1 1.162 0zM324.395 80.915a.581.581 0 1 1-1.162.001.581.581 0 0 1 1.162 0zM317.573 80.915a.581.581 0 1 1-1.163 0 .581.581 0 0 1 1.163 0zM331.26 75.881a.581.581 0 1 1-1.162.001.581.581 0 0 1 1.162 0zM324.395 75.881a.581.581 0 1 1-1.162.001.581.581 0 0 1 1.162 0zM317.573 75.882a.581.581 0 1 1-1.163 0 .581.581 0 0 1 1.163 0zM331.26 70.847a.581.581 0 1 1-1.162.001.581.581 0 0 1 1.162 0zM324.395 70.847a.581.581 0 1 1-1.162.001.581.581 0 0 1 1.162 0zM317.573 70.848a.582.582 0 1 1-1.163 0 .582.582 0 0 1 1.163 0zM331.26 65.814a.581.581 0 1 1-1.162 0 .581.581 0 0 1 1.162 0zM324.395 65.814a.581.581 0 1 1-1.162 0 .581.581 0 0 1 1.162 0zM317.573 65.814a.581.581 0 1 1-1.163 0 .581.581 0 0 1 1.163 0zM324.396 85.99a.582.582 0 1 1-1.164 0 .582.582 0 0 1 1.164 0zM317.573 85.99a.581.581 0 1 1-1.163.001.581.581 0 0 1 1.163 0zM310.708 85.991a.581.581 0 1 1-1.162.001.581.581 0 0 1 1.162 0zM255.637 81.418a.581.581 0 1 1-1.162.001.581.581 0 0 1 1.162 0zM248.773 81.418a.582.582 0 1 1-1.164 0 .582.582 0 0 1 1.164 0zM241.95 81.419a.581.581 0 1 1-1.163 0 .581.581 0 0 1 1.163 0zM255.637 76.384a.581.581 0 1 1-1.162.001.581.581 0 0 1 1.162 0zM248.773 76.384a.582.582 0 1 1-1.164 0 .582.582 0 0 1 1.164 0zM241.95 76.385a.581.581 0 1 1-1.163 0 .581.581 0 0 1 1.163 0zM248.773 71.35a.582.582 0 1 1-1.164 0 .582.582 0 0 1 1.164 0zM241.95 71.351a.581.581 0 1 1-1.163 0 .581.581 0 0 1 1.163 0zM248.773 66.317a.582.582 0 1 1-1.164-.001.582.582 0 0 1 1.164 0zM241.95 66.317a.581.581 0 1 1-1.163 0 .581.581 0 0 1 1.163 0zM248.773 86.494a.582.582 0 1 1-1.164 0 .582.582 0 0 1 1.164 0zM241.95 86.494a.581.581 0 1 1-1.162 0 .581.581 0 0 1 1.162 0zM235.085 86.494a.581.581 0 1 1-1.162.001.581.581 0 0 1 1.162 0zM203.467 35.99a.582.582 0 1 1-1.164 0 .582.582 0 0 1 1.164 0zM196.602 35.99a.581.581 0 1 1-1.162.002.581.581 0 0 1 1.162-.001zM189.78 35.991a.582.582 0 1 1-1.164 0 .582.582 0 0 1 1.164 0zM203.467 30.957a.582.582 0 1 1-1.164-.001.582.582 0 0 1 1.164 0zM196.602 30.957a.581.581 0 1 1-1.162 0 .581.581 0 0 1 1.162 0zM189.78 30.957a.582.582 0 1 1-1.164 0 .582.582 0 0 1 1.164 0zM203.467 25.923a.582.582 0 1 1-1.164-.001.582.582 0 0 1 1.164 0zM196.602 25.923a.581.581 0 1 1-1.162 0 .581.581 0 0 1 1.162 0zM189.78 25.923a.582.582 0 1 1-1.164 0 .582.582 0 0 1 1.164 0zM203.467 20.889a.582.582 0 1 1-1.164 0 .582.582 0 0 1 1.164 0zM196.602 20.889a.581.581 0 1 1-1.162 0 .581.581 0 0 1 1.162 0zM189.78 20.889a.582.582 0 1 1-1.164 0 .582.582 0 0 1 1.164 0zM196.603 41.066a.582.582 0 1 1-1.164 0 .582.582 0 0 1 1.164 0zM189.78 41.066a.582.582 0 1 1-1.164 0 .582.582 0 0 1 1.164 0zM182.915 41.067a.581.581 0 1 1-1.162 0 .581.581 0 0 1 1.162 0zM196.603 47.515a.582.582 0 1 1-1.164-.001.582.582 0 0 1 1.164 0zM189.78 47.515a.582.582 0 1 1-1.164-.001.582.582 0 0 1 1.164 0zM182.915 47.515a.581.581 0 1 1-1.162 0 .581.581 0 0 1 1.162 0zM196.603 54.005a.582.582 0 1 1-1.164-.001.582.582 0 0 1 1.164 0zM189.78 54.005a.582.582 0 1 1-1.164-.001.582.582 0 0 1 1.164 0zM182.915 54.005a.581.581 0 1 1-1.162 0 .581.581 0 0 1 1.162 0zM196.603 60.495a.582.582 0 1 1-1.164-.001.582.582 0 0 1 1.164 0zM189.78 60.495a.582.582 0 1 1-1.164-.001.582.582 0 0 1 1.164 0zM182.915 60.495a.581.581 0 1 1-1.163 0 .581.581 0 0 1 1.163 0zM196.603 66.985a.582.582 0 1 1-1.164-.001.582.582 0 0 1 1.164 0zM189.78 66.985a.582.582 0 1 1-1.164-.001.582.582 0 0 1 1.164 0zM182.915 66.985a.581.581 0 1 1-1.163 0 .581.581 0 0 1 1.163 0zM196.603 73.433a.582.582 0 1 1-1.164 0 .582.582 0 0 1 1.164 0zM189.78 73.433a.582.582 0 1 1-1.164 0 .582.582 0 0 1 1.164 0zM182.915 73.433a.581.581 0 1 1-1.162.001.581.581 0 0 1 1.162 0z"/>
    </g>
</svg>
