<svg width="13" height="13" viewBox="0 0 13 13" version="1.1" xmlns="http://www.w3.org/2000/svg" xmlns:xlink="http://www.w3.org/1999/xlink">
  <title>ic-arrow-up</title>
  <desc>Created using Figma</desc>
  <g transform="translate(12 1)">
    <g transform="rotate(90)">
      <path fill="#595F6C" id="path0_fill" d="M 10.6667 4.66667L 2.55333 4.66667L 6.28 0.94L 5.33333 0L 0 5.33333L 5.33333 10.6667L 6.27333 9.72667L 2.55333 6L 10.6667 6L 10.6667 4.66667Z"/>
      <path fill="#595F6C" id="path1_stroke" d="M 10.6667 4.66667L 11.1667 4.66667L 11.1667 4.16667L 10.6667 4.16667L 10.6667 4.66667ZM 2.55333 4.66667L 2.19978 4.31311L 1.34623 5.16667L 2.55333 5.16667L 2.55333 4.66667ZM 6.28 0.94L 6.63355 1.29355L 6.98836 0.938748L 6.6323 0.5852L 6.28 0.94ZM 5.33333 0L 5.68564 -0.3548L 5.33209 -0.70586L 4.97978 -0.353553L 5.33333 0ZM 0 5.33333L -0.353553 4.97978L -0.707107 5.33333L -0.353553 5.68689L 0 5.33333ZM 5.33333 10.6667L 4.97978 11.0202L 5.33333 11.3738L 5.68689 11.0202L 5.33333 10.6667ZM 6.27333 9.72667L 6.62689 10.0802L 6.98012 9.72698L 6.6272 9.37343L 6.27333 9.72667ZM 2.55333 6L 2.55333 5.5L 1.34775 5.5L 2.19946 6.35324L 2.55333 6ZM 10.6667 6L 10.6667 6.5L 11.1667 6.5L 11.1667 6L 10.6667 6ZM 10.6667 4.16667L 2.55333 4.16667L 2.55333 5.16667L 10.6667 5.16667L 10.6667 4.16667ZM 2.90689 5.02022L 6.63355 1.29355L 5.92645 0.586447L 2.19978 4.31311L 2.90689 5.02022ZM 6.6323 0.5852L 5.68564 -0.3548L 4.98103 0.3548L 5.9277 1.2948L 6.6323 0.5852ZM 4.97978 -0.353553L -0.353553 4.97978L 0.353553 5.68689L 5.68689 0.353553L 4.97978 -0.353553ZM -0.353553 5.68689L 4.97978 11.0202L 5.68689 10.3131L 0.353553 4.97978L -0.353553 5.68689ZM 5.68689 11.0202L 6.62689 10.0802L 5.91978 9.37311L 4.97978 10.3131L 5.68689 11.0202ZM 6.6272 9.37343L 2.9072 5.64676L 2.19946 6.35324L 5.91946 10.0799L 6.6272 9.37343ZM 2.55333 6.5L 10.6667 6.5L 10.6667 5.5L 2.55333 5.5L 2.55333 6.5ZM 11.1667 6L 11.1667 4.66667L 10.1667 4.66667L 10.1667 6L 11.1667 6Z"/>
    </g>
  </g>
</svg>
