<svg width="12" height="16" viewBox="0 0 12 16" fill="none" xmlns="http://www.w3.org/2000/svg">
  <path d="M7.37423 0.000257262C7.35907 0.00297294 7.34392 0.00704593 7.33014 0.0111193H1.23455C0.559405 0.0111193 0 0.552862 0 1.2168V14.5771C0 15.3605 0.65861 16 1.455 16H10.5378C11.3342 16 11.9928 15.3605 11.9928 14.5771V4.59489C12.0024 4.54872 12.0024 4.49985 11.9928 4.45368V4.35592C11.9955 4.2636 11.9597 4.17263 11.8936 4.1061L7.83718 0.108877C7.76967 0.0437053 7.67735 0.00840394 7.58366 0.0111193H7.47343C7.44174 0.00297294 7.4073 -0.0011004 7.37423 0.000257262ZM1.23455 0.706288H7.05457V3.60645C7.05457 4.30569 7.63464 4.8773 8.34423 4.8773H11.2873V14.5771C11.2873 14.983 10.9539 15.3048 10.5378 15.3048H1.455C1.0389 15.3048 0.705457 14.983 0.705457 14.5771V1.2168C0.705457 0.930317 0.938313 0.706288 1.23455 0.706288ZM7.76003 1.03215L10.9566 4.18213H8.34423C8.01493 4.18213 7.76003 3.93095 7.76003 3.60645V1.03215ZM3.17456 7.65798V8.35314H8.81821V7.65798H3.17456ZM3.17456 9.04831V9.74348H8.81821V9.04831H3.17456ZM3.17456 10.4387V11.1338H8.81821V10.4387H3.17456ZM3.17456 11.829V12.5242H6.34911V11.829H3.17456Z" fill="#2F80ED"/>
</svg>
