<svg width="22" height="24" viewBox="0 0 22 24" fill="none" xmlns="http://www.w3.org/2000/svg">
<path d="M13.5194 0.000385893C13.4916 0.00445941 13.4638 0.0105689 13.4386 0.0166789H2.26334C1.02558 0.0166789 0 0.829293 0 1.8252V21.8656C0 23.0407 1.20745 24 2.66751 24H19.3192C20.7793 24 21.9867 23.0407 21.9867 21.8656V6.89233C22.0044 6.82309 22.0044 6.74977 21.9867 6.68052V6.53389C21.9918 6.3954 21.9261 6.25894 21.8049 6.15915L14.3682 0.163316C14.2444 0.065558 14.0751 0.0126059 13.9034 0.0166789H13.7013C13.6432 0.00445941 13.58 -0.0016506 13.5194 0.000385893ZM2.26334 1.05943H12.9334V5.40967C12.9334 6.45853 13.9968 7.31595 15.2978 7.31595H20.6934V21.8656C20.6934 22.4746 20.0821 22.9572 19.3192 22.9572H2.66751C1.90464 22.9572 1.29334 22.4746 1.29334 21.8656V1.8252C1.29334 1.39548 1.72024 1.05943 2.26334 1.05943ZM14.2267 1.54822L20.0871 6.2732H15.2978C14.694 6.2732 14.2267 5.89642 14.2267 5.40967V1.54822ZM5.82002 11.487V12.5297H16.1667V11.487H5.82002ZM5.82002 13.5725V14.6152H16.1667V13.5725H5.82002ZM5.82002 15.658V16.7007H16.1667V15.658H5.82002ZM5.82002 17.7435V18.7862H11.64V17.7435H5.82002Z" fill="#2F80ED"/>
</svg>
