<?xml version="1.0" encoding="UTF-8"?>
<svg width="134px" height="55px" viewBox="0 0 134 55" version="1.1" xmlns="http://www.w3.org/2000/svg" xmlns:xlink="http://www.w3.org/1999/xlink">
    <!-- Generator: Sketch 46.2 (44496) - http://www.bohemiancoding.com/sketch -->
    <title>Group</title>
    <desc>Created with Sketch.</desc>
    <defs></defs>
    <g id="Jobs-table" stroke="none" stroke-width="1" fill="none" fill-rule="evenodd">
        <g id="No-results" transform="translate(-720.000000, -450.000000)">
            <g id="Group" transform="translate(719.000000, 444.000000)">
                <g id="spider" transform="translate(89.000000, 21.000000)" fill-rule="nonzero">
                    <path d="M23,20 C22.44727,20 22,19.55273 22,19 L22,1 C22,0.44727 22.44727,0 23,0 C23.55273,0 24,0.44727 24,1 L24,19 C24,19.55273 23.55273,20 23,20 Z" id="Shape" fill="#C6C6C6"></path>
                    <path d="M23,36.0127 C15.83203,36.0127 10,31.97559 10,27.0127 C10,22.04981 15.83203,18.0127 23,18.0127 C30.16797,18.0127 36,22.04981 36,27.0127 C36,31.97559 30.16797,36.0127 23,36.0127 Z" id="Shape" fill="#444444"></path>
                    <path d="M16.8418,21.14453 C16.52637,21.14453 16.21485,20.99512 16.02051,20.7168 C13.95898,17.76367 10.58691,16 7,16 C6.44727,16 6,15.55273 6,15 C6,14.44727 6.44727,14 7,14 C11.23926,14 15.22461,16.08301 17.66113,19.57227 C17.97656,20.02539 17.86621,20.64844 17.41308,20.96485 C17.23926,21.08594 17.03906,21.14453 16.8418,21.14453 Z" id="Shape" fill="#444444"></path>
                    <path d="M1.00098,25.35938 C0.62696,25.35938 0.26758,25.14844 0.09668,24.78809 C-0.14062,24.28907 0.07227,23.69336 0.57129,23.45606 C2.58887,22.49805 4.75098,22.0127 7,22.0127 C8.82031,22.0127 10.59961,22.33497 12.28906,22.97071 C12.80664,23.16505 13.06836,23.74122 12.87304,24.25782 C12.6787,24.7754 12.09863,25.03614 11.58593,24.8418 C8.31445,23.61328 4.59081,23.76172 1.4287,25.2627 C1.29004,25.32812 1.14453,25.35938 1.00098,25.35938 Z" id="Shape" fill="#444444"></path>
                    <path d="M5,40.0127 C4.44727,40.0127 4,39.56543 4,39.0127 C4,34.36329 6.93262,30.19532 11.29688,28.64063 C11.81739,28.45606 12.38965,28.72657 12.5752,29.24708 C12.75977,29.76759 12.48829,30.33985 11.96875,30.5254 C8.39844,31.7959 6,35.20703 6,39.0127 C6,39.56543 5.55273,40.0127 5,40.0127 Z" id="Shape" fill="#444444"></path>
                    <path d="M29.1582,21.14453 C28.96093,21.14453 28.76074,21.08594 28.58691,20.96484 C28.13379,20.64843 28.02343,20.02539 28.33886,19.57226 C30.77539,16.08301 34.76074,14 39,14 C39.55273,14 40,14.44727 40,15 C40,15.55273 39.55273,16 39,16 C35.41309,16 32.04102,17.76367 29.97949,20.7168 C29.78516,20.99512 29.47363,21.14453 29.1582,21.14453 Z" id="Shape" fill="#444444"></path>
                    <path d="M44.99902,25.35938 C44.85547,25.35938 44.70996,25.32813 44.57129,25.2627 C41.41016,23.7627 37.68555,23.61426 34.41406,24.8418 C33.90136,25.03711 33.32031,24.77539 33.12695,24.25782 C32.93164,23.74122 33.19336,23.16505 33.71093,22.97071 C35.40039,22.33496 37.17969,22.0127 39,22.0127 C41.24902,22.0127 43.41113,22.49805 45.42871,23.45606 C45.92773,23.69336 46.14062,24.28907 45.90332,24.78809 C45.73242,25.14844 45.37305,25.35938 44.99902,25.35938 Z" id="Shape" fill="#444444"></path>
                    <path d="M41,40.0127 C40.44727,40.0127 40,39.56543 40,39.0127 C40,35.20704 37.60156,31.7959 34.03125,30.5254 C33.51172,30.33985 33.24023,29.76759 33.4248,29.24708 C33.61035,28.72657 34.17968,28.45606 34.70312,28.64063 C39.06738,30.19531 42,34.36328 42,39.0127 C42,39.56543 41.55273,40.0127 41,40.0127 Z" id="Shape" fill="#444444"></path>
                    <circle id="Oval" fill="#E0E0E0" cx="19.5" cy="25.5" r="1.5"></circle>
                    <circle id="Oval" fill="#E0E0E0" cx="26.5" cy="25.5" r="1.5"></circle>
                </g>
                <text id="No-results." font-family="Lato-Bold, Lato" font-size="24" font-weight="bold" fill="#D1D1D1">
                    <tspan x="0.068" y="24">No results.</tspan>
                </text>
            </g>
        </g>
    </g>
</svg>