<?xml version="1.0" encoding="UTF-8"?>
<svg width="134px" height="56px" viewBox="0 0 134 56" version="1.1" xmlns="http://www.w3.org/2000/svg" xmlns:xlink="http://www.w3.org/1999/xlink">
  <g transform="translate(87.000000, 15.000000)" fill-rule="nonzero">
    <path d="M23,20 C22.44727,20 22,19.55273 22,19 L22,1 C22,0.44727 22.44727,0 23,0 C23.55273,0 24,0.44727 24,1 L24,19 C24,19.55273 23.55273,20 23,20 Z" id="Shape" fill="#C6C6C6"></path>
    <path d="M23,36.0127 C15.83203,36.0127 10,31.97559 10,27.0127 C10,22.04981 15.83203,18.0127 23,18.0127 C30.16797,18.0127 36,22.04981 36,27.0127 C36,31.97559 30.16797,36.0127 23,36.0127 Z" id="Shape" fill="#444444"></path>
    <path d="M16.8418,21.14453 C16.52637,21.14453 16.21485,20.99512 16.02051,20.7168 C13.95898,17.76367 10.58691,16 7,16 C6.44727,16 6,15.55273 6,15 C6,14.44727 6.44727,14 7,14 C11.23926,14 15.22461,16.08301 17.66113,19.57227 C17.97656,20.02539 17.86621,20.64844 17.41308,20.96485 C17.23926,21.08594 17.03906,21.14453 16.8418,21.14453 Z" id="Shape" fill="#444444"></path>
    <path d="M1.00098,25.35938 C0.62696,25.35938 0.26758,25.14844 0.09668,24.78809 C-0.14062,24.28907 0.07227,23.69336 0.57129,23.45606 C2.58887,22.49805 4.75098,22.0127 7,22.0127 C8.82031,22.0127 10.59961,22.33497 12.28906,22.97071 C12.80664,23.16505 13.06836,23.74122 12.87304,24.25782 C12.6787,24.7754 12.09863,25.03614 11.58593,24.8418 C8.31445,23.61328 4.59081,23.76172 1.4287,25.2627 C1.29004,25.32812 1.14453,25.35938 1.00098,25.35938 Z" id="Shape" fill="#444444"></path>
    <path d="M5,40.0127 C4.44727,40.0127 4,39.56543 4,39.0127 C4,34.36329 6.93262,30.19532 11.29688,28.64063 C11.81739,28.45606 12.38965,28.72657 12.5752,29.24708 C12.75977,29.76759 12.48829,30.33985 11.96875,30.5254 C8.39844,31.7959 6,35.20703 6,39.0127 C6,39.56543 5.55273,40.0127 5,40.0127 Z" id="Shape" fill="#444444"></path>
    <path d="M29.1582,21.14453 C28.96093,21.14453 28.76074,21.08594 28.58691,20.96484 C28.13379,20.64843 28.02343,20.02539 28.33886,19.57226 C30.77539,16.08301 34.76074,14 39,14 C39.55273,14 40,14.44727 40,15 C40,15.55273 39.55273,16 39,16 C35.41309,16 32.04102,17.76367 29.97949,20.7168 C29.78516,20.99512 29.47363,21.14453 29.1582,21.14453 Z" id="Shape" fill="#444444"></path>
    <path d="M44.99902,25.35938 C44.85547,25.35938 44.70996,25.32813 44.57129,25.2627 C41.41016,23.7627 37.68555,23.61426 34.41406,24.8418 C33.90136,25.03711 33.32031,24.77539 33.12695,24.25782 C32.93164,23.74122 33.19336,23.16505 33.71093,22.97071 C35.40039,22.33496 37.17969,22.0127 39,22.0127 C41.24902,22.0127 43.41113,22.49805 45.42871,23.45606 C45.92773,23.69336 46.14062,24.28907 45.90332,24.78809 C45.73242,25.14844 45.37305,25.35938 44.99902,25.35938 Z" id="Shape" fill="#444444"></path>
    <path d="M41,40.0127 C40.44727,40.0127 40,39.56543 40,39.0127 C40,35.20704 37.60156,31.7959 34.03125,30.5254 C33.51172,30.33985 33.24023,29.76759 33.4248,29.24708 C33.61035,28.72657 34.17968,28.45606 34.70312,28.64063 C39.06738,30.19531 42,34.36328 42,39.0127 C42,39.56543 41.55273,40.0127 41,40.0127 Z" id="Shape" fill="#444444"></path>
    <circle id="Oval" fill="#E0E0E0" cx="19.5" cy="25.5" r="1.5"></circle>
    <circle id="Oval" fill="#E0E0E0" cx="26.5" cy="25.5" r="1.5"></circle>
  </g>
  <g fill="#D1D1D1">
    <path d="M14.628,0.648 L14.628,18 L12.972,18 C12.7159987,18 12.5020009,17.9580004 12.33,17.874 C12.1579991,17.7899996 11.9920008,17.648001 11.832,17.448 L2.772,5.88 C2.82000024,6.40800264 2.844,6.89599776 2.844,7.344 L2.844,18 L0,18 L0,0.648 L1.692,0.648 C1.82800068,0.648 1.9459995,0.65399994 2.046,0.666 C2.1460005,0.67800006 2.23399962,0.70199982 2.31,0.738 C2.38600038,0.77400018 2.45999964,0.82599966 2.532,0.894 C2.60400036,0.96200034 2.68399956,1.05199944 2.772,1.164 L11.868,12.78 C11.8439999,12.4999986 11.8240001,12.2240014 11.808,11.952 C11.7919999,11.6799986 11.784,11.4280012 11.784,11.196 L11.784,0.648 L14.628,0.648 Z M23.1,5.496 C24.0120046,5.496 24.8419963,5.64399852 25.59,5.94 C26.3380037,6.23600148 26.9779973,6.65599728 27.51,7.2 C28.0420027,7.74400272 28.4519986,8.40799608 28.74,9.192 C29.0280014,9.97600392 29.172,10.8519952 29.172,11.82 C29.172,12.7960049 29.0280014,13.6759961 28.74,14.46 C28.4519986,15.2440039 28.0420027,15.9119972 27.51,16.464 C26.9779973,17.0160028 26.3380037,17.4399985 25.59,17.736 C24.8419963,18.0320015 24.0120046,18.18 23.1,18.18 C22.1799954,18.18 21.3440038,18.0320015 20.592,17.736 C19.8399962,17.4399985 19.1980027,17.0160028 18.666,16.464 C18.1339973,15.9119972 17.7220015,15.2440039 17.43,14.46 C17.1379985,13.6759961 16.992,12.7960049 16.992,11.82 C16.992,10.8519952 17.1379985,9.97600392 17.43,9.192 C17.7220015,8.40799608 18.1339973,7.74400272 18.666,7.2 C19.1980027,6.65599728 19.8399962,6.23600148 20.592,5.94 C21.3440038,5.64399852 22.1799954,5.496 23.1,5.496 Z M23.1,15.9 C24.1240051,15.9 24.8819975,15.5560034 25.374,14.868 C25.8660025,14.1799966 26.112,13.1720066 26.112,11.844 C26.112,10.5159934 25.8660025,9.50400348 25.374,8.808 C24.8819975,8.11199652 24.1240051,7.764 23.1,7.764 C22.0599948,7.764 21.2900025,8.1139965 20.79,8.814 C20.2899975,9.5140035 20.04,10.5239934 20.04,11.844 C20.04,13.1640066 20.2899975,14.1699965 20.79,14.862 C21.2900025,15.5540035 22.0599948,15.9 23.1,15.9 Z M40.068,7.824 C40.4520019,7.08799632 40.9079974,6.5100021 41.436,6.09 C41.9640026,5.6699979 42.5879964,5.46 43.308,5.46 C43.8760028,5.46 44.3319983,5.58399876 44.676,5.832 L44.484,8.052 C44.4439998,8.19600072 44.3860004,8.2979997 44.31,8.358 C44.2339996,8.4180003 44.1320006,8.448 44.004,8.448 C43.8839994,8.448 43.7060012,8.4280002 43.47,8.388 C43.2339988,8.3479998 43.0040011,8.328 42.78,8.328 C42.4519984,8.328 42.1600013,8.37599952 41.904,8.472 C41.6479987,8.56800048 41.418001,8.7059991 41.214,8.886 C41.009999,9.0660009 40.8300008,9.28399872 40.674,9.54 C40.5179992,9.79600128 40.3720007,10.0879984 40.236,10.416 L40.236,18 L37.272,18 L37.272,5.688 L39.012,5.688 C39.3160015,5.688 39.5279994,5.74199946 39.648,5.85 C39.7680006,5.95800054 39.8479998,6.1519986 39.888,6.432 L40.068,7.824 Z M53.808,10.428 C53.808,10.0439981 53.7540005,9.6820017 53.646,9.342 C53.5379995,9.0019983 53.3760011,8.70400128 53.16,8.448 C52.9439989,8.19199872 52.6700017,7.99000074 52.338,7.842 C52.0059983,7.69399926 51.6200022,7.62 51.18,7.62 C50.3239957,7.62 49.6500025,7.86399756 49.158,8.352 C48.6659975,8.84000244 48.3520007,9.53199552 48.216,10.428 L53.808,10.428 Z M48.156,12.216 C48.2040002,12.8480032 48.3159991,13.3939977 48.492,13.854 C48.6680009,14.3140023 48.8999986,14.6939985 49.188,14.994 C49.4760014,15.2940015 49.817998,15.5179993 50.214,15.666 C50.610002,15.8140007 51.0479976,15.888 51.528,15.888 C52.0080024,15.888 52.4219983,15.8320006 52.77,15.72 C53.1180017,15.6079994 53.4219987,15.4840007 53.682,15.348 C53.9420013,15.2119993 54.169999,15.0880006 54.366,14.976 C54.562001,14.8639994 54.7519991,14.808 54.936,14.808 C55.1840012,14.808 55.3679994,14.8999991 55.488,15.084 L56.34,16.164 C56.0119984,16.5480019 55.644002,16.8699987 55.236,17.13 C54.827998,17.3900013 54.4020022,17.5979992 53.958,17.754 C53.5139978,17.9100008 53.0620023,18.0199997 52.602,18.084 C52.1419977,18.1480003 51.6960022,18.18 51.264,18.18 C50.4079957,18.18 49.6120037,18.0380014 48.876,17.754 C48.1399963,17.4699986 47.5000027,17.0500028 46.956,16.494 C46.4119973,15.9379972 45.9840016,15.2500041 45.672,14.43 C45.3599984,13.6099959 45.204,12.6600054 45.204,11.58 C45.204,10.7399958 45.3399986,9.9500037 45.612,9.21 C45.8840014,8.4699963 46.2739975,7.82600274 46.782,7.278 C47.2900025,6.72999726 47.9099963,6.2960016 48.642,5.976 C49.3740037,5.6559984 50.1999954,5.496 51.12,5.496 C51.8960039,5.496 52.6119967,5.61999876 53.268,5.868 C53.9240033,6.11600124 54.4879976,6.47799762 54.96,6.954 C55.4320024,7.43000238 55.8019987,8.01399654 56.07,8.706 C56.3380013,9.39800346 56.472,10.1879956 56.472,11.076 C56.472,11.5240022 56.4240005,11.8259992 56.328,11.982 C56.2319995,12.1380008 56.0480014,12.216 55.776,12.216 L48.156,12.216 Z M66.204,8.088 C66.1239996,8.21600064 66.0400004,8.30599974 65.952,8.358 C65.8639996,8.41000026 65.7520007,8.436 65.616,8.436 C65.4719993,8.436 65.3180008,8.3960004 65.154,8.316 C64.9899992,8.2359996 64.8000011,8.1460005 64.584,8.046 C64.3679989,7.9459995 64.1220014,7.8560004 63.846,7.776 C63.5699986,7.6959996 63.2440019,7.656 62.868,7.656 C62.2839971,7.656 61.8260017,7.77999876 61.494,8.028 C61.1619983,8.27600124 60.996,8.599998 60.996,9 C60.996,9.26400132 61.0819991,9.4859991 61.254,9.666 C61.4260009,9.8460009 61.6539986,10.0039993 61.938,10.14 C62.2220014,10.2760007 62.5439982,10.3979995 62.904,10.506 C63.2640018,10.6140005 63.6299981,10.7319994 64.002,10.86 C64.3740019,10.9880006 64.7399982,11.1339992 65.1,11.298 C65.4600018,11.4620008 65.7819986,11.6699987 66.066,11.922 C66.3500014,12.1740013 66.5779991,12.4759982 66.75,12.828 C66.9220009,13.1800018 67.008,13.6039975 67.008,14.1 C67.008,14.692003 66.9020011,15.2379975 66.69,15.738 C66.4779989,16.2380025 66.1640021,16.6699982 65.748,17.034 C65.3319979,17.3980018 64.8180031,17.681999 64.206,17.886 C63.5939969,18.090001 62.888004,18.192 62.088,18.192 C61.6639979,18.192 61.250002,18.1540004 60.846,18.078 C60.441998,18.0019996 60.0540019,17.8960007 59.682,17.76 C59.3099981,17.6239993 58.9660016,17.4640009 58.65,17.28 C58.3339984,17.0959991 58.0560012,16.8960011 57.816,16.68 L58.5,15.552 C58.5880004,15.4159993 58.6919994,15.3120004 58.812,15.24 C58.9320006,15.1679996 59.0839991,15.132 59.268,15.132 C59.4520009,15.132 59.6259992,15.1839995 59.79,15.288 C59.9540008,15.3920005 60.1439989,15.5039994 60.36,15.624 C60.5760011,15.7440006 60.8299985,15.8559995 61.122,15.96 C61.4140015,16.0640005 61.7839978,16.116 62.232,16.116 C62.5840018,16.116 62.8859987,16.0740004 63.138,15.99 C63.3900013,15.9059996 63.5979992,15.7960007 63.762,15.66 C63.9260008,15.5239993 64.0459996,15.3660009 64.122,15.186 C64.1980004,15.0059991 64.236,14.820001 64.236,14.628 C64.236,14.3399986 64.1500009,14.1040009 63.978,13.92 C63.8059991,13.7359991 63.5780014,13.5760007 63.294,13.44 C63.0099986,13.3039993 62.6860018,13.1820005 62.322,13.074 C61.9579982,12.9659995 61.5860019,12.8480006 61.206,12.72 C60.8259981,12.5919994 60.4540018,12.4420009 60.09,12.27 C59.7259982,12.0979991 59.4020014,11.8800013 59.118,11.616 C58.8339986,11.3519987 58.6060009,11.0280019 58.434,10.644 C58.2619991,10.2599981 58.176,9.79600272 58.176,9.252 C58.176,8.74799748 58.275999,8.26800228 58.476,7.812 C58.676001,7.35599772 58.9699981,6.9580017 59.358,6.618 C59.7460019,6.2779983 60.2299971,6.00600102 60.81,5.802 C61.3900029,5.59799898 62.0599962,5.496 62.82,5.496 C63.6680042,5.496 64.4399965,5.6359986 65.136,5.916 C65.8320035,6.1960014 66.4119977,6.56399772 66.876,7.02 L66.204,8.088 Z M79.848,5.688 L79.848,18 L78.036,18 C77.643998,18 77.3960005,17.8200018 77.292,17.46 L77.088,16.476 C76.5839975,16.9880026 76.028003,17.4019984 75.42,17.718 C74.811997,18.0340016 74.0960041,18.192 73.272,18.192 C72.5999966,18.192 72.0060026,18.0780011 71.49,17.85 C70.9739974,17.6219989 70.5400018,17.3000021 70.188,16.884 C69.8359982,16.4679979 69.5700009,15.9740029 69.39,15.402 C69.2099991,14.8299971 69.12,14.2000034 69.12,13.512 L69.12,5.688 L72.084,5.688 L72.084,13.512 C72.084,14.2640038 72.2579983,14.8459979 72.606,15.258 C72.9540017,15.6700021 73.4759965,15.876 74.172,15.876 C74.6840026,15.876 75.1639978,15.7620011 75.612,15.534 C76.0600022,15.3059989 76.483998,14.992002 76.884,14.592 L76.884,5.688 L79.848,5.688 Z M85.776,0.168 L85.776,18 L82.812,18 L82.812,0.168 L85.776,0.168 Z M92.844,18.192 C91.7719946,18.192 90.9500029,17.890003 90.378,17.286 C89.8059971,16.681997 89.52,15.8480053 89.52,14.784 L89.52,7.908 L88.26,7.908 C88.0999992,7.908 87.9640006,7.85600052 87.852,7.752 C87.7399994,7.64799948 87.684,7.49200104 87.684,7.284 L87.684,6.108 L89.664,5.784 L90.288,2.424 C90.3280002,2.2639992 90.4039994,2.14000044 90.516,2.052 C90.6280006,1.96399956 90.7719991,1.92 90.948,1.92 L92.484,1.92 L92.484,5.796 L95.772,5.796 L95.772,7.908 L92.484,7.908 L92.484,14.58 C92.484,14.9640019 92.5779991,15.2639989 92.766,15.48 C92.9540009,15.6960011 93.2119984,15.804 93.54,15.804 C93.7240009,15.804 93.8779994,15.7820002 94.002,15.738 C94.1260006,15.6939998 94.2339995,15.6480002 94.326,15.6 C94.4180005,15.5519998 94.4999996,15.5060002 94.572,15.462 C94.6440004,15.4179998 94.7159996,15.396 94.788,15.396 C94.8760004,15.396 94.9479997,15.4179998 95.004,15.462 C95.0600003,15.5060002 95.1199997,15.5719996 95.184,15.66 L96.072,17.1 C95.6399978,17.4600018 95.1440028,17.7319991 94.584,17.916 C94.0239972,18.1000009 93.444003,18.192 92.844,18.192 Z M105.18,8.088 C105.1,8.21600064 105.016,8.30599974 104.928,8.358 C104.84,8.41000026 104.728001,8.436 104.592,8.436 C104.447999,8.436 104.294001,8.3960004 104.13,8.316 C103.965999,8.2359996 103.776001,8.1460005 103.56,8.046 C103.343999,7.9459995 103.098001,7.8560004 102.822,7.776 C102.545999,7.6959996 102.220002,7.656 101.844,7.656 C101.259997,7.656 100.802002,7.77999876 100.47,8.028 C100.137998,8.27600124 99.972,8.599998 99.972,9 C99.972,9.26400132 100.057999,9.4859991 100.23,9.666 C100.402001,9.8460009 100.629999,10.0039993 100.914,10.14 C101.198001,10.2760007 101.519998,10.3979995 101.88,10.506 C102.240002,10.6140005 102.605998,10.7319994 102.978,10.86 C103.350002,10.9880006 103.715998,11.1339992 104.076,11.298 C104.436002,11.4620008 104.757999,11.6699987 105.042,11.922 C105.326001,12.1740013 105.553999,12.4759982 105.726,12.828 C105.898001,13.1800018 105.984,13.6039975 105.984,14.1 C105.984,14.692003 105.878001,15.2379975 105.666,15.738 C105.453999,16.2380025 105.140002,16.6699982 104.724,17.034 C104.307998,17.3980018 103.794003,17.681999 103.182,17.886 C102.569997,18.090001 101.864004,18.192 101.064,18.192 C100.639998,18.192 100.226002,18.1540004 99.822,18.078 C99.417998,18.0019996 99.0300019,17.8960007 98.658,17.76 C98.2859981,17.6239993 97.9420016,17.4640009 97.626,17.28 C97.3099984,17.0959991 97.0320012,16.8960011 96.792,16.68 L97.476,15.552 C97.5640004,15.4159993 97.6679994,15.3120004 97.788,15.24 C97.9080006,15.1679996 98.0599991,15.132 98.244,15.132 C98.4280009,15.132 98.6019992,15.1839995 98.766,15.288 C98.9300008,15.3920005 99.1199989,15.5039994 99.336,15.624 C99.5520011,15.7440006 99.8059985,15.8559995 100.098,15.96 C100.390001,16.0640005 100.759998,16.116 101.208,16.116 C101.560002,16.116 101.861999,16.0740004 102.114,15.99 C102.366001,15.9059996 102.573999,15.7960007 102.738,15.66 C102.902001,15.5239993 103.022,15.3660009 103.098,15.186 C103.174,15.0059991 103.212,14.820001 103.212,14.628 C103.212,14.3399986 103.126001,14.1040009 102.954,13.92 C102.781999,13.7359991 102.554001,13.5760007 102.27,13.44 C101.985999,13.3039993 101.662002,13.1820005 101.298,13.074 C100.933998,12.9659995 100.562002,12.8480006 100.182,12.72 C99.8019981,12.5919994 99.4300018,12.4420009 99.066,12.27 C98.7019982,12.0979991 98.3780014,11.8800013 98.094,11.616 C97.8099986,11.3519987 97.5820009,11.0280019 97.41,10.644 C97.2379991,10.2599981 97.152,9.79600272 97.152,9.252 C97.152,8.74799748 97.251999,8.26800228 97.452,7.812 C97.652001,7.35599772 97.9459981,6.9580017 98.334,6.618 C98.7220019,6.2779983 99.2059971,6.00600102 99.786,5.802 C100.366003,5.59799898 101.035996,5.496 101.796,5.496 C102.644004,5.496 103.415997,5.6359986 104.112,5.916 C104.808003,6.1960014 105.387998,6.56399772 105.852,7.02 L105.18,8.088 Z M107.784,16.368 C107.784,16.1199988 107.83,15.8840011 107.922,15.66 C108.014,15.4359989 108.139999,15.2440008 108.3,15.084 C108.460001,14.9239992 108.651999,14.7960005 108.876,14.7 C109.100001,14.6039995 109.339999,14.556 109.596,14.556 C109.852001,14.556 110.089999,14.6039995 110.31,14.7 C110.530001,14.7960005 110.721999,14.9239992 110.886,15.084 C111.050001,15.2440008 111.18,15.4359989 111.276,15.66 C111.372,15.8840011 111.42,16.1199988 111.42,16.368 C111.42,16.6240013 111.372,16.8619989 111.276,17.082 C111.18,17.3020011 111.050001,17.4919992 110.886,17.652 C110.721999,17.8120008 110.530001,17.9379995 110.31,18.03 C110.089999,18.1220005 109.852001,18.168 109.596,18.168 C109.339999,18.168 109.100001,18.1220005 108.876,18.03 C108.651999,17.9379995 108.460001,17.8120008 108.3,17.652 C108.139999,17.4919992 108.014,17.3020011 107.922,17.082 C107.83,16.8619989 107.784,16.6240013 107.784,16.368 Z"></path>
  </g>
</svg>
