<svg width="10" height="10" viewBox="0 0 10 10" fill="none" xmlns="http://www.w3.org/2000/svg">
  <path d="M2.16799 7.11989L0.162175 6.11627C0.114832 6.09226 0.0748103 6.05593 0.0463038 6.01109C0.0177974 5.96626 0.00185654 5.91457 0.000152567 5.86144C-0.00155141 5.80831 0.0110442 5.7557 0.036619 5.70913C0.0621937 5.66255 0.0998056 5.62372 0.145512 5.59672L9.55179 0.0423826C9.59945 0.0136696 9.65423 -0.00100145 9.70983 5.31021e-05C9.76543 0.00110766 9.81961 0.0178451 9.86615 0.0483446C9.91269 0.0788442 9.9497 0.12187 9.97294 0.172484C9.99618 0.223099 10.0047 0.279251 9.99753 0.334497L8.87278 9.35038C8.86658 9.39627 8.84973 9.44007 8.82358 9.47826C8.79744 9.51645 8.76272 9.54796 8.72221 9.57028C8.68171 9.5926 8.63654 9.60509 8.59035 9.60676C8.54415 9.60843 8.49821 9.59923 8.4562 9.5799L6.06089 8.42188C6.00748 8.3956 5.94733 8.3863 5.88851 8.39526C5.82968 8.40421 5.775 8.43097 5.73179 8.47196L4.16547 9.92001C4.12384 9.95904 4.07184 9.9852 4.01573 9.99531C3.95961 10.0054 3.90177 9.99909 3.84917 9.97704C3.79657 9.95499 3.75145 9.91818 3.71925 9.87105C3.68705 9.82391 3.66913 9.76845 3.66766 9.71135V7.72081C3.66757 7.65039 3.6927 7.58228 3.73848 7.52885L8.3958 2.08718L2.49916 7.08233C2.45413 7.12121 2.39844 7.14559 2.33936 7.15229C2.28028 7.15899 2.22056 7.14769 2.16799 7.11989Z" fill="#3A7DE1"/>
</svg>
