<svg width="20" height="23" viewBox="0 0 20 23" fill="none" xmlns="http://www.w3.org/2000/svg">
  <path d="M3.809 16.692C3.809 17.836 3.965 18.863 4.277 19.773C4.589 20.6743 5.031 21.4413 5.603 22.074C6.18367 22.698 6.88133 23.179 7.696 23.517C8.51067 23.8463 9.41633 24.011 10.413 24.011C11.4183 24.011 12.3283 23.8463 13.143 23.517C13.9577 23.179 14.651 22.698 15.223 22.074C15.795 21.4413 16.237 20.6743 16.549 19.773C16.861 18.863 17.017 17.836 17.017 16.692C17.017 15.548 16.861 14.521 16.549 13.611C16.237 12.701 15.795 11.934 15.223 11.31C14.651 10.6773 13.9577 10.192 13.143 9.854C12.3283 9.516 11.4183 9.347 10.413 9.347C9.41633 9.347 8.51067 9.516 7.696 9.854C6.88133 10.192 6.18367 10.6773 5.603 11.31C5.031 11.934 4.589 12.701 4.277 13.611C3.965 14.521 3.809 15.548 3.809 16.692ZM20.462 29.848H18.382C18.07 29.848 17.7927 29.8047 17.55 29.718C17.3073 29.6313 17.0863 29.4797 16.887 29.263L13.624 25.701C12.636 26.0303 11.5657 26.195 10.413 26.195C9.04367 26.195 7.79567 25.9653 6.669 25.506C5.54233 25.038 4.576 24.3837 3.77 23.543C2.964 22.7023 2.34 21.7013 1.898 20.54C1.456 19.37 1.235 18.0873 1.235 16.692C1.235 15.2967 1.456 14.0183 1.898 12.857C2.34 11.687 2.964 10.6817 3.77 9.841C4.576 8.99167 5.54233 8.333 6.669 7.865C7.79567 7.397 9.04367 7.163 10.413 7.163C11.7823 7.163 13.0303 7.397 14.157 7.865C15.2923 8.333 16.263 8.99167 17.069 9.841C17.875 10.6817 18.499 11.687 18.941 12.857C19.383 14.0183 19.604 15.2967 19.604 16.692C19.604 17.5673 19.513 18.3993 19.331 19.188C19.1577 19.9767 18.902 20.7133 18.564 21.398C18.226 22.074 17.8143 22.6893 17.329 23.244C16.8437 23.7987 16.2977 24.2797 15.691 24.687L20.462 29.848Z" transform="translate(-1 -7)" fill="#5F6C87"/>
</svg>
