<svg width="21" height="21" viewBox="0 0 21 21" fill="none" xmlns="http://www.w3.org/2000/svg">
<path fill-rule="evenodd" clip-rule="evenodd" d="M0.660399 16.5275C0.837888 16.0311 1.38421 15.7725 1.88063 15.95L10.501 19.0319L19.1205 15.95C19.6169 15.7725 20.1633 16.0311 20.3408 16.5274C20.5183 17.0238 20.2597 17.5701 19.7633 17.7476L10.8224 20.9443C10.6146 21.0186 10.3875 21.0186 10.1797 20.9444L1.23789 17.7476C0.741462 17.5701 0.48291 17.0239 0.660399 16.5275Z" fill="#242A35"/>
<path fill-rule="evenodd" clip-rule="evenodd" d="M10.1266 0.0761944C10.3654 -0.0254026 10.6353 -0.025398 10.8741 0.0762074L19.8679 3.90291C21.4309 4.56837 21.3569 6.79452 19.7608 7.36148L10.8194 10.5315C10.613 10.6047 10.3877 10.6047 10.1814 10.5315L1.23962 7.36168C-0.356512 6.79472 -0.431281 4.56846 1.13168 3.903L10.1266 0.0761944ZM2.00315 5.60689L10.5003 8.61912L18.9967 5.60689L10.5003 1.99185L2.00315 5.60689Z" fill="#242A35"/>
<path fill-rule="evenodd" clip-rule="evenodd" d="M0.659242 11.3574C0.834933 10.8604 1.38031 10.5998 1.87738 10.7755L10.501 13.8234L19.1238 10.7755C19.6208 10.5998 20.1662 10.8603 20.3419 11.3574C20.5176 11.8544 20.2571 12.3997 19.7601 12.5754L10.8192 15.7357C10.6133 15.8085 10.3888 15.8085 10.1829 15.7357L1.24115 12.5754C0.744078 12.3998 0.483551 11.8544 0.659242 11.3574Z" fill="#242A35"/>
</svg>
