<svg width="24" height="24" fill="none" xmlns="http://www.w3.org/2000/svg">
  <g transform="scale(0.24)">
    <path d="M23.6103 13.5135C23.6103 19.3641 18.9528 24.027 13.3052 24.027C7.65755 24.027 3 19.3641 3 13.5135C3 7.66294 7.65755 3 13.3052 3C18.9528 3 23.6103 7.66294 23.6103 13.5135Z" transform="translate(9)" stroke="#5F6C87" stroke-width="6"/>
    <path d="M23.6103 13.5135C23.6103 19.3641 18.9528 24.027 13.3052 24.027C7.65755 24.027 3 19.3641 3 13.5135C3 7.66294 7.65755 3 13.3052 3C18.9528 3 23.6103 7.66294 23.6103 13.5135Z" transform="translate(58 17)" stroke="#5F6C87" stroke-width="6"/>
    <path d="M23.6103 13.5135C23.6103 19.3641 18.9528 24.027 13.3052 24.027C7.65755 24.027 3 19.3641 3 13.5135C3 7.66294 7.65755 3 13.3052 3C18.9528 3 23.6103 7.66294 23.6103 13.5135Z" transform="translate(70.3896 64.8648)" stroke="#5F6C87" stroke-width="6"/>
    <path fill-rule="evenodd" clip-rule="evenodd" d="M18.5688 0C9.62562 0 0 2.04816 0 6.53759V35.8657C0 40.3551 9.62562 42.4033 18.5688 42.4033C27.5109 42.4033 37.1365 40.3551 37.1365 35.8657V6.53759C37.1365 2.04816 27.5109 0 18.5688 0ZM33.0757 33.6384C33.0757 33.8515 32.393 34.9269 29.2397 35.9223C26.3257 36.8405 22.4333 37.3464 18.2792 37.3464C14.1241 37.3464 10.2306 36.8405 7.31771 35.9223C4.16443 34.9269 3.48166 33.8515 3.48166 33.6384V27.5184C6.61793 29.5525 12.5969 30.5036 18.2792 30.5036C23.9605 30.5036 29.9395 29.5525 33.0757 27.5184V33.6384ZM33.0757 20.6208C33.0757 20.7913 32.393 21.6516 29.2397 22.4479C26.3257 23.1824 22.4333 23.5872 18.2792 23.5872C14.1241 23.5872 10.2306 23.1824 7.31771 22.4479C4.16443 21.6516 3.48166 20.7913 3.48166 20.6208V15.7248C6.61793 17.3521 12.5969 18.113 18.2792 18.113C23.9605 18.113 29.9395 17.3521 33.0757 15.7248V20.6208ZM29.2397 10.2822C26.3257 11.2584 22.4333 11.7936 18.2792 11.7936C14.1241 11.7936 10.2306 11.2584 7.31771 10.2822C4.16443 9.2293 3.48166 8.089 3.48166 7.86309C3.48166 7.63718 4.16443 6.49688 7.31771 5.4413C10.2306 4.4664 14.1241 3.93121 18.2792 3.93121C22.4333 3.93121 26.3257 4.4664 29.2397 5.4413C32.393 6.49688 33.0757 7.63718 33.0757 7.86309C33.0757 8.089 32.393 9.2293 29.2397 10.2822Z" transform="translate(2 56.7567)" fill="#5F6C87"/>
    <path d="M9 22.2885C6.98328 22.0949 4.89987 22 2.84848 22C1.90256 22 0.949829 22.0202 0 22.0609V1C0 0.447723 0.447723 0 1 0H8C8.55228 0 9 0.447708 9 1V22.2885Z" transform="translate(18 32)" fill="#5F6C87"/>
    <path d="M21.5063 6.10711C21.8938 5.71357 21.8938 5.07549 21.5063 4.68195L17.1872 0.295155C16.7997 -0.0983849 16.1715 -0.0983849 15.784 0.295155L0 16.3264C1.84094 17.3814 2.95227 18.7008 2.95227 20.2988V24.8194C3.08392 24.7706 3.2074 24.6926 3.31305 24.5853L21.5063 6.10711Z" transform="translate(39 41)" fill="#5F6C87"/>
    <path d="M0 8V0H22.3043C22.8566 0 23.3043 0.447708 23.3043 1V7C23.3043 7.55229 22.8566 8 22.3043 8H0Z" transform="translate(42 76)" fill="#5F6C87"/>
  </g>
</svg>
