<svg width="24" height="24" viewBox="0 0 24 24" fill="none" xmlns="http://www.w3.org/2000/svg">
  <g class="nc-icon-wrapper" fill="#5f6c87">
    <mask id="glass-mask">
      <rect x="0" y="0" width="29" height="27" fill="white" />
      <ellipse cx="20" cy="18.5" rx="10" ry="10" transform="translate(0.511627 0.757812)" fill="black" />
    </mask>
    <g transform="translate(-1 0) scale(.8)" mask="url(#glass-mask)">
      <path fill="none" stroke="#5f6c87" stroke-width="2" stroke-miterlimit="10" d="M3,4v16c0,1.7,4,3,9,3s9-1.3,9-3V4" stroke-linejoin="round" stroke-linecap="round"/>
      <ellipse fill="none" stroke="#5f6c87" stroke-width="2" stroke-linecap="round" stroke-miterlimit="10" cx="12" cy="4" rx="9" ry="3" stroke-linejoin="round"/>
      <path fill="none" stroke="#5f6c87" stroke-width="2" stroke-linecap="round" stroke-miterlimit="10" d="M21,12c0,1.7-4,3-9,3 s-9-1.3-9-3" stroke-linejoin="round"/>
    </g>
    <g transform="translate(7 7)">
      <path d="M11.7084 6.30808C11.7084 9.23279 9.31811 11.6162 6.35419 11.6162C3.39027 11.6162 1 9.23279 1 6.30808C1 3.38336 3.39027 1 6.35419 1C9.31811 1 11.7084 3.38336 11.7084 6.30808Z" transform="translate(1.6669 1.90472)" stroke="#5F6C87" stroke-width="2" fill="none"/>
      <path fill-rule="evenodd" clip-rule="evenodd" d="M6.15215 0.953115C6.15215 1.47951 5.72543 1.90623 5.19904 1.90623H0.953115C0.426724 1.90623 0 1.47951 0 0.953115C0 0.426724 0.426723 0 0.953114 0H5.19904C5.72543 0 6.15215 0.426724 6.15215 0.953115Z" transform="translate(12.6339 11.3227) scale(1.00364 0.996351) rotate(45)" fill="#5F6C87"/>
    </g>
  </g>
</svg>
