<?xml version="1.0" standalone="no"?>
<!DOCTYPE svg PUBLIC "-//W3C//DTD SVG 20010904//EN"
 "http://www.w3.org/TR/2001/REC-SVG-20010904/DTD/svg10.dtd">
<svg version="1.0" xmlns="http://www.w3.org/2000/svg"
 width="24px" height="24px" viewBox="0 0 900 900"
 preserveAspectRatio="xMidYMid meet">
<metadata>
Created by potrace 1.10, written by Peter Selinger 2001-2011
</metadata>
<g transform="translate(0.000000,900.000000) scale(0.100000,-0.100000)"
fill="#000000" stroke="none">
<path d="M4127 8981 c-3 -13 -16 -20 -43 -24 -105 -13 -348 -76 -479 -124
-137 -51 -358 -156 -396 -189 -8 -8 -19 -14 -24 -14 -25 0 -265 -174 -385
-279 -317 -279 -556 -622 -702 -1006 -58 -153 -58 -153 -109 -355 -40 -161
-57 -343 -65 -696 -9 -367 7 -446 108 -543 157 -151 421 -104 520 94 29 59 38
153 41 475 4 337 8 369 58 575 26 109 78 253 128 355 44 90 50 100 94 168 15
24 27 45 27 48 0 9 122 167 170 219 119 131 331 311 410 348 8 4 29 16 45 27
29 19 200 104 260 129 98 41 240 82 355 102 30 5 84 14 120 21 36 6 139 11
230 11 91 0 194 -5 230 -11 36 -7 90 -16 120 -21 118 -21 209 -47 365 -105 40
-15 203 -95 240 -119 195 -121 328 -230 465 -382 65 -71 174 -219 200 -270 6
-11 19 -33 30 -50 67 -105 156 -328 194 -485 53 -224 50 -161 54 -1230 3 -939
2 -995 -14 -1007 -15 -11 -494 -13 -2500 -13 -2646 0 -2503 3 -2655 -44 -144
-44 -297 -151 -404 -282 -60 -73 -133 -203 -156 -279 -6 -22 -19 -60 -28 -85
-14 -41 -16 -193 -16 -1630 l0 -1585 35 -100 c54 -154 112 -252 204 -348 45
-46 92 -92 106 -103 55 -43 202 -124 227 -124 10 0 41 -12 68 -25 l50 -25
3185 0 3185 0 50 25 c28 13 58 25 68 25 10 0 48 16 85 36 228 124 371 296 453
544 l34 105 0 1575 0 1575 -34 105 c-43 133 -90 222 -166 315 -107 130 -260
237 -404 281 -129 40 -170 44 -424 44 -139 0 -257 4 -264 8 -9 6 -13 242 -17
972 -2 531 -9 1008 -15 1060 -11 113 -37 278 -46 302 -4 9 -13 45 -21 80 -25
107 -31 130 -67 228 -56 156 -155 366 -222 470 -16 25 -35 55 -41 67 -43 79
-251 334 -348 428 -87 83 -194 174 -291 246 -96 72 -198 139 -212 139 -3 0
-14 6 -22 14 -61 52 -368 186 -546 237 -138 40 -308 79 -343 79 -15 0 -26 7
-29 20 -5 20 -14 20 -363 20 -342 0 -358 -1 -363 -19z m3450 -5038 c37 -18 63
-41 88 -77 l35 -51 -2 -1511 -3 -1510 -33 -42 c-19 -23 -55 -55 -80 -70 l-47
-27 -3045 0 -3045 0 -47 27 c-25 15 -61 47 -80 70 l-33 42 -3 1510 -2 1511 35
50 c24 36 51 60 87 78 l52 27 3035 0 3036 0 52 -27z"/>
</g>
</svg>
