<svg width="319" height="200" viewBox="0 0 319 200" version="1.1" xmlns="http://www.w3.org/2000/svg" xmlns:xlink="http://www.w3.org/1999/xlink">
  <title>img-step2</title>
  <desc>Created using Figma</desc>
  <g id="Canvas" transform="translate(-3641 -749)">
    <g id="img-step2">
      <g id="Rectangle 2.3">
        <use xlink:href="#path0_fill" transform="translate(3641 749)" fill="#F6F6F6"/>
      </g>
      <g id="Group">
        <g id="cluster.organization =">
          <use xlink:href="#path1_fill" transform="translate(3726 816)" fill="#338C03"/>
        </g>
        <g id="enterprise.license =">
          <use xlink:href="#path2_fill" transform="translate(3726 894)" fill="#338C03"/>
        </g>
        <g id="&#62; SET CLUSTER SETTING">
          <use xlink:href="#path3_fill" transform="translate(3671 792)" fill="#152849"/>
        </g>
        <g id="&#62; SET CLUSTER SETTING">
          <use xlink:href="#path3_fill" transform="translate(3671 870)" fill="#152849"/>
        </g>
      </g>
    </g>
  </g>
  <defs>
    <path id="path0_fill" fill-rule="evenodd" d="M 0 3C 0 1.34314 1.34315 0 3 0L 316 0C 317.657 0 319 1.34315 319 3L 319 200L 0 200L 0 3Z"/>
    <path id="path1_fill" d="M 7.956 1.632C 7.116 0.66 6.132 0.288 4.98 0.288C 2.364 0.288 0.492 2.064 0.492 4.788C 0.492 7.44 2.364 9.216 4.98 9.216C 6.228 9.216 7.38 8.76 8.148 7.704L 6.9 6.816C 6.336 7.536 5.676 7.848 4.992 7.848C 3.24 7.848 2.076 6.504 2.076 4.692C 2.076 3 3.24 1.656 4.992 1.656C 5.58 1.656 6.156 1.836 6.78 2.496L 7.956 1.632ZM 11.1628 9L 16.2868 9L 16.2868 7.632L 12.6748 7.632L 12.6748 0.504L 11.1628 0.504L 11.1628 9ZM 26.1895 0.504L 24.6775 0.504L 24.6775 5.832C 24.6775 6.672 24.2215 7.776 22.7695 7.776C 21.3175 7.776 20.8615 6.672 20.8615 5.832L 20.8615 0.504L 19.3495 0.504L 19.3495 5.88C 19.3495 7.932 20.8255 9.216 22.7695 9.216C 24.7135 9.216 26.1895 7.932 26.1895 5.88L 26.1895 0.504ZM 35.3137 1.164C 34.6537 0.54 33.7657 0.288 32.8777 0.288C 31.3057 0.288 29.7457 1.104 29.7457 2.856C 29.7457 5.892 33.7777 4.824 33.7777 6.684C 33.7777 7.464 32.9857 7.848 32.2897 7.848C 31.6177 7.848 30.9817 7.524 30.6097 6.96L 29.4697 8.064C 30.1657 8.892 31.1977 9.216 32.2537 9.216C 33.9217 9.216 35.3617 8.328 35.3617 6.504C 35.3617 3.48 31.3297 4.452 31.3297 2.748C 31.3297 1.968 32.0257 1.656 32.7217 1.656C 33.3097 1.656 33.8857 1.872 34.2097 2.328L 35.3137 1.164ZM 40.6763 9L 42.1883 9L 42.1883 1.872L 44.7923 1.872L 44.7923 0.504L 38.0723 0.504L 38.0723 1.872L 40.6763 1.872L 40.6763 9ZM 47.8269 9L 53.6709 9L 53.6709 7.632L 49.3389 7.632L 49.3389 5.328L 53.2389 5.328L 53.2389 3.96L 49.3389 3.96L 49.3389 1.872L 53.4549 1.872L 53.4549 0.504L 47.8269 0.504L 47.8269 9ZM 57.1628 9L 58.6748 9L 58.6748 5.4L 59.7788 5.4L 61.7468 9L 63.5708 9L 61.3148 5.244C 62.5748 5.064 63.2828 4.164 63.2828 2.94C 63.2828 1.032 61.7468 0.504 60.1148 0.504L 57.1628 0.504L 57.1628 9ZM 58.6748 4.104L 58.6748 1.8L 59.9828 1.8C 60.7628 1.8 61.6988 1.92 61.6988 2.928C 61.6988 4.032 60.7028 4.104 59.8508 4.104L 58.6748 4.104ZM 66.5894 8.16C 66.5894 8.676 67.0454 9.072 67.5494 9.072C 68.0774 9.072 68.5094 8.652 68.5094 8.136C 68.5094 7.62 68.0654 7.224 67.5494 7.224C 67.0214 7.224 66.5894 7.644 66.5894 8.16ZM 71.8162 4.788C 71.8162 7.44 73.6882 9.216 76.3042 9.216C 78.9562 9.168 80.8282 7.392 80.8282 4.74C 80.8282 2.016 78.9562 0.24 76.3042 0.288C 73.6882 0.288 71.8162 2.064 71.8162 4.788ZM 73.4002 4.692C 73.4002 3 74.5642 1.656 76.3162 1.656C 78.0802 1.656 79.2442 3 79.2442 4.692C 79.2442 6.504 78.0802 7.848 76.3162 7.848C 74.5642 7.848 73.4002 6.504 73.4002 4.692ZM 84.2683 9L 85.7803 9L 85.7803 5.4L 86.8843 5.4L 88.8523 9L 90.6763 9L 88.4203 5.244C 89.6803 5.064 90.3883 4.164 90.3883 2.94C 90.3883 1.032 88.8523 0.504 87.2203 0.504L 84.2683 0.504L 84.2683 9ZM 85.7803 4.104L 85.7803 1.8L 87.0883 1.8C 87.8683 1.8 88.8043 1.92 88.8043 2.928C 88.8043 4.032 87.8083 4.104 86.9563 4.104L 85.7803 4.104ZM 101.375 4.032L 98.1229 4.032L 98.1229 5.4L 99.8629 5.4L 99.8629 7.404C 99.3349 7.704 98.6389 7.848 97.8709 7.848C 96.1189 7.848 94.9549 6.504 94.9549 4.692C 94.9549 3 96.1189 1.656 97.8709 1.656C 98.7229 1.656 99.5509 1.956 100.091 2.484L 101.207 1.356C 100.319 0.564 99.1549 0.288 97.8589 0.288C 95.2429 0.288 93.3709 2.064 93.3709 4.788C 93.3709 7.44 95.2429 9.216 97.8589 9.216C 99.1669 9.216 100.343 8.928 101.375 8.376L 101.375 4.032ZM 104.219 9L 105.911 9L 106.679 7.056L 110.363 7.056L 111.155 9L 112.883 9L 109.223 0.504L 107.915 0.504L 104.219 9ZM 107.195 5.76L 108.527 2.304L 109.835 5.76L 107.195 5.76ZM 115.827 9L 117.339 9L 117.339 2.484L 117.363 2.484L 121.563 9L 123.483 9L 123.483 0.504L 121.971 0.504L 121.971 6.816L 121.947 6.816L 117.831 0.504L 115.827 0.504L 115.827 9ZM 127.342 9L 128.854 9L 128.854 0.504L 127.342 0.504L 127.342 9ZM 132.19 9L 138.682 9L 138.682 7.632L 134.038 7.632L 138.61 1.872L 138.61 0.504L 132.262 0.504L 132.262 1.872L 136.726 1.872L 132.19 7.632L 132.19 9ZM 141.105 9L 142.797 9L 143.565 7.056L 147.249 7.056L 148.041 9L 149.769 9L 146.109 0.504L 144.801 0.504L 141.105 9ZM 144.081 5.76L 145.413 2.304L 146.721 5.76L 144.081 5.76ZM 153.352 9L 154.864 9L 154.864 1.872L 157.468 1.872L 157.468 0.504L 150.748 0.504L 150.748 1.872L 153.352 1.872L 153.352 9ZM 160.467 9L 161.979 9L 161.979 0.504L 160.467 0.504L 160.467 9ZM 165.387 4.788C 165.387 7.44 167.259 9.216 169.875 9.216C 172.527 9.168 174.399 7.392 174.399 4.74C 174.399 2.016 172.527 0.24 169.875 0.288C 167.259 0.288 165.387 2.064 165.387 4.788ZM 166.971 4.692C 166.971 3 168.135 1.656 169.887 1.656C 171.651 1.656 172.815 3 172.815 4.692C 172.815 6.504 171.651 7.848 169.887 7.848C 168.135 7.848 166.971 6.504 166.971 4.692ZM 177.839 9L 179.351 9L 179.351 2.484L 179.375 2.484L 183.575 9L 185.495 9L 185.495 0.504L 183.983 0.504L 183.983 6.816L 183.959 6.816L 179.843 0.504L 177.839 0.504L 177.839 9ZM 194.736 3.672L 194.736 4.896L 201.24 4.896L 201.24 3.672L 194.736 3.672ZM 194.736 5.832L 194.736 7.056L 201.24 7.056L 201.24 5.832L 194.736 5.832Z"/>
    <path id="path2_fill" d="M 0.948 9L 6.792 9L 6.792 7.632L 2.46 7.632L 2.46 5.328L 6.36 5.328L 6.36 3.96L 2.46 3.96L 2.46 1.872L 6.576 1.872L 6.576 0.504L 0.948 0.504L 0.948 9ZM 10.2839 9L 11.7959 9L 11.7959 2.484L 11.8199 2.484L 16.0199 9L 17.9399 9L 17.9399 0.504L 16.4279 0.504L 16.4279 6.816L 16.4039 6.816L 12.2879 0.504L 10.2839 0.504L 10.2839 9ZM 23.5747 9L 25.0867 9L 25.0867 1.872L 27.6907 1.872L 27.6907 0.504L 20.9707 0.504L 20.9707 1.872L 23.5747 1.872L 23.5747 9ZM 30.7253 9L 36.5693 9L 36.5693 7.632L 32.2373 7.632L 32.2373 5.328L 36.1373 5.328L 36.1373 3.96L 32.2373 3.96L 32.2373 1.872L 36.3533 1.872L 36.3533 0.504L 30.7253 0.504L 30.7253 9ZM 40.0613 9L 41.5733 9L 41.5733 5.4L 42.6773 5.4L 44.6453 9L 46.4693 9L 44.2133 5.244C 45.4733 5.064 46.1813 4.164 46.1813 2.94C 46.1813 1.032 44.6453 0.504 43.0133 0.504L 40.0613 0.504L 40.0613 9ZM 41.5733 4.104L 41.5733 1.8L 42.8813 1.8C 43.6613 1.8 44.5973 1.92 44.5973 2.928C 44.5973 4.032 43.6013 4.104 42.7493 4.104L 41.5733 4.104ZM 49.6199 9L 51.1319 9L 51.1319 5.484L 52.2119 5.484C 54.0119 5.484 55.6079 5.1 55.6079 2.964C 55.6079 1.08 54.1199 0.504 52.4759 0.504L 49.6199 0.504L 49.6199 9ZM 51.1319 4.188L 51.1319 1.8L 52.2119 1.8C 53.0279 1.8 54.0239 1.944 54.0239 2.988C 54.0239 4.14 52.9079 4.188 52.0439 4.188L 51.1319 4.188ZM 58.9558 9L 60.4678 9L 60.4678 5.4L 61.5718 5.4L 63.5398 9L 65.3638 9L 63.1078 5.244C 64.3678 5.064 65.0758 4.164 65.0758 2.94C 65.0758 1.032 63.5398 0.504 61.9078 0.504L 58.9558 0.504L 58.9558 9ZM 60.4678 4.104L 60.4678 1.8L 61.7758 1.8C 62.5558 1.8 63.4918 1.92 63.4918 2.928C 63.4918 4.032 62.4958 4.104 61.6438 4.104L 60.4678 4.104ZM 68.4784 9L 69.9904 9L 69.9904 0.504L 68.4784 0.504L 68.4784 9ZM 79.1223 1.164C 78.4622 0.54 77.5742 0.288 76.6862 0.288C 75.1143 0.288 73.5543 1.104 73.5543 2.856C 73.5543 5.892 77.5862 4.824 77.5862 6.684C 77.5862 7.464 76.7943 7.848 76.0983 7.848C 75.4262 7.848 74.7903 7.524 74.4183 6.96L 73.2782 8.064C 73.9743 8.892 75.0062 9.216 76.0623 9.216C 77.7303 9.216 79.1703 8.328 79.1703 6.504C 79.1703 3.48 75.1383 4.452 75.1383 2.748C 75.1383 1.968 75.8343 1.656 76.5302 1.656C 77.1183 1.656 77.6942 1.872 78.0182 2.328L 79.1223 1.164ZM 82.7449 9L 88.5889 9L 88.5889 7.632L 84.2569 7.632L 84.2569 5.328L 88.1569 5.328L 88.1569 3.96L 84.2569 3.96L 84.2569 1.872L 88.3729 1.872L 88.3729 0.504L 82.7449 0.504L 82.7449 9ZM 91.9488 8.16C 91.9488 8.676 92.4048 9.072 92.9088 9.072C 93.4368 9.072 93.8688 8.652 93.8688 8.136C 93.8688 7.62 93.4248 7.224 92.9088 7.224C 92.3808 7.224 91.9488 7.644 91.9488 8.16ZM 97.6316 9L 102.756 9L 102.756 7.632L 99.1436 7.632L 99.1436 0.504L 97.6316 0.504L 97.6316 9ZM 105.818 9L 107.33 9L 107.33 0.504L 105.818 0.504L 105.818 9ZM 118.202 1.632C 117.362 0.66 116.378 0.288 115.226 0.288C 112.61 0.288 110.738 2.064 110.738 4.788C 110.738 7.44 112.61 9.216 115.226 9.216C 116.474 9.216 117.626 8.76 118.394 7.704L 117.146 6.816C 116.582 7.536 115.922 7.848 115.238 7.848C 113.486 7.848 112.322 6.504 112.322 4.692C 112.322 3 113.486 1.656 115.238 1.656C 115.826 1.656 116.402 1.836 117.026 2.496L 118.202 1.632ZM 121.409 9L 127.253 9L 127.253 7.632L 122.921 7.632L 122.921 5.328L 126.821 5.328L 126.821 3.96L 122.921 3.96L 122.921 1.872L 127.037 1.872L 127.037 0.504L 121.409 0.504L 121.409 9ZM 130.745 9L 132.257 9L 132.257 2.484L 132.281 2.484L 136.481 9L 138.401 9L 138.401 0.504L 136.889 0.504L 136.889 6.816L 136.865 6.816L 132.749 0.504L 130.745 0.504L 130.745 9ZM 147.564 1.164C 146.904 0.54 146.016 0.288 145.128 0.288C 143.556 0.288 141.996 1.104 141.996 2.856C 141.996 5.892 146.028 4.824 146.028 6.684C 146.028 7.464 145.236 7.848 144.54 7.848C 143.868 7.848 143.232 7.524 142.86 6.96L 141.72 8.064C 142.416 8.892 143.448 9.216 144.504 9.216C 146.172 9.216 147.612 8.328 147.612 6.504C 147.612 3.48 143.58 4.452 143.58 2.748C 143.58 1.968 144.276 1.656 144.972 1.656C 145.56 1.656 146.136 1.872 146.46 2.328L 147.564 1.164ZM 151.186 9L 157.03 9L 157.03 7.632L 152.698 7.632L 152.698 5.328L 156.598 5.328L 156.598 3.96L 152.698 3.96L 152.698 1.872L 156.814 1.872L 156.814 0.504L 151.186 0.504L 151.186 9ZM 165.869 3.672L 165.869 4.896L 172.373 4.896L 172.373 3.672L 165.869 3.672ZM 165.869 5.832L 165.869 7.056L 172.373 7.056L 172.373 5.832L 165.869 5.832Z"/>
    <path id="path3_fill" d="M 0.96 2.232L 0.96 3.552L 5.016 5.364L 0.96 7.176L 0.96 8.496L 7.032 5.796L 7.032 4.932L 0.96 2.232ZM 21.759 1.164C 21.099 0.54 20.211 0.288 19.323 0.288C 17.751 0.288 16.191 1.104 16.191 2.856C 16.191 5.892 20.223 4.824 20.223 6.684C 20.223 7.464 19.431 7.848 18.735 7.848C 18.063 7.848 17.427 7.524 17.055 6.96L 15.915 8.064C 16.611 8.892 17.643 9.216 18.699 9.216C 20.367 9.216 21.807 8.328 21.807 6.504C 21.807 3.48 17.775 4.452 17.775 2.748C 17.775 1.968 18.471 1.656 19.167 1.656C 19.755 1.656 20.331 1.872 20.655 2.328L 21.759 1.164ZM 25.3816 9L 31.2256 9L 31.2256 7.632L 26.8936 7.632L 26.8936 5.328L 30.7936 5.328L 30.7936 3.96L 26.8936 3.96L 26.8936 1.872L 31.0096 1.872L 31.0096 0.504L 25.3816 0.504L 25.3816 9ZM 36.4575 9L 37.9695 9L 37.9695 1.872L 40.5735 1.872L 40.5735 0.504L 33.8535 0.504L 33.8535 1.872L 36.4575 1.872L 36.4575 9ZM 56.1669 1.632C 55.3269 0.66 54.3429 0.288 53.1909 0.288C 50.5749 0.288 48.7029 2.064 48.7029 4.788C 48.7029 7.44 50.5749 9.216 53.1909 9.216C 54.4389 9.216 55.5909 8.76 56.3589 7.704L 55.1109 6.816C 54.5469 7.536 53.8869 7.848 53.2029 7.848C 51.4509 7.848 50.2869 6.504 50.2869 4.692C 50.2869 3 51.4509 1.656 53.2029 1.656C 53.7909 1.656 54.3669 1.836 54.9909 2.496L 56.1669 1.632ZM 59.3738 9L 64.4978 9L 64.4978 7.632L 60.8858 7.632L 60.8858 0.504L 59.3738 0.504L 59.3738 9ZM 74.4004 0.504L 72.8884 0.504L 72.8884 5.832C 72.8884 6.672 72.4324 7.776 70.9804 7.776C 69.5284 7.776 69.0724 6.672 69.0724 5.832L 69.0724 0.504L 67.5604 0.504L 67.5604 5.88C 67.5604 7.932 69.0364 9.216 70.9804 9.216C 72.9244 9.216 74.4004 7.932 74.4004 5.88L 74.4004 0.504ZM 83.5246 1.164C 82.8646 0.54 81.9766 0.288 81.0886 0.288C 79.5166 0.288 77.9566 1.104 77.9566 2.856C 77.9566 5.892 81.9886 4.824 81.9886 6.684C 81.9886 7.464 81.1966 7.848 80.5006 7.848C 79.8286 7.848 79.1926 7.524 78.8206 6.96L 77.6806 8.064C 78.3766 8.892 79.4086 9.216 80.4646 9.216C 82.1326 9.216 83.5726 8.328 83.5726 6.504C 83.5726 3.48 79.5406 4.452 79.5406 2.748C 79.5406 1.968 80.2366 1.656 80.9326 1.656C 81.5206 1.656 82.0966 1.872 82.4206 2.328L 83.5246 1.164ZM 88.8872 9L 90.3992 9L 90.3992 1.872L 93.0032 1.872L 93.0032 0.504L 86.2832 0.504L 86.2832 1.872L 88.8872 1.872L 88.8872 9ZM 96.0378 9L 101.882 9L 101.882 7.632L 97.5498 7.632L 97.5498 5.328L 101.45 5.328L 101.45 3.96L 97.5498 3.96L 97.5498 1.872L 101.666 1.872L 101.666 0.504L 96.0378 0.504L 96.0378 9ZM 105.374 9L 106.886 9L 106.886 5.4L 107.99 5.4L 109.958 9L 111.782 9L 109.526 5.244C 110.786 5.064 111.494 4.164 111.494 2.94C 111.494 1.032 109.958 0.504 108.326 0.504L 105.374 0.504L 105.374 9ZM 106.886 4.104L 106.886 1.8L 108.194 1.8C 108.974 1.8 109.91 1.92 109.91 2.928C 109.91 4.032 108.914 4.104 108.062 4.104L 106.886 4.104ZM 125.751 1.164C 125.091 0.54 124.203 0.288 123.315 0.288C 121.743 0.288 120.183 1.104 120.183 2.856C 120.183 5.892 124.215 4.824 124.215 6.684C 124.215 7.464 123.423 7.848 122.727 7.848C 122.055 7.848 121.419 7.524 121.047 6.96L 119.907 8.064C 120.603 8.892 121.635 9.216 122.691 9.216C 124.359 9.216 125.799 8.328 125.799 6.504C 125.799 3.48 121.767 4.452 121.767 2.748C 121.767 1.968 122.463 1.656 123.159 1.656C 123.747 1.656 124.323 1.872 124.647 2.328L 125.751 1.164ZM 129.374 9L 135.218 9L 135.218 7.632L 130.886 7.632L 130.886 5.328L 134.786 5.328L 134.786 3.96L 130.886 3.96L 130.886 1.872L 135.002 1.872L 135.002 0.504L 129.374 0.504L 129.374 9ZM 140.45 9L 141.962 9L 141.962 1.872L 144.566 1.872L 144.566 0.504L 137.846 0.504L 137.846 1.872L 140.45 1.872L 140.45 9ZM 149.34 9L 150.852 9L 150.852 1.872L 153.456 1.872L 153.456 0.504L 146.736 0.504L 146.736 1.872L 149.34 1.872L 149.34 9ZM 156.455 9L 157.967 9L 157.967 0.504L 156.455 0.504L 156.455 9ZM 161.831 9L 163.343 9L 163.343 2.484L 163.367 2.484L 167.567 9L 169.487 9L 169.487 0.504L 167.975 0.504L 167.975 6.816L 167.951 6.816L 163.835 0.504L 161.831 0.504L 161.831 9ZM 180.93 4.032L 177.678 4.032L 177.678 5.4L 179.418 5.4L 179.418 7.404C 178.89 7.704 178.194 7.848 177.426 7.848C 175.674 7.848 174.51 6.504 174.51 4.692C 174.51 3 175.674 1.656 177.426 1.656C 178.278 1.656 179.106 1.956 179.646 2.484L 180.762 1.356C 179.874 0.564 178.71 0.288 177.414 0.288C 174.798 0.288 172.926 2.064 172.926 4.788C 172.926 7.44 174.798 9.216 177.414 9.216C 178.722 9.216 179.898 8.928 180.93 8.376L 180.93 4.032Z"/>
  </defs>
</svg>
