<svg viewBox="0 0 9 9" fill="currentColor" xmlns="http://www.w3.org/2000/svg">
<path fill-rule="evenodd" clip-rule="evenodd" d="M8.25093 5.24941C8.66517 5.24941 9.00098 4.91361 9.00098 4.49937C9.00098 4.08514 8.66517 3.74933 8.25093 3.74933L2.56303 3.74933L5.03196 1.2804C5.32487 0.987492 5.32487 0.512592 5.03196 0.219682C4.73905 -0.0732274 4.26415 -0.0732274 3.97124 0.219682L0.251629 3.9393C0.0975218 4.07667 0.000475883 4.27669 0.000475883 4.49937C0.000475883 4.70661 0.0845242 4.89422 0.220393 5.02997C0.220607 5.03018 0.220821 5.0304 0.221035 5.03061L3.97124 8.78082C4.26415 9.07373 4.73905 9.07373 5.03196 8.78082C5.32487 8.48791 5.32487 8.01301 5.03196 7.7201L2.56128 5.24941L8.25093 5.24941Z" fill="currentColor"/>
</svg>
