<svg width="22" height="22" viewBox="0 0 22 22" fill="none" xmlns="http://www.w3.org/2000/svg">
<path fill-rule="evenodd" clip-rule="evenodd" d="M9 2C5.13428 2 2 5.13428 2 9C2 12.8657 5.13428 16 9 16C12.8657 16 16 12.8657 16 9C16 5.13428 12.8657 2 9 2ZM0 9C0 4.02972 4.02972 0 9 0C13.9703 0 18 4.02972 18 9C18 13.9703 13.9703 18 9 18C4.02972 18 0 13.9703 0 9Z" fill="#242A35"/>
<path fill-rule="evenodd" clip-rule="evenodd" d="M14.2929 14.2929C14.6834 13.9024 15.3166 13.9024 15.7071 14.2929L21.7071 20.2929C22.0976 20.6834 22.0976 21.3166 21.7071 21.7071C21.3166 22.0976 20.6834 22.0976 20.2929 21.7071L14.2929 15.7071C13.9024 15.3166 13.9024 14.6834 14.2929 14.2929Z" fill="#242A35"/>
</svg>
