<svg width="24" height="24" viewBox="0 0 24 24" fill="none" xmlns="http://www.w3.org/2000/svg">
  <path d="M12.24 5.76C10.6337 5.76 9.1275 6.385 7.99625 7.51625C6.865 8.6475 6.24 10.1538 6.24 11.76C6.24 13.3663 6.865 14.8662 7.99625 16.0037C9.1275 17.135 10.64 17.76 12.24 17.76C13.8462 17.76 15.3525 17.135 16.4838 16.0037C17.615 14.8725 18.24 13.3663 18.24 11.76C18.24 10.1538 17.615 8.65375 16.4838 7.51625C15.3525 6.385 13.8462 5.76 12.24 5.76ZM12.24 16.76C9.47125 16.76 7.24 14.5163 7.24 11.76C7.24 9.00375 9.47125 6.76 12.24 6.76C15.0087 6.76 17.24 9.00375 17.24 11.76C17.24 14.5163 15.0087 16.76 12.24 16.76Z" />
  <path d="M22.543 9.49505H21.5925C20.8171 9.49505 20.1668 8.84539 20.1668 8.04581C20.1668 7.64602 20.3356 7.28995 20.6357 7.02134L21.2486 6.42166C21.8551 5.82197 21.8551 4.84747 21.2486 4.24154L19.8541 2.86101C19.5789 2.58615 19.1725 2.42374 18.7598 2.42374C18.3471 2.42374 17.9468 2.58615 17.6655 2.86101L17.0776 3.4482C16.7962 3.76054 16.4085 3.9292 16.0021 3.9292C15.2017 3.9292 14.5201 3.27954 14.5201 2.51119V1.56793C14.5201 0.724622 13.8635 0 13.0193 0H11.1183C10.2553 0 9.56748 0.718376 9.56748 1.56793V2.51744C9.56748 3.28579 8.90464 3.93545 8.10422 3.93545C7.70401 3.93545 7.34132 3.76679 7.06618 3.47319L6.45962 2.8735C6.18447 2.5924 5.77801 2.43623 5.3653 2.43623C4.95258 2.43623 4.55237 2.59865 4.27097 2.8735L2.8765 4.24779C2.27619 4.84748 2.27619 5.82821 2.8765 6.42166L3.4643 7.00885C3.77697 7.28995 3.95206 7.64602 3.95206 8.05206C3.95206 8.85164 3.30172 9.5013 2.52632 9.5013H1.57582C0.719124 9.49505 0 10.1947 0 11.0442V11.9938V12.9433C0 13.7866 0.719124 14.4925 1.57582 14.4925H2.52632C3.30172 14.4925 3.95206 15.1421 3.95206 15.9417C3.95206 16.3415 3.77697 16.71 3.4643 16.9912L2.8765 17.5659C2.27619 18.1655 2.27619 19.14 2.8765 19.7397L4.27097 21.1265C4.54612 21.4076 4.95258 21.5638 5.3653 21.5638C5.77801 21.5638 6.17822 21.4014 6.45962 21.1265L7.06618 20.5268C7.32882 20.2332 7.69776 20.0645 8.09797 20.0645C8.89839 20.0645 9.56123 20.7142 9.56123 21.4826V22.4321C9.56123 23.2754 10.2491 24 11.1058 24H13.0068C13.8572 24 14.5638 23.2816 14.5638 22.4321V21.4826C14.5638 20.7142 15.2204 20.0645 16.0208 20.0645C16.4211 20.0645 16.79 20.2395 17.0776 20.5455L17.6655 21.1327C17.9468 21.4076 18.3471 21.57 18.7598 21.57C19.1725 21.57 19.5727 21.4076 19.8541 21.1327L21.2486 19.746C21.8489 19.1463 21.8489 18.1655 21.2486 17.5659L20.6357 16.9662C20.3356 16.6976 20.1668 16.3165 20.1668 15.923C20.1668 15.1234 20.8171 14.4487 21.5925 14.4487H22.543C23.3934 14.4487 24 13.8053 24 12.9558V11.9938V11.0442C24 10.1947 23.3934 9.49505 22.543 9.49505ZM23.012 11.9938V12.937C23.012 13.1994 22.8682 13.4305 22.5555 13.4305H21.605C20.9609 13.4305 20.3481 13.7054 19.8854 14.1801C19.4289 14.6486 19.1787 15.267 19.1787 15.9167C19.1787 16.5914 19.4539 17.216 19.9604 17.6783L20.5545 18.2655C20.7608 18.4779 20.7608 18.8277 20.5545 19.0338L19.16 20.4206C19.0599 20.5143 18.9161 20.5705 18.766 20.5705C18.6159 20.5705 18.4659 20.5143 18.3721 20.4206L17.803 19.8522C17.3215 19.3462 16.6899 19.0651 16.0208 19.0651C15.3705 19.0651 14.7702 19.3149 14.3012 19.7647C13.826 20.227 13.5758 20.8329 13.5758 21.4826V22.4321C13.5758 22.7382 13.3069 23.0005 13.0193 23.0005H11.1183C10.8306 23.0005 10.5743 22.7382 10.5743 22.4321V21.4826C10.5743 20.8391 10.3179 20.227 9.84263 19.7647C9.37363 19.3149 8.76081 19.0651 8.11673 19.0651C7.45388 19.0651 6.81605 19.3462 6.35956 19.8397L5.77801 20.4206C5.67796 20.5143 5.53413 20.5705 5.38405 20.5705C5.23398 20.5705 5.0839 20.5206 5.00261 20.4331L4.99635 20.4269L4.9901 20.4206L3.59562 19.0338C3.38927 18.8277 3.38927 18.4841 3.59562 18.2717L4.16467 17.7095C4.67744 17.2348 4.95883 16.6039 4.95883 15.9292C4.95883 15.2795 4.7087 14.6861 4.25222 14.2176C3.78947 13.7428 3.17665 13.4992 2.53257 13.4992H1.57582C1.26316 13.4992 1.00052 13.2306 1.00052 12.9495V11.9938V11.0442C1.00052 10.7631 1.26316 10.4945 1.57582 10.4945H2.52632C3.1704 10.4945 3.78322 10.2509 4.24596 9.77616C4.70245 9.30765 4.95258 8.70172 4.95258 8.0583C4.95258 7.38365 4.67118 6.75273 4.15842 6.28423L3.58312 5.71577C3.44555 5.57834 3.42679 5.42218 3.42679 5.33472C3.42679 5.25351 3.44555 5.0911 3.58312 4.95367L4.97134 3.57314C5.07139 3.47944 5.21522 3.42322 5.3653 3.42322C5.51537 3.42322 5.66545 3.47319 5.74674 3.56065L5.753 3.56689L5.75925 3.57314L6.34706 4.16033C6.8098 4.66007 7.43512 4.93493 8.10422 4.93493C8.75456 4.93493 9.36113 4.68506 9.83012 4.23529C10.3054 3.77303 10.568 3.1671 10.568 2.51744V1.56793C10.568 1.26184 10.8181 0.999479 11.0995 0.999479H13.0068C13.2882 0.999479 13.507 1.26184 13.507 1.56793V2.51744C13.507 3.16085 13.7822 3.77303 14.2574 4.23529C14.7264 4.68506 15.3455 4.93493 15.9958 4.93493C16.6712 4.93493 17.309 4.65383 17.7843 4.14784L18.3533 3.57939C18.4534 3.48568 18.5972 3.42946 18.7473 3.42946C18.8973 3.42946 19.0474 3.48568 19.1412 3.57314L20.5357 4.95367C20.6357 5.05362 20.6983 5.19105 20.6983 5.33472C20.6983 5.4784 20.642 5.61582 20.542 5.71577L19.9479 6.30297C19.4476 6.76523 19.1662 7.3899 19.1662 8.06455C19.1662 8.71421 19.4164 9.30765 19.8729 9.77616C20.3356 10.2509 20.9484 10.4945 21.5925 10.4945H22.543C22.8807 10.4945 23.0057 10.8069 23.012 11.0567V11.9938Z" />
</svg>
