<svg width="24" height="24" viewBox="0 0 24 24" fill="none" xmlns="http://www.w3.org/2000/svg">
<g transform="translate(1,1)">
<path d="M11 6C9.66146 6 8.40625 6.52083 7.46354 7.46354C6.52083 8.40625 6 9.66146 6 11C6 12.3385 6.52083 13.5885 7.46354 14.5365C8.40625 15.4792 9.66667 16 11 16C12.3385 16 13.5938 15.4792 14.5365 14.5365C15.4792 13.5937 16 12.3385 16 11C16 9.66146 15.4792 8.41146 14.5365 7.46354C13.5938 6.52083 12.3385 6 11 6ZM11 15.1667C8.69271 15.1667 6.83333 13.2969 6.83333 11C6.83333 8.70313 8.69271 6.83333 11 6.83333C13.3073 6.83333 15.1667 8.70313 15.1667 11C15.1667 13.2969 13.3073 15.1667 11 15.1667Z" fill="black"/>
<path d="M20.6644 8.7038H19.7931C19.0823 8.7038 18.4862 8.10828 18.4862 7.37533C18.4862 7.00885 18.641 6.68246 18.9161 6.43623L19.4779 5.88652C20.0339 5.3368 20.0339 4.44352 19.4779 3.88808L18.1996 2.62259C17.9474 2.37064 17.5748 2.22176 17.1965 2.22176C16.8181 2.22176 16.4513 2.37064 16.1933 2.62259L15.6545 3.16085C15.3966 3.44716 15.0412 3.60177 14.6686 3.60177C13.9349 3.60177 13.3101 3.00625 13.3101 2.30193V1.43727C13.3101 0.664237 12.7082 0 11.9343 0H10.1918C9.40073 0 8.77019 0.658511 8.77019 1.43727V2.30765C8.77019 3.01197 8.16259 3.6075 7.42887 3.6075C7.06201 3.6075 6.72955 3.45289 6.47733 3.18376L5.92131 2.63404C5.6691 2.37637 5.29651 2.23321 4.91819 2.23321C4.53986 2.23321 4.17301 2.38209 3.91506 2.63404L2.63679 3.89381C2.0865 4.44352 2.0865 5.34253 2.63679 5.88652L3.17561 6.42478C3.46222 6.68246 3.62272 7.00885 3.62272 7.38105C3.62272 8.114 3.02658 8.70953 2.31579 8.70953H1.4445C0.659197 8.7038 0 9.34513 0 10.1239V10.9943V11.8647C0 12.6377 0.659197 13.2847 1.4445 13.2847H2.31579C3.02658 13.2847 3.62272 13.8803 3.62272 14.6132C3.62272 14.9797 3.46222 15.3175 3.17561 15.5752L2.63679 16.102C2.0865 16.6517 2.0865 17.545 2.63679 18.0947L3.91506 19.366C4.16727 19.6236 4.53986 19.7668 4.91819 19.7668C5.29651 19.7668 5.66337 19.6179 5.92131 19.366L6.47733 18.8162C6.71808 18.5471 7.05628 18.3925 7.42314 18.3925C8.15685 18.3925 8.76446 18.988 8.76446 19.6923V20.5627C8.76446 21.3358 9.395 22 10.1803 22H11.9229C12.7024 22 13.3502 21.3415 13.3502 20.5627V19.6923C13.3502 18.988 13.9521 18.3925 14.6858 18.3925C15.0526 18.3925 15.3908 18.5528 15.6545 18.8334L16.1933 19.3717C16.4513 19.6236 16.8181 19.7725 17.1965 19.7725C17.5748 19.7725 17.9416 19.6236 18.1996 19.3717L19.4779 18.1005C20.0281 17.5508 20.0281 16.6517 19.4779 16.102L18.9161 15.5523C18.641 15.3061 18.4862 14.9568 18.4862 14.596C18.4862 13.8631 19.0823 13.2447 19.7931 13.2447H20.6644C21.444 13.2447 22 12.6549 22 11.8761V10.9943V10.1239C22 9.34513 21.444 8.7038 20.6644 8.7038ZM21.0943 10.9943V11.8589C21.0943 12.0994 20.9625 12.3113 20.6759 12.3113H19.8046C19.2142 12.3113 18.6524 12.5632 18.2282 12.9984C17.8098 13.4279 17.5805 13.9948 17.5805 14.5903C17.5805 15.2087 17.8327 15.7814 18.297 16.2051L18.8416 16.7434C19.0307 16.9381 19.0307 17.2587 18.8416 17.4477L17.5633 18.7189C17.4716 18.8048 17.3398 18.8563 17.2022 18.8563C17.0646 18.8563 16.927 18.8048 16.8411 18.7189L16.3194 18.1978C15.8781 17.734 15.2991 17.4763 14.6858 17.4763C14.0896 17.4763 13.5393 17.7054 13.1094 18.1176C12.6738 18.5414 12.4445 19.0968 12.4445 19.6923V20.5627C12.4445 20.8433 12.198 21.0838 11.9343 21.0838H10.1918C9.92809 21.0838 9.69307 20.8433 9.69307 20.5627V19.6923C9.69307 19.1025 9.45805 18.5414 9.02241 18.1176C8.5925 17.7054 8.03075 17.4763 7.44033 17.4763C6.83273 17.4763 6.24805 17.734 5.8296 18.1864L5.29651 18.7189C5.20479 18.8048 5.07296 18.8563 4.93538 18.8563C4.79781 18.8563 4.66024 18.8105 4.58572 18.7303L4.57999 18.7246L4.57426 18.7189L3.29599 17.4477C3.10683 17.2587 3.10683 16.9438 3.29599 16.7491L3.81761 16.2337C4.28765 15.7985 4.5456 15.2202 4.5456 14.6018C4.5456 14.0062 4.31631 13.4623 3.89786 13.0328C3.47368 12.5976 2.91193 12.3743 2.32152 12.3743H1.4445C1.15789 12.3743 0.917144 12.1281 0.917144 11.8704V10.9943V10.1239C0.917144 9.86622 1.15789 9.61999 1.4445 9.61999H2.31579C2.9062 9.61999 3.46795 9.39667 3.89213 8.96148C4.31058 8.53201 4.53986 7.97657 4.53986 7.38678C4.53986 6.76835 4.28192 6.19001 3.81188 5.76054L3.28452 5.23946C3.15842 5.11348 3.14122 4.97033 3.14122 4.89016C3.14122 4.81572 3.15842 4.66684 3.28452 4.54086L4.55706 3.27538C4.64878 3.18948 4.78062 3.13795 4.91819 3.13795C5.05576 3.13795 5.19333 3.18376 5.26785 3.26392L5.27358 3.26965L5.27931 3.27538L5.81813 3.81364C6.24231 4.27173 6.81553 4.52369 7.42887 4.52369C8.02501 4.52369 8.58103 4.29464 9.01094 3.88235C9.44659 3.45862 9.68734 2.90318 9.68734 2.30765V1.43727C9.68734 1.15669 9.91662 0.916189 10.1746 0.916189H11.9229C12.1808 0.916189 12.3814 1.15669 12.3814 1.43727V2.30765C12.3814 2.89745 12.6337 3.45862 13.0693 3.88235C13.4992 4.29464 14.0667 4.52369 14.6628 4.52369C15.2819 4.52369 15.8666 4.26601 16.3022 3.80219L16.8239 3.2811C16.9156 3.19521 17.0474 3.14368 17.185 3.14368C17.3226 3.14368 17.4601 3.19521 17.5461 3.27538L18.8244 4.54086C18.9161 4.63248 18.9734 4.75846 18.9734 4.89016C18.9734 5.02186 18.9218 5.14784 18.8301 5.23946L18.2856 5.77772C17.827 6.20146 17.569 6.77408 17.569 7.3925C17.569 7.98803 17.7983 8.53201 18.2168 8.96148C18.641 9.39667 19.2027 9.61999 19.7931 9.61999H20.6644C20.9739 9.61999 21.0886 9.9063 21.0943 10.1353V10.9943Z" fill="black"/>
</g>
</svg>
