<svg xmlns="http://www.w3.org/2000/svg" xmlns:xlink="http://www.w3.org/1999/xlink" version="1.1" style="enable-background:new 0 0 50 50;" xml:space="preserve" width="35" height="35">
<g class="currentLayer" style=""><title>Layer 1</title><g class="selected" fill-opacity="1" fill="#5f6c87"><path d="M9.887842935098258,24.90734261015251 c-3.7656176328106654,0 -6.903632326819554,-3.0460101560550132 -6.903632326819554,-6.784295347577075 c0,-3.7382851915220616 3.0682810341420237,-6.853522851123779 6.903632326819554,-6.853522851123779 s6.903632326819554,3.0460101560550132 6.903632326819554,6.853522851123779 C16.79147526191781,21.861332454097496 13.653460567908922,24.90734261015251 9.887842935098258,24.90734261015251 zM9.887842935098258,13.000212000119276 c-2.859080054541431,0 -5.160290830147949,2.2845076170412595 -5.160290830147949,5.122835262456158 s2.3012107756065174,5.053607758909453 5.160290830147949,5.053607758909453 s5.160290830147949,-2.2845076170412595 5.160290830147949,-5.053607758909453 S12.746922989639685,13.000212000119276 9.887842935098258,13.000212000119276 z" id="svg_1" class="" fill="#5f6c87"/><path d="M9.818109275231395,9.46960931923733 c-2.580145415073975,0 -4.602421551213035,-2.076825106401145 -4.602421551213035,-4.569015234082519 s2.0920097960059376,-4.569015234082519 4.602421551213035,-4.569015234082519 s4.602421551213035,2.076825106401145 4.602421551213035,4.569015234082519 S12.398254690305368,9.46960931923733 9.818109275231395,9.46960931923733 zM9.818109275231395,1.9930389361932064 c-1.6038741769378766,0 -2.859080054541431,1.315322567387394 -2.859080054541431,2.838327645414898 s1.3249395374704191,2.838327645414898 2.859080054541431,2.838327645414898 s2.859080054541431,-1.315322567387394 2.859080054541431,-2.838327645414898 S11.421983452169268,1.9930389361932064 9.818109275231395,1.9930389361932064 z" id="svg_2" class="" fill="#5f6c87"/><path d="M26.83312228274625,10.923386893718131 c-2.580145415073975,0 -4.6721552110799,-2.076825106401145 -4.6721552110799,-4.569015234082519 s2.0920097960059376,-4.569015234082519 4.6721552110799,-4.569015234082519 c2.580145415073975,0 4.602421551213035,2.076825106401145 4.602421551213035,4.569015234082519 S29.413267697820224,10.923386893718131 26.83312228274625,10.923386893718131 zM26.83312228274625,3.446816510674008 c-1.6038741769378766,0 -2.9288137144082955,1.315322567387394 -2.9288137144082955,2.838327645414898 s1.3249395374704191,2.838327645414898 2.9288137144082955,2.838327645414898 s2.859080054541431,-1.315322567387394 2.859080054541431,-2.838327645414898 S28.436996459684124,3.446816510674008 26.83312228274625,3.446816510674008 z" id="svg_3" class="" fill="#5f6c87"/><path d="M27.18179058208057,34.66842061023789 c-2.580145415073975,0 -4.6721552110799,-2.076825106401145 -4.6721552110799,-4.638242737629224 s2.0920097960059376,-4.638242737629224 4.6721552110799,-4.638242737629224 c2.580145415073975,0 4.602421551213035,2.076825106401145 4.602421551213035,4.638242737629224 S29.761935997154545,34.66842061023789 27.18179058208057,34.66842061023789 zM27.18179058208057,27.19185022719377 c-1.6038741769378766,0 -2.9288137144082955,1.315322567387394 -2.9288137144082955,2.9075551489616034 s1.3249395374704191,2.9075551489616034 2.9288137144082955,2.9075551489616034 s2.859080054541431,-1.315322567387394 2.859080054541431,-2.9075551489616034 S28.78566475901845,27.19185022719377 27.18179058208057,27.19185022719377 z" id="svg_4" class="" fill="#5f6c87"/><rect x="9.051039016695885" y="8.98501666236941" width="1.7433414966716043" height="3.1844650971279305" id="svg_5" class="" fill="#5f6c87"/><rect x="17.45876232188688" y="13.81607456081397" transform="matrix(0.568329327914943,-0.4011041555496079,0.404036825268611,0.5642041539056444,-1.2051405579914773,13.215500127325972) " width="15.699999809265137" height="2.5" id="svg_6" class="" fill="#5f6c87"/><rect x="24.877682279938057" y="25.295290339840008" transform="matrix(0.3946925148464512,-0.5707115392390347,0.5748842919424282,0.3918276700743493,-10.109640787370964,26.57024706402435) " width="2.499999999999985" height="16.299999237060426" id="svg_7" class="" fill="#5f6c87"/></g></g></svg>