<svg width="240" height="152" viewBox="0 0 240 152" fill="none" xmlns="http://www.w3.org/2000/svg">
<path d="M157.105 47.0757V75.8016C157.105 81.3 142.673 85.6944 124.843 85.6944C107.013 85.6944 92.6609 81.3 92.6609 75.8016V47.0757C92.6609 52.5669 107.092 56.9685 124.843 56.9685C142.594 56.9685 157.105 52.5308 157.105 47.0757Z" fill="#C0C6D9"/>
<path d="M157.105 18.3134V47.0754C157.105 52.5666 142.673 56.9682 124.843 56.9682C107.013 56.9682 92.6609 52.5666 92.6609 47.0754V18.3134C92.6609 12.815 107.092 8.42065 124.843 8.42065C142.594 8.42065 157.105 12.815 157.105 18.3134Z" fill="#D6DBE7" stroke="#FFFAE5" stroke-width="0.1" stroke-miterlimit="10"/>
<path d="M124.879 28.2136C142.685 28.2136 157.119 23.7812 157.119 18.3136C157.119 12.846 142.685 8.41357 124.879 8.41357C107.074 8.41357 92.6393 12.846 92.6393 18.3136C92.6393 23.7812 107.074 28.2136 124.879 28.2136Z" fill="#7E89A9"/>
<path d="M192 84.54V113.266C192 118.764 177.569 123.159 159.739 123.159C141.908 123.159 127.556 118.764 127.556 113.266V84.54C127.556 90.0312 141.988 94.4256 159.739 94.4256C177.489 94.4256 192 90.0312 192 84.54Z" fill="#C0C6D9"/>
<path d="M192 55.8071V84.5402C192 90.0314 177.569 94.4258 159.739 94.4258C141.908 94.4258 127.556 90.0314 127.556 84.5402V55.8071C127.556 50.3159 141.988 45.9143 159.739 45.9143C177.489 45.9143 192 50.3159 192 55.8071Z" fill="#E7ECF3"/>
<path d="M159.767 65.7068C177.573 65.7068 192.007 61.2744 192.007 55.8068C192.007 50.3391 177.573 45.9067 159.767 45.9067C141.962 45.9067 127.527 50.3391 127.527 55.8068C127.527 61.2744 141.962 65.7068 159.767 65.7068Z" fill="#7E89A9"/>
<path d="M132.124 105.285V134.011C132.124 139.509 117.692 143.904 99.8622 143.904C82.0321 143.904 67.68 139.509 67.68 134.011V105.285C67.68 110.776 82.1115 115.178 99.8622 115.178C117.613 115.178 132.124 110.776 132.124 105.285Z" fill="#D6DBE7" stroke="#FFFAE5" stroke-width="0.1" stroke-miterlimit="10"/>
<path d="M132.124 76.5593V105.285C132.124 110.776 117.692 115.178 99.8622 115.178C82.0321 115.178 67.68 110.776 67.68 105.285V76.5593C67.68 71.0609 82.1115 66.6665 99.8622 66.6665C117.613 66.6665 132.124 71.0609 132.124 76.5593Z" fill="#C0C6D9" stroke="#FFFAE5" stroke-width="0.1" stroke-miterlimit="10"/>
<path d="M99.8911 86.4595C117.697 86.4595 132.131 82.0271 132.131 76.5594C132.131 71.0918 117.697 66.6594 99.8911 66.6594C82.0854 66.6594 67.6511 71.0918 67.6511 76.5594C67.6511 82.0271 82.0854 86.4595 99.8911 86.4595Z" fill="#7E89A9"/>
<path d="M163.657 68.7446H163.735H163.814" stroke="white" stroke-width="0.1" stroke-miterlimit="10"/>
<path d="M205.277 152C207.278 152 208.899 150.378 208.899 148.378C208.899 146.377 207.278 144.755 205.277 144.755C203.277 144.755 201.655 146.377 201.655 148.378C201.655 150.378 203.277 152 205.277 152Z" fill="#7E89A9"/>
<path d="M213.012 130.36C214.013 130.36 214.824 129.549 214.824 128.549C214.824 127.548 214.013 126.738 213.012 126.738C212.012 126.738 211.201 127.548 211.201 128.549C211.201 129.549 212.012 130.36 213.012 130.36Z" fill="#C0C6D9"/>
<path d="M54.201 3.6223C55.2013 3.6223 56.0121 2.81143 56.0121 1.81115C56.0121 0.810882 55.2013 0 54.201 0C53.2007 0 52.3898 0.810882 52.3898 1.81115C52.3898 2.81143 53.2007 3.6223 54.201 3.6223Z" fill="#7E89A9"/>
<path d="M74.1597 9.9868C76.1603 9.9868 77.782 8.36504 77.782 6.3645C77.782 4.36395 76.1603 2.74219 74.1597 2.74219C72.1592 2.74219 70.5374 4.36395 70.5374 6.3645C70.5374 8.36504 72.1592 9.9868 74.1597 9.9868Z" fill="#C0C6D9"/>
<path d="M199.028 16.7478C201.029 16.7478 202.651 15.126 202.651 13.1255C202.651 11.1249 201.029 9.50317 199.028 9.50317C197.028 9.50317 195.406 11.1249 195.406 13.1255C195.406 15.126 197.028 16.7478 199.028 16.7478Z" fill="#7E89A9"/>
<path d="M67.68 60.5547C69.6805 60.5547 71.3023 58.9329 71.3023 56.9324C71.3023 54.9318 69.6805 53.3101 67.68 53.3101C65.6795 53.3101 64.0577 54.9318 64.0577 56.9324C64.0577 58.9329 65.6795 60.5547 67.68 60.5547Z" fill="#7E89A9"/>
<path d="M200.847 102.485C226.686 122.184 241.767 137.886 238.534 143.269C235.201 148.789 213.453 142.222 183.096 127.704C164.732 118.901 143.272 107.248 120.766 93.5378C95.9224 78.4568 73.7989 63.2749 56.8131 50.0484C32.9939 31.6338 19.2839 17.0292 22.4517 11.8843C25.6194 6.73949 44.0123 11.9853 70.3715 24.0212L88.3315 32.6801" stroke="#7E89A9" stroke-opacity="0.3" stroke-width="0.5" stroke-miterlimit="10"/>
</svg>
