<svg width="240" height="153" viewBox="0 0 240 153" fill="none" xmlns="http://www.w3.org/2000/svg">
<path d="M183.209 12.2134H68.5623V140.348H183.209V12.2134Z" fill="#E7ECF3"/>
<path d="M63.573 24.2911C38.7194 11.6069 21.2676 6.19022 18.3982 11.5272C15.5288 16.8641 28.3554 32.3484 50.775 51.7257C66.7921 65.6623 87.6486 81.6572 111.068 97.5563C132.288 111.996 152.524 124.281 169.84 133.559C198.469 148.852 218.969 155.768 222.109 149.952C225.164 144.288 210.939 127.735 186.578 106.978" stroke="#7E89A9" stroke-opacity="0.3" stroke-width="0.5" stroke-miterlimit="10"/>
<path d="M193.658 150.239C196.103 150.239 198.084 148.025 198.084 145.293C198.084 142.562 196.103 140.347 193.658 140.347C191.214 140.347 189.233 142.562 189.233 145.293C189.233 148.025 191.214 150.239 193.658 150.239Z" fill="#C0C6D9"/>
<path d="M54.8507 4.94604C56.0727 4.94604 57.0634 3.83884 57.0634 2.47302C57.0634 1.10721 56.0727 0 54.8507 0C53.6286 0 52.638 1.10721 52.638 2.47302C52.638 3.83884 53.6286 4.94604 54.8507 4.94604Z" fill="#C0C6D9"/>
<path d="M43.8157 59.8313C45.4635 59.8313 46.7993 58.3383 46.7993 56.4967C46.7993 54.6551 45.4635 53.1621 43.8157 53.1621C42.1679 53.1621 40.8321 54.6551 40.8321 56.4967C40.8321 58.3383 42.1679 59.8313 43.8157 59.8313Z" fill="#C0C6D9"/>
<path d="M193.658 116.655C194.88 116.655 195.871 115.547 195.871 114.182C195.871 112.816 194.88 111.708 193.658 111.708C192.436 111.708 191.446 112.816 191.446 114.182C191.446 115.547 192.436 116.655 193.658 116.655Z" fill="#C0C6D9"/>
<path d="M211.567 94.3655C212.789 94.3655 213.78 93.2583 213.78 91.8925C213.78 90.5266 212.789 89.4194 211.567 89.4194C210.345 89.4194 209.354 90.5266 209.354 91.8925C209.354 93.2583 210.345 94.3655 211.567 94.3655Z" fill="#C0C6D9"/>
<path opacity="0.5" d="M64.6722 85.7098H186.97V85.7018L186.763 59.4399L186.97 85.7098L180.268 88.4461L162.766 97.1575H88.2196L69.6544 88.4461L64.6722 85.7098Z" fill="url(#paint0_linear)"/>
<path d="M188.327 59.1052H63.1091V86.0452H188.327V59.1052Z" fill="#7E89A9"/>
<path d="M181.432 68.4707H84.5223V75.9695H181.432V68.4707Z" fill="white"/>
<path d="M75.1861 75.9695C77.0389 75.9695 78.5409 74.2909 78.5409 72.2201C78.5409 70.1494 77.0389 68.4707 75.1861 68.4707C73.3334 68.4707 71.8314 70.1494 71.8314 72.2201C71.8314 74.2909 73.3334 75.9695 75.1861 75.9695Z" fill="white"/>
<path d="M169.519 101.306H80.261V120.699H169.519V101.306Z" fill="#C0C6D9"/>
<path d="M162.909 107.824H93.4587V114.182H162.909V107.824Z" fill="#F5F7FA"/>
<path d="M87.3489 114.19C88.9217 114.19 90.1968 112.765 90.1968 111.007C90.1968 109.249 88.9217 107.824 87.3489 107.824C85.776 107.824 84.5009 109.249 84.5009 111.007C84.5009 112.765 85.776 114.19 87.3489 114.19Z" fill="#F5F7FA"/>
<path d="M169.519 32.4446H80.261V51.8378H169.519V32.4446Z" fill="#C0C6D9"/>
<path d="M162.909 38.9624H93.4587V45.3205H162.909V38.9624Z" fill="#F5F7FA"/>
<path d="M87.3489 45.3201C88.9217 45.3201 90.1968 43.895 90.1968 42.1371C90.1968 40.3792 88.9217 38.9541 87.3489 38.9541C85.776 38.9541 84.5009 40.3792 84.5009 42.1371C84.5009 43.895 85.776 45.3201 87.3489 45.3201Z" fill="#F5F7FA"/>
<defs>
<linearGradient id="paint0_linear" x1="125.821" y1="97.1575" x2="125.821" y2="59.4399" gradientUnits="userSpaceOnUse">
</linearGradient>
</defs>
</svg>
