<svg width="240" height="152" viewBox="0 0 240 152" fill="none" xmlns="http://www.w3.org/2000/svg">
<path d="M237.46 75.0208H228.054C226.829 75.0208 225.836 76.0114 225.836 77.2335V86.5313C225.836 87.7534 226.829 88.744 228.054 88.744H237.46C238.685 88.744 239.678 87.7534 239.678 86.5313V77.2335C239.678 76.0114 238.685 75.0208 237.46 75.0208Z" fill="#7E89A9"/>
<path d="M172 93.4036H161.549C160.324 93.4036 159.331 94.3942 159.331 95.6163V105.957C159.331 107.179 160.324 108.169 161.549 108.169H172C173.225 108.169 174.219 107.179 174.219 105.957V95.6163C174.219 94.3942 173.225 93.4036 172 93.4036Z" fill="#D6DBE7"/>
<path d="M89.1995 93.4036H64.6493C63.4242 93.4036 62.431 94.3942 62.431 95.6163V119.935C62.431 121.157 63.4242 122.148 64.6493 122.148H89.1995C90.4246 122.148 91.4177 121.157 91.4177 119.935V95.6163C91.4177 94.3942 90.4246 93.4036 89.1995 93.4036Z" fill="#D6DBE7"/>
<path d="M55.7762 92.9565H41.7841C40.559 92.9565 39.5659 93.9472 39.5659 95.1693V109.02C39.5659 110.242 40.559 111.233 41.7841 111.233H55.7762C57.0013 111.233 57.9945 110.242 57.9945 109.02V95.1693C57.9945 93.9472 57.0013 92.9565 55.7762 92.9565Z" fill="#C0C6D9"/>
<path d="M231.125 46.6382H227.755C226.53 46.6382 225.537 47.6289 225.537 48.8509V52.1488C225.537 53.3709 226.53 54.3615 227.755 54.3615H231.125C232.351 54.3615 233.344 53.3709 233.344 52.1488V48.8509C233.344 47.6289 232.351 46.6382 231.125 46.6382Z" fill="#D6DBE7"/>
<path d="M213.699 30.9998H194.631C193.406 30.9998 192.412 31.9904 192.412 33.2125V52.106C192.412 53.328 193.406 54.3187 194.631 54.3187H213.699C214.924 54.3187 215.917 53.328 215.917 52.106V33.2125C215.917 31.9904 214.924 30.9998 213.699 30.9998Z" fill="#7E89A9"/>
<path d="M186.099 26H161.549C160.324 26 159.331 26.9907 159.331 28.2128V52.5317C159.331 53.7538 160.324 54.7445 161.549 54.7445H186.099C187.324 54.7445 188.317 53.7538 188.317 52.5317V28.2128C188.317 26.9907 187.324 26 186.099 26Z" fill="#D6DBE7"/>
<path d="M89.1995 26H64.6493C63.4242 26 62.431 26.9907 62.431 28.2128V52.5317C62.431 53.7538 63.4242 54.7445 64.6493 54.7445H89.1995C90.4246 54.7445 91.4177 53.7538 91.4177 52.5317V28.2128C91.4177 26.9907 90.4246 26 89.1995 26Z" fill="#D6DBE7"/>
<path d="M54.4112 38.3186H44.0238C42.7987 38.3186 41.8055 39.3093 41.8055 40.5314V50.8079C41.8055 52.0299 42.7987 53.0206 44.0238 53.0206H54.4112C55.6363 53.0206 56.6295 52.0299 56.6295 50.8079V40.5314C56.6295 39.3093 55.6363 38.3186 54.4112 38.3186Z" fill="#7E89A9"/>
<path d="M219.181 59.595H194.631C193.406 59.595 192.412 60.5857 192.412 61.8077V86.1267C192.412 87.3488 193.406 88.3394 194.631 88.3394H219.181C220.406 88.3394 221.399 87.3488 221.399 86.1267V61.8077C221.399 60.5857 220.406 59.595 219.181 59.595Z" fill="#C0C6D9"/>
<path d="M186.099 60.042H161.549C160.324 60.042 159.331 61.0327 159.331 62.2547V86.5737C159.331 87.7958 160.324 88.7865 161.549 88.7865H186.099C187.324 88.7865 188.317 87.7958 188.317 86.5737V62.2547C188.317 61.0327 187.324 60.042 186.099 60.042Z" fill="#7E89A9"/>
<path d="M89.1995 60.042H64.6493C63.4242 60.042 62.431 61.0327 62.431 62.2547V86.5737C62.431 87.7958 63.4242 88.7865 64.6493 88.7865H89.1995C90.4246 88.7865 91.4177 87.7958 91.4177 86.5737V62.2547C91.4177 61.0327 90.4246 60.042 89.1995 60.042Z" fill="#C0C6D9"/>
<path d="M55.7762 59.595H31.2261C30.001 59.595 29.0078 60.5857 29.0078 61.8077V86.1267C29.0078 87.3488 30.001 88.3394 31.2261 88.3394H55.7762C57.0013 88.3394 57.9945 87.3488 57.9945 86.1267V61.8077C57.9945 60.5857 57.0013 59.595 55.7762 59.595Z" fill="#7E89A9"/>
<path d="M22.0758 60.042H3.73248C2.50737 60.042 1.51422 61.0327 1.51422 62.2547V80.4035C1.51422 81.6256 2.50737 82.6163 3.73248 82.6163H22.0758C23.3009 82.6163 24.294 81.6256 24.294 80.4035V62.2547C24.294 61.0327 23.3009 60.042 22.0758 60.042Z" fill="#D6DBE7"/>
<path d="M138.022 94.6587C137.881 94.6587 137.745 94.6027 137.645 94.5029C137.545 94.4032 137.489 94.2679 137.489 94.1268C137.489 93.9857 137.545 93.8504 137.645 93.7507C137.745 93.6509 137.881 93.5949 138.022 93.5949H142.288C142.434 93.5945 142.574 93.6491 142.681 93.7478C142.788 93.8465 142.853 93.9819 142.864 94.1268C142.867 94.1956 142.856 94.2643 142.832 94.3288C142.807 94.3932 142.77 94.452 142.722 94.5017C142.674 94.5514 142.617 94.5909 142.553 94.6179C142.49 94.6449 142.421 94.6588 142.352 94.6587H138.022ZM133.757 94.6587H129.491C129.349 94.6587 129.214 94.6027 129.114 94.5029C129.014 94.4032 128.957 94.2679 128.957 94.1268C128.963 93.9874 129.021 93.8552 129.119 93.7565C129.218 93.6579 129.351 93.6001 129.491 93.5949H133.757C133.898 93.5949 134.034 93.6509 134.134 93.7507C134.234 93.8504 134.29 93.9857 134.29 94.1268C134.29 94.2679 134.234 94.4032 134.134 94.5029C134.034 94.6027 133.898 94.6587 133.757 94.6587ZM125.076 94.6587H120.81C120.668 94.6587 120.533 94.6027 120.433 94.5029C120.333 94.4032 120.276 94.2679 120.276 94.1268C120.276 93.9857 120.333 93.8504 120.433 93.7507C120.533 93.6509 120.668 93.5949 120.81 93.5949H125.076C125.217 93.5949 125.353 93.6509 125.453 93.7507C125.553 93.8504 125.609 93.9857 125.609 94.1268C125.61 94.2044 125.594 94.2813 125.562 94.3521C125.53 94.4229 125.483 94.4858 125.424 94.5365C125.365 94.5872 125.295 94.6244 125.221 94.6455C125.146 94.6666 125.067 94.6711 124.99 94.6587H125.076ZM116.394 94.6587H112.129C111.987 94.6587 111.851 94.6027 111.751 94.5029C111.651 94.4032 111.595 94.2679 111.595 94.1268C111.595 93.9857 111.651 93.8504 111.751 93.7507C111.851 93.6509 111.987 93.5949 112.129 93.5949H116.394C116.536 93.5949 116.671 93.6509 116.771 93.7507C116.871 93.8504 116.928 93.9857 116.928 94.1268C116.929 94.2044 116.913 94.2813 116.881 94.3521C116.849 94.4229 116.802 94.4858 116.743 94.5365C116.684 94.5872 116.614 94.6244 116.539 94.6455C116.465 94.6666 116.386 94.6711 116.309 94.6587H116.394ZM107.735 94.6587H106.732C106.015 94.6877 105.315 94.4338 104.784 93.952C104.253 93.4702 103.934 92.7992 103.895 92.0843C103.889 91.9466 103.937 91.8121 104.029 91.7089C104.12 91.6057 104.248 91.542 104.386 91.5311C104.524 91.5338 104.657 91.584 104.762 91.6732C104.866 91.7624 104.937 91.8851 104.962 92.0204C104.984 92.4457 105.169 92.8462 105.478 93.1393C105.788 93.4323 106.199 93.5954 106.626 93.5949H107.628C107.762 93.5944 107.892 93.6446 107.991 93.7353C108.09 93.8261 108.151 93.9507 108.161 94.0842C108.167 94.1558 108.158 94.2279 108.135 94.296C108.113 94.3641 108.076 94.4268 108.028 94.4805C107.98 94.5342 107.922 94.5777 107.857 94.6083C107.792 94.6389 107.721 94.6561 107.649 94.6587H107.735ZM144.635 91.5523C144.493 91.5523 144.358 91.4963 144.258 91.3966C144.158 91.2968 144.101 91.1615 144.101 91.0204V86.7652C144.101 86.6241 144.158 86.4888 144.258 86.389C144.358 86.2893 144.493 86.2332 144.635 86.2332C144.776 86.2332 144.912 86.2893 145.012 86.389C145.112 86.4888 145.168 86.6241 145.168 86.7652V91.0204C145.169 91.0981 145.153 91.175 145.121 91.2458C145.089 91.3165 145.042 91.3795 144.983 91.4302C144.924 91.4809 144.854 91.5181 144.78 91.5392C144.705 91.5603 144.626 91.5648 144.549 91.5523H144.635ZM104.429 88.2758C104.356 88.273 104.284 88.256 104.218 88.2256C104.152 88.1953 104.092 88.1522 104.043 88.0988C103.993 88.0455 103.955 87.9829 103.929 87.9147C103.904 87.8465 103.893 87.774 103.895 87.7013V83.446C103.895 83.305 103.952 83.1697 104.052 83.0699C104.152 82.9702 104.287 82.9141 104.429 82.9141C104.57 82.9141 104.706 82.9702 104.806 83.0699C104.906 83.1697 104.962 83.305 104.962 83.446V87.7013C104.968 87.7747 104.958 87.8484 104.934 87.918C104.91 87.9875 104.872 88.0513 104.822 88.1053C104.771 88.1592 104.711 88.2023 104.643 88.2316C104.575 88.261 104.502 88.276 104.429 88.2758ZM144.549 82.8928C144.408 82.8928 144.272 82.8368 144.172 82.7371C144.072 82.6373 144.016 82.502 144.016 82.3609V78.1056C144.016 77.9646 144.072 77.8293 144.172 77.7295C144.272 77.6298 144.408 77.5737 144.549 77.5737C144.691 77.5737 144.826 77.6298 144.926 77.7295C145.026 77.8293 145.082 77.9646 145.082 78.1056V82.3609C145.082 82.502 145.026 82.6373 144.926 82.7371C144.826 82.8368 144.691 82.8928 144.549 82.8928ZM104.429 79.6163C104.304 79.6188 104.182 79.5776 104.085 79.4998C103.987 79.4221 103.92 79.3127 103.895 79.1907V74.9355C103.895 74.7944 103.952 74.6591 104.052 74.5593C104.152 74.4596 104.287 74.4035 104.429 74.4035C104.57 74.4035 104.706 74.4596 104.806 74.5593C104.906 74.6591 104.962 74.7944 104.962 74.9355V79.1907C104.937 79.3127 104.87 79.4221 104.772 79.4998C104.675 79.5776 104.553 79.6188 104.429 79.6163ZM144.549 74.2333C144.408 74.2333 144.272 74.1773 144.172 74.0775C144.072 73.9778 144.016 73.8425 144.016 73.7014V69.4461C144.016 69.3051 144.072 69.1698 144.172 69.07C144.272 68.9703 144.408 68.9142 144.549 68.9142C144.691 68.9142 144.826 68.9703 144.926 69.07C145.026 69.1698 145.082 69.3051 145.082 69.4461V73.7014C145.082 73.8425 145.026 73.9778 144.926 74.0775C144.826 74.1773 144.691 74.2333 144.549 74.2333ZM104.429 70.9568C104.287 70.9568 104.152 70.9007 104.052 70.801C103.952 70.7012 103.895 70.5659 103.895 70.4249V66.1696C103.895 66.0285 103.952 65.8932 104.052 65.7935C104.152 65.6937 104.287 65.6377 104.429 65.6377C104.57 65.6377 104.706 65.6937 104.806 65.7935C104.906 65.8932 104.962 66.0285 104.962 66.1696V70.4249C104.962 70.5659 104.906 70.7012 104.806 70.801C104.706 70.9007 104.57 70.9568 104.429 70.9568ZM144.549 65.5951C144.408 65.5951 144.272 65.5391 144.172 65.4393C144.072 65.3396 144.016 65.2043 144.016 65.0632V60.8079C144.016 60.6668 144.072 60.5315 144.172 60.4318C144.272 60.332 144.408 60.276 144.549 60.276C144.691 60.276 144.826 60.332 144.926 60.4318C145.026 60.5315 145.082 60.6668 145.082 60.8079V65.0632C145.082 65.2043 145.026 65.3396 144.926 65.4393C144.826 65.5391 144.691 65.5951 144.549 65.5951ZM104.429 62.3185C104.289 62.3133 104.156 62.2555 104.057 62.1569C103.959 62.0583 103.901 61.926 103.895 61.7866V57.5313C103.895 57.3903 103.952 57.255 104.052 57.1552C104.152 57.0555 104.287 56.9994 104.429 56.9994C104.57 56.9994 104.706 57.0555 104.806 57.1552C104.906 57.255 104.962 57.3903 104.962 57.5313V61.7866C104.962 61.9277 104.906 62.063 104.806 62.1627C104.706 62.2625 104.57 62.3185 104.429 62.3185ZM144.549 56.9356C144.415 56.936 144.285 56.8859 144.187 56.7951C144.088 56.7044 144.027 56.5798 144.016 56.4462C143.984 56.0229 143.792 55.6275 143.479 55.3394C143.167 55.0513 142.757 54.8918 142.331 54.8931H141.307C141.166 54.8931 141.03 54.837 140.93 54.7373C140.83 54.6375 140.774 54.5022 140.774 54.3612C140.774 54.2201 140.83 54.0848 140.93 53.985C141.03 53.8853 141.166 53.8292 141.307 53.8292H142.288C142.983 53.8272 143.652 54.0869 144.162 54.5565C144.673 55.0261 144.986 55.6707 145.04 56.3611C145.046 56.431 145.038 56.5014 145.016 56.5682C144.995 56.6349 144.96 56.6968 144.914 56.7502C144.869 56.8036 144.813 56.8474 144.75 56.8793C144.688 56.9111 144.619 56.9302 144.549 56.9356ZM136.977 54.808H132.711C132.57 54.808 132.434 54.7519 132.334 54.6522C132.234 54.5524 132.178 54.4171 132.178 54.2761C132.178 54.135 132.234 53.9997 132.334 53.8999C132.434 53.8002 132.57 53.7441 132.711 53.7441H136.977C137.119 53.7441 137.254 53.8002 137.354 53.8999C137.454 53.9997 137.511 54.135 137.511 54.2761C137.511 54.4171 137.454 54.5524 137.354 54.6522C137.254 54.7519 137.119 54.808 136.977 54.808ZM128.296 54.808H124.03C123.889 54.808 123.753 54.7519 123.653 54.6522C123.553 54.5524 123.497 54.4171 123.497 54.2761C123.497 54.135 123.553 53.9997 123.653 53.8999C123.753 53.8002 123.889 53.7441 124.03 53.7441H128.296C128.438 53.7441 128.573 53.8002 128.673 53.8999C128.773 53.9997 128.829 54.135 128.829 54.2761C128.829 54.4171 128.773 54.5524 128.673 54.6522C128.573 54.7519 128.438 54.808 128.296 54.808ZM119.637 54.808H115.371C115.229 54.808 115.094 54.7519 114.994 54.6522C114.894 54.5524 114.837 54.4171 114.837 54.2761C114.837 54.135 114.894 53.9997 114.994 53.8999C115.094 53.8002 115.229 53.7441 115.371 53.7441H119.637C119.778 53.7441 119.914 53.8002 120.014 53.8999C120.114 53.9997 120.17 54.135 120.17 54.2761C120.17 54.4171 120.114 54.5524 120.014 54.6522C119.914 54.7519 119.778 54.808 119.637 54.808ZM110.955 54.808H106.69C106.548 54.808 106.412 54.7519 106.312 54.6522C106.212 54.5524 106.156 54.4171 106.156 54.2761C106.153 54.2072 106.165 54.1385 106.189 54.0741C106.213 54.0097 106.251 53.9508 106.298 53.9011C106.346 53.8514 106.404 53.8119 106.467 53.7849C106.531 53.758 106.599 53.7441 106.668 53.7441H110.934C111.076 53.7441 111.211 53.8002 111.311 53.8999C111.411 53.9997 111.467 54.135 111.467 54.2761C111.467 54.4171 111.411 54.5524 111.311 54.6522C111.211 54.7519 111.076 54.808 110.934 54.808H110.955Z" fill="#7E89A9"/>
<path d="M125.033 108.659C118.028 108.663 111.18 106.595 105.354 102.715C99.5279 98.8361 94.9864 93.3202 92.3039 86.8657C89.6214 80.4111 88.9184 73.3079 90.2839 66.4547C91.6494 59.6016 95.022 53.3064 99.975 48.3657C104.928 43.425 111.239 40.0607 118.109 38.6986C124.979 37.3365 132.1 38.0377 138.571 40.7136C145.042 43.3894 150.571 47.9196 154.46 53.731C158.349 59.5425 160.423 66.3739 160.418 73.3612C160.407 82.7192 156.675 91.6907 150.042 98.3079C143.408 104.925 134.414 108.647 125.033 108.659ZM125.033 40.1699C118.451 40.1657 112.016 42.1088 106.541 45.7533C101.066 49.3978 96.7982 54.5801 94.2765 60.6447C91.7548 66.7092 91.0928 73.3835 92.3743 79.8234C93.6558 86.2633 96.8231 92.1794 101.476 96.8234C106.128 101.467 112.057 104.631 118.512 105.913C124.967 107.195 131.659 106.539 137.74 104.028C143.821 101.516 149.019 97.2622 152.676 91.8034C156.333 86.3447 158.285 79.9267 158.285 73.3612C158.28 64.5637 154.775 56.1279 148.541 49.9051C142.307 43.6824 133.852 40.1812 125.033 40.1699Z" fill="#7E89A9"/>
<path d="M165.857 143.765C165.677 143.765 165.499 143.717 165.342 143.628C165.185 143.538 165.054 143.41 164.962 143.255L140.945 104.723C140.867 104.605 140.815 104.473 140.79 104.334C140.765 104.196 140.769 104.053 140.801 103.916C140.833 103.779 140.892 103.65 140.975 103.536C141.059 103.422 141.164 103.327 141.286 103.255C141.528 103.11 141.816 103.065 142.091 103.129C142.365 103.192 142.604 103.359 142.758 103.595L166.775 142.127C166.848 142.247 166.897 142.38 166.919 142.519C166.94 142.658 166.934 142.8 166.9 142.936C166.866 143.073 166.806 143.201 166.722 143.314C166.638 143.427 166.533 143.523 166.412 143.595C166.246 143.702 166.054 143.761 165.857 143.765Z" fill="#7E89A9"/>
<path d="M231.062 93.7651H228.438C227.213 93.7651 226.22 94.7558 226.22 95.9779V98.5523C226.22 99.7744 227.213 100.765 228.438 100.765H231.062C232.287 100.765 233.28 99.7744 233.28 98.5523V95.9779C233.28 94.7558 232.287 93.7651 231.062 93.7651Z" fill="#D6DBE7"/>
</svg>
