<svg width="3" height="13" viewBox="0 0 3 13" fill="none" xmlns="http://www.w3.org/2000/svg">
  <path d="M2.76136 0V5.05506C2.76136 5.5971 2.73011 6.13619 2.66761 6.67233C2.60511 7.20258 2.52273 7.74462 2.42045 8.29844H0.630682C0.528409 7.74462 0.446023 7.20258 0.383523 6.67233C0.321023 6.13619 0.289773 5.5971 0.289773 5.05506V0H2.76136ZM0 11.4888C0 11.2767 0.0369319 11.0793 0.110795 10.8967C0.190341 10.714 0.295455 10.555 0.426136 10.4194C0.5625 10.2839 0.721591 10.1779 0.903409 10.1013C1.08523 10.0188 1.28409 9.97757 1.5 9.97757C1.71023 9.97757 1.90625 10.0188 2.08807 10.1013C2.26989 10.1779 2.42898 10.2839 2.56534 10.4194C2.7017 10.555 2.80682 10.714 2.88068 10.8967C2.96023 11.0793 3 11.2767 3 11.4888C3 11.7009 2.96023 11.9012 2.88068 12.0897C2.80682 12.2724 2.7017 12.4315 2.56534 12.567C2.42898 12.7025 2.26989 12.8085 2.08807 12.8851C1.90625 12.9617 1.71023 13 1.5 13C1.28409 13 1.08523 12.9617 0.903409 12.8851C0.721591 12.8085 0.5625 12.7025 0.426136 12.567C0.295455 12.4315 0.190341 12.2724 0.110795 12.0897C0.0369319 11.9012 0 11.7009 0 11.4888Z" fill="#FF5367"/>
</svg>
